<?xml version="1.0" encoding="utf-8"?>
<!-- Generator: Adobe Illustrator 26.4.1, SVG Export Plug-In . SVG Version: 6.00 Build 0)  -->
<svg version="1.1" id="Layer_1" xmlns="http://www.w3.org/2000/svg" xmlns:xlink="http://www.w3.org/1999/xlink" x="0px" y="0px"
	 viewBox="0 0 268 268" style="enable-background:new 0 0 268 268;" xml:space="preserve">
<style type="text/css">
	.st0{clip-path:url(#SVGID_00000082346137426264288960000012985520727958286231_);}
	.st1{clip-path:url(#SVGID_00000116957766066272410390000007697067354100079546_);}
	.st2{opacity:0;clip-path:url(#SVGID_00000086650123995110738370000014770979181386511288_);}
	.st3{clip-path:url(#SVGID_00000171717568313461412480000003735268682068304263_);fill:#FFFFFF;}
	.st4{clip-path:url(#SVGID_00000121990645085865635210000003957608185757872019_);}
	.st5{enable-background:new    ;}
	.st6{fill:#618CC7;}
	.st7{clip-path:url(#SVGID_00000152229694021157987790000015256834979701809595_);}
	.st8{opacity:0;clip-path:url(#SVGID_00000000215951724506767840000006114024125742187404_);}
	.st9{clip-path:url(#SVGID_00000183958438998124690260000000703685626883777681_);fill:#FFFFFF;}
	.st10{clip-path:url(#SVGID_00000160907185929483664090000003233480400110255782_);}
	.st11{clip-path:url(#SVGID_00000148635625557492897870000016434385361273830534_);}
	
		.st12{clip-path:url(#SVGID_00000177478007449773727820000001543461621737511844_);fill:url(#SVGID_00000003793188475866219930000014819697877254675360_);}
	.st13{clip-path:url(#SVGID_00000088127927209744577000000014049596871207978163_);}
	.st14{clip-path:url(#SVGID_00000145030196401405581280000018027837400007948729_);fill:#8F65D0;}
	.st15{clip-path:url(#SVGID_00000006667415260334374000000016614753050155733912_);fill:#8F65D0;}
	.st16{clip-path:url(#SVGID_00000146460509000706253380000006833236746576221059_);fill:#8F65D0;}
	.st17{fill:#FFFFFF;fill-opacity:0;}
	.st18{fill:none;stroke:#FF544A;stroke-width:3;stroke-miterlimit:10;}
</style>
<g>
	<g>
		<g>
			<g>
				<defs>
					<rect id="SVGID_1_" x="21.1" y="68.2" width="225.7" height="114.5"/>
				</defs>
				<clipPath id="SVGID_00000018937319332721643170000002635902221986601386_">
					<use xlink:href="#SVGID_1_"  style="overflow:visible;"/>
				</clipPath>
				<g style="clip-path:url(#SVGID_00000018937319332721643170000002635902221986601386_);">
					<g>
						<g>
							<defs>
								<rect id="SVGID_00000008135494625804809500000001793400443054548671_" x="21.1" y="68.2" width="225.7" height="114.5"/>
							</defs>
							<clipPath id="SVGID_00000037660918080886943390000015407264374115700365_">
								<use xlink:href="#SVGID_00000008135494625804809500000001793400443054548671_"  style="overflow:visible;"/>
							</clipPath>
							<g style="clip-path:url(#SVGID_00000037660918080886943390000015407264374115700365_);">
								<g>
									<g>
										<defs>
											<rect id="SVGID_00000047762746642379335770000001699708321009573506_" x="21.1" y="68.2" width="225.7" height="114.5"/>
										</defs>
										<clipPath id="SVGID_00000008143631263473982040000000361001052297086347_">
											<use xlink:href="#SVGID_00000047762746642379335770000001699708321009573506_"  style="overflow:visible;"/>
										</clipPath>
										<g style="opacity:0;clip-path:url(#SVGID_00000008143631263473982040000000361001052297086347_);">
											<g>
												<g>
													<g>
														<defs>
															
																<rect id="SVGID_00000137120618419303658620000003826093984331268245_" x="21.1" y="68.2" width="225.7" height="114.5"/>
														</defs>
														<clipPath id="SVGID_00000063599254058182212150000015575993177262633366_">
															<use xlink:href="#SVGID_00000137120618419303658620000003826093984331268245_"  style="overflow:visible;"/>
														</clipPath>
														
															<rect x="21.1" y="68.2" style="clip-path:url(#SVGID_00000063599254058182212150000015575993177262633366_);fill:#FFFFFF;" width="225.7" height="114.5"/>
													</g>
												</g>
											</g>
										</g>
									</g>
								</g>
							</g>
						</g>
					</g>
					<g>
						<g>
							<defs>
								<rect id="SVGID_00000046309846814599070000000014527544165656968085_" x="21.1" y="68.2" width="225.7" height="114.5"/>
							</defs>
							<clipPath id="SVGID_00000141440971256340089540000009298765899831530382_">
								<use xlink:href="#SVGID_00000046309846814599070000000014527544165656968085_"  style="overflow:visible;"/>
							</clipPath>
							<g style="clip-path:url(#SVGID_00000141440971256340089540000009298765899831530382_);">
								<g class="st5">
									<path class="st6" d="M138.3,144c-1.2,0-2.1-0.3-2.8-1s-1-1.6-1-2.7c0-1.2,0.3-2.1,1-2.8s1.6-1,2.8-1s2.1,0.3,2.8,1
										s1,1.6,1,2.8c0,1.1-0.3,2-1,2.7C140.4,143.7,139.5,144,138.3,144z"/>
									<path class="st6" d="M164.1,144c-2.5,0-4.5-0.8-6-2.5s-2.3-3.9-2.3-6.8v-7.3c0-2.9,0.8-5.2,2.3-6.8s3.5-2.5,6.1-2.5
										c2.1,0,3.7,0.6,5,1.7c1.2,1.1,1.9,2.6,1.9,4.5l-0.8-1h0.9l-0.1-5.7v-7.3h4.1v33.2H171v-4.8h-0.8l0.8-1
										c0,1.9-0.6,3.4-1.9,4.5C167.9,143.5,166.2,144,164.1,144z M165.5,140.5c1.7,0,3-0.5,4-1.6s1.5-2.5,1.5-4.4v-6.8
										c0-1.9-0.5-3.4-1.5-4.4c-1-1.1-2.3-1.6-4-1.6s-3.1,0.5-4.1,1.5s-1.5,2.5-1.5,4.5v6.8c0,1.9,0.5,3.4,1.5,4.5
										C162.4,140,163.8,140.5,165.5,140.5z"/>
									<path class="st6" d="M192.9,144c-2,0-3.7-0.4-5.2-1.2s-2.6-1.9-3.4-3.3c-0.8-1.4-1.2-3.1-1.2-5v-6.8c0-1.9,0.4-3.6,1.2-5
										s1.9-2.5,3.4-3.3s3.2-1.2,5.2-1.2s3.7,0.4,5.2,1.2c1.5,0.8,2.6,1.9,3.4,3.3c0.8,1.4,1.2,3.1,1.2,5v4.4h-15.6v2.4
										c0,2,0.5,3.5,1.5,4.5s2.4,1.6,4.3,1.6c1.6,0,2.9-0.3,3.8-0.8s1.6-1.4,1.8-2.5h4.1c-0.3,2.1-1.3,3.8-3.1,5
										C197.7,143.4,195.5,144,192.9,144z M198.7,129.3v-1.7c0-2-0.5-3.5-1.5-4.5c-1-1.1-2.4-1.6-4.3-1.6c-1.8,0-3.3,0.5-4.3,1.6
										s-1.5,2.6-1.5,4.5v1.3H199L198.7,129.3z"/>
									<path class="st6" d="M217.4,143.6l-8.4-25h4.2l5.6,16.8c0.3,1,0.6,2,0.9,2.9c0.3,0.9,0.5,1.6,0.6,2.2
										c0.2-0.5,0.4-1.2,0.6-2.2c0.3-0.9,0.6-1.9,0.9-2.9l5.4-16.8h4.1l-8.4,25H217.4z"/>
								</g>
							</g>
						</g>
					</g>
					<g>
						<g>
							<defs>
								<rect id="SVGID_00000119095323863736726590000005934509017472810896_" x="21.1" y="68.2" width="225.7" height="114.5"/>
							</defs>
							<clipPath id="SVGID_00000062161423489596004970000006879115451720416665_">
								<use xlink:href="#SVGID_00000119095323863736726590000005934509017472810896_"  style="overflow:visible;"/>
							</clipPath>
							<g style="clip-path:url(#SVGID_00000062161423489596004970000006879115451720416665_);">
								<g>
									<g>
										<defs>
											<rect id="SVGID_00000150786505784347663740000010913578789822560922_" x="21.1" y="68.2" width="225.7" height="114.5"/>
										</defs>
										<clipPath id="SVGID_00000101801806181196332220000017127996770738873222_">
											<use xlink:href="#SVGID_00000150786505784347663740000010913578789822560922_"  style="overflow:visible;"/>
										</clipPath>
										<g style="opacity:0;clip-path:url(#SVGID_00000101801806181196332220000017127996770738873222_);">
											<g>
												<g>
													<g>
														<defs>
															
																<rect id="SVGID_00000077304316974614697170000006238449607271549084_" x="32.1" y="70.7" width="107.8" height="107.8"/>
														</defs>
														<clipPath id="SVGID_00000178178114526573239630000010636320492560909210_">
															<use xlink:href="#SVGID_00000077304316974614697170000006238449607271549084_"  style="overflow:visible;"/>
														</clipPath>
														
															<rect x="32.1" y="70.8" style="clip-path:url(#SVGID_00000178178114526573239630000010636320492560909210_);fill:#FFFFFF;" width="107.7" height="107.7"/>
													</g>
												</g>
												<g>
													<g>
														<defs>
															
																<rect id="SVGID_00000010297309129636379600000000282082878387312567_" x="32.1" y="70.7" width="107.8" height="107.8"/>
														</defs>
														<clipPath id="SVGID_00000062152822149621948790000002490102373094071435_">
															<use xlink:href="#SVGID_00000010297309129636379600000000282082878387312567_"  style="overflow:visible;"/>
														</clipPath>
														<path style="clip-path:url(#SVGID_00000062152822149621948790000002490102373094071435_);" d="M139.8,178.5H32.1V70.8
															h107.7L139.8,178.5L139.8,178.5z M139.9,70.7H32.1v107.8h107.8V70.7z"/>
													</g>
												</g>
											</g>
										</g>
									</g>
								</g>
							</g>
						</g>
					</g>
					<g>
						<g>
							<defs>
								<rect id="SVGID_00000009551002625670031890000002213818104029108150_" x="21.1" y="68.2" width="225.7" height="114.5"/>
							</defs>
							<clipPath id="SVGID_00000140695992472972843880000016266815765504052385_">
								<use xlink:href="#SVGID_00000009551002625670031890000002213818104029108150_"  style="overflow:visible;"/>
							</clipPath>
							<g style="clip-path:url(#SVGID_00000140695992472972843880000016266815765504052385_);">
								<g>
									<g>
										<defs>
											<path id="SVGID_00000093156933083302112680000006454125671323840430_" d="M47.7,81.8c5.2,13,14.2,24.6,26.3,30.1
												c-10.7-3.4-15.5-7.8-21.6-11.4c-4.4-2.6-10.8-7.7-14.8-11.6c-6.2-6.1-5.9-1.6-3.8,3.6c3.4,8.2,12.2,14,18.8,17.8
												c-9.6-3-20.5-14.5-20.1-10.4c0.2,2.4,3.8,7.6,9.3,12.2c3.7,3.1,8.2,5.9,12.9,7.4c-9.6-2.3-15.9-7.6-16.9-7.4
												c-1.7,0.4-1.5,2.2,1.6,6.3c5,6.5,11,9.8,18.9,10.9c-4.2-0.1-7.5-0.7-9.8-1.3c-9-2.1-2.4,2.8,0.4,4.7
												c2.7,2,6.3,3.5,9.8,4.5c4.2,1.1,8.1,2,12.1,2.2c-7,0.5-15.3-0.2-16,1c-1,1.7,3.5,3.7,9.4,4.8c3.3,0.6,5,0.7,9.4,0.4
												c-4.8,0.9-7.1,1.7-7.5,2.4c-1.4,2,9.6,4,17.6,1.2c-3.5,1.5-4.5,2.4-3.5,2.6c0.8,0.1,2.4-0.7,6-1.4
												c-9.8,3.9-2.6,4.8,2.9,3.4c-5.5,2.9,1.7,3.3,4.6,3.3c-3.6,0.8-5.9,1.3-7,2.1c-3,2.1,3.2,3.6,10,1.9
												c-7.9,3.2-7.4,4.1-1.8,5.5c3.1,0.8,5.9,0.3,8.6-0.1c-5.1,1.4,2.1,1.7,3.9,1.1c-2.9,1.6-7.1,0.9-7.5,1.7
												c-0.5,1.2,3,2.6,7.6,2.6c-4,1.4,3.1,1.9,4.6,1.7c-5,2.4,2.1,2.6,7.9,1.3c3.5-0.8,6.9-1.9,8-3.1
												c8.7-0.4,11.7-13.4,11.8-13.8c0.1-0.4-4.9-2.2-9.5-4.3c-3.8-1.8-7.6-4.5-10.5-7.1L108,131.9c-2.6-4-5-8.2-7.5-12.4
												c-2.3-4-4.1-3.6-4.4-2.7c-3.4-3.2-9.4-5-16.5-9.3c-5.3-3.2-11-8-17.4-15.2C57.4,87.1,48,73.7,45.9,73.7l0,0
												C45.1,73.7,45.4,75.9,47.7,81.8"/>
										</defs>
										<clipPath id="SVGID_00000065769150093104366570000005193635275665236910_">
											<use xlink:href="#SVGID_00000093156933083302112680000006454125671323840430_"  style="overflow:visible;"/>
										</clipPath>
										
											<linearGradient id="SVGID_00000143581760475648766400000010167285989188700595_" gradientUnits="userSpaceOnUse" x1="-318.653" y1="266.4995" x2="-317.8108" y2="266.4995" gradientTransform="matrix(58.3073 55.3238 55.3238 -58.3073 3907.6189 33279.5195)">
											<stop  offset="0" style="stop-color:#D6ACF9"/>
											<stop  offset="1" style="stop-color:#9FE3F0"/>
										</linearGradient>
										
											<polygon style="clip-path:url(#SVGID_00000065769150093104366570000005193635275665236910_);fill:url(#SVGID_00000143581760475648766400000010167285989188700595_);" points="
											82.9,19.5 191.2,122.3 88.6,230.5 -19.7,127.7 										"/>
									</g>
								</g>
							</g>
						</g>
					</g>
					<g>
						<g>
							<defs>
								<rect id="SVGID_00000040538684576935210120000017698071876905575100_" x="21.1" y="68.2" width="225.7" height="114.5"/>
							</defs>
							<clipPath id="SVGID_00000116206812702881581960000001299776047821150354_">
								<use xlink:href="#SVGID_00000040538684576935210120000017698071876905575100_"  style="overflow:visible;"/>
							</clipPath>
							<g style="clip-path:url(#SVGID_00000116206812702881581960000001299776047821150354_);">
								<g>
									<g>
										<defs>
											<rect id="SVGID_00000070830802016466182410000002094038830512268435_" x="21.1" y="68.2" width="225.7" height="114.5"/>
										</defs>
										<clipPath id="SVGID_00000057865965245115027090000018305248690520758444_">
											<use xlink:href="#SVGID_00000070830802016466182410000002094038830512268435_"  style="overflow:visible;"/>
										</clipPath>
										<path style="clip-path:url(#SVGID_00000057865965245115027090000018305248690520758444_);fill:#8F65D0;" d="M136.8,156.1
											c-1.8-0.7-4-1.4-6.3-2.5c-4.5-2.1-9.3-5.7-12.1-8.6c-7.2-7.4-12.3-16.4-17.6-25.4c-1.4-2.4-2.6-3.3-3.6-3.4
											c-0.5,0-0.9,0.1-1.1,0.5c-0.1,0.1-0.1,0.2-0.2,0.3c-1-0.8-2.6-1.9-4.2-2.7c-2-1-4.1-1.8-5.6-1.6c-0.1,0-0.2,0.1-0.2,0.1
											c-0.1,0.1-0.1,0.2-0.1,0.2c0,0.1,0,0.1,0.1,0.2c0,0.1,0.1,0.2,0.2,0.3c0.2,0.2,0.4,0.5,0.8,0.8s0.9,0.7,1.4,1.1
											c-2.7-0.6-5-0.9-6.8-0.9c-2.3,0-3.9,0.3-4.7,1c-0.1,0.1-0.2,0.2-0.2,0.3c0,0.1,0,0.2,0.1,0.3c0.1,0.2,0.3,0.3,0.5,0.4
											c0.5,0.3,1.1,0.6,2.1,1c1.2,0.4,2.7,1,4.6,1.5c-0.3,0-0.5,0-0.8,0c-1,0.1-1.7,0.2-2,0.6c-0.2,0.2-0.3,0.4-0.3,0.7
											c0,0.2,0.1,0.5,0.3,0.7c0.3,0.4,0.9,0.8,1.6,1.1c2,0.8,4.9,1.6,7,2.1c-1.2,0.2-1.9,0.4-2.4,0.6c-0.4,0.2-0.7,0.3-0.8,0.7
											c0,0.2,0,0.3,0.1,0.5c0.1,0.1,0.2,0.2,0.3,0.4c0.5,0.4,1.4,0.8,2.5,1.1c1.4,0.4,3.1,0.7,4.7,0.9c-0.8,0.2-1.4,0.3-1.8,0.5
											s-0.7,0.3-0.9,0.6c-0.2,0.3-0.1,0.6,0.1,0.9c0.4,0.5,0.9,0.8,1.6,0.9c0.6,0.1,1.3,0.1,2.1,0c1.4-0.2,2.8-0.8,3.6-1.3
											c0.5-0.4,0.9-0.8,1.2-1.4c-0.5,0.2-1,0.5-1.5,0.9c-1.4,1-2.1,2.1-2.2,2.9c0,0.4,0,0.7,0.2,0.9c0.2,0.3,0.5,0.4,0.8,0.4
											c0.4,0,0.9-0.1,1.5-0.4c-0.2,0.4-0.3,0.7-0.3,1s0,0.5,0.1,0.7s0.3,0.3,0.6,0.4c0.5,0.1,1,0,1.6-0.3
											c0.4-0.2,0.8-0.5,1.2-0.8c0,0.4,0,0.9,0,1.4c0.1,0.9,0.2,1.8,0.4,2.4c0.1,0.3,0.2,0.6,0.4,0.8c0.1,0.1,0.2,0.2,0.3,0.2
											c0.1,0,0.3,0,0.4-0.1c0.2-0.2,0.3-0.4,0.5-0.7c0.4,2.1,1.2,4.3,2,5.8c0.3,0.5,0.5,0.9,0.8,1.2c0.2,0.3,0.4,0.5,0.7,0.6
											c0.2,0,0.4,0,0.5-0.1l0.1-0.1c0.2,0.5,0.5,1,0.8,1.4s0.7,0.7,1.2,0.9c0.2,0.1,0.4,0.1,0.6,0.1c-0.2,0.2-0.4,0.4-0.6,0.6
											c-0.2,0.2-0.3,0.4-0.4,0.6c-0.1,0.2-0.1,0.4-0.1,0.6c0.1,0.2,0.3,0.3,0.5,0.4c0.2,0.1,0.5,0.1,0.8,0.1
											c0.4,0,0.9-0.1,1.6-0.2c-0.1,0.1-0.2,0.2-0.3,0.2c-0.3,0.3-0.5,0.5-0.6,0.7c0,0.1,0,0.3,0,0.4c0.1,0.1,0.2,0.2,0.3,0.3
											c0.2,0.1,0.4,0.2,0.7,0.2c0.5,0.1,1,0.2,1.6,0.2c-0.1,0.2-0.2,0.4-0.2,0.6c0,0.4,0.1,0.7,0.4,1c0.5,0.6,1.3,1.1,2.3,1.6
											c1,0.4,2.1,0.7,3.1,0.9s1.8,0.2,2.4,0c0.4-0.1,0.7-0.4,0.9-0.7c-0.3,0-0.7,0.1-1,0.1c-1.1,0.2-1.8,0.4-2.2,0.8
											c-0.2,0.2-0.4,0.4-0.4,0.6c0,0.2,0,0.5,0.2,0.7c0.3,0.4,0.7,0.7,1.4,0.9c0.5,0.2,1.2,0.3,1.8,0.4
											c-0.1,0.2-0.1,0.5-0.1,0.7c0,0.3,0.2,0.6,0.4,0.7c0.4,0.3,1,0.4,1.7,0.3c0.7-0.1,1.4-0.2,2-0.3c0.1,0,0.2,0,0.3-0.1
											c-0.3,0.3-0.6,0.5-0.7,0.8c-0.1,0.2-0.2,0.5-0.1,0.7s0.3,0.4,0.5,0.4c0.4,0.2,1,0.1,1.7,0c0.3-0.1,0.7-0.1,1.1-0.3
											c-0.1,0.1-0.1,0.2-0.1,0.3c-0.1,0.4,0,0.8,0.2,1.1c0.5,0.6,1.4,0.8,2.5,0.7l-0.3-0.3c0.1,0.4,0.2,0.8,0.4,1.2
											c0.2,0.3,0.5,0.5,0.8,0.6c0.6,0.2,1.2,0.1,1.6,0.1c0.4,0,0.6-0.1,0.6-0.1s-0.2,0-0.6-0.1c-0.3,0-1-0.1-1.4-0.3
											c-0.2-0.1-0.4-0.3-0.5-0.5c-0.2-0.3-0.2-0.6-0.3-1v-0.3c-0.1,0-0.2,0-0.3,0c-0.9,0-1.7-0.2-2-0.5
											c-0.1-0.1-0.2-0.3-0.1-0.5c0.1-0.2,0.3-0.5,0.8-0.9l1.8-1.4l-2.1,0.8c-0.8,0.3-1.5,0.5-2.2,0.6c-0.6,0.1-1.1,0.1-1.4,0
											c-0.1,0-0.1-0.1-0.1-0.1s0-0.1,0.1-0.2c0.2-0.3,0.6-0.7,1.5-1.3c0.2-0.1,0.4-0.3,0.6-0.4c-0.3-0.1-0.5-0.2-0.8-0.2
											c-0.4,0-1,0.1-1.6,0.3c-0.6,0.1-1.3,0.3-1.9,0.3s-1.1,0-1.3-0.2c-0.1-0.1-0.2-0.2-0.2-0.3c0-0.2,0-0.4,0.2-0.8
											c0.1-0.1,0.1-0.3,0.2-0.4c-0.2,0-0.3,0-0.5,0c-0.8,0-1.5-0.1-2-0.3s-0.9-0.5-1.1-0.7c-0.1-0.1-0.1-0.2-0.1-0.3
											s0.1-0.2,0.2-0.3c0.3-0.2,0.9-0.5,1.9-0.6l-0.1-0.6c-0.3,0.1-1.2,0.1-2.1-0.1c-0.9-0.2-2-0.5-2.9-0.9s-1.7-0.9-2.1-1.4
											c-0.2-0.2-0.3-0.4-0.3-0.6c0-0.2,0.1-0.4,0.4-0.7c0.2-0.2,0.4-0.3,0.6-0.4c-0.3,0-0.5-0.1-0.8-0.1c-0.7-0.1-1.5-0.1-2-0.3
											c-0.2-0.1-0.4-0.1-0.5-0.2l0,0c0,0,0,0.1,0,0c0,0,0.1-0.2,0.4-0.4s0.7-0.6,1.3-1c0.5-0.3,1-0.6,1.4-0.9
											c-0.6,0.1-1.1,0.3-1.7,0.4c-1.3,0.3-2.2,0.4-2.8,0.4c-0.3,0-0.5,0-0.6,0s-0.1-0.1-0.1,0c0,0,0,0,0-0.1s0.2-0.3,0.3-0.4
											c0.3-0.3,0.8-0.8,1.3-1.3l1.1-1l-1.4,0.5c-0.5,0.2-0.9,0.2-1.3,0.1c-0.4-0.1-0.6-0.4-0.9-0.7c-0.5-0.7-0.9-1.8-1.2-2.8
											l-1.4-5l0.8,5.2c0.1,0.6,0.1,1,0.1,1.2c0,0.1,0,0.1,0,0.1h0.1c0,0-0.2-0.2-0.4-0.4c-0.2-0.3-0.5-0.7-0.7-1.1
											c-1-1.9-2.2-5.1-2.2-7.4V132l-0.6,4c-0.1,0.7-0.2,1.3-0.4,1.7c-0.1,0.4-0.3,0.5-0.3,0.5s0,0,0.1,0l0,0
											c-0.1-0.1-0.2-0.3-0.3-0.6c-0.2-0.6-0.3-1.4-0.4-2.3c0-0.8,0-1.6,0.2-2.1l0.4-1.2l-0.9,0.9c-0.6,0.6-1.2,1-1.7,1.3
											s-1,0.3-1.2,0.3c-0.1,0-0.2-0.1-0.2-0.1c0-0.1-0.1-0.2-0.1-0.3c0-0.4,0.3-1,0.8-1.8l1.1-1.6l-1.5,1.2
											c-1,0.8-1.7,1-2.2,0.9c-0.2,0-0.4-0.1-0.4-0.2c-0.1-0.1-0.1-0.3-0.1-0.5c0.1-0.6,0.6-1.6,2-2.5l-0.3-0.5
											c-0.7,0.5-2.1,1-3.4,1.2c-0.7,0.1-1.3,0.1-1.9,0c-0.5-0.1-0.9-0.3-1.2-0.7c-0.1-0.2-0.1-0.2-0.1-0.3s0.2-0.2,0.6-0.4
											c0.7-0.3,2.1-0.6,4-1l3.9-0.8l-4,0.2c-1.7,0.1-4.7-0.4-6.8-1c-1.1-0.3-2-0.7-2.3-1c-0.1-0.1-0.1-0.1-0.2-0.2l0,0
											c0,0,0.1-0.1,0.4-0.3c0.6-0.2,1.9-0.5,3.9-0.8c1-0.1,2-0.3,3-0.3c-1,0-2-0.1-3-0.2c-1.7-0.3-6-1.3-8.5-2.4
											c-0.6-0.3-1.1-0.6-1.4-0.9c-0.1-0.1-0.2-0.3-0.2-0.3c0-0.1,0-0.1,0.1-0.2c0.2-0.2,0.7-0.4,1.7-0.4c1-0.1,2.3,0,4.2,0.3
											l6,0.9l-5.9-1.5c-3.3-0.8-6.1-1.7-7.9-2.3c-0.9-0.3-1.6-0.7-2-0.9c-0.2-0.1-0.3-0.2-0.3-0.3l0,0v0.1
											c0.6-0.5,2.1-0.9,4.3-0.9c2.2,0,5.2,0.4,8.6,1.4l2.6,0.8l-2.4-1.3c-1.3-0.7-2.4-1.5-3.1-2.1c-0.3-0.3-0.6-0.5-0.7-0.7
											c-0.1-0.1-0.1-0.2-0.1-0.2s0,0,0,0.1c0,0,0,0.1-0.1,0.2c0,0.1-0.1,0.1-0.2,0.1c1.2-0.2,3.3,0.5,5.2,1.6
											c2,1,3.8,2.3,4.6,3.1l1,1.1l-0.5-1.4c-0.1-0.2-0.1-0.4,0-0.6c0.1-0.1,0.3-0.2,0.6-0.2c0.6,0.1,1.8,0.8,3.2,3.1
											c5.3,9,10.4,18.1,17.7,25.5c2.9,3,7.7,6.6,12.3,8.7c2.3,1.1,4.6,1.8,6.3,2.5c1,0.4,2.4,1.3,3.1,1.5
											C140.4,158.4,138,156.6,136.8,156.1"/>
									</g>
								</g>
								<g>
									<g>
										<defs>
											<rect id="SVGID_00000052072549916383158350000006051266392701998247_" x="21.1" y="68.2" width="225.7" height="114.5"/>
										</defs>
										<clipPath id="SVGID_00000036953619654482011490000007828709868713072036_">
											<use xlink:href="#SVGID_00000052072549916383158350000006051266392701998247_"  style="overflow:visible;"/>
										</clipPath>
										<path style="clip-path:url(#SVGID_00000036953619654482011490000007828709868713072036_);fill:#8F65D0;" d="M95.5,117.7
											c0.9,0.9,1.5,1.6,2.1,2.4c0.5,0.7,0.8,1.2,0.8,1.2s-0.1-0.6-0.5-1.4s-1-1.8-1.9-2.7c-2-2.1-4.8-3.9-8.1-5.5
											c-2.4-1.2-5.1-2.5-8-4.2c-5.3-3.2-10.9-8-17.3-15.1c-3.4-3.8-9.1-11.6-12.9-15.9c-1-1.1-1.8-1.9-2.5-2.5
											c-0.3-0.3-0.6-0.5-0.9-0.6c-0.1,0-0.3-0.1-0.4-0.1s-0.3,0.1-0.4,0.2c-0.2,0.2-0.2,0.6-0.2,1s0.1,0.9,0.3,1.6
											c0.3,1.3,1,3.2,2,5.7c4.6,11.8,12.5,22.3,22.8,28.4c-7-2.8-12.4-6.9-17.6-10.1C48.5,97.5,42,92.4,38,88.5
											c-1.5-1.5-2.7-2.4-3.6-2.8c-0.4-0.2-0.8-0.3-1.2-0.2c-0.3,0.1-0.6,0.3-0.7,0.6c-0.3,0.6-0.2,1.5,0,2.6s0.6,2.3,1.2,3.6
											c2.9,7.1,9.8,12.3,15.8,16.1c-3.7-1.8-7.4-4.4-10.4-6.5c-1.9-1.4-3.5-2.5-4.7-3.1c-0.6-0.3-1-0.5-1.5-0.4
											c-0.2,0.1-0.4,0.2-0.5,0.4c-0.1,0.2-0.1,0.5-0.1,0.7c0.1,1.3,1.1,3.2,2.7,5.4c1.6,2.2,3.9,4.7,6.7,7
											c2.3,1.9,4.8,3.7,7.5,5.1c-2.3-0.9-4.3-1.9-5.9-2.8c-1.4-0.8-2.6-1.5-3.5-2c-0.4-0.3-0.8-0.5-1.1-0.6s-0.5-0.2-0.8-0.2
											c-0.5,0.1-0.9,0.3-1.1,0.7c-0.2,0.4-0.2,0.9-0.1,1.4c0.3,1.1,1.1,2.6,2.7,4.6c4,5.3,8.7,8.5,14.5,10.1
											c-2-0.3-3.8-0.6-5.2-0.9c-2.3-0.5-3.5-0.6-4.3-0.4c-0.2,0.1-0.3,0.1-0.5,0.3c-0.1,0.1-0.2,0.3-0.2,0.5
											c0,0.3,0.2,0.6,0.4,1c0.9,1.3,3.3,3,4.6,4c2.8,2,6.3,3.5,9.9,4.5c2.9,0.8,5.6,1.4,8.3,1.8c-2.3,0.1-4.6,0-6.5,0.1
											c-1.5,0-2.9,0.1-3.9,0.2c-0.5,0.1-0.9,0.1-1.3,0.2c-0.3,0.1-0.6,0.2-0.8,0.5s-0.2,0.6-0.2,0.9c0.1,0.3,0.2,0.6,0.4,0.8
											c0.4,0.5,1.1,1,2,1.4c1.8,0.9,4.4,1.6,7.4,2.2c2.1,0.4,3.6,0.6,5.6,0.6c-0.6,0.2-1.2,0.3-1.7,0.5c-1.2,0.4-2,0.8-2.3,1.2
											c-0.1,0.2-0.2,0.4-0.2,0.6c0,0.2,0.1,0.4,0.3,0.6c0.3,0.3,0.7,0.6,1.3,0.8c1.2,0.5,2.9,0.8,4.9,1c4,0.3,9.3-0.1,13.4-1.9
											c1-0.5,1.9-1,2.8-1.6c-1,0.3-2,0.7-3,1.1c-2.4,0.9-4,1.7-4.9,2.3c-0.4,0.3-0.7,0.5-0.8,0.8c0,0.2,0,0.4,0.1,0.5
											s0.3,0.2,0.4,0.2c0.5,0.1,1.1-0.1,2.1-0.4c0.3-0.1,0.7-0.2,1-0.3c-0.8,0.4-1.3,0.8-1.7,1.1c-0.3,0.3-0.5,0.7-0.5,1.1
											c0.1,0.4,0.4,0.6,0.7,0.8c0.7,0.3,1.8,0.4,3.2,0.4c0.8,0,1.7-0.1,2.6-0.3l-0.1,0.1c-0.4,0.3-0.6,0.6-0.6,0.9
											c0,0.3,0.1,0.6,0.4,0.8s0.6,0.4,1,0.5c0.9,0.3,2.1,0.4,3.3,0.5c-2.3,0.5-3.9,1-4.8,1.6c-0.4,0.3-0.7,0.6-0.8,0.9
											c-0.1,0.3-0.1,0.7,0.1,1c0.4,0.6,1.1,0.9,2.2,1.1c1.5,0.3,3.6,0.4,6,0.1c-0.7,0.3-1.3,0.6-1.8,0.9c-1,0.6-1.6,1-1.7,1.6
											c-0.1,0.3,0.1,0.6,0.3,0.8c0.2,0.2,0.5,0.4,0.9,0.6c0.7,0.4,1.8,0.7,3.2,1.1c2.4,0.6,4.6,0.5,6.7,0.2
											c0,0.1-0.1,0.1-0.1,0.2c0,0.2,0.1,0.3,0.2,0.4c0.1,0.1,0.2,0.1,0.3,0.2c0.2,0.1,0.5,0.2,0.9,0.2c0.5,0.1,1.1,0.1,1.8,0.1
											c-0.6,0.1-1.3,0.2-1.8,0.2c-0.7,0.1-1.4,0.1-1.9,0.2c-0.3,0-0.5,0.1-0.7,0.2c-0.2,0.1-0.4,0.2-0.5,0.4s-0.1,0.5,0,0.7
											s0.2,0.4,0.4,0.6c0.4,0.3,0.9,0.6,1.6,0.9c1.2,0.4,2.8,0.7,4.6,0.9l0,0c-0.1,0.1-0.2,0.2-0.3,0.3c-0.1,0.1,0,0.3,0,0.4
											c0.1,0.3,0.4,0.4,0.6,0.5s0.6,0.2,1,0.3c1,0.2,2.2,0.3,3.2,0.3c-0.2,0.2-0.4,0.3-0.5,0.5s-0.2,0.4-0.2,0.6
											c0,0.2,0.1,0.4,0.3,0.5c0.3,0.2,0.8,0.3,1.4,0.4c0.6,0.1,1.3,0.1,2.2,0.1c2.1-0.1,4.2-0.4,6.1-0.8c1.9-0.5,3.5-1,4.9-1.5
											c2.1-0.8,3.1-1.8,3.1-1.8s-1,0.8-3.1,1.6c-1.4,0.5-2.9,0.9-4.9,1.3c-1.9,0.4-3.9,0.6-6,0.7c-0.8,0-1.5,0-2.1-0.1
											s-1-0.2-1.1-0.3s-0.1-0.1-0.1-0.1s0-0.1,0.1-0.2c0.2-0.2,0.6-0.5,1.4-0.9l1.7-0.8l-1.8,0.2c-0.7,0.1-2.9,0-4.3-0.3
											c-0.4-0.1-0.7-0.1-0.9-0.2c-0.2-0.1-0.3-0.2-0.3-0.2l0,0c0,0,0,0,0.1-0.1s0.4-0.3,0.9-0.4l1.5-0.6h-1.6
											c-2.3,0-4.3-0.4-5.6-0.9c-0.7-0.2-1.2-0.5-1.4-0.8c-0.1-0.1-0.2-0.2-0.3-0.3c0-0.1,0-0.2,0-0.2s0,0,0.1-0.1
											c0.1,0,0.3-0.1,0.5-0.1c0.5-0.1,1.1-0.1,1.9-0.2c1.5-0.1,3.3-0.3,4.8-1.2l3.3-1.9l-3.5,1.3c-0.4,0.1-1.2,0.3-2,0.3
											s-1.7,0-2.4-0.1c-0.3,0-0.6-0.1-0.8-0.2c-0.1,0-0.1-0.1-0.1-0.1s0,0,0,0.1s0,0.1,0,0c0,0,0.1-0.1,0.3-0.2
											c0.3-0.1,0.7-0.3,1.3-0.4l4.8-1.3l-5,0.7c-2.7,0.4-5.5,0.9-8.5,0.1c-1.4-0.4-2.5-0.7-3.1-1c-0.3-0.2-0.6-0.3-0.7-0.5
											c-0.1-0.1-0.1-0.2-0.1-0.3c0-0.2,0.5-0.7,1.4-1.2c1-0.5,2.4-1.2,4.4-2l4.1-1.6l-4.3,1.1c-3.4,0.8-6.6,0.9-8.6,0.5
											c-1-0.2-1.6-0.6-1.8-0.8c-0.1-0.1-0.1-0.2,0-0.4s0.3-0.4,0.6-0.6c1-0.7,3.3-1.2,6.9-2c1.2-0.3,2.4-0.6,3.6-0.8
											c-1.2,0.2-2.4,0.2-3.7,0.2c-1.5,0-4-0.1-5.4-0.6c-0.4-0.1-0.6-0.2-0.8-0.4c-0.2-0.1-0.2-0.2-0.2-0.3s0.1-0.3,0.4-0.6
											s0.8-0.6,1.4-0.9l2.2-1.2l-2.5,0.6c-1.3,0.3-2.8,0.5-4.1,0.6c-1.3,0-2.4-0.1-2.9-0.3c-0.3-0.1-0.4-0.2-0.4-0.3
											s0-0.2,0.3-0.5c0.5-0.5,1.9-1.3,4.3-2.3c1-0.4,2-0.7,3-1.1c-1.1,0.1-2.1,0.3-3.1,0.5c-1.8,0.4-3.2,0.7-4.1,1
											c-1,0.3-1.5,0.4-1.8,0.4c-0.1,0-0.2-0.1-0.1,0v0.1c0,0,0.2-0.3,0.6-0.5c0.8-0.5,2.3-1.3,4.7-2.2l-0.2-0.5
											c-4,1.8-9.1,2.2-13.1,1.9c-2-0.2-3.6-0.5-4.7-0.9c-0.5-0.2-0.9-0.4-1.1-0.6c-0.1-0.1-0.1-0.2-0.1-0.2c0-0.1,0-0.1,0.1-0.2
											c0.2-0.2,0.8-0.6,2-1s3-0.8,5.4-1.2l6.2-1.1l-6.3,0.5c-4.3,0.3-6,0.2-9.3-0.4c-3-0.5-5.5-1.3-7.2-2.1
											c-0.9-0.4-1.5-0.9-1.8-1.2c-0.2-0.2-0.3-0.4-0.3-0.5c0-0.2,0-0.3,0.1-0.4c0,0,0.2-0.2,0.4-0.2c0.3-0.1,0.7-0.2,1.2-0.2
											c1-0.1,2.3-0.2,3.8-0.2c3,0,6.9,0,10.4-0.2c1.7-0.1,3.5-0.3,5.2-0.6c-1.7,0.1-3.5,0.1-5.2,0c-3.9-0.2-7.8-1.1-12-2.2
											c-3.5-0.9-7-2.5-9.7-4.4c-1.4-1-3.7-2.7-4.5-3.8c-0.2-0.3-0.3-0.5-0.3-0.6v-0.1c0,0,0.1-0.1,0.2-0.1
											c0.5-0.1,1.7-0.1,4,0.4c2.4,0.5,5.7,1.2,9.9,1.3c2.1,0.1,4.2,0,6.3-0.2c-2.1,0-4.2-0.1-6.2-0.4
											c-7.8-1.1-13.7-4.3-18.7-10.8c-1.5-2-2.4-3.5-2.6-4.4c-0.1-0.5-0.1-0.8,0.1-1c0.1-0.2,0.3-0.4,0.7-0.4c0,0,0.2,0,0.4,0.1
											c0.3,0.1,0.6,0.3,1.1,0.6c0.9,0.5,2.1,1.2,3.5,2c2.9,1.6,6.9,3.5,11.8,4.7l7.5,1.8l-7.4-2.4c-4.6-1.5-9.1-4.3-12.8-7.4
											c-2.8-2.3-5-4.7-6.6-6.9c-1.6-2.2-2.5-4.1-2.6-5.1c0-0.2,0-0.4,0-0.4c0-0.1,0-0.1,0.1-0.1s0.5,0.1,1.1,0.3
											c1.1,0.5,2.7,1.7,4.6,3.1c3.9,2.7,9,6.4,13.9,7.9c0.7,0.2,1.4,0.4,2.1,0.5c-0.6-0.4-1.2-0.7-1.9-1.1
											c-6.5-3.8-15.3-9.6-18.6-17.7c-0.5-1.3-0.9-2.5-1.1-3.5c-0.2-1-0.2-1.8,0-2.2c0.1-0.2,0.2-0.3,0.3-0.3
											c0.2,0,0.4,0,0.8,0.2c0.7,0.3,1.9,1.2,3.4,2.7c4.1,4,10.5,9,14.9,11.7c6.1,3.6,12.6,8.8,21.6,11.5c1.4,0.4,2.8,0.8,4.3,1
											c-1.4-0.5-2.7-1-4.1-1.6c-12-5.5-21-16.9-26.1-29.9c-1-2.5-1.6-4.4-2-5.6c-0.2-0.6-0.2-1.1-0.3-1.5c0-0.3,0.1-0.5,0.1-0.5
											l0,0c0,0,0.1,0,0.2,0c0.2,0.1,0.4,0.2,0.7,0.5c0.6,0.5,1.4,1.3,2.4,2.4c3.8,4.3,9.4,12,12.9,15.9
											c6.4,7.2,12.1,12,17.5,15.2c2.9,1.7,5.6,3.1,8,4.3C90.9,113.9,93.6,115.7,95.5,117.7"/>
									</g>
								</g>
								<g>
									<g>
										<defs>
											<rect id="SVGID_00000117673858074472280060000014966186475318096818_" x="21.1" y="68.2" width="225.7" height="114.5"/>
										</defs>
										<clipPath id="SVGID_00000102544131583541676390000011482871356221039259_">
											<use xlink:href="#SVGID_00000117673858074472280060000014966186475318096818_"  style="overflow:visible;"/>
										</clipPath>
										<path style="clip-path:url(#SVGID_00000102544131583541676390000011482871356221039259_);fill:#8F65D0;" d="M71.6,114.3
											c0.2,0,0.3,0,0.5,0c1,0.1,2,0.2,2.8,0.2s1.2,0.1,1.2,0.1s-0.5-0.1-1.2-0.3c-0.7-0.2-1.7-0.4-2.8-0.5c-0.2,0-0.4,0-0.5,0
											c-0.4,0-0.6,0-0.9,0.3c-0.1,0.1-0.1,0.3-0.1,0.5c0,0.1,0.1,0.3,0.2,0.4c0.1,0.2,0.3,0.4,0.6,0.6c-1.1-0.4-2.1-0.7-2.8-0.9
											c-0.6-0.1-1.1-0.2-1.4-0.1c-0.4,0-0.7,0.2-0.8,0.5c-0.1,0.3-0.1,0.6,0.1,1s0.4,0.8,0.9,1.2c0.6,0.6,1.5,1.3,2.8,2
											c-0.8-0.2-1.6-0.4-2.3-0.7c-2.1-0.9-3.4-1.3-4.3-1.3c-0.5,0-0.8,0.1-1.1,0.4c-0.2,0.3-0.3,0.6-0.2,1
											c0.1,0.7,0.6,1.6,1.3,2.5s1.6,1.9,2.5,2.8c2.6,2.4,5.7,3.9,8.6,5c-2-0.4-4.1-0.9-6.5-1c-0.6,0-1,0-1.4,0.2
											c-0.4,0.1-0.6,0.3-0.8,0.6c-0.3,0.6-0.1,1.3,0.4,2c1,1.4,3.1,3,5.8,4c4.7,1.8,7.7,2.1,10.9,2.2c-1.6,0.2-2.9,0.3-4,0.3
											c-0.9,0.1-1.7,0.1-2.3,0.2c-0.6,0.1-1,0.2-1.3,0.6c-0.2,0.3-0.2,0.6-0.1,1c0.1,0.3,0.3,0.6,0.6,0.8c0.6,0.5,1.6,1,2.7,1.3
											c1.9,0.6,4.4,1,6.7,0.9c-0.3,0.2-0.6,0.4-0.7,0.6c-0.4,0.4-0.6,0.9-0.4,1.3c0.2,0.4,0.5,0.7,1,0.8
											c0.5,0.2,1.1,0.3,1.8,0.3c2.8,0.2,7-0.6,9-2.8c0.4-0.4,0.7-0.9,0.9-1.4c-0.5,0.3-0.9,0.7-1.3,1c-0.9,0.8-1.5,1.4-1.7,1.9
											c-0.1,0.3-0.2,0.5-0.1,0.7s0.2,0.4,0.4,0.5c0.4,0.2,0.9,0.2,1.5,0c-0.4,0.3-0.8,0.7-1.2,1c-0.7,0.7-1.2,1.2-1.2,1.8
											c0,0.3,0.1,0.6,0.4,0.8c0.2,0.2,0.6,0.3,1,0.3c0.4,0.1,1,0.1,1.7,0.1c-1.1,0.5-1.8,0.9-2.2,1.4c-0.3,0.3-0.5,0.7-0.4,1.1
											c0.1,0.4,0.4,0.6,0.8,0.8c0.7,0.4,1.9,0.6,3.2,0.6c0.8,0,1.7,0,2.6-0.1c-0.2,0.1-0.4,0.2-0.6,0.4
											c-0.3,0.2-0.5,0.4-0.6,0.6c-0.2,0.2-0.3,0.4-0.3,0.6c0,0.2,0.1,0.5,0.3,0.6c0.2,0.1,0.4,0.1,0.7,0.1c0.1,0,0.2,0,0.3,0
											c-0.4,0.2-0.8,0.4-1.1,0.7c-0.3,0.2-0.6,0.5-0.7,0.7c-0.2,0.3-0.2,0.6,0,0.8c0.1,0.3,0.4,0.4,0.7,0.6
											c0.3,0.2,0.7,0.3,1.2,0.4c0.8,0.2,1.7,0.3,2.9,0.4c-0.2,0.1-0.3,0.2-0.4,0.2c-0.4,0.2-0.6,0.5-0.7,0.9
											c-0.1,0.3,0.1,0.7,0.3,0.9c0.2,0.3,0.6,0.5,1,0.7c2.2,1.1,3.5,1.6,7,1.6c-0.1,0-0.2,0.1-0.3,0.1c-0.5,0.3-0.8,0.5-0.9,0.9
											s0.1,0.7,0.4,1c0.3,0.2,0.7,0.5,1.2,0.6c1.5,0.6,3.8,1,5.4,1.2c-0.2,0.1-0.4,0.2-0.5,0.4c-0.4,0.3-0.6,0.7-0.6,1
											c0,0.4,0.2,0.7,0.5,0.9c0.3,0.3,0.7,0.5,1.2,0.6c1.5,0.6,3.7,0.9,5.6,0.7c0,0.1-0.1,0.1-0.1,0.2c-0.1,0.1,0,0.3,0.1,0.5
											c0.2,0.3,0.4,0.3,0.8,0.4c0.3,0.1,0.7,0.1,1.2,0.1c1.7,0,3.4-0.3,4.8-0.6c0.9-0.2,1.6-0.5,2.2-0.7c1-0.4,1.3-0.9,1.3-0.9
											s-0.4,0.4-1.4,0.7c-0.6,0.2-1.3,0.4-2.2,0.5c-1.4,0.2-3.1,0.4-4.7,0.4c-0.4,0-0.8,0-1.1-0.1c-0.3-0.1-0.4-0.2-0.4-0.1v0.1
											c0,0,0-0.1,0.1-0.1c0.2-0.1,0.5-0.3,1-0.6l3.7-1.7l-3.9,1.2c-2,0.6-5,0.3-6.7-0.4c-0.4-0.2-0.8-0.4-1-0.5
											c-0.2-0.2-0.3-0.4-0.3-0.5s0.1-0.3,0.4-0.6c0.3-0.2,0.8-0.5,1.5-0.8l1.5-0.6h-1.6c-1.4,0-4.6-0.5-6.4-1.2
											c-0.5-0.2-0.8-0.4-1-0.5c-0.2-0.2-0.3-0.3-0.2-0.4c0-0.1,0.2-0.3,0.6-0.5s1.1-0.5,2-0.7l2.6-0.7l-2.7,0.1
											c-5,0.2-6.2-0.2-8.7-1.5c-0.4-0.2-0.7-0.4-0.8-0.6c-0.2-0.2-0.2-0.3-0.2-0.4c0-0.1,0.1-0.3,0.5-0.5
											c0.3-0.2,0.8-0.4,1.5-0.6c0.7-0.2,1.4-0.3,2-0.4c-0.7,0-1.4-0.1-2.1-0.1c-1.8-0.2-3.2-0.3-4.1-0.5
											c-0.5-0.1-0.9-0.2-1.1-0.4c-0.3-0.1-0.4-0.2-0.4-0.3s0-0.1,0-0.2c0.1-0.1,0.3-0.3,0.6-0.5c0.6-0.4,1.6-1,3.1-1.6l3.7-1.6
											l-3.9,1c-1.2,0.3-2,0.4-2.5,0.4c-0.3,0-0.4,0-0.5-0.1c-0.1,0,0,0,0,0s0-0.1,0.1-0.2c0.1-0.1,0.3-0.3,0.5-0.5
											c0.5-0.3,1.2-0.7,2.2-1.2l2.6-1.1l-2.8,0.6c-1.5,0.3-3,0.4-4.3,0.4s-2.4-0.2-3-0.5c-0.3-0.1-0.4-0.3-0.4-0.4
											c0-0.1,0-0.3,0.2-0.5c0.5-0.5,1.7-1.2,3.9-2l2.6-0.9l-2.7,0.3c-1.7,0.2-2.9,0.2-3.6,0.1c-0.4-0.1-0.6-0.1-0.7-0.2
											c-0.1-0.1-0.1-0.1-0.1-0.2c0-0.2,0.4-0.8,1-1.4c0.7-0.6,1.7-1.4,3-2.2l4.6-3.1l-4.9,2.6c-0.7,0.4-1.4,0.6-1.9,0.7
											c-0.6,0.1-1,0.1-1.2,0c-0.1,0-0.1-0.1-0.1-0.1c0-0.1,0-0.2,0.1-0.3c0.2-0.4,0.7-0.9,1.6-1.7l-0.4-0.4
											c-1.8,2-5.9,2.8-8.5,2.6c-0.7,0-1.2-0.2-1.6-0.3c-0.4-0.2-0.6-0.3-0.7-0.5c-0.1-0.1,0-0.3,0.3-0.7
											c0.3-0.3,0.9-0.7,1.8-1.2l1.7-0.8l-1.9,0.3c-2.6,0.4-5.6,0-7.8-0.8c-1.1-0.4-2-0.8-2.5-1.2c-0.3-0.2-0.4-0.4-0.5-0.6
											c-0.1-0.2,0-0.3,0.1-0.4c0.1-0.1,0.4-0.3,0.9-0.4c0.5-0.1,1.3-0.1,2.2-0.2c1.9-0.1,4.5-0.3,7.7-0.9
											c0.8-0.2,1.7-0.4,2.5-0.6c-0.9,0-1.7,0-2.6,0c-5,0-8,0.2-14.4-2.2c-2.6-1-4.6-2.6-5.5-3.8c-0.4-0.6-0.5-1.1-0.4-1.4
											c0.1-0.1,0.2-0.3,0.5-0.4c0.3-0.1,0.7-0.1,1.2-0.1c3.7,0.1,6.6,1.2,10,1.5c0.8,0.1,1.6,0.1,2.4,0.1
											c-0.8-0.2-1.5-0.4-2.3-0.7c-3.7-1.1-8.3-2.8-11.7-6c-0.9-0.9-1.8-1.8-2.5-2.7c-0.7-0.9-1.1-1.7-1.2-2.3
											c0-0.3,0-0.4,0.1-0.5s0.3-0.2,0.6-0.2c0.7,0,2,0.3,4.1,1.2c1.3,0.6,2.9,0.9,4.6,1.3l2.6,0.6l-2.4-1.2
											c-2.3-1.1-3.8-2.2-4.6-3c-0.4-0.4-0.6-0.8-0.8-1c-0.1-0.3-0.1-0.4-0.1-0.5c0,0,0.1-0.1,0.3-0.1c0.3,0,0.7,0,1.2,0.1
											c1.1,0.2,2.8,0.8,5.1,1.9l3.3,1.5l-3-2c-1.4-0.9-2.3-1.6-2.5-2c-0.1-0.1-0.1-0.2-0.1-0.2s0,0,0,0.1
											C71.1,114.4,71.3,114.3,71.6,114.3"/>
									</g>
								</g>
							</g>
						</g>
					</g>
				</g>
			</g>
		</g>
	</g>
</g>
<rect y="66" class="st17" width="268" height="136"/>
<g class="st5">
	<path d="M119,164.4v-6.6l-6-9h2.5l3.1,4.7c0.6,0.9,1.1,1.8,1.6,2.6c0.5-0.8,1-1.7,1.7-2.8l3-4.6h2.4l-6.2,9v6.6H119V164.4z"/>
	<path d="M126.2,158.7c0-2.1,0.6-3.7,1.8-4.7c1-0.8,2.2-1.3,3.6-1.3c1.6,0,2.8,0.5,3.8,1.5s1.5,2.4,1.5,4.2c0,1.5-0.2,2.6-0.7,3.4
		c-0.4,0.8-1.1,1.5-1.9,1.9c-0.8,0.5-1.7,0.7-2.7,0.7c-1.6,0-2.9-0.5-3.8-1.5C126.7,162.1,126.2,160.6,126.2,158.7z M128.1,158.7
		c0,1.5,0.3,2.5,1,3.3c0.6,0.7,1.4,1.1,2.4,1.1s1.7-0.4,2.4-1.1c0.6-0.7,1-1.8,1-3.3c0-1.4-0.3-2.5-1-3.2s-1.4-1.1-2.4-1.1
		s-1.8,0.4-2.4,1.1C128.5,156.2,128.1,157.3,128.1,158.7z"/>
	<path d="M146.5,164.4v-1.7c-0.9,1.3-2.1,1.9-3.6,1.9c-0.7,0-1.3-0.1-1.9-0.4c-0.6-0.3-1-0.6-1.3-1s-0.5-0.9-0.6-1.4
		c-0.1-0.4-0.1-1-0.1-1.8v-7h1.9v6.3c0,1,0,1.7,0.1,2c0.1,0.5,0.4,0.9,0.8,1.2c0.4,0.3,0.9,0.4,1.5,0.4s1.1-0.1,1.6-0.4
		c0.5-0.3,0.9-0.7,1.1-1.2s0.3-1.2,0.3-2.2V153h1.9v11.3L146.5,164.4L146.5,164.4z"/>
	<path d="M151.2,164.4V153h1.7v1.7c0.4-0.8,0.8-1.3,1.2-1.6s0.8-0.4,1.2-0.4c0.6,0,1.3,0.2,2,0.6l-0.7,1.8c-0.5-0.3-0.9-0.4-1.4-0.4
		c-0.4,0-0.8,0.1-1.1,0.4c-0.3,0.3-0.6,0.6-0.7,1.1c-0.2,0.7-0.3,1.4-0.3,2.2v5.9L151.2,164.4L151.2,164.4z"/>
	<path d="M168.8,162.7l0.3,1.7c-0.5,0.1-1,0.2-1.5,0.2c-0.7,0-1.2-0.1-1.6-0.3s-0.7-0.5-0.8-0.9s-0.2-1.1-0.2-2.3v-6.5h-1.4V153h1.4
		v-2.8l1.9-1.2v4h1.9v1.5h-1.9v6.6c0,0.5,0,0.9,0.1,1.1c0.1,0.2,0.2,0.3,0.3,0.4c0.2,0.1,0.4,0.1,0.7,0.1
		C168.1,162.7,168.4,162.7,168.8,162.7z"/>
	<path d="M178,163c-0.7,0.6-1.4,1-2.1,1.3c-0.7,0.2-1.4,0.4-2.1,0.4c-1.2,0-2.2-0.3-2.9-0.9c-0.7-0.6-1-1.4-1-2.3
		c0-0.6,0.1-1.1,0.4-1.5s0.6-0.8,1-1.1s0.9-0.5,1.4-0.6c0.4-0.1,0.9-0.2,1.7-0.3c1.6-0.2,2.7-0.4,3.4-0.7c0-0.3,0-0.4,0-0.5
		c0-0.8-0.2-1.3-0.5-1.7c-0.5-0.4-1.2-0.7-2.2-0.7c-0.9,0-1.6,0.2-2,0.5s-0.7,0.9-1,1.7l-1.9-0.3c0.2-0.8,0.5-1.5,0.8-1.9
		c0.4-0.5,1-0.9,1.7-1.1c0.7-0.3,1.6-0.4,2.6-0.4s1.8,0.1,2.4,0.3c0.6,0.2,1,0.5,1.3,0.9c0.3,0.3,0.5,0.8,0.6,1.3
		c0.1,0.3,0.1,0.9,0.1,1.8v2.6c0,1.8,0,2.9,0.1,3.4s0.2,0.9,0.5,1.4h-2C178.2,164,178.1,163.5,178,163z M177.9,158.7
		c-0.7,0.3-1.7,0.5-3.1,0.7c-0.8,0.1-1.3,0.2-1.7,0.4c-0.3,0.1-0.6,0.4-0.8,0.6c-0.2,0.3-0.3,0.6-0.3,0.9c0,0.5,0.2,0.9,0.6,1.3
		c0.4,0.3,1,0.5,1.7,0.5s1.4-0.2,2-0.5s1-0.8,1.3-1.3c0.2-0.4,0.3-1.1,0.3-1.9V158.7z"/>
	<path d="M182.5,165.3l1.9,0.3c0.1,0.6,0.3,1,0.7,1.3c0.5,0.4,1.1,0.5,2,0.5s1.6-0.2,2.1-0.5s0.8-0.9,1-1.5c0.1-0.4,0.1-1.2,0.1-2.5
		c-0.8,1-1.9,1.5-3.1,1.5c-1.6,0-2.8-0.6-3.6-1.7s-1.3-2.5-1.3-4c0-1.1,0.2-2.1,0.6-3s1-1.6,1.7-2.1s1.6-0.7,2.6-0.7
		c1.3,0,2.4,0.5,3.3,1.6V153h1.8v9.8c0,1.8-0.2,3-0.5,3.8c-0.4,0.7-0.9,1.3-1.7,1.7s-1.7,0.6-2.9,0.6c-1.4,0-2.4-0.3-3.3-0.9
		C182.8,167.5,182.4,166.5,182.5,165.3z M184,158.5c0,1.5,0.3,2.6,0.9,3.3s1.3,1,2.2,1s1.6-0.3,2.2-1c0.6-0.7,0.9-1.7,0.9-3.2
		c0-1.4-0.3-2.4-0.9-3.1c-0.6-0.7-1.4-1.1-2.2-1.1c-0.9,0-1.6,0.3-2.2,1C184.3,156.1,184,157.1,184,158.5z"/>
	<path d="M194.9,164.4v-15.7h1.9v15.7H194.9z"/>
	<path d="M199.8,150.9v-2.2h1.9v2.2H199.8z M199.8,164.4V153h1.9v11.3L199.8,164.4L199.8,164.4z"/>
	<path d="M204.7,164.4V153h1.7v1.6c0.8-1.2,2-1.9,3.6-1.9c0.7,0,1.3,0.1,1.9,0.4c0.6,0.2,1,0.6,1.3,1s0.5,0.9,0.6,1.4
		c0.1,0.4,0.1,1,0.1,1.9v7H212v-6.9c0-0.8-0.1-1.4-0.2-1.8c-0.1-0.4-0.4-0.7-0.8-0.9c-0.4-0.2-0.8-0.3-1.3-0.3
		c-0.8,0-1.5,0.3-2.1,0.8s-0.9,1.5-0.9,3v6.2h-2V164.4z"/>
	<path d="M224.6,160.7l2,0.2c-0.3,1.2-0.9,2.1-1.7,2.7c-0.8,0.6-1.9,1-3.2,1c-1.7,0-3-0.5-3.9-1.5c-1-1-1.5-2.5-1.5-4.3
		c0-1.9,0.5-3.4,1.5-4.4c1-1.1,2.3-1.6,3.8-1.6s2.8,0.5,3.7,1.5c1,1,1.4,2.5,1.4,4.4c0,0.1,0,0.3,0,0.5h-8.5
		c0.1,1.2,0.4,2.2,1.1,2.9c0.6,0.7,1.4,1,2.4,1c0.7,0,1.3-0.2,1.8-0.6C223.9,162.1,224.3,161.5,224.6,160.7z M218.3,157.6h6.3
		c-0.1-1-0.3-1.7-0.7-2.1c-0.6-0.7-1.4-1.1-2.4-1.1c-0.9,0-1.6,0.3-2.2,0.9S218.4,156.6,218.3,157.6z"/>
</g>
<circle class="st18" cx="137.7" cy="131.2" r="123.7"/>
<line class="st18" x1="210.8" y1="31.5" x2="67.2" y2="232.8"/>
</svg>
