<?xml version="1.0" encoding="utf-8"?>
<!-- Generator: Adobe Illustrator 26.4.1, SVG Export Plug-In . SVG Version: 6.00 Build 0)  -->
<svg version="1.1" id="Layer_1" xmlns="http://www.w3.org/2000/svg" xmlns:xlink="http://www.w3.org/1999/xlink" x="0px" y="0px"
	 viewBox="0 0 268 268" style="enable-background:new 0 0 268 268;" xml:space="preserve">
<style type="text/css">
	.st0{fill:none;stroke:#FF544A;stroke-width:3;stroke-miterlimit:10;}
	.st1{clip-path:url(#SVGID_00000069400170981175025570000009893492248729162169_);}
	.st2{clip-path:url(#SVGID_00000007396649249060695210000004694989571437795260_);}
	.st3{opacity:0;clip-path:url(#SVGID_00000176722228250202295130000015778783078684118666_);}
	.st4{clip-path:url(#SVGID_00000049937479476153190520000004477729893732726458_);fill:#FFFFFF;}
	.st5{clip-path:url(#SVGID_00000049937479476153190520000004477729893732726458_);}
	.st6{clip-path:url(#SVGID_00000176722228250202295130000015778783078684118666_);fill:#FFFFFF;}
	.st7{clip-path:url(#SVGID_00000176722228250202295130000015778783078684118666_);}
	
		.st8{clip-path:url(#SVGID_00000176722228250202295130000015778783078684118666_);fill:none;stroke:#000000;stroke-width:2.5034;stroke-linecap:round;stroke-linejoin:round;stroke-miterlimit:10;}
</style>
<circle class="st0" cx="137.7" cy="131.2" r="123.7"/>
<line class="st0" x1="210.8" y1="31.5" x2="67.2" y2="232.8"/>
<g>
	<g>
		<defs>
			<polygon id="SVGID_1_" points="0,47.3 170.9,47.2 268.8,220.8 97.9,220.8 			"/>
		</defs>
		<clipPath id="SVGID_00000108305821847072728230000005391484193460170639_">
			<use xlink:href="#SVGID_1_"  style="overflow:visible;"/>
		</clipPath>
		<g style="clip-path:url(#SVGID_00000108305821847072728230000005391484193460170639_);">
			<defs>
				<polygon id="SVGID_00000042701564263609348890000014032184555257327037_" points="97.9,220.8 268.8,220.8 170.9,47.2 0,47.3 
									"/>
			</defs>
			<clipPath id="SVGID_00000074409642252842123490000017392655180830519454_">
				<use xlink:href="#SVGID_00000042701564263609348890000014032184555257327037_"  style="overflow:visible;"/>
			</clipPath>
			<g style="clip-path:url(#SVGID_00000074409642252842123490000017392655180830519454_);">
				<defs>
					<polygon id="SVGID_00000129927182257261597720000003628909329148594319_" points="0,47.3 170.9,47.2 268.8,220.8 97.9,220.8 
											"/>
				</defs>
				<clipPath id="SVGID_00000103240955492920009110000007972865325603347631_">
					<use xlink:href="#SVGID_00000129927182257261597720000003628909329148594319_"  style="overflow:visible;"/>
				</clipPath>
				<g style="opacity:0;clip-path:url(#SVGID_00000103240955492920009110000007972865325603347631_);">
					<g>
						<defs>
							<polygon id="SVGID_00000016039587331482629530000012248266329781527459_" points="97.9,220.8 268.8,220.8 170.9,47.3 0,47.3 
															"/>
						</defs>
						<clipPath id="SVGID_00000031188154962161854360000014033375287213111484_">
							<use xlink:href="#SVGID_00000016039587331482629530000012248266329781527459_"  style="overflow:visible;"/>
						</clipPath>
						<polygon style="clip-path:url(#SVGID_00000031188154962161854360000014033375287213111484_);fill:#FFFFFF;" points="0.1,47.3 
							170.9,47.3 268.8,220.8 97.9,220.8 						"/>
						<path style="clip-path:url(#SVGID_00000031188154962161854360000014033375287213111484_);" d="M268.7,220.7l-170.8,0L0.1,47.4
							l170.8,0L268.7,220.7z M170.9,47.3L0,47.3l97.9,173.6l170.9,0L170.9,47.3z"/>
					</g>
				</g>
				<path style="clip-path:url(#SVGID_00000103240955492920009110000007972865325603347631_);fill:#FFFFFF;" d="M28.1,54.6
					c-1.3,0,1.1,3.4,9.9,12.6c19.4,20.3,43.4,38.3,66.8,46.9c-19.4-5.3-30.5-12.1-43.1-17.8c-9-4.1-23.3-12-33-18.1
					c-14.8-9.4-10.5-2.4-2.8,5.5c12.4,12.8,31,21.8,44.4,27.7c-17.4-4.6-44.1-22.5-40-16.2c2.5,3.8,12.5,11.9,25,19
					c8.4,4.8,17.8,9.2,26.4,11.6c-16.9-3.7-31.1-11.9-32.4-11.5c-2.3,0.6-0.3,3.5,8.1,9.8c13.4,10.2,25.5,15.3,38.6,17
					c-6.5-0.2-12.1-1.1-16.2-2c-15.6-3.3-1.2,4.3,4.7,7.4c5.9,3.1,12.7,5.4,18.9,6.9c7.5,1.8,14.2,3.1,20.5,3.5
					c-10.3,0.8-23.7-0.3-23.7,1.6c0,2.7,8.6,5.8,18.7,7.5c5.5,0.9,8.4,1.1,14.7,0.6c-6.7,1.3-9.3,2.6-9.5,3.7
					c-0.4,3.2,18.2,6.2,28.1,1.9c-4.1,2.3-4.8,3.8-3.1,4.1c1.3,0.2,3-1.1,8-2.2c-11.6,6,0.3,7.5,7.4,5.3c-5.9,4.5,5.5,5.1,10,5.1
					c-4.7,1.3-7.9,2-8.8,3.2c-2.7,3.3,8,5.7,17.1,3c-9.4,4.9-7.8,6.3,2.1,8.6c5.4,1.3,9.3,0.4,13.1-0.2c-6.6,2.1,4.7,2.7,6.9,1.6
					c-3,2.5-10.1,1.4-9.9,2.7c0.3,1.9,6.8,4,13.9,4.1c-4.8,2.3,6.5,3,8.6,2.7c-5.6,3.8,5.5,4.1,13.3,2.1c4.7-1.2,8.8-3,9.5-4.8
					c13.1-0.6,6.2-20.8,6.1-21.4c-0.2-0.6-9.4-3.4-18.3-6.7c-7.3-2.8-15.7-7-22.3-11l-31.1-22.9c-7.6-6.3-15-12.8-22.4-19.3
					c-7.1-6.2-9.5-5.6-9-4.1c-7.9-4.9-18.8-7.8-33.5-14.5c-11-5-23.9-12.5-40-23.6C57.4,75.5,31.3,54.6,28.1,54.6"/>
				<path style="clip-path:url(#SVGID_00000103240955492920009110000007972865325603347631_);" d="M239.9,183
					c-3.4-1.1-7.4-2.3-11.9-3.9c-8.8-3.3-19.2-8.9-26.1-13.4c-17.5-11.5-33.3-25.6-49.3-39.6c-4.3-3.8-7-5.2-8.5-5.3
					c-0.8-0.1-1.2,0.2-1.3,0.7c0,0.2,0,0.3,0.1,0.5c-2.3-1.3-5.6-2.9-8.9-4.2c-4-1.6-7.9-2.9-10-2.5c-0.1,0-0.2,0.1-0.2,0.2
					c0,0.1,0,0.2,0.1,0.3c0.1,0.2,0.2,0.2,0.3,0.3c0.2,0.1,0.3,0.3,0.5,0.4c0.4,0.3,1.1,0.7,1.9,1.2c0.9,0.5,1.9,1.1,3.2,1.7
					c-4.7-1-8.4-1.4-11.3-1.5c-3.5,0-5.7,0.5-6.4,1.6c-0.1,0.1-0.1,0.3,0,0.5c0.1,0.2,0.3,0.4,0.4,0.5c0.3,0.3,0.7,0.5,1.2,0.7
					c0.9,0.4,2.3,0.9,4,1.5c2.2,0.7,5,1.5,8.3,2.3c-0.4,0-0.8,0-1.2,0c-1.5,0.1-2.3,0.4-2.6,0.9c-0.1,0.3-0.1,0.7,0.2,1
					c0.2,0.4,0.6,0.7,1,1c0.9,0.6,2,1.2,3.4,1.7c3.7,1.3,9,2.5,12.5,3.3c-1.6,0.3-2.6,0.6-3.2,0.9c-0.5,0.2-0.8,0.5-0.6,1.1
					c0.1,0.3,0.3,0.5,0.5,0.7c0.2,0.2,0.5,0.4,0.8,0.5c1.2,0.6,2.9,1.2,4.9,1.7c2.5,0.6,5.5,1.2,8,1.4c-1,0.3-1.8,0.5-2.3,0.8
					c-0.5,0.3-0.8,0.5-0.8,1c0,0.4,0.4,1,1,1.5c1,0.8,2.1,1.2,3.2,1.4c1.1,0.2,2.2,0.2,3.1,0c2-0.3,3.7-1.2,4.4-2.1
					c0.5-0.6,0.7-1.3,0.6-2.1c-0.6,0.4-1.1,0.8-1.6,1.4c-1.3,1.6-1.5,3.2-0.8,4.6c0.3,0.5,0.7,1.1,1.2,1.4c0.5,0.4,1.1,0.6,1.7,0.7
					c0.7,0.1,1.4-0.1,2-0.6c0.1,0.6,0.2,1.1,0.4,1.5c0.2,0.4,0.5,0.8,0.9,1.1c0.4,0.3,0.8,0.5,1.2,0.6c0.8,0.2,1.5-0.1,2.1-0.5
					c0.4-0.3,0.8-0.7,1.2-1.2c0.3,0.7,0.8,1.5,1.2,2.2c0.8,1.4,1.9,2.7,2.8,3.8c0.5,0.5,0.9,0.9,1.3,1.2c0.2,0.2,0.5,0.3,0.7,0.4
					c0.3,0.1,0.5,0,0.6-0.1c0.2-0.2,0.2-0.6,0.1-1.1c2.4,3.3,5.7,6.7,8.2,9c0.8,0.8,1.6,1.4,2.3,1.9c0.7,0.5,1.2,0.8,1.7,1
					c0.3,0.1,0.6,0,0.7-0.2c0-0.1,0-0.1,0-0.2c0.8,0.8,1.6,1.6,2.4,2.2c0.8,0.6,1.7,1.2,2.6,1.4c0.4,0.1,0.7,0.2,1.1,0.2
					c-0.2,0.4-0.3,0.7-0.4,1c-0.1,0.3-0.1,0.6-0.1,0.9c0,0.3,0.1,0.6,0.4,0.9s0.7,0.5,1.1,0.6c0.4,0.1,0.8,0.1,1.3,0.1
					c0.6,0,1.4-0.1,2.3-0.3c-0.1,0.1-0.2,0.2-0.2,0.4c-0.2,0.4-0.4,0.7-0.2,1.1c0.1,0.2,0.2,0.5,0.4,0.6c0.2,0.2,0.4,0.3,0.6,0.4
					c0.4,0.2,0.8,0.3,1.2,0.4c0.8,0.2,1.8,0.3,2.6,0.4c0,0.3,0.1,0.6,0.2,1c0.3,0.6,0.8,1.1,1.5,1.6c1.3,1,3,1.8,4.9,2.4
					c1.9,0.7,3.9,1.2,5.5,1.4c1.7,0.3,3,0.4,3.7,0.1c0.4-0.2,0.7-0.6,0.7-1.1c-0.5,0-1,0.1-1.5,0.2c-1.5,0.2-2.4,0.6-2.8,1.2
					c-0.2,0.3-0.2,0.6-0.1,1c0.1,0.4,0.5,0.8,0.8,1.1c0.8,0.6,1.8,1.1,2.9,1.5c1,0.3,2.1,0.5,3.1,0.6c0.1,0.4,0.3,0.7,0.5,1
					c0.3,0.5,0.8,0.9,1.3,1.1c1,0.5,1.9,0.5,2.9,0.5c1-0.1,1.9-0.3,2.8-0.5c0.1,0,0.3-0.1,0.4-0.1c-0.3,0.4-0.4,0.8-0.4,1.2
					c0,0.3,0.1,0.7,0.4,1.1c0.3,0.4,0.7,0.6,1.1,0.7c0.8,0.2,1.6,0.2,2.6,0c0.5-0.1,1-0.2,1.5-0.4c0,0.1,0,0.3,0,0.4
					c0.1,0.6,0.6,1.3,1.3,1.7c1.3,0.9,2.9,1.2,4.4,1.1l-0.7-0.4c0,0,0,0,0,0c0.4,0.6,1,1.3,1.7,1.8c0.5,0.4,1.1,0.8,1.7,0.9
					c1.1,0.3,2,0.2,2.5,0.1c0.5-0.1,0.9-0.1,0.9-0.1s-0.4,0-1-0.1c-0.6-0.1-1.5-0.1-2.4-0.5c-0.4-0.2-0.8-0.4-1.1-0.7
					c-0.5-0.4-0.9-1-1.3-1.5c0,0,0,0-0.3-0.4c-0.1,0-0.3,0-0.4,0c-1.4,0.1-2.8-0.3-3.5-0.8c-0.3-0.2-0.5-0.4-0.6-0.8
					c-0.1-0.3,0-0.8,0.5-1.4l1.6-2.1l-2.5,1.3c-0.9,0.5-1.9,0.8-2.8,1c-0.9,0.2-1.7,0.1-2.1,0c-0.2-0.1-0.3-0.1-0.3-0.1
					c0,0-0.1-0.1-0.1-0.3c0-0.4,0.3-1.1,1.2-2c0.2-0.2,0.4-0.4,0.7-0.6c-0.5-0.2-1-0.3-1.4-0.3c-0.6,0-1.4,0.2-2.3,0.4
					c-0.9,0.2-1.8,0.4-2.7,0.5c-0.9,0.1-1.7,0-2.1-0.3c-0.2-0.1-0.4-0.2-0.5-0.5s-0.3-0.7-0.4-1.2c0-0.2-0.1-0.4-0.1-0.7
					c-0.2,0-0.5,0-0.7,0c-1.2,0-2.4-0.2-3.4-0.5c-1-0.3-1.9-0.8-2.3-1.1c-0.2-0.2-0.3-0.3-0.3-0.4c0-0.1-0.1-0.3,0.1-0.4
					c0.2-0.4,1-0.7,2.4-1l-0.7-0.9c-0.4,0.2-1.7,0.2-3.3-0.1c-1.6-0.3-3.5-0.8-5.3-1.4c-1.8-0.6-3.4-1.4-4.4-2.1
					c-0.5-0.4-0.8-0.7-1-1c-0.2-0.3-0.2-0.7,0-1.1c0.1-0.3,0.3-0.5,0.5-0.6c-0.4-0.1-0.8-0.1-1.3-0.2c-1.1-0.1-2.5-0.2-3.4-0.4
					c-0.4-0.1-0.8-0.2-1-0.3c-0.1,0-0.1-0.1-0.1,0c0,0,0.1,0.1,0.1,0.1c0,0,0-0.3,0.2-0.7c0.2-0.4,0.6-0.9,1.2-1.5
					c0.4-0.5,0.9-1,1.4-1.4c-0.7,0.2-1.5,0.4-2.2,0.6c-1.8,0.4-3.1,0.7-4,0.7c-0.4,0-0.8,0-1-0.1c-0.2,0-0.2-0.1-0.2-0.1
					c0,0,0,0,0-0.2c0-0.2,0-0.4,0.1-0.7c0.1-0.5,0.5-1.2,0.9-2l0.8-1.6l-1.7,0.8c-0.6,0.3-1.3,0.3-1.9,0.1c-0.6-0.2-1.3-0.6-2-1.1
					c-1.4-1.1-2.9-2.8-4.3-4.4l-6.5-7.9l5.8,8c0.7,1,1.1,1.6,1.2,1.9c0.1,0.1,0,0.2,0,0.2c0,0,0.1,0,0.1,0c0,0-0.5-0.2-1.1-0.7
					c-0.6-0.4-1.3-1-2.1-1.8c-3.2-2.9-7.7-7.9-9.8-11.6l-3.6-6.3l2.6,6.3c0.5,1.2,0.8,2,0.9,2.6c0.1,0.6,0.1,0.8,0.1,0.8
					c0,0,0.1,0,0.1,0c0,0,0,0-0.1-0.1c-0.2-0.1-0.6-0.5-1-0.9c-0.8-0.9-1.8-2.2-2.6-3.5c-0.8-1.3-1.4-2.6-1.6-3.3l-0.4-1.8l-0.6,1.4
					c-0.4,0.9-1,1.6-1.6,2c-0.6,0.4-1.2,0.5-1.6,0.4c-0.2,0-0.3-0.1-0.4-0.2s-0.3-0.3-0.4-0.5c-0.3-0.6-0.4-1.5-0.3-2.8l0.3-2.5
					l-1.3,1.9c-0.8,1.2-1.8,1.5-2.5,1.5c-0.4,0-0.6-0.2-0.9-0.3c-0.2-0.2-0.5-0.4-0.6-0.8c-0.4-0.9-0.4-2.4,0.8-3.9l-1-0.8
					c-0.6,0.7-2.2,1.6-4.1,1.9c-0.9,0.2-1.9,0.2-2.8,0c-0.9-0.2-1.7-0.5-2.4-1.1c-0.4-0.3-0.4-0.3-0.4-0.4c0-0.1,0.2-0.3,0.6-0.6
					c0.8-0.4,2.6-0.9,5.3-1.5l5.3-1.3l-6,0.4c-2.5,0.2-7.5-0.6-11.4-1.5c-1.9-0.5-3.6-1.1-4.4-1.5c-0.2-0.1-0.3-0.2-0.4-0.3
					c-0.1-0.1-0.1-0.1-0.1-0.1c0,0,0-0.2,0.4-0.4c0.7-0.4,2.4-0.8,5.3-1.2c1.4-0.2,2.9-0.4,4.4-0.5c-1.5,0-3.2-0.1-4.9-0.4
					c-2.8-0.5-10.4-2.1-15.1-3.7c-1.2-0.4-2.3-1-2.9-1.4c-0.3-0.2-0.5-0.4-0.5-0.5c-0.1-0.1-0.1-0.2,0-0.3c0.1-0.3,0.8-0.6,2.2-0.7
					c1.4-0.1,3.6,0,6.6,0.4l10,1.4l-10.4-2.3c-5.8-1.3-10.8-2.6-14.1-3.7c-1.7-0.5-3-1-3.8-1.4c-0.4-0.2-0.7-0.4-0.7-0.4
					c0,0,0,0,0,0.1c0,0.1,0,0.1,0,0.1c0.5-0.7,2.5-1.4,5.9-1.3c3.4,0,8.3,0.7,14.5,2.3l4.7,1.2l-4.8-2c-2.7-1.2-5-2.4-6.6-3.3
					c-0.8-0.5-1.4-0.9-1.7-1.1c-0.2-0.1-0.3-0.2-0.3-0.3c0,0,0,0,0.1,0.1c0,0.1,0.1,0.2,0.1,0.3c0,0.1-0.1,0.2-0.2,0.2
					c1.6-0.3,5.5,0.8,9.4,2.4c3.9,1.6,7.9,3.6,9.8,4.8l2.5,1.6l-2-2.1c-0.3-0.3-0.5-0.7-0.4-0.9c0-0.2,0.2-0.4,0.7-0.3
					c1,0.1,3.4,1.2,7.6,4.9c16,14,31.9,28.2,49.5,39.7c7.1,4.6,17.5,10.2,26.5,13.6c4.5,1.7,8.6,2.8,11.9,3.9
					c1.8,0.6,4.9,2.1,6.2,2.4C247.3,186.4,242.1,183.7,239.9,183"/>
				
					<path style="clip-path:url(#SVGID_00000103240955492920009110000007972865325603347631_);fill:none;stroke:#000000;stroke-width:2.5034;stroke-linecap:round;stroke-linejoin:round;stroke-miterlimit:10;" d="
					M239.9,183c-3.4-1.1-7.4-2.3-11.9-3.9c-8.8-3.3-19.2-8.9-26.1-13.4c-17.5-11.5-33.3-25.6-49.3-39.6c-4.3-3.8-7-5.2-8.5-5.3
					c-0.8-0.1-1.2,0.2-1.3,0.7c0,0.2,0,0.3,0.1,0.5c-2.3-1.3-5.6-2.9-8.9-4.2c-4-1.6-7.9-2.9-10-2.5c-0.1,0-0.2,0.1-0.2,0.2
					c0,0.1,0,0.2,0.1,0.3c0.1,0.2,0.2,0.2,0.3,0.3c0.2,0.1,0.3,0.3,0.5,0.4c0.4,0.3,1.1,0.7,1.9,1.2c0.9,0.5,1.9,1.1,3.2,1.7
					c-4.7-1-8.4-1.4-11.3-1.5c-3.5,0-5.7,0.5-6.4,1.6c-0.1,0.1-0.1,0.3,0,0.5c0.1,0.2,0.3,0.4,0.4,0.5c0.3,0.3,0.7,0.5,1.2,0.7
					c0.9,0.4,2.3,0.9,4,1.5c2.2,0.7,5,1.5,8.3,2.3c-0.4,0-0.8,0-1.2,0c-1.5,0.1-2.3,0.4-2.6,0.9c-0.1,0.3-0.1,0.7,0.2,1
					c0.2,0.4,0.6,0.7,1,1c0.9,0.6,2,1.2,3.4,1.7c3.7,1.3,9,2.5,12.5,3.3c-1.6,0.3-2.6,0.6-3.2,0.9c-0.5,0.2-0.8,0.5-0.6,1.1
					c0.1,0.3,0.3,0.5,0.5,0.7c0.2,0.2,0.5,0.4,0.8,0.5c1.2,0.6,2.9,1.2,4.9,1.7c2.5,0.6,5.5,1.2,8,1.4c-1,0.3-1.8,0.5-2.3,0.8
					c-0.5,0.3-0.8,0.5-0.8,1c0,0.4,0.4,1,1,1.5c1,0.8,2.1,1.2,3.2,1.4c1.1,0.2,2.2,0.2,3.1,0c2-0.3,3.7-1.2,4.4-2.1
					c0.5-0.6,0.7-1.3,0.6-2.1c-0.6,0.4-1.1,0.8-1.6,1.4c-1.3,1.6-1.5,3.2-0.8,4.6c0.3,0.5,0.7,1.1,1.2,1.4c0.5,0.4,1.1,0.6,1.7,0.7
					c0.7,0.1,1.4-0.1,2-0.6c0.1,0.6,0.2,1.1,0.4,1.5c0.2,0.4,0.5,0.8,0.9,1.1c0.4,0.3,0.8,0.5,1.2,0.6c0.8,0.2,1.5-0.1,2.1-0.5
					c0.4-0.3,0.8-0.7,1.2-1.2c0.3,0.7,0.8,1.5,1.2,2.2c0.8,1.4,1.9,2.7,2.8,3.8c0.5,0.5,0.9,0.9,1.3,1.2c0.2,0.2,0.5,0.3,0.7,0.4
					c0.3,0.1,0.5,0,0.6-0.1c0.2-0.2,0.2-0.6,0.1-1.1c2.4,3.3,5.7,6.7,8.2,9c0.8,0.8,1.6,1.4,2.3,1.9c0.7,0.5,1.2,0.8,1.7,1
					c0.3,0.1,0.6,0,0.7-0.2c0-0.1,0-0.1,0-0.2c0.8,0.8,1.6,1.6,2.4,2.2c0.8,0.6,1.7,1.2,2.6,1.4c0.4,0.1,0.7,0.2,1.1,0.2
					c-0.2,0.4-0.3,0.7-0.4,1c-0.1,0.3-0.1,0.6-0.1,0.9c0,0.3,0.1,0.6,0.4,0.9s0.7,0.5,1.1,0.6c0.4,0.1,0.8,0.1,1.3,0.1
					c0.6,0,1.4-0.1,2.3-0.3c-0.1,0.1-0.2,0.2-0.2,0.4c-0.2,0.4-0.4,0.7-0.2,1.1c0.1,0.2,0.2,0.5,0.4,0.6c0.2,0.2,0.4,0.3,0.6,0.4
					c0.4,0.2,0.8,0.3,1.2,0.4c0.8,0.2,1.8,0.3,2.6,0.4c0,0.3,0.1,0.6,0.2,1c0.3,0.6,0.8,1.1,1.5,1.6c1.3,1,3,1.8,4.9,2.4
					c1.9,0.7,3.9,1.2,5.5,1.4c1.7,0.3,3,0.4,3.7,0.1c0.4-0.2,0.7-0.6,0.7-1.1c-0.5,0-1,0.1-1.5,0.2c-1.5,0.2-2.4,0.6-2.8,1.2
					c-0.2,0.3-0.2,0.6-0.1,1c0.1,0.4,0.5,0.8,0.8,1.1c0.8,0.6,1.8,1.1,2.9,1.5c1,0.3,2.1,0.5,3.1,0.6c0.1,0.4,0.3,0.7,0.5,1
					c0.3,0.5,0.8,0.9,1.3,1.1c1,0.5,1.9,0.5,2.9,0.5c1-0.1,1.9-0.3,2.8-0.5c0.1,0,0.3-0.1,0.4-0.1c-0.3,0.4-0.4,0.8-0.4,1.2
					c0,0.3,0.1,0.7,0.4,1.1c0.3,0.4,0.7,0.6,1.1,0.7c0.8,0.2,1.6,0.2,2.6,0c0.5-0.1,1-0.2,1.5-0.4c0,0.1,0,0.3,0,0.4
					c0.1,0.6,0.6,1.3,1.3,1.7c1.3,0.9,2.9,1.2,4.4,1.1l-0.7-0.4c0,0,0,0,0,0c0.4,0.6,1,1.3,1.7,1.8c0.5,0.4,1.1,0.8,1.7,0.9
					c1.1,0.3,2,0.2,2.5,0.1c0.5-0.1,0.9-0.1,0.9-0.1s-0.4,0-1-0.1c-0.6-0.1-1.5-0.1-2.4-0.5c-0.4-0.2-0.8-0.4-1.1-0.7
					c-0.5-0.4-0.9-1-1.3-1.5c0,0,0,0-0.3-0.4c-0.1,0-0.3,0-0.4,0c-1.4,0.1-2.8-0.3-3.5-0.8c-0.3-0.2-0.5-0.4-0.6-0.8
					c-0.1-0.3,0-0.8,0.5-1.4l1.6-2.1l-2.5,1.3c-0.9,0.5-1.9,0.8-2.8,1c-0.9,0.2-1.7,0.1-2.1,0c-0.2-0.1-0.3-0.1-0.3-0.1
					c0,0-0.1-0.1-0.1-0.3c0-0.4,0.3-1.1,1.2-2c0.2-0.2,0.4-0.4,0.7-0.6c-0.5-0.2-1-0.3-1.4-0.3c-0.6,0-1.4,0.2-2.3,0.4
					c-0.9,0.2-1.8,0.4-2.7,0.5c-0.9,0.1-1.7,0-2.1-0.3c-0.2-0.1-0.4-0.2-0.5-0.5s-0.3-0.7-0.4-1.2c0-0.2-0.1-0.4-0.1-0.7
					c-0.2,0-0.5,0-0.7,0c-1.2,0-2.4-0.2-3.4-0.5c-1-0.3-1.9-0.8-2.3-1.1c-0.2-0.2-0.3-0.3-0.3-0.4c0-0.1-0.1-0.3,0.1-0.4
					c0.2-0.4,1-0.7,2.4-1l-0.7-0.9c-0.4,0.2-1.7,0.2-3.3-0.1c-1.6-0.3-3.5-0.8-5.3-1.4c-1.8-0.6-3.4-1.4-4.4-2.1
					c-0.5-0.4-0.8-0.7-1-1c-0.2-0.3-0.2-0.7,0-1.1c0.1-0.3,0.3-0.5,0.5-0.6c-0.4-0.1-0.8-0.1-1.3-0.2c-1.1-0.1-2.5-0.2-3.4-0.4
					c-0.4-0.1-0.8-0.2-1-0.3c-0.1,0-0.1-0.1-0.1,0c0,0,0.1,0.1,0.1,0.1c0,0,0-0.3,0.2-0.7c0.2-0.4,0.6-0.9,1.2-1.5
					c0.4-0.5,0.9-1,1.4-1.4c-0.7,0.2-1.5,0.4-2.2,0.6c-1.8,0.4-3.1,0.7-4,0.7c-0.4,0-0.8,0-1-0.1c-0.2,0-0.2-0.1-0.2-0.1
					c0,0,0,0,0-0.2c0-0.2,0-0.4,0.1-0.7c0.1-0.5,0.5-1.2,0.9-2l0.8-1.6l-1.7,0.8c-0.6,0.3-1.3,0.3-1.9,0.1c-0.6-0.2-1.3-0.6-2-1.1
					c-1.4-1.1-2.9-2.8-4.3-4.4l-6.5-7.9l5.8,8c0.7,1,1.1,1.6,1.2,1.9c0.1,0.1,0,0.2,0,0.2c0,0,0.1,0,0.1,0c0,0-0.5-0.2-1.1-0.7
					c-0.6-0.4-1.3-1-2.1-1.8c-3.2-2.9-7.7-7.9-9.8-11.6l-3.6-6.3l2.6,6.3c0.5,1.2,0.8,2,0.9,2.6c0.1,0.6,0.1,0.8,0.1,0.8
					c0,0,0.1,0,0.1,0c0,0,0,0-0.1-0.1c-0.2-0.1-0.6-0.5-1-0.9c-0.8-0.9-1.8-2.2-2.6-3.5c-0.8-1.3-1.4-2.6-1.6-3.3l-0.4-1.8l-0.6,1.4
					c-0.4,0.9-1,1.6-1.6,2c-0.6,0.4-1.2,0.5-1.6,0.4c-0.2,0-0.3-0.1-0.4-0.2s-0.3-0.3-0.4-0.5c-0.3-0.6-0.4-1.5-0.3-2.8l0.3-2.5
					l-1.3,1.9c-0.8,1.2-1.8,1.5-2.5,1.5c-0.4,0-0.6-0.2-0.9-0.3c-0.2-0.2-0.5-0.4-0.6-0.8c-0.4-0.9-0.4-2.4,0.8-3.9l-1-0.8
					c-0.6,0.7-2.2,1.6-4.1,1.9c-0.9,0.2-1.9,0.2-2.8,0c-0.9-0.2-1.7-0.5-2.4-1.1c-0.4-0.3-0.4-0.3-0.4-0.4c0-0.1,0.2-0.3,0.6-0.6
					c0.8-0.4,2.6-0.9,5.3-1.5l5.3-1.3l-6,0.4c-2.5,0.2-7.5-0.6-11.4-1.5c-1.9-0.5-3.6-1.1-4.4-1.5c-0.2-0.1-0.3-0.2-0.4-0.3
					c-0.1-0.1-0.1-0.1-0.1-0.1c0,0,0-0.2,0.4-0.4c0.7-0.4,2.4-0.8,5.3-1.2c1.4-0.2,2.9-0.4,4.4-0.5c-1.5,0-3.2-0.1-4.9-0.4
					c-2.8-0.5-10.4-2.1-15.1-3.7c-1.2-0.4-2.3-1-2.9-1.4c-0.3-0.2-0.5-0.4-0.5-0.5c-0.1-0.1-0.1-0.2,0-0.3c0.1-0.3,0.8-0.6,2.2-0.7
					c1.4-0.1,3.6,0,6.6,0.4l10,1.4l-10.4-2.3c-5.8-1.3-10.8-2.6-14.1-3.7c-1.7-0.5-3-1-3.8-1.4c-0.4-0.2-0.7-0.4-0.7-0.4
					c0,0,0,0,0,0.1c0,0.1,0,0.1,0,0.1c0.5-0.7,2.5-1.4,5.9-1.3c3.4,0,8.3,0.7,14.5,2.3l4.7,1.2l-4.8-2c-2.7-1.2-5-2.4-6.6-3.3
					c-0.8-0.5-1.4-0.9-1.7-1.1c-0.2-0.1-0.3-0.2-0.3-0.3c0,0,0,0,0.1,0.1c0,0.1,0.1,0.2,0.1,0.3c0,0.1-0.1,0.2-0.2,0.2
					c1.6-0.3,5.5,0.8,9.4,2.4c3.9,1.6,7.9,3.6,9.8,4.8l2.5,1.6l-2-2.1c-0.3-0.3-0.5-0.7-0.4-0.9c0-0.2,0.2-0.4,0.7-0.3
					c1,0.1,3.4,1.2,7.6,4.9c16,14,31.9,28.2,49.5,39.7c7.1,4.6,17.5,10.2,26.5,13.6c4.5,1.7,8.6,2.8,11.9,3.9
					c1.8,0.6,4.9,2.1,6.2,2.4C247.3,186.4,242.1,183.7,239.9,183z"/>
				<path style="clip-path:url(#SVGID_00000103240955492920009110000007972865325603347631_);" d="M142.8,123.1
					c2.1,1.4,3.8,2.6,5.3,3.8c1.4,1.1,2.3,1.9,2.3,1.9s-0.7-0.9-2-2.2c-1.4-1.3-3.2-2.8-5.3-4.2c-4.9-3.2-10.8-6.1-17.3-8.6
					c-4.7-1.8-10-3.9-16-6.6C98.9,102.3,86,94.9,70,83.8c-8.6-6-24.1-18.1-33.8-24.8c-2.4-1.7-4.4-3-6-3.9c-0.8-0.4-1.4-0.7-1.9-0.9
					c-0.3-0.1-0.5-0.1-0.7-0.1c-0.2,0-0.4,0.2-0.4,0.3c-0.1,0.4,0.1,0.9,0.5,1.5c0.4,0.6,1,1.4,1.8,2.5c1.7,2,4.3,4.9,8,8.9
					c17.5,18.3,38.7,34.7,59.9,44.2c-13.2-4.3-25.2-10.8-35.9-15.7c-8.9-4.1-23.2-11.9-32.9-18.1c-3.7-2.4-6.3-3.7-7.9-4.3
					c-0.8-0.3-1.5-0.4-2-0.3c-0.5,0.1-0.6,0.5-0.6,1c0.1,1,1,2.4,2.3,4c1.3,1.7,3,3.6,5,5.6c10.7,11,25.8,19.2,38.4,25.1
					c-7.2-2.7-15.2-6.8-21.6-10.1c-4.2-2.1-7.7-3.9-9.9-4.8c-1.1-0.5-2-0.7-2.6-0.6c-0.3,0.1-0.4,0.3-0.4,0.7c0,0.3,0.2,0.7,0.5,1.1
					c1.4,2.1,4.5,5,8.9,8.5c4.4,3.4,10.1,7.3,16.4,10.9c5.1,2.9,10.6,5.7,16,7.9c-4.3-1.4-8.3-3-11.6-4.4c-2.9-1.2-5.3-2.3-7.1-3.1
					c-0.9-0.4-1.6-0.7-2.2-0.9c-0.6-0.2-1-0.4-1.4-0.3c-0.6,0.2-1,0.5-1,1.1c0,0.6,0.4,1.3,1.1,2.2c1.4,1.7,4,4,8.2,7.2
					c10.8,8.2,20.8,13.2,31.2,15.7c-3.4-0.4-6.3-0.9-8.7-1.4c-3.9-0.8-6-1-6.9-0.6c-0.2,0.1-0.4,0.2-0.5,0.4c-0.1,0.2,0,0.5,0.1,0.7
					c0.3,0.5,0.8,1,1.5,1.5c2.6,2,7.6,4.6,10.6,6.2c6,3.1,12.8,5.5,19.1,7c5.1,1.2,9.8,2.2,14.3,2.9c-3.5,0.1-7,0.1-10,0.1
					c-2.3,0-4.3,0.1-5.8,0.3c-0.7,0.1-1.3,0.2-1.7,0.4c-0.4,0.2-0.7,0.4-0.7,0.8c0,0.4,0.2,0.9,0.5,1.3s0.8,0.9,1.3,1.3
					c1.1,0.8,2.5,1.5,4.3,2.2c3.5,1.4,8.2,2.6,13.3,3.4c3.6,0.6,6.1,0.9,9.1,0.9c-0.8,0.2-1.6,0.5-2.2,0.7c-1.5,0.6-2.3,1.2-2.4,1.9
					c0,0.3,0.1,0.6,0.3,0.9c0.2,0.3,0.5,0.6,0.9,0.9c0.7,0.5,1.6,0.9,2.7,1.3c2.2,0.7,5.1,1.3,8.3,1.5c6.5,0.5,14.1-0.1,18.8-3
					c1.1-0.7,2.1-1.5,2.9-2.5c-1.3,0.5-2.5,1.1-3.7,1.7c-2.9,1.4-4.7,2.6-5.5,3.5c-0.4,0.5-0.6,0.8-0.5,1.3c0.1,0.3,0.3,0.6,0.6,0.8
					c0.3,0.2,0.6,0.3,0.9,0.3c0.9,0.2,1.6-0.2,2.8-0.6c0.4-0.1,0.8-0.3,1.3-0.5c-0.8,0.6-1.3,1.2-1.6,1.8c-0.2,0.5-0.2,1.1,0.2,1.6
					s1.1,0.9,1.8,1.2c1.4,0.5,3.2,0.6,5.2,0.6c1.2,0,2.5-0.2,3.7-0.4c0,0.1-0.1,0.1-0.1,0.2c-0.3,0.5-0.3,1-0.1,1.5s0.8,1,1.3,1.3
					c0.6,0.3,1.2,0.5,1.9,0.7c1.6,0.4,3.6,0.7,5.4,0.8c-3.1,0.8-5.1,1.5-6,2.5c-0.4,0.4-0.5,0.9-0.5,1.4c0.1,0.5,0.4,1.1,0.9,1.5
					c1,0.9,2.5,1.4,4.3,1.7c2.6,0.5,5.9,0.6,9.3,0.1c-0.8,0.5-1.5,1-2,1.4c-1,0.9-1.5,1.6-1.2,2.5c0.2,0.5,0.6,0.9,1.1,1.3
					c0.5,0.4,1.1,0.6,1.9,0.9c1.5,0.6,3.4,1.1,5.9,1.6c4.2,1,7.4,0.7,10.4,0.3c0,0.1,0,0.2,0.1,0.3c0.1,0.3,0.4,0.5,0.6,0.6
					c0.2,0.1,0.4,0.2,0.7,0.3c0.5,0.1,1,0.2,1.6,0.3c0.8,0.1,1.8,0.2,2.8,0.1c-0.9,0.2-1.8,0.3-2.6,0.4c-1.1,0.1-2,0.2-2.8,0.3
					c-0.4,0.1-0.7,0.1-0.9,0.3c-0.2,0.1-0.4,0.3-0.4,0.6c0.1,0.3,0.3,0.7,0.6,1s0.7,0.6,1.1,0.9c0.9,0.5,2,1,3.3,1.4
					c2.2,0.7,4.9,1.2,7.8,1.3c0,0,0,0,0,0c-0.1,0.2-0.1,0.3-0.1,0.5c0,0.2,0.2,0.5,0.4,0.7c0.4,0.4,0.9,0.6,1.4,0.7
					c0.5,0.2,1.1,0.3,1.7,0.4c1.7,0.3,3.7,0.4,5.2,0.5c-0.2,0.2-0.4,0.5-0.4,0.7c-0.1,0.3-0.1,0.6,0.2,0.9c0.2,0.3,0.6,0.6,0.9,0.8
					c0.7,0.4,1.5,0.5,2.5,0.7c1,0.1,2.1,0.1,3.4,0.1c3.2-0.1,6.1-0.6,8.6-1.3c2.5-0.7,4.5-1.5,6.1-2.3c2.5-1.3,3.1-2.8,3.1-2.8
					s-0.8,1.3-3.5,2.4c-1.7,0.7-3.7,1.4-6.4,2c-2.6,0.6-5.4,1-8.6,1.1c-1.2,0-2.3,0-3.3-0.1c-0.9-0.1-1.7-0.3-2-0.5
					c-0.2-0.1-0.2-0.1-0.2-0.1c0,0,0-0.1,0-0.3c0.1-0.3,0.5-0.8,1.4-1.4l1.8-1.2l-2.6,0.4c-1,0.1-4.4,0-6.8-0.4
					c-0.6-0.1-1.1-0.2-1.6-0.4c-0.4-0.1-0.7-0.3-0.7-0.3c0,0,0,0.1,0,0.1c0,0,0-0.1,0-0.1c0.1-0.2,0.4-0.4,1-0.7l1.9-0.9l-2.5,0
					c-3.5,0-6.9-0.6-9.4-1.3c-1.2-0.4-2.3-0.8-2.9-1.2c-0.3-0.2-0.6-0.4-0.7-0.5s-0.2-0.2-0.2-0.4c0,0,0-0.1,0.1-0.1
					c0.1-0.1,0.4-0.1,0.7-0.2c0.7-0.1,1.6-0.2,2.7-0.3c2.2-0.2,4.7-0.5,6.3-1.9l3.4-2.9l-4.2,2.1c-0.5,0.2-1.6,0.4-2.8,0.5
					c-1.2,0.1-2.7,0-3.8-0.1c-0.5-0.1-1-0.2-1.3-0.3c-0.2,0-0.3-0.1-0.3-0.1c0,0,0.1,0.1,0.1,0.2c0,0.1,0,0.1,0,0
					c0-0.1,0.1-0.1,0.3-0.2c0.3-0.2,0.8-0.4,1.6-0.7l6.3-2l-7,1.1c-3.8,0.6-7.7,1.4-12.9,0.2c-2.4-0.6-4.4-1.1-5.7-1.6
					c-0.7-0.3-1.2-0.5-1.5-0.7c-0.3-0.2-0.4-0.3-0.5-0.5c-0.1-0.3,0.1-1,1.1-1.9c1-0.8,2.6-1.8,5-3.1l4.8-2.5l-5.6,1.6
					c-4.5,1.3-9.4,1.4-12.7,0.7c-1.7-0.3-3-0.9-3.5-1.3c-0.3-0.2-0.4-0.4-0.4-0.6c0-0.3,0.1-0.6,0.4-1c0.9-1.1,4-1.9,8.7-3.2
					c1.6-0.4,3.2-0.9,4.8-1.3c-1.7,0.3-3.5,0.4-5.4,0.4c-2.3,0-6.2-0.2-8.8-0.9c-0.6-0.2-1.2-0.4-1.5-0.6c-0.3-0.2-0.5-0.3-0.5-0.5
					s-0.1-0.5,0.1-0.9c0.2-0.4,0.7-0.9,1.4-1.4l2.4-1.8l-3.2,1c-1.8,0.5-3.8,0.8-5.7,0.9c-1.9,0.1-3.7-0.1-4.7-0.5
					c-0.5-0.2-0.8-0.4-0.9-0.5c-0.1-0.1-0.2-0.4,0-0.8c0.4-0.8,1.8-2.1,4.6-3.6c1.2-0.6,2.4-1.1,3.6-1.6c-1.5,0.2-3,0.4-4.4,0.7
					c-2.5,0.6-4.2,1.2-5.4,1.6c-1.2,0.4-2,0.6-2.4,0.6c-0.2,0-0.3-0.1-0.3-0.1c0,0,0.1,0.1,0.1,0.1c0,0,0-0.4,0.4-0.8
					c0.7-0.8,2.4-2,5.3-3.4l-0.8-0.9c-4.5,2.8-12.1,3.5-18.4,3c-3.2-0.3-6-0.8-8-1.5c-1-0.3-1.8-0.7-2.2-1c-0.2-0.1-0.3-0.3-0.4-0.4
					c-0.1-0.1-0.1-0.2-0.1-0.3c0-0.3,0.7-1,2.1-1.6c1.5-0.6,3.8-1.3,7.1-1.9l8.6-1.7l-9.2,0.8c-6.3,0.5-9.1,0.3-14.6-0.6
					c-5-0.8-9.7-2-13-3.3c-1.7-0.6-3-1.3-3.9-1.9c-0.4-0.3-0.7-0.6-0.9-0.8c-0.2-0.2-0.3-0.4-0.3-0.7c0-0.1,0.1-0.2,0.5-0.4
					c0.3-0.1,0.9-0.3,1.6-0.3c1.4-0.2,3.4-0.2,5.7-0.3c4.6-0.1,10.6,0,15.7-0.4c2.6-0.2,5.1-0.5,7.4-1c-2.5,0.2-5.2,0.2-8,0.1
					c-6.2-0.4-12.9-1.7-20.4-3.5c-6.2-1.5-12.9-3.8-18.7-6.9c-2.9-1.5-8.1-4.2-10.3-6c-0.5-0.4-0.9-0.8-1-0.9c0-0.1,0-0.1,0-0.1
					c0,0,0.1-0.1,0.2-0.2c0.6-0.2,2.6-0.1,6.4,0.7c4.1,0.9,9.7,1.8,16.3,2c3.3,0.1,6.4,0,9.4-0.4c-3.2,0.1-6.5-0.1-9.9-0.6
					c-13-1.7-24.9-6.8-38.2-16.8c-4.2-3.2-6.7-5.4-7.8-6.9c-0.6-0.7-0.8-1.2-0.8-1.5c0-0.3,0.2-0.5,0.7-0.7c0,0,0.3,0,0.8,0.2
					c0.5,0.2,1.2,0.5,2.1,0.9c1.8,0.8,4.2,1.9,7.1,3.1c5.9,2.5,13.7,5.5,22.2,7.3l13.2,2.9l-13.4-3.8c-8.4-2.4-17.8-6.7-26.2-11.5
					c-6.2-3.6-11.8-7.3-16.2-10.7c-4.3-3.4-7.4-6.3-8.5-8c-0.2-0.3-0.3-0.6-0.3-0.7c0-0.1,0-0.1,0.1-0.1c0.2,0,0.9,0.1,1.9,0.5
					c2.1,0.8,5.6,2.6,9.8,4.8c8.3,4.3,19.4,9.9,28.2,12.3c1.2,0.3,2.5,0.6,3.7,0.8c-1.3-0.5-2.5-1.1-3.8-1.7
					c-13.4-5.9-31.9-14.9-44.1-27.5c-1.9-2-3.6-3.9-4.8-5.5c-1.2-1.6-1.9-2.9-2-3.5c0-0.3,0-0.4,0.2-0.5c0.2-0.1,0.6,0,1.4,0.2
					c1.4,0.5,3.9,1.8,7.5,4.1c9.7,6.2,24,14.1,33.1,18.2c12.5,5.7,27,13.7,43.2,17.8c2.5,0.6,5,1.2,7.5,1.6
					c-2.5-0.7-5.1-1.5-7.6-2.5C81.5,105.1,57.5,87.2,38.2,67c-3.8-3.9-6.3-6.8-7.9-8.8c-0.8-1-1.4-1.7-1.7-2.3
					c-0.3-0.5-0.4-0.8-0.4-0.9c0,0,0,0,0,0c0,0,0.1,0,0.3,0c0.3,0.1,0.8,0.3,1.5,0.7c1.4,0.8,3.4,2.1,5.8,3.7
					c9.5,6.6,25,18.7,33.8,24.8c16.1,11.1,29.1,18.7,40.1,23.7c6,2.7,11.3,4.8,16.1,6.6C132.3,117.2,138.1,120,142.8,123.1z"/>
				
					<path style="clip-path:url(#SVGID_00000103240955492920009110000007972865325603347631_);fill:none;stroke:#000000;stroke-width:2.5034;stroke-linecap:round;stroke-linejoin:round;stroke-miterlimit:10;" d="
					M142.8,123.1c2.1,1.4,3.8,2.6,5.3,3.8c1.4,1.1,2.3,1.9,2.3,1.9s-0.7-0.9-2-2.2c-1.4-1.3-3.2-2.8-5.3-4.2
					c-4.9-3.2-10.8-6.1-17.3-8.6c-4.7-1.8-10-3.9-16-6.6C98.9,102.3,86,94.9,70,83.8c-8.6-6-24.1-18.1-33.8-24.8
					c-2.4-1.7-4.4-3-6-3.9c-0.8-0.4-1.4-0.7-1.9-0.9c-0.3-0.1-0.5-0.1-0.7-0.1c-0.2,0-0.4,0.2-0.4,0.3c-0.1,0.4,0.1,0.9,0.5,1.5
					c0.4,0.6,1,1.4,1.8,2.5c1.7,2,4.3,4.9,8,8.9c17.5,18.3,38.7,34.7,59.9,44.2c-13.2-4.3-25.2-10.8-35.9-15.7
					c-8.9-4.1-23.2-11.9-32.9-18.1c-3.7-2.4-6.3-3.7-7.9-4.3c-0.8-0.3-1.5-0.4-2-0.3c-0.5,0.1-0.6,0.5-0.6,1c0.1,1,1,2.4,2.3,4
					c1.3,1.7,3,3.6,5,5.6c10.7,11,25.8,19.2,38.4,25.1c-7.2-2.7-15.2-6.8-21.6-10.1c-4.2-2.1-7.7-3.9-9.9-4.8
					c-1.1-0.5-2-0.7-2.6-0.6c-0.3,0.1-0.4,0.3-0.4,0.7c0,0.3,0.2,0.7,0.5,1.1c1.4,2.1,4.5,5,8.9,8.5c4.4,3.4,10.1,7.3,16.4,10.9
					c5.1,2.9,10.6,5.7,16,7.9c-4.3-1.4-8.3-3-11.6-4.4c-2.9-1.2-5.3-2.3-7.1-3.1c-0.9-0.4-1.6-0.7-2.2-0.9c-0.6-0.2-1-0.4-1.4-0.3
					c-0.6,0.2-1,0.5-1,1.1c0,0.6,0.4,1.3,1.1,2.2c1.4,1.7,4,4,8.2,7.2c10.8,8.2,20.8,13.2,31.2,15.7c-3.4-0.4-6.3-0.9-8.7-1.4
					c-3.9-0.8-6-1-6.9-0.6c-0.2,0.1-0.4,0.2-0.5,0.4c-0.1,0.2,0,0.5,0.1,0.7c0.3,0.5,0.8,1,1.5,1.5c2.6,2,7.6,4.6,10.6,6.2
					c6,3.1,12.8,5.5,19.1,7c5.1,1.2,9.8,2.2,14.3,2.9c-3.5,0.1-7,0.1-10,0.1c-2.3,0-4.3,0.1-5.8,0.3c-0.7,0.1-1.3,0.2-1.7,0.4
					c-0.4,0.2-0.7,0.4-0.7,0.8c0,0.4,0.2,0.9,0.5,1.3s0.8,0.9,1.3,1.3c1.1,0.8,2.5,1.5,4.3,2.2c3.5,1.4,8.2,2.6,13.3,3.4
					c3.6,0.6,6.1,0.9,9.1,0.9c-0.8,0.2-1.6,0.5-2.2,0.7c-1.5,0.6-2.3,1.2-2.4,1.9c0,0.3,0.1,0.6,0.3,0.9c0.2,0.3,0.5,0.6,0.9,0.9
					c0.7,0.5,1.6,0.9,2.7,1.3c2.2,0.7,5.1,1.3,8.3,1.5c6.5,0.5,14.1-0.1,18.8-3c1.1-0.7,2.1-1.5,2.9-2.5c-1.3,0.5-2.5,1.1-3.7,1.7
					c-2.9,1.4-4.7,2.6-5.5,3.5c-0.4,0.5-0.6,0.8-0.5,1.3c0.1,0.3,0.3,0.6,0.6,0.8c0.3,0.2,0.6,0.3,0.9,0.3c0.9,0.2,1.6-0.2,2.8-0.6
					c0.4-0.1,0.8-0.3,1.3-0.5c-0.8,0.6-1.3,1.2-1.6,1.8c-0.2,0.5-0.2,1.1,0.2,1.6s1.1,0.9,1.8,1.2c1.4,0.5,3.2,0.6,5.2,0.6
					c1.2,0,2.5-0.2,3.7-0.4c0,0.1-0.1,0.1-0.1,0.2c-0.3,0.5-0.3,1-0.1,1.5s0.8,1,1.3,1.3c0.6,0.3,1.2,0.5,1.9,0.7
					c1.6,0.4,3.6,0.7,5.4,0.8c-3.1,0.8-5.1,1.5-6,2.5c-0.4,0.4-0.5,0.9-0.5,1.4c0.1,0.5,0.4,1.1,0.9,1.5c1,0.9,2.5,1.4,4.3,1.7
					c2.6,0.5,5.9,0.6,9.3,0.1c-0.8,0.5-1.5,1-2,1.4c-1,0.9-1.5,1.6-1.2,2.5c0.2,0.5,0.6,0.9,1.1,1.3c0.5,0.4,1.1,0.6,1.9,0.9
					c1.5,0.6,3.4,1.1,5.9,1.6c4.2,1,7.4,0.7,10.4,0.3c0,0.1,0,0.2,0.1,0.3c0.1,0.3,0.4,0.5,0.6,0.6c0.2,0.1,0.4,0.2,0.7,0.3
					c0.5,0.1,1,0.2,1.6,0.3c0.8,0.1,1.8,0.2,2.8,0.1c-0.9,0.2-1.8,0.3-2.6,0.4c-1.1,0.1-2,0.2-2.8,0.3c-0.4,0.1-0.7,0.1-0.9,0.3
					c-0.2,0.1-0.4,0.3-0.4,0.6c0.1,0.3,0.3,0.7,0.6,1s0.7,0.6,1.1,0.9c0.9,0.5,2,1,3.3,1.4c2.2,0.7,4.9,1.2,7.8,1.3c0,0,0,0,0,0
					c-0.1,0.2-0.1,0.3-0.1,0.5c0,0.2,0.2,0.5,0.4,0.7c0.4,0.4,0.9,0.6,1.4,0.7c0.5,0.2,1.1,0.3,1.7,0.4c1.7,0.3,3.7,0.4,5.2,0.5
					c-0.2,0.2-0.4,0.5-0.4,0.7c-0.1,0.3-0.1,0.6,0.2,0.9c0.2,0.3,0.6,0.6,0.9,0.8c0.7,0.4,1.5,0.5,2.5,0.7c1,0.1,2.1,0.1,3.4,0.1
					c3.2-0.1,6.1-0.6,8.6-1.3c2.5-0.7,4.5-1.5,6.1-2.3c2.5-1.3,3.1-2.8,3.1-2.8s-0.8,1.3-3.5,2.4c-1.7,0.7-3.7,1.4-6.4,2
					c-2.6,0.6-5.4,1-8.6,1.1c-1.2,0-2.3,0-3.3-0.1c-0.9-0.1-1.7-0.3-2-0.5c-0.2-0.1-0.2-0.1-0.2-0.1c0,0,0-0.1,0-0.3
					c0.1-0.3,0.5-0.8,1.4-1.4l1.8-1.2l-2.6,0.4c-1,0.1-4.4,0-6.8-0.4c-0.6-0.1-1.1-0.2-1.6-0.4c-0.4-0.1-0.7-0.3-0.7-0.3
					c0,0,0,0.1,0,0.1c0,0,0-0.1,0-0.1c0.1-0.2,0.4-0.4,1-0.7l1.9-0.9l-2.5,0c-3.5,0-6.9-0.6-9.4-1.3c-1.2-0.4-2.3-0.8-2.9-1.2
					c-0.3-0.2-0.6-0.4-0.7-0.5s-0.2-0.2-0.2-0.4c0,0,0-0.1,0.1-0.1c0.1-0.1,0.4-0.1,0.7-0.2c0.7-0.1,1.6-0.2,2.7-0.3
					c2.2-0.2,4.7-0.5,6.3-1.9l3.4-2.9l-4.2,2.1c-0.5,0.2-1.6,0.4-2.8,0.5c-1.2,0.1-2.7,0-3.8-0.1c-0.5-0.1-1-0.2-1.3-0.3
					c-0.2,0-0.3-0.1-0.3-0.1c0,0,0.1,0.1,0.1,0.2c0,0.1,0,0.1,0,0c0-0.1,0.1-0.1,0.3-0.2c0.3-0.2,0.8-0.4,1.6-0.7l6.3-2l-7,1.1
					c-3.8,0.6-7.7,1.4-12.9,0.2c-2.4-0.6-4.4-1.1-5.7-1.6c-0.7-0.3-1.2-0.5-1.5-0.7c-0.3-0.2-0.4-0.3-0.5-0.5
					c-0.1-0.3,0.1-1,1.1-1.9c1-0.8,2.6-1.8,5-3.1l4.8-2.5l-5.6,1.6c-4.5,1.3-9.4,1.4-12.7,0.7c-1.7-0.3-3-0.9-3.5-1.3
					c-0.3-0.2-0.4-0.4-0.4-0.6c0-0.3,0.1-0.6,0.4-1c0.9-1.1,4-1.9,8.7-3.2c1.6-0.4,3.2-0.9,4.8-1.3c-1.7,0.3-3.5,0.4-5.4,0.4
					c-2.3,0-6.2-0.2-8.8-0.9c-0.6-0.2-1.2-0.4-1.5-0.6c-0.3-0.2-0.5-0.3-0.5-0.5s-0.1-0.5,0.1-0.9c0.2-0.4,0.7-0.9,1.4-1.4l2.4-1.8
					l-3.2,1c-1.8,0.5-3.8,0.8-5.7,0.9c-1.9,0.1-3.7-0.1-4.7-0.5c-0.5-0.2-0.8-0.4-0.9-0.5c-0.1-0.1-0.2-0.4,0-0.8
					c0.4-0.8,1.8-2.1,4.6-3.6c1.2-0.6,2.4-1.1,3.6-1.6c-1.5,0.2-3,0.4-4.4,0.7c-2.5,0.6-4.2,1.2-5.4,1.6c-1.2,0.4-2,0.6-2.4,0.6
					c-0.2,0-0.3-0.1-0.3-0.1c0,0,0.1,0.1,0.1,0.1c0,0,0-0.4,0.4-0.8c0.7-0.8,2.4-2,5.3-3.4l-0.8-0.9c-4.5,2.8-12.1,3.5-18.4,3
					c-3.2-0.3-6-0.8-8-1.5c-1-0.3-1.8-0.7-2.2-1c-0.2-0.1-0.3-0.3-0.4-0.4c-0.1-0.1-0.1-0.2-0.1-0.3c0-0.3,0.7-1,2.1-1.6
					c1.5-0.6,3.8-1.3,7.1-1.9l8.6-1.7l-9.2,0.8c-6.3,0.5-9.1,0.3-14.6-0.6c-5-0.8-9.7-2-13-3.3c-1.7-0.6-3-1.3-3.9-1.9
					c-0.4-0.3-0.7-0.6-0.9-0.8c-0.2-0.2-0.3-0.4-0.3-0.7c0-0.1,0.1-0.2,0.5-0.4c0.3-0.1,0.9-0.3,1.6-0.3c1.4-0.2,3.4-0.2,5.7-0.3
					c4.6-0.1,10.6,0,15.7-0.4c2.6-0.2,5.1-0.5,7.4-1c-2.5,0.2-5.2,0.2-8,0.1c-6.2-0.4-12.9-1.7-20.4-3.5c-6.2-1.5-12.9-3.8-18.7-6.9
					c-2.9-1.5-8.1-4.2-10.3-6c-0.5-0.4-0.9-0.8-1-0.9c0-0.1,0-0.1,0-0.1c0,0,0.1-0.1,0.2-0.2c0.6-0.2,2.6-0.1,6.4,0.7
					c4.1,0.9,9.7,1.8,16.3,2c3.3,0.1,6.4,0,9.4-0.4c-3.2,0.1-6.5-0.1-9.9-0.6c-13-1.7-24.9-6.8-38.2-16.8c-4.2-3.2-6.7-5.4-7.8-6.9
					c-0.6-0.7-0.8-1.2-0.8-1.5c0-0.3,0.2-0.5,0.7-0.7c0,0,0.3,0,0.8,0.2c0.5,0.2,1.2,0.5,2.1,0.9c1.8,0.8,4.2,1.9,7.1,3.1
					c5.9,2.5,13.7,5.5,22.2,7.3l13.2,2.9l-13.4-3.8c-8.4-2.4-17.8-6.7-26.2-11.5c-6.2-3.6-11.8-7.3-16.2-10.7
					c-4.3-3.4-7.4-6.3-8.5-8c-0.2-0.3-0.3-0.6-0.3-0.7c0-0.1,0-0.1,0.1-0.1c0.2,0,0.9,0.1,1.9,0.5c2.1,0.8,5.6,2.6,9.8,4.8
					c8.3,4.3,19.4,9.9,28.2,12.3c1.2,0.3,2.5,0.6,3.7,0.8c-1.3-0.5-2.5-1.1-3.8-1.7c-13.4-5.9-31.9-14.9-44.1-27.5
					c-1.9-2-3.6-3.9-4.8-5.5c-1.2-1.6-1.9-2.9-2-3.5c0-0.3,0-0.4,0.2-0.5c0.2-0.1,0.6,0,1.4,0.2c1.4,0.5,3.9,1.8,7.5,4.1
					c9.7,6.2,24,14.1,33.1,18.2c12.5,5.7,27,13.7,43.2,17.8c2.5,0.6,5,1.2,7.5,1.6c-2.5-0.7-5.1-1.5-7.6-2.5
					C81.5,105.1,57.5,87.2,38.2,67c-3.8-3.9-6.3-6.8-7.9-8.8c-0.8-1-1.4-1.7-1.7-2.3c-0.3-0.5-0.4-0.8-0.4-0.9c0,0,0,0,0,0
					c0,0,0.1,0,0.3,0c0.3,0.1,0.8,0.3,1.5,0.7c1.4,0.8,3.4,2.1,5.8,3.7c9.5,6.6,25,18.7,33.8,24.8c16.1,11.1,29.1,18.7,40.1,23.7
					c6,2.7,11.3,4.8,16.1,6.6C132.3,117.2,138.1,120,142.8,123.1z"/>
				<path style="clip-path:url(#SVGID_00000103240955492920009110000007972865325603347631_);" d="M103,117.8c0.2,0,0.5,0,0.8,0
					c1.7,0.1,3.3,0.3,4.5,0.3c1.2,0.1,2,0.1,2,0.1s-0.8-0.2-2.1-0.5c-1.3-0.3-3-0.7-4.7-0.8c-0.3,0-0.6-0.1-0.9-0.1
					c-0.6,0-1,0-1.1,0.4c0,0.2,0.1,0.5,0.3,0.7c0.2,0.2,0.4,0.4,0.7,0.6c0.4,0.3,0.8,0.6,1.4,0.9c-2.1-0.7-3.8-1.1-5.1-1.4
					c-1-0.2-1.8-0.3-2.3-0.2c-0.5,0.1-0.9,0.3-0.8,0.8c0.1,0.5,0.4,1,1,1.6c0.6,0.6,1.4,1.2,2.4,1.9c1.5,0.9,3.4,2,6,3.2
					c-1.5-0.3-2.9-0.6-4.2-1.1c-4-1.4-6.4-2-7.8-2c-0.7,0-1.1,0.2-1.3,0.6c-0.1,0.4,0.1,1,0.5,1.6c0.8,1.2,2.3,2.5,4.2,4
					c1.9,1.5,4.1,3,6.4,4.4c6,3.7,12.1,6.1,17.5,7.8c-3.5-0.6-7.1-1.4-10.9-1.5c-0.9,0-1.5,0-2,0.2c-0.4,0.2-0.7,0.5-0.7,1
					c0,0.9,1,2,2.4,3.1c2.8,2.2,7.5,4.7,12.4,6.3c8.8,2.7,13.6,3.3,18.6,3.4c-2.2,0.3-4.2,0.4-5.8,0.5c-1.4,0.1-2.5,0.2-3.3,0.3
					c-0.8,0.2-1.4,0.4-1.4,1c0,0.4,0.2,1,0.7,1.5c0.4,0.5,1,0.9,1.7,1.3c1.4,0.8,3.2,1.5,5.3,2.1c3.5,1,7.6,1.6,11.1,1.4
					c-0.3,0.3-0.5,0.6-0.6,1c-0.2,0.6-0.1,1.4,0.5,2c0.6,0.6,1.4,1,2.3,1.3c0.9,0.3,2,0.5,3.1,0.5c4.5,0.3,10.2-0.9,11.3-4.4
					c0.2-0.7,0.3-1.4,0.1-2.2c-0.4,0.5-0.8,1-1.1,1.6c-0.7,1.2-1,2.1-1,2.9c0,0.4,0.2,0.8,0.4,1.1c0.3,0.4,0.7,0.7,1.1,0.8
					c0.8,0.3,1.5,0.3,2.3,0.1c-0.4,0.5-0.7,1-0.9,1.5c-0.5,1-0.8,1.9-0.3,2.8c0.2,0.5,0.7,0.9,1.2,1.2c0.5,0.3,1.1,0.4,1.8,0.5
					c0.7,0.1,1.6,0.1,2.7,0.1c-1.2,0.8-1.9,1.5-2.1,2.1c-0.2,0.5-0.1,1.1,0.4,1.7c0.5,0.5,1.1,0.9,1.8,1.2c1.5,0.6,3.4,0.9,5.5,0.9
					c1.2,0,2.6,0,3.9-0.2c-0.2,0.2-0.4,0.4-0.5,0.6c-0.2,0.3-0.4,0.6-0.5,0.9c-0.1,0.3-0.1,0.6,0.1,0.9c0.2,0.4,0.6,0.7,1,0.9
					c0.4,0.2,0.8,0.2,1.2,0.2c0.2,0,0.3,0,0.5,0c-0.5,0.4-0.8,0.7-1.1,1c-0.3,0.4-0.5,0.7-0.5,1.1c0,0.4,0.2,0.9,0.7,1.3
					c0.4,0.4,1,0.7,1.6,0.9c0.6,0.2,1.4,0.4,2.2,0.6c1.3,0.3,2.9,0.5,4.8,0.7c-0.2,0.1-0.3,0.2-0.4,0.4c-0.4,0.4-0.5,0.8-0.4,1.3
					c0.2,0.5,0.7,1,1.3,1.4c0.6,0.4,1.3,0.8,2.1,1.1c4.3,1.7,6.8,2.5,12.2,2.5c-0.1,0.1-0.2,0.1-0.3,0.2c-0.5,0.4-0.7,0.9-0.5,1.4
					s0.8,1.1,1.5,1.5s1.5,0.7,2.4,1c2.8,0.9,6.7,1.6,9.3,1.8c-0.2,0.2-0.4,0.4-0.5,0.6c-0.3,0.5-0.3,1,0,1.6
					c0.3,0.6,0.9,1.1,1.6,1.5c0.7,0.4,1.5,0.7,2.4,1c2.8,0.9,6.4,1.3,9.1,1c0,0.1,0,0.2,0,0.3c0,0.2,0.2,0.5,0.5,0.7
					c0.5,0.4,0.9,0.5,1.5,0.6c0.5,0.1,1.2,0.1,1.9,0.2c2.7,0,5-0.4,6.9-1c1.2-0.3,2-0.7,2.7-1.1c1.1-0.7,1.2-1.4,1.2-1.4
					s-0.3,0.6-1.5,1.1c-0.8,0.3-1.7,0.6-3,0.8c-2,0.4-4.3,0.7-6.9,0.6c-0.7,0-1.3-0.1-1.7-0.1c-0.4-0.1-0.7-0.2-0.7-0.2
					c0,0,0.1,0.1,0.1,0.1c0,0,0-0.1,0.1-0.2c0.1-0.2,0.4-0.5,1-0.9l4.2-2.7l-5,1.8c-2.5,0.9-7.4,0.5-10.6-0.6
					c-0.8-0.3-1.5-0.6-2-0.8c-0.5-0.3-0.8-0.5-0.9-0.8c-0.1-0.2-0.2-0.5,0.1-0.9c0.2-0.4,0.7-0.8,1.6-1.2l1.8-0.9l-2.5,0
					c-2.1,0-7.5-0.8-10.9-1.9c-0.9-0.3-1.6-0.6-2.1-0.9c-0.5-0.3-0.6-0.4-0.7-0.6c-0.1-0.1,0-0.5,0.4-0.8c0.4-0.4,1.2-0.7,2.4-1.1
					l3.4-1.1l-4.1,0.2c-7.5,0.3-9.6-0.3-14.6-2.3c-0.7-0.3-1.4-0.6-1.7-0.9s-0.5-0.4-0.6-0.6c-0.1-0.2,0-0.4,0.3-0.8
					c0.3-0.3,0.9-0.6,1.8-1c0.8-0.3,1.8-0.5,2.7-0.7c-1.1-0.1-2.2-0.1-3.4-0.2c-2.9-0.2-5.1-0.5-6.8-0.9c-0.8-0.2-1.5-0.4-2-0.5
					c-0.5-0.2-0.8-0.4-0.9-0.5c-0.1-0.1-0.2-0.2-0.2-0.4c0-0.2,0.1-0.5,0.4-0.8c0.5-0.7,1.7-1.5,3.4-2.4l4.3-2.4l-5.1,1.6
					c-1.5,0.5-2.7,0.6-3.5,0.6c-0.4,0-0.7-0.1-0.8-0.1c-0.1,0,0,0,0,0c0,0,0-0.2,0-0.4c0.1-0.2,0.2-0.5,0.4-0.7
					c0.4-0.5,1.2-1.2,2.3-1.8l3-1.7l-3.8,0.9c-2,0.5-4.3,0.6-6.3,0.6c-2-0.1-3.9-0.4-5-0.8c-0.6-0.2-0.9-0.5-1-0.6
					c-0.1-0.2-0.2-0.4-0.1-0.8c0.3-0.8,1.5-1.9,4.2-3.1l3.2-1.4l-3.9,0.5c-2.4,0.3-4.2,0.4-5.5,0.2c-0.6-0.1-1.1-0.2-1.3-0.4
					c-0.3-0.1-0.3-0.2-0.4-0.4c-0.2-0.3-0.1-1.2,0.4-2.2s1.4-2.2,2.6-3.5l4.4-4.9l-5.3,4.1c-0.7,0.6-1.5,0.9-2.3,1.1
					c-0.8,0.2-1.5,0.2-1.8,0c-0.2-0.1-0.2-0.1-0.3-0.2c-0.1-0.1-0.2-0.3-0.2-0.5c0-0.6,0.2-1.5,0.9-2.6l-1-0.7
					c-1,3.1-6.5,4.4-10.7,4.1c-1.1-0.1-2-0.2-2.8-0.5c-0.8-0.2-1.3-0.5-1.5-0.8c-0.2-0.2-0.3-0.5-0.2-1c0.2-0.5,0.7-1.1,1.7-1.8
					l1.8-1.3l-2.6,0.4c-3.6,0.6-8.6,0-12.6-1.2c-2-0.6-3.8-1.3-4.9-1.9c-0.6-0.3-1-0.6-1.2-0.9c-0.2-0.2-0.3-0.4-0.3-0.6
					c0-0.2,0.3-0.4,1-0.6c0.7-0.1,1.8-0.2,3.2-0.3c2.7-0.2,6.6-0.5,11.1-1.4c1.2-0.3,2.3-0.5,3.4-0.9c-1.3,0-2.7,0-4-0.1
					c-7.7,0-12.1,0.4-24-3.4c-4.8-1.5-9.3-4-11.8-5.9c-1.2-1-1.8-1.8-1.8-2.2c0-0.2,0.1-0.4,0.4-0.5c0.3-0.1,0.9-0.2,1.7-0.2
					c5.8,0.2,11.2,1.9,16.7,2.4c1.3,0.1,2.5,0.2,3.7,0.1c-1.3-0.3-2.7-0.7-4.1-1c-6.6-1.8-15.1-4.3-23.3-9.3
					c-2.2-1.3-4.4-2.8-6.2-4.2c-1.8-1.4-3.2-2.7-3.8-3.6c-0.3-0.4-0.4-0.7-0.3-0.8c0-0.2,0.2-0.3,0.8-0.3c1.1,0,3.4,0.5,7.3,1.9
					c2.6,0.9,5.2,1.3,8.1,2l4.6,1l-4.8-1.9c-4.6-1.8-7.7-3.4-9.6-4.6c-1-0.6-1.7-1.2-2.1-1.6c-0.4-0.4-0.6-0.7-0.6-0.8
					c0-0.1,0-0.2,0.4-0.2c0.4-0.1,1.1,0,2,0.2c1.9,0.4,5,1.3,9.4,2.9l6.4,2.3l-6.4-3.1c-3-1.5-4.9-2.5-5.6-3.1
					c-0.2-0.1-0.3-0.2-0.3-0.3c0,0,0,0.1,0,0.1C102.5,117.9,102.6,117.8,103,117.8z"/>
				
					<path style="clip-path:url(#SVGID_00000103240955492920009110000007972865325603347631_);fill:none;stroke:#000000;stroke-width:2.5034;stroke-linecap:round;stroke-linejoin:round;stroke-miterlimit:10;" d="
					M103,117.8c0.2,0,0.5,0,0.8,0c1.7,0.1,3.3,0.3,4.5,0.3c1.2,0.1,2,0.1,2,0.1s-0.8-0.2-2.1-0.5c-1.3-0.3-3-0.7-4.7-0.8
					c-0.3,0-0.6-0.1-0.9-0.1c-0.6,0-1,0-1.1,0.4c0,0.2,0.1,0.5,0.3,0.7c0.2,0.2,0.4,0.4,0.7,0.6c0.4,0.3,0.8,0.6,1.4,0.9
					c-2.1-0.7-3.8-1.1-5.1-1.4c-1-0.2-1.8-0.3-2.3-0.2c-0.5,0.1-0.9,0.3-0.8,0.8c0.1,0.5,0.4,1,1,1.6c0.6,0.6,1.4,1.2,2.4,1.9
					c1.5,0.9,3.4,2,6,3.2c-1.5-0.3-2.9-0.6-4.2-1.1c-4-1.4-6.4-2-7.8-2c-0.7,0-1.1,0.2-1.3,0.6c-0.1,0.4,0.1,1,0.5,1.6
					c0.8,1.2,2.3,2.5,4.2,4c1.9,1.5,4.1,3,6.4,4.4c6,3.7,12.1,6.1,17.5,7.8c-3.5-0.6-7.1-1.4-10.9-1.5c-0.9,0-1.5,0-2,0.2
					c-0.4,0.2-0.7,0.5-0.7,1c0,0.9,1,2,2.4,3.1c2.8,2.2,7.5,4.7,12.4,6.3c8.8,2.7,13.6,3.3,18.6,3.4c-2.2,0.3-4.2,0.4-5.8,0.5
					c-1.4,0.1-2.5,0.2-3.3,0.3c-0.8,0.2-1.4,0.4-1.4,1c0,0.4,0.2,1,0.7,1.5c0.4,0.5,1,0.9,1.7,1.3c1.4,0.8,3.2,1.5,5.3,2.1
					c3.5,1,7.6,1.6,11.1,1.4c-0.3,0.3-0.5,0.6-0.6,1c-0.2,0.6-0.1,1.4,0.5,2c0.6,0.6,1.4,1,2.3,1.3c0.9,0.3,2,0.5,3.1,0.5
					c4.5,0.3,10.2-0.9,11.3-4.4c0.2-0.7,0.3-1.4,0.1-2.2c-0.4,0.5-0.8,1-1.1,1.6c-0.7,1.2-1,2.1-1,2.9c0,0.4,0.2,0.8,0.4,1.1
					c0.3,0.4,0.7,0.7,1.1,0.8c0.8,0.3,1.5,0.3,2.3,0.1c-0.4,0.5-0.7,1-0.9,1.5c-0.5,1-0.8,1.9-0.3,2.8c0.2,0.5,0.7,0.9,1.2,1.2
					c0.5,0.3,1.1,0.4,1.8,0.5c0.7,0.1,1.6,0.1,2.7,0.1c-1.2,0.8-1.9,1.5-2.1,2.1c-0.2,0.5-0.1,1.1,0.4,1.7c0.5,0.5,1.1,0.9,1.8,1.2
					c1.5,0.6,3.4,0.9,5.5,0.9c1.2,0,2.6,0,3.9-0.2c-0.2,0.2-0.4,0.4-0.5,0.6c-0.2,0.3-0.4,0.6-0.5,0.9c-0.1,0.3-0.1,0.6,0.1,0.9
					c0.2,0.4,0.6,0.7,1,0.9c0.4,0.2,0.8,0.2,1.2,0.2c0.2,0,0.3,0,0.5,0c-0.5,0.4-0.8,0.7-1.1,1c-0.3,0.4-0.5,0.7-0.5,1.1
					c0,0.4,0.2,0.9,0.7,1.3c0.4,0.4,1,0.7,1.6,0.9c0.6,0.2,1.4,0.4,2.2,0.6c1.3,0.3,2.9,0.5,4.8,0.7c-0.2,0.1-0.3,0.2-0.4,0.4
					c-0.4,0.4-0.5,0.8-0.4,1.3c0.2,0.5,0.7,1,1.3,1.4c0.6,0.4,1.3,0.8,2.1,1.1c4.3,1.7,6.8,2.5,12.2,2.5c-0.1,0.1-0.2,0.1-0.3,0.2
					c-0.5,0.4-0.7,0.9-0.5,1.4s0.8,1.1,1.5,1.5s1.5,0.7,2.4,1c2.8,0.9,6.7,1.6,9.3,1.8c-0.2,0.2-0.4,0.4-0.5,0.6
					c-0.3,0.5-0.3,1,0,1.6c0.3,0.6,0.9,1.1,1.6,1.5c0.7,0.4,1.5,0.7,2.4,1c2.8,0.9,6.4,1.3,9.1,1c0,0.1,0,0.2,0,0.3
					c0,0.2,0.2,0.5,0.5,0.7c0.5,0.4,0.9,0.5,1.5,0.6c0.5,0.1,1.2,0.1,1.9,0.2c2.7,0,5-0.4,6.9-1c1.2-0.3,2-0.7,2.7-1.1
					c1.1-0.7,1.2-1.4,1.2-1.4s-0.3,0.6-1.5,1.1c-0.8,0.3-1.7,0.6-3,0.8c-2,0.4-4.3,0.7-6.9,0.6c-0.7,0-1.3-0.1-1.7-0.1
					c-0.4-0.1-0.7-0.2-0.7-0.2c0,0,0.1,0.1,0.1,0.1c0,0,0-0.1,0.1-0.2c0.1-0.2,0.4-0.5,1-0.9l4.2-2.7l-5,1.8
					c-2.5,0.9-7.4,0.5-10.6-0.6c-0.8-0.3-1.5-0.6-2-0.8c-0.5-0.3-0.8-0.5-0.9-0.8c-0.1-0.2-0.2-0.5,0.1-0.9c0.2-0.4,0.7-0.8,1.6-1.2
					l1.8-0.9l-2.5,0c-2.1,0-7.5-0.8-10.9-1.9c-0.9-0.3-1.6-0.6-2.1-0.9c-0.5-0.3-0.6-0.4-0.7-0.6c-0.1-0.1,0-0.5,0.4-0.8
					c0.4-0.4,1.2-0.7,2.4-1.1l3.4-1.1l-4.1,0.2c-7.5,0.3-9.6-0.3-14.6-2.3c-0.7-0.3-1.4-0.6-1.7-0.9s-0.5-0.4-0.6-0.6
					c-0.1-0.2,0-0.4,0.3-0.8c0.3-0.3,0.9-0.6,1.8-1c0.8-0.3,1.8-0.5,2.7-0.7c-1.1-0.1-2.2-0.1-3.4-0.2c-2.9-0.2-5.1-0.5-6.8-0.9
					c-0.8-0.2-1.5-0.4-2-0.5c-0.5-0.2-0.8-0.4-0.9-0.5c-0.1-0.1-0.2-0.2-0.2-0.4c0-0.2,0.1-0.5,0.4-0.8c0.5-0.7,1.7-1.5,3.4-2.4
					l4.3-2.4l-5.1,1.6c-1.5,0.5-2.7,0.6-3.5,0.6c-0.4,0-0.7-0.1-0.8-0.1c-0.1,0,0,0,0,0c0,0,0-0.2,0-0.4c0.1-0.2,0.2-0.5,0.4-0.7
					c0.4-0.5,1.2-1.2,2.3-1.8l3-1.7l-3.8,0.9c-2,0.5-4.3,0.6-6.3,0.6c-2-0.1-3.9-0.4-5-0.8c-0.6-0.2-0.9-0.5-1-0.6
					c-0.1-0.2-0.2-0.4-0.1-0.8c0.3-0.8,1.5-1.9,4.2-3.1l3.2-1.4l-3.9,0.5c-2.4,0.3-4.2,0.4-5.5,0.2c-0.6-0.1-1.1-0.2-1.3-0.4
					c-0.3-0.1-0.3-0.2-0.4-0.4c-0.2-0.3-0.1-1.2,0.4-2.2s1.4-2.2,2.6-3.5l4.4-4.9l-5.3,4.1c-0.7,0.6-1.5,0.9-2.3,1.1
					c-0.8,0.2-1.5,0.2-1.8,0c-0.2-0.1-0.2-0.1-0.3-0.2c-0.1-0.1-0.2-0.3-0.2-0.5c0-0.6,0.2-1.5,0.9-2.6l-1-0.7
					c-1,3.1-6.5,4.4-10.7,4.1c-1.1-0.1-2-0.2-2.8-0.5c-0.8-0.2-1.3-0.5-1.5-0.8c-0.2-0.2-0.3-0.5-0.2-1c0.2-0.5,0.7-1.1,1.7-1.8
					l1.8-1.3l-2.6,0.4c-3.6,0.6-8.6,0-12.6-1.2c-2-0.6-3.8-1.3-4.9-1.9c-0.6-0.3-1-0.6-1.2-0.9c-0.2-0.2-0.3-0.4-0.3-0.6
					c0-0.2,0.3-0.4,1-0.6c0.7-0.1,1.8-0.2,3.2-0.3c2.7-0.2,6.6-0.5,11.1-1.4c1.2-0.3,2.3-0.5,3.4-0.9c-1.3,0-2.7,0-4-0.1
					c-7.7,0-12.1,0.4-24-3.4c-4.8-1.5-9.3-4-11.8-5.9c-1.2-1-1.8-1.8-1.8-2.2c0-0.2,0.1-0.4,0.4-0.5c0.3-0.1,0.9-0.2,1.7-0.2
					c5.8,0.2,11.2,1.9,16.7,2.4c1.3,0.1,2.5,0.2,3.7,0.1c-1.3-0.3-2.7-0.7-4.1-1c-6.6-1.8-15.1-4.3-23.3-9.3
					c-2.2-1.3-4.4-2.8-6.2-4.2c-1.8-1.4-3.2-2.7-3.8-3.6c-0.3-0.4-0.4-0.7-0.3-0.8c0-0.2,0.2-0.3,0.8-0.3c1.1,0,3.4,0.5,7.3,1.9
					c2.6,0.9,5.2,1.3,8.1,2l4.6,1l-4.8-1.9c-4.6-1.8-7.7-3.4-9.6-4.6c-1-0.6-1.7-1.2-2.1-1.6c-0.4-0.4-0.6-0.7-0.6-0.8
					c0-0.1,0-0.2,0.4-0.2c0.4-0.1,1.1,0,2,0.2c1.9,0.4,5,1.3,9.4,2.9l6.4,2.3l-6.4-3.1c-3-1.5-4.9-2.5-5.6-3.1
					c-0.2-0.1-0.3-0.2-0.3-0.3c0,0,0,0.1,0,0.1C102.5,117.9,102.6,117.8,103,117.8z"/>
			</g>
		</g>
	</g>
</g>
</svg>
