<?xml version="1.0" encoding="utf-8"?>
<!-- Generator: Adobe Illustrator 26.4.1, SVG Export Plug-In . SVG Version: 6.00 Build 0)  -->
<svg version="1.1" id="Layer_1" xmlns="http://www.w3.org/2000/svg" xmlns:xlink="http://www.w3.org/1999/xlink" x="0px" y="0px"
	 viewBox="0 0 268 268" style="enable-background:new 0 0 268 268;" xml:space="preserve">
<style type="text/css">
	.st0{fill:#FFFFFF;fill-opacity:0;}
	.st1{enable-background:new    ;}
	.st2{clip-path:url(#SVGID_00000102530154009695862870000015569965517252070293_);}
	.st3{clip-path:url(#SVGID_00000021092116884765888790000008743790317164809131_);}
	.st4{opacity:0;clip-path:url(#SVGID_00000081607595113410203700000012077899419525080217_);}
	.st5{clip-path:url(#SVGID_00000023253619439829997270000017915565066533214627_);fill:#FFFFFF;}
	.st6{clip-path:url(#SVGID_00000088100833111282851980000002522092151200623525_);}
	.st7{clip-path:url(#SVGID_00000171683733409219840850000009972885270382910395_);fill:#FFFFFF;}
	.st8{clip-path:url(#SVGID_00000100378437183181529310000002481619584628676263_);stroke:#000000;stroke-miterlimit:10;}
	
		.st9{clip-path:url(#SVGID_00000111150169127392696630000016112064228508913819_);stroke:#000000;stroke-width:1.8609;stroke-linecap:round;stroke-linejoin:round;stroke-miterlimit:10;}
	.st10{clip-path:url(#SVGID_00000028298118322169277870000003177264821016210593_);stroke:#000000;stroke-miterlimit:10;}
	
		.st11{clip-path:url(#SVGID_00000069366047056038676670000015348753920028962982_);stroke:#000000;stroke-width:1.8609;stroke-linecap:round;stroke-linejoin:round;stroke-miterlimit:10;}
	.st12{clip-path:url(#SVGID_00000016063765573043165610000001710836049654498711_);stroke:#000000;stroke-miterlimit:10;}
	
		.st13{clip-path:url(#SVGID_00000103982195474560936020000009852465900489731209_);stroke:#000000;stroke-width:1.8609;stroke-linecap:round;stroke-linejoin:round;stroke-miterlimit:10;}
	.st14{fill:none;stroke:#FF544A;stroke-width:3;stroke-miterlimit:10;}
</style>
<rect y="66" class="st0" width="268" height="136"/>
<g class="st1">
	<path d="M139.1,156c-1.4,0-2.5-0.4-3.3-1.2s-1.2-1.9-1.2-3.2c0-1.4,0.4-2.5,1.2-3.3s1.9-1.2,3.3-1.2c1.4,0,2.5,0.4,3.3,1.2
		s1.2,1.9,1.2,3.3c0,1.3-0.4,2.4-1.2,3.2S140.5,156,139.1,156z"/>
	<path d="M169,156c-3.1,0-5.6-0.8-7.4-2.4s-2.7-3.8-2.7-6.5c0-2.8,0.9-5,2.7-6.5c1.8-1.6,4.2-2.4,7.3-2.4h9.2v-3
		c0-1.8-0.5-3.2-1.6-4.2s-2.7-1.5-4.7-1.5c-1.8,0-3.2,0.4-4.4,1.1c-1.2,0.7-1.9,1.7-2.1,3h-4.9c0.3-2.6,1.5-4.6,3.6-6.1
		c2.1-1.5,4.7-2.3,7.8-2.3c3.4,0,6.1,0.9,8.1,2.6c2,1.8,3,4.2,3,7.2v20.4h-4.8v-5.7h-0.8l0.8-0.8c0,2.2-0.8,3.9-2.5,5.1
		C174,155.4,171.7,156,169,156z M170.1,152.2c2.3,0,4.2-0.6,5.7-1.7s2.2-2.6,2.2-4.4v-4.2h-9c-1.6,0-2.9,0.5-3.8,1.4
		c-0.9,0.9-1.4,2.1-1.4,3.7c0,1.7,0.6,3,1.7,3.9S168.1,152.2,170.1,152.2z"/>
	<path d="M192.7,165.2v-39.4h4.9v5.7h1l-1,1.1c0-2.3,0.7-4.1,2.2-5.4s3.5-2,5.9-2c3,0,5.4,1,7.2,2.9c1.8,2,2.7,4.7,2.7,8.1v8.7
		c0,2.3-0.4,4.2-1.2,5.9s-1.9,2.9-3.4,3.8c-1.5,0.9-3.2,1.4-5.2,1.4c-2.4,0-4.4-0.7-5.9-2s-2.3-3.1-2.3-5.3l1,1.1h-1.1l0.1,6.8v8.6
		L192.7,165.2L192.7,165.2z M204.1,151.8c2.1,0,3.7-0.6,4.8-1.8c1.2-1.2,1.8-3,1.8-5.3v-8.1c0-2.3-0.6-4.1-1.8-5.3s-2.8-1.8-4.8-1.8
		s-3.6,0.6-4.8,1.9c-1.2,1.3-1.8,3-1.8,5.2v8.1c0,2.2,0.6,4,1.8,5.2S202.1,151.8,204.1,151.8z"/>
	<path d="M225.1,165.2v-39.4h4.9v5.7h1l-1,1.1c0-2.3,0.7-4.1,2.2-5.4c1.5-1.3,3.5-2,5.9-2c3,0,5.4,1,7.2,2.9c1.8,2,2.7,4.7,2.7,8.1
		v8.7c0,2.3-0.4,4.2-1.2,5.9s-1.9,2.9-3.4,3.8c-1.5,0.9-3.2,1.4-5.2,1.4c-2.4,0-4.4-0.7-5.9-2s-2.3-3.1-2.3-5.3l1,1.1h-1.1l0.1,6.8
		v8.6L225.1,165.2L225.1,165.2z M236.5,151.8c2.1,0,3.7-0.6,4.8-1.8c1.2-1.2,1.8-3,1.8-5.3v-8.1c0-2.3-0.6-4.1-1.8-5.3
		s-2.8-1.8-4.8-1.8s-3.6,0.6-4.8,1.9c-1.2,1.3-1.8,3-1.8,5.2v8.1c0,2.2,0.6,4,1.8,5.2C233,151.2,234.6,151.8,236.5,151.8z"/>
</g>
<g>
	<defs>
		<rect id="SVGID_1_" x="13" y="70" width="128" height="128"/>
	</defs>
	<clipPath id="SVGID_00000137853454453671138200000007640767799309889468_">
		<use xlink:href="#SVGID_1_"  style="overflow:visible;"/>
	</clipPath>
	<g style="clip-path:url(#SVGID_00000137853454453671138200000007640767799309889468_);">
		<g>
			<g>
				<g>
					<g>
						<defs>
							<rect id="SVGID_00000150790316193946659660000000456305723236799872_" x="13" y="70" width="128" height="128"/>
						</defs>
						<clipPath id="SVGID_00000034795715250488742240000012472841186323872662_">
							<use xlink:href="#SVGID_00000150790316193946659660000000456305723236799872_"  style="overflow:visible;"/>
						</clipPath>
						<g style="clip-path:url(#SVGID_00000034795715250488742240000012472841186323872662_);">
							<g>
								<g>
									<g>
										<g>
											<defs>
												<rect id="SVGID_00000042697887590652381890000007453452949782629532_" x="13" y="70" width="128" height="128"/>
											</defs>
											<clipPath id="SVGID_00000158746743563067827530000015102330573434420414_">
												<use xlink:href="#SVGID_00000042697887590652381890000007453452949782629532_"  style="overflow:visible;"/>
											</clipPath>
											<g style="opacity:0;clip-path:url(#SVGID_00000158746743563067827530000015102330573434420414_);">
												<g>
													<g>
														<g>
															<g>
																<g>
																	<defs>
																		<rect id="SVGID_00000160177168467630160400000015702949079270023562_" x="13" y="70" width="128" height="128"/>
																	</defs>
																	<clipPath id="SVGID_00000078030253374122909490000004135636758366554013_">
																		<use xlink:href="#SVGID_00000160177168467630160400000015702949079270023562_"  style="overflow:visible;"/>
																	</clipPath>
																	
																		<rect x="13.1" y="70" style="clip-path:url(#SVGID_00000078030253374122909490000004135636758366554013_);fill:#FFFFFF;" width="127.9" height="127.9"/>
																</g>
															</g>
														</g>
													</g>
													<g>
														<g>
															<g>
																<g>
																	<defs>
																		<rect id="SVGID_00000177485198317196921590000001806569850402354616_" x="13" y="70" width="128" height="128"/>
																	</defs>
																	<clipPath id="SVGID_00000129191512582817196780000016798624065403684493_">
																		<use xlink:href="#SVGID_00000177485198317196921590000001806569850402354616_"  style="overflow:visible;"/>
																	</clipPath>
																	<path style="clip-path:url(#SVGID_00000129191512582817196780000016798624065403684493_);" d="M13.1,197.9
																		l0.1-127.8H141v127.8H13.1L13.1,197.9z M13,198h128V70H13V198z"/>
																</g>
															</g>
														</g>
													</g>
												</g>
											</g>
										</g>
									</g>
								</g>
							</g>
							<g>
								<g>
									<g>
										<g>
											<defs>
												<rect id="SVGID_00000086682586204046753900000012482211986263909028_" x="13" y="70" width="128" height="128"/>
											</defs>
											<clipPath id="SVGID_00000140000427231756712360000008807111341531234443_">
												<use xlink:href="#SVGID_00000086682586204046753900000012482211986263909028_"  style="overflow:visible;"/>
											</clipPath>
											<path style="clip-path:url(#SVGID_00000140000427231756712360000008807111341531234443_);fill:#FFFFFF;" d="M123.1,75.4
												c-2.4,0-13.2,15.5-18.9,21.9c-7.4,8.2-13.9,13.7-20,17.4c-8.3,4.9-15.1,7.1-19,10.7c-0.3-1.1-2.3-1.6-5,3
												c-2.8,4.7-5.6,9.6-8.6,14.2L38,159.5c-3.2,2.9-7.7,6.1-12,8.1c-5.3,2.5-11,4.5-10.9,5c0.1,0.4,3.6,15.4,13.6,15.8
												c1.3,1.3,5.2,2.6,9.2,3.5c6.6,1.5,14.8,1.3,9-1.5c1.7,0.2,9.9-0.3,5.3-2c5.3,0,9.3-1.6,8.7-3c-0.4-1-5.3-0.1-8.6-2
												c2.1,0.8,10.4,0.4,4.5-1.2c3.1,0.4,6.4,1,9.9,0.1c6.4-1.6,7-2.7-2.1-6.3c7.9,2,14.9,0.2,11.5-2.2c-1.3-0.9-3.9-1.5-8-2.4
												c3.4,0,11.6-0.5,5.3-3.8c6.2,1.6,14.5,0.5,3.3-3.9c4.2,0.8,6,1.8,6.9,1.6c1.2-0.2,0.1-1.3-4-3c9.3,3.2,21.9,0.9,20.3-1.4
												c-0.6-0.8-3.1-1.7-8.7-2.7c5,0.4,7.1,0.3,10.8-0.4c6.8-1.2,12-3.5,10.8-5.5c-0.8-1.4-10.3-0.6-18.4-1.2
												c4.5-0.3,9.1-1.3,13.9-2.6c4.1-1.1,8.2-2.8,11.3-5.1s10.7-7.9,0.4-5.5c-2.7,0.7-6.5,1.4-11.3,1.5
												c9.1-1.3,16-5.1,21.7-12.6c3.6-4.7,3.9-6.8,1.9-7.3c-1.1-0.3-8.3,5.8-19.4,8.5c5.4-1.8,10.6-5,14.9-8.6
												c6.4-5.3,10.4-11.2,10.7-14c0.4-4.6-12,8.6-23.1,12c7.6-4.4,17.7-11.1,21.6-20.5c2.4-5.9,2.7-11.1-4.4-4.1
												c-4.6,4.6-12,10.4-17,13.4c-7,4.2-12.5,9.2-24.8,13.1c13.8-6.4,24.3-19.6,30.2-34.6C123.7,77.9,124.1,75.4,123.1,75.4"/>
										</g>
									</g>
								</g>
							</g>
							<g>
								<g>
									<g>
										<g>
											<defs>
												<rect id="SVGID_00000157994951698923737900000005719338006889564586_" x="13" y="70" width="128" height="128"/>
											</defs>
											<clipPath id="SVGID_00000058557093565487081650000016968580407886079623_">
												<use xlink:href="#SVGID_00000157994951698923737900000005719338006889564586_"  style="overflow:visible;"/>
											</clipPath>
											
												<path style="clip-path:url(#SVGID_00000058557093565487081650000016968580407886079623_);stroke:#000000;stroke-miterlimit:10;" d="
												M18.7,170.1c-1.4,0.6-4.1,2.6-3.6,2.5c0.8-0.2,2.5-1.4,3.6-1.8c2.1-0.8,4.7-1.6,7.3-2.9c5.3-2.5,10.8-6.6,14.1-10
												c8.3-8.5,14.2-19,20.3-29.3c1.6-2.7,2.9-3.5,3.6-3.6c0.4-0.1,0.6,0,0.7,0.2c0.2,0.2,0.2,0.4,0.1,0.7l-0.6,1.6l1.2-1.2
												c0.9-1,3-2.4,5.3-3.6s4.7-2,6-1.8c0,0-0.1,0-0.2-0.1s-0.1-0.2-0.1-0.2c0-0.1,0-0.1,0-0.1s0,0.1-0.1,0.2
												c-0.1,0.2-0.4,0.5-0.8,0.8c-0.7,0.7-2,1.5-3.5,2.4l-3.1,1.6l3-0.9c4-1.2,7.3-1.7,9.9-1.7s4.3,0.4,5,1v-0.1
												c0-0.1,0-0.1,0-0.1c-0.1,0-0.2,0.2-0.4,0.3c-0.5,0.2-1.3,0.6-2.3,1c-2,0.8-5.2,1.8-9,2.7l-6.8,1.7l6.9-1
												c2.1-0.3,3.7-0.4,4.8-0.3c1.1,0.1,1.7,0.3,1.9,0.5c0.1,0.1,0.1,0.1,0.1,0.2s-0.1,0.2-0.2,0.4c-0.3,0.3-0.9,0.7-1.6,1
												c-2.8,1.3-7.8,2.5-9.7,2.8c-1.2,0.2-2.3,0.3-3.5,0.3c1.2,0.1,2.3,0.2,3.5,0.4c2.4,0.3,3.8,0.6,4.5,0.9
												c0.4,0.1,0.5,0.3,0.5,0.3l0,0c0,0-0.1,0.1-0.2,0.2c-0.4,0.3-1.5,0.7-2.7,1.1c-2.5,0.7-6,1.2-7.9,1.1l-4.6-0.3l4.5,1
												c2.2,0.4,3.8,0.8,4.6,1.1c0.4,0.1,0.7,0.3,0.7,0.4s0,0.1-0.1,0.3c-0.3,0.4-0.8,0.7-1.4,0.8s-1.3,0.1-2.1,0
												c-1.5-0.2-3.1-0.9-3.9-1.4l-0.4,0.6c1.6,1.1,2.2,2.2,2.3,2.9c0.1,0.3,0,0.5-0.1,0.6s-0.2,0.2-0.5,0.2
												c-0.5,0-1.4-0.2-2.5-1.1l-1.8-1.4l1.3,1.9c0.7,1,1,1.7,1,2.1c0,0.2-0.1,0.3-0.1,0.4c0,0-0.1,0.1-0.2,0.1
												c-0.3,0.1-0.8,0-1.4-0.3s-1.3-0.8-2-1.5l-1-1l0.5,1.4c0.2,0.5,0.3,1.4,0.2,2.4c0,1-0.2,1.9-0.4,2.6
												c-0.1,0.3-0.2,0.6-0.3,0.7l0,0c0.1,0,0.1,0,0.1,0s-0.2-0.2-0.3-0.6s-0.3-1-0.4-1.9l-0.7-4.6v4.7c0,2.7-1.3,6.3-2.5,8.5
												c-0.3,0.5-0.6,1-0.8,1.3s-0.5,0.5-0.5,0.5H52c0.1,0,0,0,0-0.1c0-0.2,0-0.7,0.1-1.4l0.9-5.9l-1.6,5.8
												c-0.4,1.1-0.8,2.4-1.4,3.2c-0.3,0.4-0.6,0.7-1,0.8s-0.9,0.1-1.5-0.1l-1.6-0.6l1.3,1.2c0.6,0.6,1.2,1.1,1.5,1.5
												c0.1,0.2,0.3,0.4,0.3,0.5s0,0.1,0,0.1c0-0.1,0,0-0.1,0s-0.4,0-0.7,0c-0.7,0-1.8-0.2-3.3-0.5c-0.6-0.1-1.3-0.2-1.9-0.4
												c0.6,0.4,1.2,0.7,1.7,1.1c0.7,0.4,1.2,0.8,1.5,1.1c0.4,0.3,0.5,0.5,0.5,0.5c0,0.1,0,0,0,0c0.1,0,0,0,0,0
												c-0.1,0-0.3,0.1-0.6,0.2c-0.5,0.1-1.5,0.2-2.3,0.3c-0.3,0-0.6,0.1-0.9,0.1c0.3,0.2,0.5,0.3,0.7,0.5
												c0.3,0.3,0.4,0.6,0.4,0.8s-0.1,0.4-0.3,0.7c-0.4,0.6-1.3,1.1-2.4,1.6c-1.1,0.4-2.3,0.8-3.4,1s-2,0.2-2.4,0.1l-0.2,0.7
												c1.2,0.1,1.9,0.4,2.2,0.7c0.1,0.1,0.2,0.2,0.2,0.3s0,0.2-0.1,0.3c-0.1,0.2-0.6,0.6-1.2,0.8c-0.7,0.2-1.5,0.4-2.4,0.4
												c-0.2,0-0.4,0-0.6,0c0.1,0.2,0.1,0.3,0.2,0.5c0.2,0.4,0.2,0.7,0.2,0.9s-0.1,0.3-0.2,0.4c-0.3,0.2-0.8,0.3-1.5,0.2
												s-1.5-0.2-2.2-0.4c-0.8-0.2-1.4-0.3-1.9-0.3c-0.3,0-0.6,0.1-0.9,0.2c0.2,0.1,0.5,0.2,0.7,0.4c1.1,0.7,1.6,1.2,1.8,1.5
												c0.1,0.1,0.1,0.2,0.1,0.2s0,0.1-0.1,0.1c-0.3,0.1-0.9,0.1-1.6,0s-1.6-0.3-2.5-0.7l-2.4-1l2.1,1.6c0.5,0.4,0.8,0.7,0.9,1
												s0.1,0.4-0.1,0.6c-0.3,0.4-1.2,0.7-2.3,0.6c-0.1,0-0.2,0-0.3,0c0,0.3,0,0.3,0,0.3c-0.1,0.4-0.1,0.8-0.3,1.1
												c-0.1,0.2-0.3,0.4-0.5,0.5c-0.5,0.3-1.2,0.4-1.6,0.4c-0.4,0.1-0.7,0.1-0.7,0.1s0.3,0,0.7,0.1c0.4,0.1,1.1,0.1,1.8-0.1
												c0.4-0.1,0.7-0.4,0.9-0.7c0.3-0.5,0.4-0.9,0.5-1.4l0,0l-0.4,0.3c1.1,0.1,2.2-0.2,2.8-0.8c0.3-0.4,0.4-0.8,0.2-1.3
												c0-0.1,0-0.2-0.1-0.3c0.5,0.1,0.9,0.2,1.3,0.3c0.8,0.2,1.4,0.2,1.9,0c0.3-0.1,0.5-0.2,0.6-0.5s0-0.6-0.1-0.8
												c-0.2-0.3-0.4-0.6-0.8-0.9c0.1,0.1,0.2,0.1,0.3,0.1c0.7,0.2,1.5,0.3,2.3,0.4c0.7,0.1,1.4,0.1,1.9-0.3
												c0.3-0.1,0.5-0.4,0.5-0.8c0-0.3,0-0.5-0.1-0.8c0.8,0,1.5-0.2,2.1-0.4c0.7-0.3,1.3-0.6,1.6-1.1c0.2-0.2,0.2-0.5,0.2-0.8
												c-0.1-0.2-0.3-0.5-0.5-0.7c-0.5-0.4-1.3-0.7-2.6-0.9c-0.4,0-0.8-0.1-1.2-0.1c0.2,0.4,0.6,0.7,1,0.8
												c0.7,0.2,1.7,0.1,2.8-0.1s2.4-0.6,3.5-1.1c1.2-0.5,2.1-1.1,2.7-1.8c0.2-0.4,0.4-0.8,0.4-1.2c0-0.2-0.1-0.5-0.2-0.7
												c0.6-0.1,1.3-0.2,1.8-0.3c0.3-0.1,0.6-0.2,0.8-0.3c0.1-0.1,0.2-0.2,0.3-0.3c0-0.2,0-0.3,0-0.5c-0.1-0.3-0.3-0.5-0.7-0.8
												c-0.1-0.1-0.2-0.2-0.3-0.3c0.7,0.1,1.3,0.2,1.8,0.2c0.4,0,0.7,0,0.9-0.1c0.3,0,0.5-0.2,0.6-0.4s0-0.5-0.1-0.7
												s-0.2-0.4-0.4-0.6s-0.4-0.4-0.7-0.7c0.2,0,0.5,0,0.7-0.1c0.6-0.1,1-0.5,1.4-1c0.4-0.4,0.7-1,0.9-1.6l0.1,0.1
												c0.2,0.1,0.4,0.2,0.6,0.1c0.4-0.1,0.6-0.3,0.9-0.7s0.6-0.8,0.9-1.4c1-1.8,2-4.3,2.4-6.7c0.1,0.4,0.2,0.6,0.5,0.8
												c0.1,0.1,0.3,0.1,0.5,0.1c0.2-0.1,0.3-0.2,0.4-0.3c0.1-0.2,0.3-0.5,0.4-0.9c0.3-0.8,0.4-1.8,0.5-2.8
												c0.1-0.6,0.1-1.2,0-1.7c0.5,0.4,1,0.7,1.4,0.9c0.7,0.4,1.3,0.5,1.8,0.4c0.3,0,0.6-0.2,0.7-0.4c0.2-0.2,0.2-0.5,0.2-0.8
												s-0.1-0.7-0.3-1.1c0.7,0.3,1.3,0.5,1.8,0.4c0.4,0,0.8-0.2,1-0.5c0.3-0.3,0.3-0.7,0.3-1.1c-0.1-1-0.9-2.2-2.6-3.4
												c-0.6-0.4-1.2-0.7-1.8-1c0.4,0.7,0.8,1.2,1.4,1.6c0.9,0.7,2.6,1.3,4.2,1.6c0.9,0.1,1.7,0.1,2.4,0
												c0.7-0.2,1.4-0.5,1.8-1.1c0.2-0.4,0.3-0.8,0.1-1.1s-0.5-0.5-1-0.7s-1.2-0.4-2.1-0.6c1.8-0.2,3.8-0.6,5.4-1.1
												c1.3-0.3,2.3-0.7,2.9-1.2c0.2-0.1,0.3-0.2,0.4-0.4c0.1-0.1,0.1-0.3,0.1-0.5c-0.1-0.4-0.4-0.6-0.9-0.8
												c-0.6-0.3-1.5-0.5-2.8-0.7c2.4-0.5,5.8-1.4,8-2.4c0.8-0.3,1.4-0.7,1.8-1.2c0.2-0.3,0.3-0.5,0.3-0.8s-0.1-0.6-0.3-0.8
												c-0.5-0.4-1.2-0.6-2.4-0.7c-0.3,0-0.6,0-0.9,0c2.1-0.6,3.8-1.2,5.2-1.7c1.1-0.4,1.9-0.8,2.4-1.1c0.3-0.2,0.5-0.3,0.6-0.5
												c0.1-0.1,0.1-0.2,0.1-0.4c0-0.2-0.1-0.3-0.2-0.4c-0.9-0.7-2.8-1.1-5.4-1.1c-2.1,0-4.7,0.4-7.8,1.1
												c0.7-0.5,1.3-0.9,1.7-1.3s0.7-0.7,0.9-0.9c0.1-0.1,0.1-0.2,0.2-0.3c0.1,0,0.1-0.1,0.1-0.2c0,0,0-0.1-0.1-0.2
												c0,0-0.1-0.1-0.2-0.1c-1.7-0.2-4.1,0.7-6.4,1.9c-2,1-3.8,2.1-4.9,3.1c-0.1-0.2-0.1-0.3-0.2-0.4c-0.3-0.3-0.7-0.6-1.3-0.5
												c-1.1,0.1-2.5,1.1-4.1,3.9c-6.1,10.3-11.9,20.7-20.2,29.2c-3.3,3.3-8.7,7.4-13.9,9.9C23.3,168.4,20.8,169.3,18.7,170.1"
												/>
										</g>
									</g>
								</g>
							</g>
							<g>
								<g>
									<g>
										<g>
											<defs>
												<rect id="SVGID_00000170994812994898640140000015822305687747589259_" x="13" y="70" width="128" height="128"/>
											</defs>
											<clipPath id="SVGID_00000012468305152374051040000001079797361092314784_">
												<use xlink:href="#SVGID_00000170994812994898640140000015822305687747589259_"  style="overflow:visible;"/>
											</clipPath>
											
												<path style="clip-path:url(#SVGID_00000012468305152374051040000001079797361092314784_);stroke:#000000;stroke-width:1.8609;stroke-linecap:round;stroke-linejoin:round;stroke-miterlimit:10;" d="
												M15.1,172.6c0.8-0.2,2.5-1.4,3.6-1.8c2.1-0.8,4.7-1.6,7.3-2.9c5.3-2.5,10.8-6.6,14.1-10c8.3-8.5,14.2-19,20.3-29.3
												c1.6-2.7,2.9-3.5,3.6-3.6c0.4-0.1,0.6,0,0.7,0.2c0.2,0.2,0.2,0.4,0.1,0.7l-0.6,1.6l1.2-1.2c0.9-1,3-2.4,5.3-3.6
												s4.7-2,6-1.8c0,0-0.1,0-0.2-0.1s-0.1-0.2-0.1-0.2c0-0.1,0-0.1,0-0.1s0,0.1-0.1,0.2c-0.1,0.2-0.4,0.5-0.8,0.8
												c-0.7,0.7-2,1.5-3.5,2.4l-3.1,1.6l3-0.9c4-1.2,7.3-1.7,9.9-1.7s4.3,0.4,5,1v-0.1c0-0.1,0-0.1,0-0.1
												c-0.1,0-0.2,0.2-0.4,0.3c-0.5,0.2-1.3,0.6-2.3,1c-2,0.8-5.2,1.8-9,2.7l-6.8,1.7l6.9-1c2.1-0.3,3.7-0.4,4.8-0.3
												c1.1,0.1,1.7,0.3,1.9,0.5c0.1,0.1,0.1,0.1,0.1,0.2s-0.1,0.2-0.2,0.4c-0.3,0.3-0.9,0.7-1.6,1c-2.8,1.3-7.8,2.5-9.7,2.8
												c-1.2,0.2-2.3,0.3-3.5,0.3c1.2,0.1,2.3,0.2,3.5,0.4c2.4,0.3,3.8,0.6,4.5,0.9c0.4,0.1,0.5,0.3,0.5,0.3l0,0
												c0,0-0.1,0.1-0.2,0.2c-0.4,0.3-1.5,0.7-2.7,1.1c-2.5,0.7-6,1.2-7.9,1.1l-4.6-0.3l4.5,1c2.2,0.4,3.8,0.8,4.6,1.1
												c0.4,0.1,0.7,0.3,0.7,0.4s0,0.1-0.1,0.3c-0.3,0.4-0.8,0.7-1.4,0.8s-1.3,0.1-2.1,0c-1.5-0.2-3.1-0.9-3.9-1.4l-0.4,0.6
												c1.6,1.1,2.2,2.2,2.3,2.9c0.1,0.3,0,0.5-0.1,0.6s-0.2,0.2-0.5,0.2c-0.5,0-1.4-0.2-2.5-1.1l-1.8-1.4l1.3,1.9
												c0.7,1,1,1.7,1,2.1c0,0.2-0.1,0.3-0.1,0.4c0,0-0.1,0.1-0.2,0.1c-0.3,0.1-0.8,0-1.4-0.3s-1.3-0.8-2-1.5l-1-1l0.5,1.4
												c0.2,0.5,0.3,1.4,0.2,2.4c0,1-0.2,1.9-0.4,2.6c-0.1,0.3-0.2,0.6-0.3,0.7l0,0c0.1,0,0.1,0,0.1,0s-0.2-0.2-0.3-0.6
												s-0.3-1-0.4-1.9l-0.7-4.6v4.7c0,2.7-1.3,6.3-2.5,8.5c-0.3,0.5-0.6,1-0.8,1.3s-0.5,0.5-0.5,0.5H52c0.1,0,0,0,0-0.1
												c0-0.2,0-0.7,0.1-1.4l0.9-5.9l-1.6,5.8c-0.4,1.1-0.8,2.4-1.4,3.2c-0.3,0.4-0.6,0.7-1,0.8s-0.9,0.1-1.5-0.1l-1.6-0.6
												l1.3,1.2c0.6,0.6,1.2,1.1,1.5,1.5c0.1,0.2,0.3,0.4,0.3,0.5s0,0.1,0,0.1c0-0.1,0,0-0.1,0s-0.4,0-0.7,0
												c-0.7,0-1.8-0.2-3.3-0.5c-0.6-0.1-1.3-0.2-1.9-0.4c0.6,0.4,1.2,0.7,1.7,1.1c0.7,0.4,1.2,0.8,1.5,1.1
												c0.4,0.3,0.5,0.5,0.5,0.5c0,0.1,0,0,0,0c0.1,0,0,0,0,0c-0.1,0-0.3,0.1-0.6,0.2c-0.5,0.1-1.5,0.2-2.3,0.3
												c-0.3,0-0.6,0.1-0.9,0.1c0.3,0.2,0.5,0.3,0.7,0.5c0.3,0.3,0.4,0.6,0.4,0.8s-0.1,0.4-0.3,0.7c-0.4,0.6-1.3,1.1-2.4,1.6
												c-1.1,0.4-2.3,0.8-3.4,1s-2,0.2-2.4,0.1l-0.2,0.7c1.2,0.1,1.9,0.4,2.2,0.7c0.1,0.1,0.2,0.2,0.2,0.3s0,0.2-0.1,0.3
												c-0.1,0.2-0.6,0.6-1.2,0.8c-0.7,0.2-1.5,0.4-2.4,0.4c-0.2,0-0.4,0-0.6,0c0.1,0.2,0.1,0.3,0.2,0.5
												c0.2,0.4,0.2,0.7,0.2,0.9s-0.1,0.3-0.2,0.4c-0.3,0.2-0.8,0.3-1.5,0.2s-1.5-0.2-2.2-0.4c-0.8-0.2-1.4-0.3-1.9-0.3
												c-0.3,0-0.6,0.1-0.9,0.2c0.2,0.1,0.5,0.2,0.7,0.4c1.1,0.7,1.6,1.2,1.8,1.5c0.1,0.1,0.1,0.2,0.1,0.2s0,0.1-0.1,0.1
												c-0.3,0.1-0.9,0.1-1.6,0s-1.6-0.3-2.5-0.7l-2.4-1l2.1,1.6c0.5,0.4,0.8,0.7,0.9,1s0.1,0.4-0.1,0.6
												c-0.3,0.4-1.2,0.7-2.3,0.6c-0.1,0-0.2,0-0.3,0c0,0.3,0,0.3,0,0.3c-0.1,0.4-0.1,0.8-0.3,1.1c-0.1,0.2-0.3,0.4-0.5,0.5
												c-0.5,0.3-1.2,0.4-1.6,0.4c-0.4,0.1-0.7,0.1-0.7,0.1s0.3,0,0.7,0.1c0.4,0.1,1.1,0.1,1.8-0.1c0.4-0.1,0.7-0.4,0.9-0.7
												c0.3-0.5,0.4-0.9,0.5-1.4l0,0l-0.4,0.3c1.1,0.1,2.2-0.2,2.8-0.8c0.3-0.4,0.4-0.8,0.2-1.3c0-0.1,0-0.2-0.1-0.3
												c0.5,0.1,0.9,0.2,1.3,0.3c0.8,0.2,1.4,0.2,1.9,0c0.3-0.1,0.5-0.2,0.6-0.5s0-0.6-0.1-0.8c-0.2-0.3-0.4-0.6-0.8-0.9
												c0.1,0.1,0.2,0.1,0.3,0.1c0.7,0.2,1.5,0.3,2.3,0.4c0.7,0.1,1.4,0.1,1.9-0.3c0.3-0.1,0.5-0.4,0.5-0.8c0-0.3,0-0.5-0.1-0.8
												c0.8,0,1.5-0.2,2.1-0.4c0.7-0.3,1.3-0.6,1.6-1.1c0.2-0.2,0.2-0.5,0.2-0.8c-0.1-0.2-0.3-0.5-0.5-0.7
												c-0.5-0.4-1.3-0.7-2.6-0.9c-0.4,0-0.8-0.1-1.2-0.1c0.2,0.4,0.6,0.7,1,0.8c0.7,0.2,1.7,0.1,2.8-0.1s2.4-0.6,3.5-1.1
												c1.2-0.5,2.1-1.1,2.7-1.8c0.2-0.4,0.4-0.8,0.4-1.2c0-0.2-0.1-0.5-0.2-0.7c0.6-0.1,1.3-0.2,1.8-0.3
												c0.3-0.1,0.6-0.2,0.8-0.3c0.1-0.1,0.2-0.2,0.3-0.3c0-0.2,0-0.3,0-0.5c-0.1-0.3-0.3-0.5-0.7-0.8c-0.1-0.1-0.2-0.2-0.3-0.3
												c0.7,0.1,1.3,0.2,1.8,0.2c0.4,0,0.7,0,0.9-0.1c0.3,0,0.5-0.2,0.6-0.4s0-0.5-0.1-0.7s-0.2-0.4-0.4-0.6s-0.4-0.4-0.7-0.7
												c0.2,0,0.5,0,0.7-0.1c0.6-0.1,1-0.5,1.4-1c0.4-0.4,0.7-1,0.9-1.6l0.1,0.1c0.2,0.1,0.4,0.2,0.6,0.1
												c0.4-0.1,0.6-0.3,0.9-0.7s0.6-0.8,0.9-1.4c1-1.8,2-4.3,2.4-6.7c0.1,0.4,0.2,0.6,0.5,0.8c0.1,0.1,0.3,0.1,0.5,0.1
												c0.2-0.1,0.3-0.2,0.4-0.3c0.1-0.2,0.3-0.5,0.4-0.9c0.3-0.8,0.4-1.8,0.5-2.8c0.1-0.6,0.1-1.2,0-1.7c0.5,0.4,1,0.7,1.4,0.9
												c0.7,0.4,1.3,0.5,1.8,0.4c0.3,0,0.6-0.2,0.7-0.4c0.2-0.2,0.2-0.5,0.2-0.8s-0.1-0.7-0.3-1.1c0.7,0.3,1.3,0.5,1.8,0.4
												c0.4,0,0.8-0.2,1-0.5c0.3-0.3,0.3-0.7,0.3-1.1c-0.1-1-0.9-2.2-2.6-3.4c-0.6-0.4-1.2-0.7-1.8-1c0.4,0.7,0.8,1.2,1.4,1.6
												c0.9,0.7,2.6,1.3,4.2,1.6c0.9,0.1,1.7,0.1,2.4,0c0.7-0.2,1.4-0.5,1.8-1.1c0.2-0.4,0.3-0.8,0.1-1.1s-0.5-0.5-1-0.7
												s-1.2-0.4-2.1-0.6c1.8-0.2,3.8-0.6,5.4-1.1c1.3-0.3,2.3-0.7,2.9-1.2c0.2-0.1,0.3-0.2,0.4-0.4c0.1-0.1,0.1-0.3,0.1-0.5
												c-0.1-0.4-0.4-0.6-0.9-0.8c-0.6-0.3-1.5-0.5-2.8-0.7c2.4-0.5,5.8-1.4,8-2.4c0.8-0.3,1.4-0.7,1.8-1.2
												c0.2-0.3,0.3-0.5,0.3-0.8s-0.1-0.6-0.3-0.8c-0.5-0.4-1.2-0.6-2.4-0.7c-0.3,0-0.6,0-0.9,0c2.1-0.6,3.8-1.2,5.2-1.7
												c1.1-0.4,1.9-0.8,2.4-1.1c0.3-0.2,0.5-0.3,0.6-0.5c0.1-0.1,0.1-0.2,0.1-0.4c0-0.2-0.1-0.3-0.2-0.4
												c-0.9-0.7-2.8-1.1-5.4-1.1c-2.1,0-4.7,0.4-7.8,1.1c0.7-0.5,1.3-0.9,1.7-1.3s0.7-0.7,0.9-0.9c0.1-0.1,0.1-0.2,0.2-0.3
												c0.1,0,0.1-0.1,0.1-0.2c0,0,0-0.1-0.1-0.2c0,0-0.1-0.1-0.2-0.1c-1.7-0.2-4.1,0.7-6.4,1.9c-2,1-3.8,2.1-4.9,3.1
												c-0.1-0.2-0.1-0.3-0.2-0.4c-0.3-0.3-0.7-0.6-1.3-0.5c-1.1,0.1-2.5,1.1-4.1,3.9c-6.1,10.3-11.9,20.7-20.2,29.2
												c-3.3,3.3-8.7,7.4-13.9,9.9c-2.6,1.2-5.1,2.1-7.2,2.9C17.3,170.7,14.6,172.7,15.1,172.6z"/>
										</g>
									</g>
								</g>
							</g>
							<g>
								<g>
									<g>
										<g>
											<defs>
												<rect id="SVGID_00000158722348636656665890000005776668565723611582_" x="13" y="70" width="128" height="128"/>
											</defs>
											<clipPath id="SVGID_00000059300541837084793690000013235747214501483160_">
												<use xlink:href="#SVGID_00000158722348636656665890000005776668565723611582_"  style="overflow:visible;"/>
											</clipPath>
											
												<path style="clip-path:url(#SVGID_00000059300541837084793690000013235747214501483160_);stroke:#000000;stroke-miterlimit:10;" d="
												M75.2,119.8c2.7-1.4,5.9-2.9,9.2-4.9c6.2-3.7,12.7-9.3,20.1-17.5c4-4.5,10.5-13.4,15.1-18.9c1-1.3,2-2.2,2.7-2.8
												c0.4-0.3,0.7-0.4,0.9-0.5c0.1,0,0.2,0,0.2,0l0,0c0,0,0.1,0.2,0.1,0.6s-0.1,1-0.3,1.7c-0.3,1.5-1,3.6-2.2,6.5
												c-5.9,14.9-16.2,28.1-30,34.4c-1.5,0.7-3.1,1.3-4.7,1.8c1.6-0.3,3.3-0.7,4.9-1.2c10.3-3.1,17.8-9,24.8-13.2
												c5.1-3,12.4-8.8,17.1-13.4c1.7-1.8,3-2.7,3.9-3.1c0.4-0.2,0.7-0.2,0.9-0.2s0.3,0.1,0.4,0.3c0.1,0.4,0.1,1.3-0.1,2.5
												c-0.2,1.1-0.7,2.5-1.3,4c-3.8,9.3-13.9,15.9-21.4,20.3c-0.7,0.4-1.4,0.8-2.1,1.2c0.8-0.2,1.6-0.4,2.4-0.6
												c5.7-1.7,11.6-5.9,16-9c2.2-1.6,4.1-2.9,5.3-3.5c0.6-0.3,1.1-0.4,1.2-0.4c0.1,0,0.1,0,0.1,0.1s0,0.2,0,0.5
												c-0.1,1.2-1.2,3.4-3,5.9s-4.4,5.3-7.6,7.9c-4.2,3.5-9.4,6.8-14.7,8.5l-8.5,2.8l8.7-2.1c5.6-1.4,10.2-3.6,13.5-5.4
												c1.6-0.9,3-1.7,4-2.3c0.5-0.2,0.9-0.5,1.2-0.6c0.3-0.2,0.5-0.2,0.5-0.2c0.4,0.1,0.7,0.3,0.8,0.5c0.2,0.2,0.2,0.6,0.1,1.1
												c-0.3,1.1-1.2,2.8-3,5.1c-5.7,7.4-12.5,11.1-21.5,12.4c-2.3,0.3-4.7,0.4-7.1,0.4c2.4,0.3,4.8,0.4,7.2,0.3
												c4.8-0.2,8.6-0.9,11.3-1.5c2.5-0.6,4-0.7,4.5-0.5c0.1,0,0.2,0.1,0.2,0.1s0,0,0,0.1s-0.1,0.4-0.3,0.7
												c-1,1.3-3.6,3.3-5.2,4.4c-3.1,2.3-7.1,4-11.1,5.1c-4.8,1.3-9.3,2.3-13.8,2.6c-2,0.2-4,0.2-6,0c2,0.3,4,0.6,6,0.7
												c4,0.3,8.4,0.3,11.9,0.3c1.8,0,3.3,0.1,4.4,0.2c0.5,0.1,1,0.2,1.3,0.3s0.5,0.3,0.5,0.3c0.1,0.2,0.1,0.3,0.1,0.5
												s-0.1,0.4-0.3,0.6c-0.4,0.4-1.1,0.9-2.1,1.4c-1.9,1-4.9,1.9-8.3,2.5c-3.8,0.6-5.8,0.8-10.7,0.4l-7.2-0.6l7.2,1.3
												c2.8,0.5,4.8,1,6.2,1.4c1.4,0.5,2.1,0.9,2.3,1.2c0.1,0.1,0.1,0.1,0.1,0.2s0,0.2-0.1,0.3c-0.2,0.2-0.6,0.5-1.2,0.7
												c-1.2,0.5-3.1,0.9-5.4,1.1c-4.5,0.4-10.4-0.1-15-2.2L78,161c2.7,1,4.5,1.9,5.4,2.5c0.4,0.3,0.6,0.6,0.6,0.6V164
												c0,0-0.1,0.1-0.2,0.1c-0.3,0.1-1-0.1-2.1-0.4s-2.6-0.8-4.7-1.2c-1.2-0.2-2.4-0.4-3.6-0.5c1.1,0.4,2.3,0.8,3.4,1.2
												c2.8,1.1,4.4,2,5,2.6c0.3,0.3,0.3,0.5,0.3,0.6s-0.1,0.3-0.4,0.4c-0.6,0.3-1.8,0.5-3.3,0.4s-3.2-0.3-4.7-0.7l-2.8-0.7
												l2.6,1.3c0.8,0.4,1.4,0.8,1.7,1.1c0.4,0.3,0.5,0.5,0.5,0.7s0,0.3-0.2,0.4s-0.5,0.3-0.9,0.4c-1.6,0.5-4.5,0.6-6.2,0.6
												c-1.4,0-2.8-0.1-4.2-0.3c1.3,0.4,2.7,0.7,4.1,1c4.1,0.9,6.8,1.5,7.9,2.3c0.4,0.3,0.6,0.5,0.7,0.7s0.1,0.3,0,0.5
												c-0.2,0.4-1,0.8-2.1,1c-2.2,0.5-5.9,0.5-9.8-0.5l-4.9-1.2l4.7,1.9c2.2,0.9,3.9,1.7,5,2.3s1.6,1.2,1.6,1.4
												c0.1,0.2,0,0.3-0.1,0.4c-0.1,0.1-0.4,0.3-0.8,0.5c-0.8,0.4-2,0.8-3.6,1.2c-3.5,1-6.7,0.3-9.8-0.1l-5.7-0.8l5.6,1.5
												c0.7,0.2,1.2,0.4,1.5,0.5c0.2,0.1,0.3,0.2,0.3,0.2c0,0.1,0,0.1,0,0s0-0.1,0-0.1s-0.1,0.1-0.2,0.1
												c-0.2,0.1-0.5,0.2-0.9,0.2c-0.8,0.1-1.8,0.1-2.8,0.1c-0.9,0-1.9-0.1-2.3-0.3l-4-1.5l3.8,2.1c1.7,1,3.8,1.3,5.5,1.4
												c0.8,0.1,1.6,0.1,2.1,0.2c0.3,0,0.5,0,0.6,0.1c0.2,0.1,0.2,0.1,0.2,0.1c0,0.1,0,0.2,0,0.3s-0.1,0.3-0.3,0.4
												c-0.4,0.3-0.9,0.6-1.7,0.9c-1.5,0.6-3.8,1-6.4,1h-1.9l1.8,0.6c0.5,0.2,0.8,0.4,1,0.5c0.1,0.1,0.1,0.1,0.1,0.1v-0.1
												c0,0-0.1,0.1-0.4,0.2c-0.2,0.1-0.6,0.2-1,0.3c-1.6,0.3-4.1,0.4-4.9,0.3l-2.1-0.3l1.9,0.9c1,0.5,1.5,0.9,1.7,1.1
												c0.1,0.1,0.1,0.2,0.1,0.2s0,0-0.1,0.1c-0.2,0.2-0.7,0.3-1.3,0.4s-1.5,0.1-2.4,0.1c-2.4-0.1-4.7-0.4-6.9-0.8
												s-4-0.9-5.6-1.4c-2.4-0.8-3.6-1.8-3.6-1.8s1.1,1.1,3.5,2.1c1.6,0.6,3.4,1.2,5.6,1.7s4.6,0.8,7,0.9c1,0,1.8,0,2.5-0.1
												s1.2-0.2,1.6-0.5c0.2-0.1,0.4-0.4,0.4-0.6c0-0.3-0.1-0.5-0.3-0.7c-0.1-0.1-0.3-0.3-0.6-0.5c1.1,0,2.6-0.1,3.7-0.3
												c0.4-0.1,0.8-0.2,1.1-0.3s0.5-0.2,0.7-0.5c0-0.1,0.1-0.3,0-0.5s-0.2-0.3-0.3-0.4l0,0c2.1-0.1,3.9-0.5,5.3-1
												c0.8-0.3,1.5-0.6,1.9-1c0.2-0.2,0.4-0.5,0.5-0.7c0.1-0.3,0.1-0.6,0-0.8c-0.1-0.3-0.3-0.4-0.5-0.5s-0.5-0.2-0.8-0.2
												c-0.6-0.1-1.4-0.1-2.2-0.2c-0.6-0.1-1.4-0.2-2.1-0.3c0.7,0,1.4,0,2-0.1c0.4,0,0.7-0.1,1-0.2c0.2,0,0.3-0.1,0.4-0.2
												s0.2-0.3,0.2-0.5c0-0.1-0.1-0.2-0.1-0.3c2.4,0.3,5,0.5,7.7-0.2c1.6-0.4,2.8-0.8,3.7-1.2c0.4-0.2,0.8-0.4,1-0.7
												c0.2-0.2,0.4-0.6,0.3-0.9c-0.2-0.6-0.9-1.2-2-1.8c-0.6-0.3-1.3-0.6-2.1-1c2.7,0.3,5.2,0.3,6.9-0.1
												c1.2-0.3,2.1-0.7,2.5-1.3c0.2-0.3,0.3-0.7,0.1-1.1c-0.1-0.3-0.4-0.7-0.9-1c-1-0.8-2.9-1.3-5.5-1.9
												c1.3-0.1,2.7-0.3,3.7-0.6c0.4-0.1,0.8-0.3,1.1-0.5c0.2-0.3,0.4-0.6,0.4-1s-0.3-0.7-0.7-1.1c-0.1,0-0.1-0.1-0.2-0.1
												c1,0.2,2,0.3,2.9,0.3c1.5,0.1,2.8,0,3.6-0.4c0.4-0.2,0.7-0.5,0.8-0.9s-0.1-0.8-0.5-1.2s-1-0.8-1.9-1.3
												c0.5,0.1,0.8,0.2,1.2,0.3c1.1,0.3,1.8,0.5,2.4,0.4c0.2,0,0.4-0.1,0.5-0.2c0.1-0.2,0.2-0.4,0.1-0.6
												c-0.1-0.4-0.4-0.7-0.9-1c-1-0.7-2.8-1.5-5.6-2.6c-1.2-0.4-2.3-0.8-3.5-1.2c1,0.8,2.1,1.4,3.2,1.9
												c4.8,2.1,10.8,2.6,15.4,2.2c2.3-0.2,4.3-0.6,5.6-1.1c0.7-0.2,1.2-0.5,1.5-0.9c0.2-0.1,0.3-0.4,0.3-0.6s-0.1-0.5-0.2-0.7
												c-0.4-0.5-1.2-0.9-2.6-1.4c-0.5-0.1-1.2-0.3-1.9-0.5c2.2,0,4-0.3,6.4-0.7c3.4-0.6,6.4-1.5,8.5-2.5c1-0.5,1.8-1,2.3-1.6
												c0.3-0.3,0.4-0.6,0.5-0.9c0-0.3,0-0.7-0.2-1s-0.5-0.5-0.9-0.6s-0.9-0.2-1.5-0.3c-1.1-0.1-2.6-0.2-4.4-0.2
												c-2.2-0.1-4.9,0-7.5-0.1c3.1-0.5,6.2-1.2,9.5-2.1c4.1-1.1,8.2-2.9,11.4-5.2c1.5-1.2,4.2-3.1,5.3-4.6
												c0.3-0.4,0.5-0.7,0.5-1.1c0-0.1-0.1-0.3-0.2-0.5c-0.1-0.1-0.3-0.2-0.5-0.3c-0.8-0.2-2.3-0.1-4.9,0.5
												c-1.6,0.4-3.6,0.8-5.9,1.1c6.7-1.9,12.1-5.5,16.7-11.6c1.8-2.3,2.8-4,3.1-5.3c0.2-0.6,0.2-1.2-0.1-1.6s-0.7-0.7-1.3-0.8
												c-0.3-0.1-0.6,0-0.9,0.2c-0.4,0.2-0.8,0.4-1.3,0.7c-1,0.6-2.3,1.4-4,2.3c-1.9,1-4.2,2.2-6.8,3.2c3.1-1.7,6-3.7,8.6-5.9
												c3.2-2.6,5.8-5.5,7.7-8c1.8-2.5,3-4.7,3.1-6.2c0-0.3,0-0.6-0.1-0.8c-0.1-0.3-0.4-0.4-0.6-0.5c-0.5-0.1-1,0.1-1.7,0.4
												c-1.3,0.7-3.2,2-5.4,3.6c-3.4,2.4-7.6,5.4-11.9,7.4c7-4.3,14.9-10.4,18.2-18.5c0.6-1.5,1-3,1.3-4.2c0.3-1.3,0.3-2.3,0-3
												c-0.2-0.3-0.5-0.6-0.9-0.7s-0.8,0-1.3,0.2c-1,0.4-2.3,1.4-4.1,3.2c-4.6,4.5-12,10.3-17,13.3c-5.9,3.6-12.2,8.4-20.2,11.6
												c11.8-7,20.8-19.1,26.1-32.5c1.2-3,1.9-5.1,2.3-6.6c0.2-0.7,0.3-1.3,0.3-1.8c0.1-0.5,0-0.8-0.2-1.1
												c-0.2-0.2-0.3-0.3-0.5-0.3s-0.3,0-0.5,0.1c-0.4,0.1-0.7,0.3-1.1,0.6c-0.7,0.6-1.7,1.6-2.8,2.8
												c-4.3,5-10.8,13.9-14.8,18.4c-7.3,8.1-13.8,13.7-19.9,17.3c-3.3,2-6.4,3.5-9.2,4.9c-3.8,1.8-7,3.9-9.3,6.3
												c-1,1-1.7,2.1-2.2,3.1c-0.4,0.9-0.6,1.6-0.6,1.6s0.3-0.6,0.9-1.4c0.7-0.9,1.4-1.8,2.4-2.8
												C68.3,123.7,71.5,121.6,75.2,119.8z"/>
										</g>
									</g>
								</g>
							</g>
							<g>
								<g>
									<g>
										<g>
											<defs>
												<rect id="SVGID_00000119816110910631713990000016258914005360217747_" x="13" y="70" width="128" height="128"/>
											</defs>
											<clipPath id="SVGID_00000111150664801334507950000015806082084346593463_">
												<use xlink:href="#SVGID_00000119816110910631713990000016258914005360217747_"  style="overflow:visible;"/>
											</clipPath>
											
												<path style="clip-path:url(#SVGID_00000111150664801334507950000015806082084346593463_);stroke:#000000;stroke-width:1.8609;stroke-linecap:round;stroke-linejoin:round;stroke-miterlimit:10;" d="
												M75.2,119.8c2.7-1.4,5.9-2.9,9.2-4.9c6.2-3.7,12.7-9.3,20.1-17.5c4-4.5,10.5-13.4,15.1-18.9c1-1.3,2-2.2,2.7-2.8
												c0.4-0.3,0.7-0.4,0.9-0.5c0.1,0,0.2,0,0.2,0l0,0c0,0,0.1,0.2,0.1,0.6s-0.1,1-0.3,1.7c-0.3,1.5-1,3.6-2.2,6.5
												c-5.9,14.9-16.2,28.1-30,34.4c-1.5,0.7-3.1,1.3-4.7,1.8c1.6-0.3,3.3-0.7,4.9-1.2c10.3-3.1,17.8-9,24.8-13.2
												c5.1-3,12.4-8.8,17.1-13.4c1.7-1.8,3-2.7,3.9-3.1c0.4-0.2,0.7-0.2,0.9-0.2s0.3,0.1,0.4,0.3c0.1,0.4,0.1,1.3-0.1,2.5
												c-0.2,1.1-0.7,2.5-1.3,4c-3.8,9.3-13.9,15.9-21.4,20.3c-0.7,0.4-1.4,0.8-2.1,1.2c0.8-0.2,1.6-0.4,2.4-0.6
												c5.7-1.7,11.6-5.9,16-9c2.2-1.6,4.1-2.9,5.3-3.5c0.6-0.3,1.1-0.4,1.2-0.4c0.1,0,0.1,0,0.1,0.1s0,0.2,0,0.5
												c-0.1,1.2-1.2,3.4-3,5.9s-4.4,5.3-7.6,7.9c-4.2,3.5-9.4,6.8-14.7,8.5l-8.5,2.8l8.7-2.1c5.6-1.4,10.2-3.6,13.5-5.4
												c1.6-0.9,3-1.7,4-2.3c0.5-0.2,0.9-0.5,1.2-0.6c0.3-0.2,0.5-0.2,0.5-0.2c0.4,0.1,0.7,0.3,0.8,0.5c0.2,0.2,0.2,0.6,0.1,1.1
												c-0.3,1.1-1.2,2.8-3,5.1c-5.7,7.4-12.5,11.1-21.5,12.4c-2.3,0.3-4.7,0.4-7.1,0.4c2.4,0.3,4.8,0.4,7.2,0.3
												c4.8-0.2,8.6-0.9,11.3-1.5c2.5-0.6,4-0.7,4.5-0.5c0.1,0,0.2,0.1,0.2,0.1s0,0,0,0.1s-0.1,0.4-0.3,0.7
												c-1,1.3-3.6,3.3-5.2,4.4c-3.1,2.3-7.1,4-11.1,5.1c-4.8,1.3-9.3,2.3-13.8,2.6c-2,0.2-4,0.2-6,0c2,0.3,4,0.6,6,0.7
												c4,0.3,8.4,0.3,11.9,0.3c1.8,0,3.3,0.1,4.4,0.2c0.5,0.1,1,0.2,1.3,0.3s0.5,0.3,0.5,0.3c0.1,0.2,0.1,0.3,0.1,0.5
												s-0.1,0.4-0.3,0.6c-0.4,0.4-1.1,0.9-2.1,1.4c-1.9,1-4.9,1.9-8.3,2.5c-3.8,0.6-5.8,0.8-10.7,0.4l-7.2-0.6l7.2,1.3
												c2.8,0.5,4.8,1,6.2,1.4c1.4,0.5,2.1,0.9,2.3,1.2c0.1,0.1,0.1,0.1,0.1,0.2s0,0.2-0.1,0.3c-0.2,0.2-0.6,0.5-1.2,0.7
												c-1.2,0.5-3.1,0.9-5.4,1.1c-4.5,0.4-10.4-0.1-15-2.2L78,161c2.7,1,4.5,1.9,5.4,2.5c0.4,0.3,0.6,0.6,0.6,0.6V164
												c0,0-0.1,0.1-0.2,0.1c-0.3,0.1-1-0.1-2.1-0.4s-2.6-0.8-4.7-1.2c-1.2-0.2-2.4-0.4-3.6-0.5c1.1,0.4,2.3,0.8,3.4,1.2
												c2.8,1.1,4.4,2,5,2.6c0.3,0.3,0.3,0.5,0.3,0.6s-0.1,0.3-0.4,0.4c-0.6,0.3-1.8,0.5-3.3,0.4s-3.2-0.3-4.7-0.7l-2.8-0.7
												l2.6,1.3c0.8,0.4,1.4,0.8,1.7,1.1c0.4,0.3,0.5,0.5,0.5,0.7s0,0.3-0.2,0.4s-0.5,0.3-0.9,0.4c-1.6,0.5-4.5,0.6-6.2,0.6
												c-1.4,0-2.8-0.1-4.2-0.3c1.3,0.4,2.7,0.7,4.1,1c4.1,0.9,6.8,1.5,7.9,2.3c0.4,0.3,0.6,0.5,0.7,0.7s0.1,0.3,0,0.5
												c-0.2,0.4-1,0.8-2.1,1c-2.2,0.5-5.9,0.5-9.8-0.5l-4.9-1.2l4.7,1.9c2.2,0.9,3.9,1.7,5,2.3s1.6,1.2,1.6,1.4
												c0.1,0.2,0,0.3-0.1,0.4c-0.1,0.1-0.4,0.3-0.8,0.5c-0.8,0.4-2,0.8-3.6,1.2c-3.5,1-6.7,0.3-9.8-0.1l-5.7-0.8l5.6,1.5
												c0.7,0.2,1.2,0.4,1.5,0.5c0.2,0.1,0.3,0.2,0.3,0.2c0,0.1,0,0.1,0,0s0-0.1,0-0.1s-0.1,0.1-0.2,0.1
												c-0.2,0.1-0.5,0.2-0.9,0.2c-0.8,0.1-1.8,0.1-2.8,0.1c-0.9,0-1.9-0.1-2.3-0.3l-4-1.5l3.8,2.1c1.7,1,3.8,1.3,5.5,1.4
												c0.8,0.1,1.6,0.1,2.1,0.2c0.3,0,0.5,0,0.6,0.1c0.2,0.1,0.2,0.1,0.2,0.1c0,0.1,0,0.2,0,0.3s-0.1,0.3-0.3,0.4
												c-0.4,0.3-0.9,0.6-1.7,0.9c-1.5,0.6-3.8,1-6.4,1h-1.9l1.8,0.6c0.5,0.2,0.8,0.4,1,0.5c0.1,0.1,0.1,0.1,0.1,0.1v-0.1
												c0,0-0.1,0.1-0.4,0.2c-0.2,0.1-0.6,0.2-1,0.3c-1.6,0.3-4.1,0.4-4.9,0.3l-2.1-0.3l1.9,0.9c1,0.5,1.5,0.9,1.7,1.1
												c0.1,0.1,0.1,0.2,0.1,0.2s0,0-0.1,0.1c-0.2,0.2-0.7,0.3-1.3,0.4s-1.5,0.1-2.4,0.1c-2.4-0.1-4.7-0.4-6.9-0.8
												s-4-0.9-5.6-1.4c-2.4-0.8-3.6-1.8-3.6-1.8s1.1,1.1,3.5,2.1c1.6,0.6,3.4,1.2,5.6,1.7s4.6,0.8,7,0.9c1,0,1.8,0,2.5-0.1
												s1.2-0.2,1.6-0.5c0.2-0.1,0.4-0.4,0.4-0.6c0-0.3-0.1-0.5-0.3-0.7c-0.1-0.1-0.3-0.3-0.6-0.5c1.1,0,2.6-0.1,3.7-0.3
												c0.4-0.1,0.8-0.2,1.1-0.3s0.5-0.2,0.7-0.5c0-0.1,0.1-0.3,0-0.5s-0.2-0.3-0.3-0.4l0,0c2.1-0.1,3.9-0.5,5.3-1
												c0.8-0.3,1.5-0.6,1.9-1c0.2-0.2,0.4-0.5,0.5-0.7c0.1-0.3,0.1-0.6,0-0.8c-0.1-0.3-0.3-0.4-0.5-0.5s-0.5-0.2-0.8-0.2
												c-0.6-0.1-1.4-0.1-2.2-0.2c-0.6-0.1-1.4-0.2-2.1-0.3c0.7,0,1.4,0,2-0.1c0.4,0,0.7-0.1,1-0.2c0.2,0,0.3-0.1,0.4-0.2
												s0.2-0.3,0.2-0.5c0-0.1-0.1-0.2-0.1-0.3c2.4,0.3,5,0.5,7.7-0.2c1.6-0.4,2.8-0.8,3.7-1.2c0.4-0.2,0.8-0.4,1-0.7
												c0.2-0.2,0.4-0.6,0.3-0.9c-0.2-0.6-0.9-1.2-2-1.8c-0.6-0.3-1.3-0.6-2.1-1c2.7,0.3,5.2,0.3,6.9-0.1
												c1.2-0.3,2.1-0.7,2.5-1.3c0.2-0.3,0.3-0.7,0.1-1.1c-0.1-0.3-0.4-0.7-0.9-1c-1-0.8-2.9-1.3-5.5-1.9
												c1.3-0.1,2.7-0.3,3.7-0.6c0.4-0.1,0.8-0.3,1.1-0.5c0.2-0.3,0.4-0.6,0.4-1s-0.3-0.7-0.7-1.1c-0.1,0-0.1-0.1-0.2-0.1
												c1,0.2,2,0.3,2.9,0.3c1.5,0.1,2.8,0,3.6-0.4c0.4-0.2,0.7-0.5,0.8-0.9s-0.1-0.8-0.5-1.2s-1-0.8-1.9-1.3
												c0.5,0.1,0.8,0.2,1.2,0.3c1.1,0.3,1.8,0.5,2.4,0.4c0.2,0,0.4-0.1,0.5-0.2c0.1-0.2,0.2-0.4,0.1-0.6
												c-0.1-0.4-0.4-0.7-0.9-1c-1-0.7-2.8-1.5-5.6-2.6c-1.2-0.4-2.3-0.8-3.5-1.2c1,0.8,2.1,1.4,3.2,1.9
												c4.8,2.1,10.8,2.6,15.4,2.2c2.3-0.2,4.3-0.6,5.6-1.1c0.7-0.2,1.2-0.5,1.5-0.9c0.2-0.1,0.3-0.4,0.3-0.6s-0.1-0.5-0.2-0.7
												c-0.4-0.5-1.2-0.9-2.6-1.4c-0.5-0.1-1.2-0.3-1.9-0.5c2.2,0,4-0.3,6.4-0.7c3.4-0.6,6.4-1.5,8.5-2.5c1-0.5,1.8-1,2.3-1.6
												c0.3-0.3,0.4-0.6,0.5-0.9c0-0.3,0-0.7-0.2-1s-0.5-0.5-0.9-0.6s-0.9-0.2-1.5-0.3c-1.1-0.1-2.6-0.2-4.4-0.2
												c-2.2-0.1-4.9,0-7.5-0.1c3.1-0.5,6.2-1.2,9.5-2.1c4.1-1.1,8.2-2.9,11.4-5.2c1.5-1.2,4.2-3.1,5.3-4.6
												c0.3-0.4,0.5-0.7,0.5-1.1c0-0.1-0.1-0.3-0.2-0.5c-0.1-0.1-0.3-0.2-0.5-0.3c-0.8-0.2-2.3-0.1-4.9,0.5
												c-1.6,0.4-3.6,0.8-5.9,1.1c6.7-1.9,12.1-5.5,16.7-11.6c1.8-2.3,2.8-4,3.1-5.3c0.2-0.6,0.2-1.2-0.1-1.6s-0.7-0.7-1.3-0.8
												c-0.3-0.1-0.6,0-0.9,0.2c-0.4,0.2-0.8,0.4-1.3,0.7c-1,0.6-2.3,1.4-4,2.3c-1.9,1-4.2,2.2-6.8,3.2c3.1-1.7,6-3.7,8.6-5.9
												c3.2-2.6,5.8-5.5,7.7-8c1.8-2.5,3-4.7,3.1-6.2c0-0.3,0-0.6-0.1-0.8c-0.1-0.3-0.4-0.4-0.6-0.5c-0.5-0.1-1,0.1-1.7,0.4
												c-1.3,0.7-3.2,2-5.4,3.6c-3.4,2.4-7.6,5.4-11.9,7.4c7-4.3,14.9-10.4,18.2-18.5c0.6-1.5,1-3,1.3-4.2c0.3-1.3,0.3-2.3,0-3
												c-0.2-0.3-0.5-0.6-0.9-0.7s-0.8,0-1.3,0.2c-1,0.4-2.3,1.4-4.1,3.2c-4.6,4.5-12,10.3-17,13.3c-5.9,3.6-12.2,8.4-20.2,11.6
												c11.8-7,20.8-19.1,26.1-32.5c1.2-3,1.9-5.1,2.3-6.6c0.2-0.7,0.3-1.3,0.3-1.8c0.1-0.5,0-0.8-0.2-1.1
												c-0.2-0.2-0.3-0.3-0.5-0.3s-0.3,0-0.5,0.1c-0.4,0.1-0.7,0.3-1.1,0.6c-0.7,0.6-1.7,1.6-2.8,2.8
												c-4.3,5-10.8,13.9-14.8,18.4c-7.3,8.1-13.8,13.7-19.9,17.3c-3.3,2-6.4,3.5-9.2,4.9c-3.8,1.8-7,3.9-9.3,6.3
												c-1,1-1.7,2.1-2.2,3.1c-0.4,0.9-0.6,1.6-0.6,1.6s0.3-0.6,0.9-1.4c0.7-0.9,1.4-1.8,2.4-2.8
												C68.3,123.7,71.5,121.6,75.2,119.8z"/>
										</g>
									</g>
								</g>
							</g>
							<g>
								<g>
									<g>
										<g>
											<defs>
												<rect id="SVGID_00000124867171105698521450000018088533912463887786_" x="13" y="70" width="128" height="128"/>
											</defs>
											<clipPath id="SVGID_00000087394426581381568680000000953692187311468471_">
												<use xlink:href="#SVGID_00000124867171105698521450000018088533912463887786_"  style="overflow:visible;"/>
											</clipPath>
											
												<path style="clip-path:url(#SVGID_00000087394426581381568680000000953692187311468471_);stroke:#000000;stroke-miterlimit:10;" d="
												M94.1,122.1L94.1,122.1c0-0.1-0.1,0-0.2,0.1c-0.3,0.4-1.3,1.2-2.9,2.3l-3.4,1.8l3.8-1.7c2.7-1.2,4.6-1.8,5.9-2.1
												c0.6-0.1,1.1-0.1,1.4-0.1c0.3,0.1,0.4,0.1,0.4,0.2s0,0.3-0.1,0.6c-0.2,0.3-0.4,0.7-0.9,1.2c-0.9,0.9-2.5,2.1-5.2,3.4
												l-2.8,1.4l3-0.7c1.9-0.4,3.8-0.7,5.3-1.4c2.3-1,3.9-1.4,4.7-1.4c0.4,0,0.6,0.1,0.7,0.2s0.1,0.3,0.1,0.6
												c-0.1,0.6-0.6,1.6-1.4,2.6c-0.7,1-1.7,2.1-2.8,3.1c-4,3.7-9.3,5.6-13.5,6.9c-0.9,0.3-1.7,0.6-2.6,0.8
												c0.9,0,1.8,0,2.7-0.1c3.9-0.4,7.3-1.6,11.5-1.8c0.5-0.1,1,0,1.3,0.1s0.4,0.2,0.5,0.4c0.2,0.3,0.1,0.9-0.4,1.6
												c-1,1.5-3.4,3.3-6.3,4.4c-7.3,2.8-10.8,2.5-16.5,2.5c-1,0-2,0-3,0c1,0.2,1.9,0.4,2.9,0.6c3.8,0.8,6.8,1,8.9,1.1
												c1,0,1.9,0.1,2.5,0.2s0.9,0.3,1,0.4c0.2,0.2,0.2,0.3,0.1,0.5c0,0.2-0.2,0.5-0.5,0.7c-0.6,0.5-1.6,1-2.9,1.4
												c-2.5,0.9-6,1.3-9,0.9l-2.1-0.3l1.9,1c1.1,0.6,1.7,1,2.1,1.4c0.3,0.4,0.4,0.6,0.3,0.8s-0.3,0.4-0.8,0.6
												c-0.5,0.1-1.1,0.2-1.9,0.3c-3.1,0.2-7.8-0.7-9.8-3l-0.5,0.5c1,0.8,1.6,1.5,1.8,1.9c0.1,0.2,0.1,0.3,0.1,0.4
												c0,0,0,0.1-0.1,0.1c-0.2,0.1-0.8,0.1-1.4,0s-1.4-0.4-2.2-0.8l-5.7-3l5.3,3.6c1.5,1,2.6,1.9,3.4,2.6
												c0.8,0.7,1.2,1.3,1.2,1.6c0.1,0.2,0,0.2-0.1,0.3s-0.4,0.2-0.8,0.3c-0.9,0.1-2.2,0-4.2-0.2l-3.1-0.4l3,1.1
												c2.6,0.9,4,1.7,4.5,2.3c0.3,0.3,0.3,0.5,0.3,0.6c0,0.2-0.2,0.3-0.5,0.5c-0.6,0.3-1.9,0.6-3.4,0.6c-1.5,0.1-3.3-0.1-5-0.4
												l-3.2-0.6l3,1.3c1.1,0.4,1.9,0.9,2.5,1.3c0.3,0.2,0.5,0.4,0.6,0.5c0.2,0.2,0.2,0.3,0.2,0.3s0.1,0,0,0
												c0,0-0.2,0.1-0.5,0.1c-0.6,0-1.6-0.2-2.9-0.5l-4.5-1.1l4.3,1.8c1.7,0.7,2.9,1.3,3.6,1.8c0.4,0.2,0.6,0.4,0.7,0.6
												s0,0.2,0,0.3s-0.2,0.3-0.5,0.4c-0.3,0.1-0.7,0.3-1.3,0.4c-1.1,0.2-2.7,0.4-4.7,0.6c-0.8,0.1-1.6,0.2-2.4,0.2
												c0.8,0.1,1.5,0.3,2.3,0.5s1.3,0.5,1.7,0.7c0.3,0.3,0.5,0.5,0.5,0.6c0,0.2,0,0.3-0.2,0.5c-0.1,0.2-0.5,0.5-0.9,0.7
												c-2.9,1.5-4.2,1.9-10,1.7l-3.1-0.1l3,0.8c1.1,0.3,1.8,0.5,2.3,0.8s0.7,0.5,0.7,0.6s-0.1,0.2-0.3,0.4
												c-0.3,0.2-0.7,0.4-1.2,0.6c-2.1,0.8-5.8,1.4-7.4,1.4h-1.9l1.8,0.7c0.8,0.3,1.4,0.6,1.7,0.9c0.3,0.2,0.4,0.4,0.4,0.6
												c0,0.2-0.1,0.4-0.4,0.6c-0.3,0.2-0.7,0.4-1.2,0.6c-2,0.8-5.5,1.1-7.7,0.4l-4.5-1.3l4.3,2c0.5,0.3,0.9,0.5,1.1,0.7
												c0.1,0,0.1,0.1,0.1,0.1V187c0,0-0.1,0.1-0.4,0.2c-0.3,0.1-0.7,0.1-1.2,0.1c-1.9,0-3.8-0.2-5.4-0.5
												c-1.1-0.2-1.9-0.4-2.6-0.6c-1.1-0.3-1.6-0.8-1.6-0.8s0.4,0.5,1.5,1c0.7,0.3,1.5,0.5,2.5,0.8c1.7,0.4,3.6,0.7,5.6,0.7
												c0.5,0,0.9,0,1.3-0.1c0.4,0,0.7-0.1,0.9-0.4c0.1-0.1,0.2-0.3,0.1-0.5c0-0.1,0-0.1-0.1-0.2c2.2,0.2,4.7-0.1,6.4-0.8
												c0.5-0.2,1-0.4,1.3-0.7s0.6-0.7,0.6-1.1c0-0.5-0.3-0.9-0.7-1.2c-0.2-0.1-0.4-0.3-0.6-0.4c1.9-0.1,4.5-0.6,6.2-1.3
												c0.6-0.2,1.1-0.4,1.4-0.7s0.6-0.7,0.5-1.1c-0.1-0.5-0.4-0.8-1-1.1c-0.1-0.1-0.2-0.1-0.3-0.2c4.1,0.1,5.6-0.5,8.1-1.8
												c0.4-0.2,0.8-0.5,1.1-0.8c0.2-0.3,0.4-0.7,0.3-1.1c-0.1-0.4-0.4-0.7-0.8-1c-0.2-0.1-0.3-0.2-0.5-0.3
												c1.3-0.1,2.4-0.3,3.3-0.5c0.6-0.1,1-0.2,1.4-0.4s0.6-0.4,0.8-0.7c0.1-0.3,0.1-0.7-0.1-1c-0.1-0.3-0.4-0.5-0.8-0.8
												s-0.8-0.5-1.3-0.8c0.1,0,0.3,0,0.4,0c0.3,0,0.6-0.1,0.8-0.2c0.2-0.1,0.4-0.3,0.4-0.6s-0.1-0.5-0.3-0.7
												c-0.1-0.2-0.4-0.4-0.7-0.6c-0.2-0.1-0.4-0.3-0.6-0.4c1.1,0.1,2.1,0.1,3,0.1c1.5-0.1,2.9-0.3,3.7-0.7
												c0.5-0.2,0.8-0.5,0.9-0.9s-0.1-0.8-0.4-1.2c-0.5-0.5-1.3-1-2.5-1.6c0.8,0,1.5,0,2-0.1c0.4-0.1,0.8-0.2,1.1-0.4
												s0.4-0.6,0.4-0.9c0-0.6-0.6-1.2-1.4-2c-0.3-0.3-0.8-0.7-1.3-1.1c0.7,0.1,1.2,0.1,1.7-0.1c0.2-0.1,0.4-0.3,0.5-0.6
												c0.1-0.2,0-0.5-0.1-0.8c-0.3-0.6-0.9-1.3-2-2.2c-0.5-0.5-1-0.8-1.5-1.2c0.2,0.6,0.6,1.1,1,1.6c2.3,2.6,7.1,3.5,10.3,3.3
												c0.8-0.1,1.5-0.2,2.1-0.4s1-0.5,1.2-1c0.1-0.5,0-1-0.5-1.5c-0.3-0.2-0.5-0.5-0.9-0.7c2.7,0.2,5.5-0.3,7.7-1
												c1.3-0.4,2.4-0.9,3.1-1.5c0.3-0.3,0.6-0.6,0.7-1c0.2-0.4,0.1-0.8-0.1-1.1c-0.3-0.4-0.8-0.6-1.5-0.7
												c-0.7-0.2-1.5-0.2-2.6-0.3c-1.3-0.1-2.8-0.2-4.6-0.4c3.7-0.1,7.1-0.5,12.5-2.5c3-1.1,5.5-3,6.6-4.6
												c0.6-0.8,0.9-1.6,0.5-2.3c-0.2-0.3-0.5-0.6-0.9-0.7c-0.4-0.2-0.9-0.2-1.6-0.2c-2.8,0.1-5.2,0.6-7.5,1.1
												c3.4-1.2,7-3,9.9-5.7c1.1-1,2.1-2.1,2.9-3.2c0.8-1,1.4-2,1.5-2.9c0-0.5,0-0.9-0.3-1.2c-0.3-0.3-0.7-0.5-1.2-0.5
												c-1.1,0-2.6,0.4-5,1.5c-0.7,0.3-1.6,0.6-2.6,0.8c1.5-0.8,2.5-1.6,3.2-2.3c0.5-0.5,0.8-1,1-1.4c0.2-0.5,0.2-0.9,0.1-1.2
												c-0.1-0.4-0.5-0.5-0.9-0.6c-0.5-0.1-1,0-1.7,0.1c-0.8,0.2-1.9,0.5-3.2,1c0.2-0.2,0.4-0.4,0.6-0.6
												c0.1-0.1,0.2-0.2,0.2-0.4c0-0.1,0-0.4-0.1-0.5c-0.3-0.3-0.6-0.3-1-0.3c-0.2,0-0.4,0-0.6,0c-1.2,0.1-2.4,0.4-3.2,0.6
												c-0.8,0.2-1.4,0.3-1.4,0.3s0.5,0,1.4-0.1c0.9,0,2-0.1,3.2-0.2c0.2,0,0.4,0,0.6,0C94,122,94.1,122.2,94.1,122.1z"/>
										</g>
									</g>
								</g>
							</g>
							<g>
								<g>
									<g>
										<g>
											<defs>
												<rect id="SVGID_00000124846743141076397980000005600523952416385183_" x="13" y="70" width="128" height="128"/>
											</defs>
											<clipPath id="SVGID_00000122686294278511457400000009498556062986737546_">
												<use xlink:href="#SVGID_00000124846743141076397980000005600523952416385183_"  style="overflow:visible;"/>
											</clipPath>
											
												<path style="clip-path:url(#SVGID_00000122686294278511457400000009498556062986737546_);stroke:#000000;stroke-width:1.8609;stroke-linecap:round;stroke-linejoin:round;stroke-miterlimit:10;" d="
												M94.1,122.1L94.1,122.1c0-0.1-0.1,0-0.2,0.1c-0.3,0.4-1.3,1.2-2.9,2.3l-3.4,1.8l3.8-1.7c2.7-1.2,4.6-1.8,5.9-2.1
												c0.6-0.1,1.1-0.1,1.4-0.1c0.3,0.1,0.4,0.1,0.4,0.2s0,0.3-0.1,0.6c-0.2,0.3-0.4,0.7-0.9,1.2c-0.9,0.9-2.5,2.1-5.2,3.4
												l-2.8,1.4l3-0.7c1.9-0.4,3.8-0.7,5.3-1.4c2.3-1,3.9-1.4,4.7-1.4c0.4,0,0.6,0.1,0.7,0.2s0.1,0.3,0.1,0.6
												c-0.1,0.6-0.6,1.6-1.4,2.6c-0.7,1-1.7,2.1-2.8,3.1c-4,3.7-9.3,5.6-13.5,6.9c-0.9,0.3-1.7,0.6-2.6,0.8
												c0.9,0,1.8,0,2.7-0.1c3.9-0.4,7.3-1.6,11.5-1.8c0.5-0.1,1,0,1.3,0.1s0.4,0.2,0.5,0.4c0.2,0.3,0.1,0.9-0.4,1.6
												c-1,1.5-3.4,3.3-6.3,4.4c-7.3,2.8-10.8,2.5-16.5,2.5c-1,0-2,0-3,0c1,0.2,1.9,0.4,2.9,0.6c3.8,0.8,6.8,1,8.9,1.1
												c1,0,1.9,0.1,2.5,0.2s0.9,0.3,1,0.4c0.2,0.2,0.2,0.3,0.1,0.5c0,0.2-0.2,0.5-0.5,0.7c-0.6,0.5-1.6,1-2.9,1.4
												c-2.5,0.9-6,1.3-9,0.9l-2.1-0.3l1.9,1c1.1,0.6,1.7,1,2.1,1.4c0.3,0.4,0.4,0.6,0.3,0.8s-0.3,0.4-0.8,0.6
												c-0.5,0.1-1.1,0.2-1.9,0.3c-3.1,0.2-7.8-0.7-9.8-3l-0.5,0.5c1,0.8,1.6,1.5,1.8,1.9c0.1,0.2,0.1,0.3,0.1,0.4
												c0,0,0,0.1-0.1,0.1c-0.2,0.1-0.8,0.1-1.4,0s-1.4-0.4-2.2-0.8l-5.7-3l5.3,3.6c1.5,1,2.6,1.9,3.4,2.6
												c0.8,0.7,1.2,1.3,1.2,1.6c0.1,0.2,0,0.2-0.1,0.3s-0.4,0.2-0.8,0.3c-0.9,0.1-2.2,0-4.2-0.2l-3.1-0.4l3,1.1
												c2.6,0.9,4,1.7,4.5,2.3c0.3,0.3,0.3,0.5,0.3,0.6c0,0.2-0.2,0.3-0.5,0.5c-0.6,0.3-1.9,0.6-3.4,0.6c-1.5,0.1-3.3-0.1-5-0.4
												l-3.2-0.6l3,1.3c1.1,0.4,1.9,0.9,2.5,1.3c0.3,0.2,0.5,0.4,0.6,0.5c0.2,0.2,0.2,0.3,0.2,0.3s0.1,0,0,0
												c0,0-0.2,0.1-0.5,0.1c-0.6,0-1.6-0.2-2.9-0.5l-4.5-1.1l4.3,1.8c1.7,0.7,2.9,1.3,3.6,1.8c0.4,0.2,0.6,0.4,0.7,0.6
												s0,0.2,0,0.3s-0.2,0.3-0.5,0.4c-0.3,0.1-0.7,0.3-1.3,0.4c-1.1,0.2-2.7,0.4-4.7,0.6c-0.8,0.1-1.6,0.2-2.4,0.2
												c0.8,0.1,1.5,0.3,2.3,0.5s1.3,0.5,1.7,0.7c0.3,0.3,0.5,0.5,0.5,0.6c0,0.2,0,0.3-0.2,0.5c-0.1,0.2-0.5,0.5-0.9,0.7
												c-2.9,1.5-4.2,1.9-10,1.7l-3.1-0.1l3,0.8c1.1,0.3,1.8,0.5,2.3,0.8s0.7,0.5,0.7,0.6s-0.1,0.2-0.3,0.4
												c-0.3,0.2-0.7,0.4-1.2,0.6c-2.1,0.8-5.8,1.4-7.4,1.4h-1.9l1.8,0.7c0.8,0.3,1.4,0.6,1.7,0.9c0.3,0.2,0.4,0.4,0.4,0.6
												c0,0.2-0.1,0.4-0.4,0.6c-0.3,0.2-0.7,0.4-1.2,0.6c-2,0.8-5.5,1.1-7.7,0.4l-4.5-1.3l4.3,2c0.5,0.3,0.9,0.5,1.1,0.7
												c0.1,0,0.1,0.1,0.1,0.1V187c0,0-0.1,0.1-0.4,0.2c-0.3,0.1-0.7,0.1-1.2,0.1c-1.9,0-3.8-0.2-5.4-0.5
												c-1.1-0.2-1.9-0.4-2.6-0.6c-1.1-0.3-1.6-0.8-1.6-0.8s0.4,0.5,1.5,1c0.7,0.3,1.5,0.5,2.5,0.8c1.7,0.4,3.6,0.7,5.6,0.7
												c0.5,0,0.9,0,1.3-0.1c0.4,0,0.7-0.1,0.9-0.4c0.1-0.1,0.2-0.3,0.1-0.5c0-0.1,0-0.1-0.1-0.2c2.2,0.2,4.7-0.1,6.4-0.8
												c0.5-0.2,1-0.4,1.3-0.7s0.6-0.7,0.6-1.1c0-0.5-0.3-0.9-0.7-1.2c-0.2-0.1-0.4-0.3-0.6-0.4c1.9-0.1,4.5-0.6,6.2-1.3
												c0.6-0.2,1.1-0.4,1.4-0.7s0.6-0.7,0.5-1.1c-0.1-0.5-0.4-0.8-1-1.1c-0.1-0.1-0.2-0.1-0.3-0.2c4.1,0.1,5.6-0.5,8.1-1.8
												c0.4-0.2,0.8-0.5,1.1-0.8c0.2-0.3,0.4-0.7,0.3-1.1c-0.1-0.4-0.4-0.7-0.8-1c-0.2-0.1-0.3-0.2-0.5-0.3
												c1.3-0.1,2.4-0.3,3.3-0.5c0.6-0.1,1-0.2,1.4-0.4s0.6-0.4,0.8-0.7c0.1-0.3,0.1-0.7-0.1-1c-0.1-0.3-0.4-0.5-0.8-0.8
												s-0.8-0.5-1.3-0.8c0.1,0,0.3,0,0.4,0c0.3,0,0.6-0.1,0.8-0.2c0.2-0.1,0.4-0.3,0.4-0.6s-0.1-0.5-0.3-0.7
												c-0.1-0.2-0.4-0.4-0.7-0.6c-0.2-0.1-0.4-0.3-0.6-0.4c1.1,0.1,2.1,0.1,3,0.1c1.5-0.1,2.9-0.3,3.7-0.7
												c0.5-0.2,0.8-0.5,0.9-0.9s-0.1-0.8-0.4-1.2c-0.5-0.5-1.3-1-2.5-1.6c0.8,0,1.5,0,2-0.1c0.4-0.1,0.8-0.2,1.1-0.4
												s0.4-0.6,0.4-0.9c0-0.6-0.6-1.2-1.4-2c-0.3-0.3-0.8-0.7-1.3-1.1c0.7,0.1,1.2,0.1,1.7-0.1c0.2-0.1,0.4-0.3,0.5-0.6
												c0.1-0.2,0-0.5-0.1-0.8c-0.3-0.6-0.9-1.3-2-2.2c-0.5-0.5-1-0.8-1.5-1.2c0.2,0.6,0.6,1.1,1,1.6c2.3,2.6,7.1,3.5,10.3,3.3
												c0.8-0.1,1.5-0.2,2.1-0.4s1-0.5,1.2-1c0.1-0.5,0-1-0.5-1.5c-0.3-0.2-0.5-0.5-0.9-0.7c2.7,0.2,5.5-0.3,7.7-1
												c1.3-0.4,2.4-0.9,3.1-1.5c0.3-0.3,0.6-0.6,0.7-1c0.2-0.4,0.1-0.8-0.1-1.1c-0.3-0.4-0.8-0.6-1.5-0.7
												c-0.7-0.2-1.5-0.2-2.6-0.3c-1.3-0.1-2.8-0.2-4.6-0.4c3.7-0.1,7.1-0.5,12.5-2.5c3-1.1,5.5-3,6.6-4.6
												c0.6-0.8,0.9-1.6,0.5-2.3c-0.2-0.3-0.5-0.6-0.9-0.7c-0.4-0.2-0.9-0.2-1.6-0.2c-2.8,0.1-5.2,0.6-7.5,1.1
												c3.4-1.2,7-3,9.9-5.7c1.1-1,2.1-2.1,2.9-3.2c0.8-1,1.4-2,1.5-2.9c0-0.5,0-0.9-0.3-1.2c-0.3-0.3-0.7-0.5-1.2-0.5
												c-1.1,0-2.6,0.4-5,1.5c-0.7,0.3-1.6,0.6-2.6,0.8c1.5-0.8,2.5-1.6,3.2-2.3c0.5-0.5,0.8-1,1-1.4c0.2-0.5,0.2-0.9,0.1-1.2
												c-0.1-0.4-0.5-0.5-0.9-0.6c-0.5-0.1-1,0-1.7,0.1c-0.8,0.2-1.9,0.5-3.2,1c0.2-0.2,0.4-0.4,0.6-0.6
												c0.1-0.1,0.2-0.2,0.2-0.4c0-0.1,0-0.4-0.1-0.5c-0.3-0.3-0.6-0.3-1-0.3c-0.2,0-0.4,0-0.6,0c-1.2,0.1-2.4,0.4-3.2,0.6
												c-0.8,0.2-1.4,0.3-1.4,0.3s0.5,0,1.4-0.1c0.9,0,2-0.1,3.2-0.2c0.2,0,0.4,0,0.6,0C94,122,94.1,122.2,94.1,122.1z"/>
										</g>
									</g>
								</g>
							</g>
						</g>
					</g>
				</g>
			</g>
		</g>
	</g>
</g>
<circle class="st14" cx="137.7" cy="131.2" r="123.7"/>
<line class="st14" x1="210.8" y1="31.5" x2="67.2" y2="232.8"/>
</svg>
