<?xml version="1.0" encoding="utf-8"?>
<!-- Generator: Adobe Illustrator 26.4.1, SVG Export Plug-In . SVG Version: 6.00 Build 0)  -->
<svg version="1.1" id="Layer_1" xmlns="http://www.w3.org/2000/svg" xmlns:xlink="http://www.w3.org/1999/xlink" x="0px" y="0px"
	 viewBox="0 0 404.2 189.4" style="enable-background:new 0 0 404.2 189.4;" xml:space="preserve">
<style type="text/css">
	.st0{fill:#FFFFFF;fill-opacity:0;}
	.st1{fill:none;stroke:#836FBA;stroke-miterlimit:10;}
	.st2{fill:none;stroke:#836FBA;stroke-miterlimit:10;stroke-dasharray:2.9778,2.9778;}
	.st3{enable-background:new    ;}
	.st4{fill:#836FBA;}
	.st5{clip-path:url(#SVGID_00000080184628346981740140000003350162655843706046_);}
	.st6{clip-path:url(#SVGID_00000113338334622508959280000012207270540990540988_);}
	.st7{opacity:0;clip-path:url(#SVGID_00000013891347922992856970000017412031534701552813_);}
	.st8{clip-path:url(#SVGID_00000053537113045618361040000013698259200910760584_);fill:#FFFFFF;}
	.st9{clip-path:url(#SVGID_00000089570423300799527350000018307984912572329353_);}
	.st10{clip-path:url(#SVGID_00000159456274437599916880000014020261289928535985_);}
	.st11{opacity:0;clip-path:url(#SVGID_00000044141927744719293740000011838986368816901520_);}
	.st12{clip-path:url(#SVGID_00000060011343704816721900000006562512516652151213_);fill:#FFFFFF;}
	.st13{clip-path:url(#SVGID_00000130612570525772800250000009393365739270059402_);}
	.st14{clip-path:url(#SVGID_00000158718054036746601340000001633905548342865328_);fill:#FFFFFF;}
	.st15{clip-path:url(#SVGID_00000052101756775563980440000004854987300975888259_);}
	
		.st16{clip-path:url(#SVGID_00000133515659190319159530000003208213897724684176_);fill:none;stroke:#000000;stroke-width:1.861;stroke-linecap:round;stroke-linejoin:round;stroke-miterlimit:10;}
	.st17{clip-path:url(#SVGID_00000035510173019613218040000005030872019099725240_);}
	
		.st18{clip-path:url(#SVGID_00000018227676169450623120000001840098111487922068_);fill:none;stroke:#000000;stroke-width:1.861;stroke-linecap:round;stroke-linejoin:round;stroke-miterlimit:10;}
	.st19{clip-path:url(#SVGID_00000040570084426822998050000009735231480822364304_);}
	
		.st20{clip-path:url(#SVGID_00000070100528815280948970000010247736560724185478_);fill:none;stroke:#000000;stroke-width:1.861;stroke-linecap:round;stroke-linejoin:round;stroke-miterlimit:10;}
</style>
<rect x="70.6" y="26.7" class="st0" width="268" height="136"/>
<g>
	<g>
		<line class="st1" x1="-0.4" y1="76.7" x2="1.1" y2="76.7"/>
		<line class="st2" x1="4.1" y1="76.7" x2="401.6" y2="76.7"/>
		<line class="st1" x1="403.1" y1="76.7" x2="404.6" y2="76.7"/>
	</g>
</g>
<g>
	<g>
		<line class="st1" x1="-0.4" y1="116.7" x2="1.1" y2="116.7"/>
		<line class="st2" x1="4.1" y1="116.7" x2="401.6" y2="116.7"/>
		<line class="st1" x1="403.1" y1="116.7" x2="404.6" y2="116.7"/>
	</g>
</g>
<g class="st3">
	<path class="st4" d="M31,100.8h-1v-6.7c-0.3,0.2-0.6,0.5-1,0.7s-0.8,0.4-1.1,0.5v-1c0.6-0.3,1.1-0.6,1.5-1s0.8-0.8,0.9-1.1H31
		V100.8z"/>
	<path class="st4" d="M33.7,98.5l1.1-0.1c0.1,0.6,0.3,1,0.6,1.3s0.6,0.4,1.1,0.4s0.9-0.2,1.3-0.5s0.5-0.8,0.5-1.3s-0.2-0.9-0.5-1.2
		s-0.7-0.5-1.2-0.5c-0.2,0-0.4,0-0.7,0.1l0.1-0.9c0.1,0,0.1,0,0.2,0c0.4,0,0.9-0.1,1.2-0.4s0.5-0.6,0.5-1.1c0-0.4-0.1-0.7-0.4-1
		s-0.6-0.4-1-0.4s-0.8,0.1-1,0.4S35,94,34.9,94.6l-1.1-0.2c0.1-0.7,0.4-1.3,0.9-1.6s1-0.6,1.7-0.6c0.5,0,0.9,0.1,1.3,0.3
		s0.7,0.5,0.9,0.8s0.3,0.7,0.3,1.1s-0.1,0.7-0.3,1s-0.5,0.5-0.9,0.7c0.5,0.1,0.9,0.4,1.2,0.7s0.4,0.8,0.4,1.4c0,0.8-0.3,1.4-0.8,1.9
		s-1.2,0.8-2.1,0.8c-0.8,0-1.4-0.2-1.9-0.7S33.8,99.2,33.7,98.5z"/>
	<path class="st4" d="M41,100.8v-1.2h1.2v1.2H41z"/>
	<path class="st4" d="M49.3,99.8v1h-5.7c0-0.3,0-0.5,0.1-0.7c0.1-0.4,0.4-0.8,0.7-1.1s0.8-0.8,1.4-1.3c0.9-0.8,1.6-1.4,1.9-1.8
		c0.3-0.4,0.5-0.9,0.5-1.3s-0.1-0.8-0.4-1.1S47,93,46.6,93c-0.5,0-0.9,0.2-1.2,0.5s-0.5,0.7-0.5,1.3l-1.1-0.1
		c0.1-0.8,0.4-1.4,0.8-1.8s1.1-0.6,2-0.6c0.8,0,1.5,0.2,2,0.7s0.7,1,0.7,1.7c0,0.3-0.1,0.7-0.2,1s-0.4,0.7-0.7,1s-0.9,0.9-1.6,1.5
		c-0.6,0.5-1,0.9-1.2,1.1s-0.3,0.4-0.4,0.6L49.3,99.8L49.3,99.8z"/>
	<path class="st4" d="M50.7,100.8v-6.2h0.9v0.9c0.2-0.3,0.5-0.5,0.8-0.7s0.7-0.3,1.1-0.3c0.5,0,0.8,0.1,1.1,0.3s0.5,0.5,0.6,0.8
		c0.5-0.7,1.1-1.1,1.9-1.1c0.6,0,1.1,0.2,1.4,0.5s0.5,0.9,0.5,1.6v4.3h-1V97c0-0.4,0-0.7-0.1-0.9c-0.1-0.2-0.2-0.3-0.4-0.4
		s-0.4-0.2-0.6-0.2c-0.4,0-0.8,0.1-1.1,0.4s-0.4,0.8-0.4,1.4v3.6h-1.1v-4c0-0.5-0.1-0.8-0.3-1.1c-0.2-0.2-0.5-0.4-0.8-0.4
		s-0.6,0.1-0.8,0.2S52,96,51.9,96.3s-0.2,0.7-0.2,1.3v3.2H50.7z"/>
	<path class="st4" d="M60.7,100.8v-6.2h0.9v0.9c0.2-0.3,0.5-0.5,0.8-0.7s0.7-0.3,1.1-0.3c0.5,0,0.8,0.1,1.1,0.3s0.5,0.5,0.6,0.8
		c0.5-0.7,1.1-1.1,1.9-1.1c0.6,0,1.1,0.2,1.4,0.5s0.5,0.9,0.5,1.6v4.3h-1V97c0-0.4,0-0.7-0.1-0.9c-0.1-0.2-0.2-0.3-0.4-0.4
		s-0.4-0.2-0.6-0.2c-0.4,0-0.8,0.1-1.1,0.4c-0.3,0.3-0.4,0.8-0.4,1.4v3.6h-1.1v-4c0-0.5-0.1-0.8-0.3-1.1c-0.2-0.2-0.5-0.4-0.8-0.4
		s-0.6,0.1-0.8,0.2S62,96,61.9,96.3s-0.2,0.7-0.2,1.3v3.2H60.7z"/>
</g>
<g class="st3">
	<path class="st4" d="M357.5,100.4v1h-5.7c0-0.3,0-0.5,0.1-0.7c0.1-0.4,0.4-0.8,0.7-1.1s0.8-0.8,1.4-1.3c0.9-0.8,1.6-1.4,1.9-1.8
		s0.5-0.9,0.5-1.3s-0.1-0.8-0.4-1.1s-0.7-0.4-1.2-0.4s-0.9,0.2-1.2,0.5s-0.5,0.7-0.5,1.3l-1.1-0.1c0.1-0.8,0.4-1.4,0.8-1.8
		s1.1-0.6,2-0.6c0.8,0,1.5,0.2,2,0.7s0.7,1,0.7,1.7c0,0.3-0.1,0.7-0.2,1s-0.4,0.7-0.7,1s-0.9,0.9-1.6,1.5c-0.6,0.5-1,0.9-1.2,1.1
		s-0.3,0.4-0.4,0.6h4.1L357.5,100.4L357.5,100.4z"/>
	<path class="st4" d="M362,101.4v-2.1h-3.7v-1l3.9-5.6h0.9v5.6h1.2v1h-1.2v2.1H362z M362,98.4v-3.9l-2.7,3.9H362z"/>
	<path class="st4" d="M365.6,103.8v-8.6h1V96c0.2-0.3,0.5-0.6,0.8-0.7s0.6-0.2,1-0.2c0.5,0,1,0.1,1.4,0.4s0.7,0.7,0.9,1.2
		s0.3,1,0.3,1.6s-0.1,1.2-0.3,1.7s-0.6,0.9-1,1.2s-0.9,0.4-1.4,0.4c-0.4,0-0.7-0.1-0.9-0.2s-0.5-0.3-0.7-0.6v3H365.6z M366.6,98.3
		c0,0.8,0.2,1.4,0.5,1.8s0.7,0.6,1.2,0.6s0.9-0.2,1.2-0.6s0.5-1,0.5-1.8s-0.2-1.4-0.5-1.8s-0.7-0.6-1.2-0.6c-0.4,0-0.8,0.2-1.2,0.6
		S366.6,97.5,366.6,98.3z"/>
	<path class="st4" d="M371.6,101.4l2.3-3.2l-2.1-3h1.3l1,1.5c0.2,0.3,0.3,0.5,0.4,0.7c0.2-0.3,0.3-0.5,0.5-0.7l1-1.5h1.3l-2.2,2.9
		l2.3,3.3h-1.3l-1.3-1.9l-0.3-0.5l-1.6,2.5h-1.3L371.6,101.4L371.6,101.4z"/>
</g>
<g>
	<g>
		<g>
			<defs>
				<rect id="SVGID_1_" x="68.9" y="26.5" width="268" height="136"/>
			</defs>
			<clipPath id="SVGID_00000036245616023556868560000009014083484716720304_">
				<use xlink:href="#SVGID_1_"  style="overflow:visible;"/>
			</clipPath>
			<g style="clip-path:url(#SVGID_00000036245616023556868560000009014083484716720304_);">
				<g>
					<defs>
						<rect id="SVGID_00000109018972503543629170000004475349399365100700_" x="68.9" y="26.5" width="268" height="136"/>
					</defs>
					<clipPath id="SVGID_00000060005448886582920940000006040333899342274695_">
						<use xlink:href="#SVGID_00000109018972503543629170000004475349399365100700_"  style="overflow:visible;"/>
					</clipPath>
					<g style="clip-path:url(#SVGID_00000060005448886582920940000006040333899342274695_);">
						<g>
							<defs>
								<rect id="SVGID_00000072996745998856994320000002841398625167192505_" x="68.9" y="26.5" width="268" height="136"/>
							</defs>
							<clipPath id="SVGID_00000042005551124115519630000011740529378430485686_">
								<use xlink:href="#SVGID_00000072996745998856994320000002841398625167192505_"  style="overflow:visible;"/>
							</clipPath>
							<g style="opacity:0;clip-path:url(#SVGID_00000042005551124115519630000011740529378430485686_);">
								<g>
									<g>
										<defs>
											<rect id="SVGID_00000141450705390476138720000007957756334546417303_" x="68.9" y="26.5" width="268" height="136"/>
										</defs>
										<clipPath id="SVGID_00000031900753114116803020000001976099943201127058_">
											<use xlink:href="#SVGID_00000141450705390476138720000007957756334546417303_"  style="overflow:visible;"/>
										</clipPath>
										
											<rect x="68.9" y="26.5" style="clip-path:url(#SVGID_00000031900753114116803020000001976099943201127058_);fill:#FFFFFF;" width="268" height="136"/>
									</g>
								</g>
							</g>
						</g>
					</g>
				</g>
				<g>
					<defs>
						<rect id="SVGID_00000064327210542233836010000003233763418032401045_" x="68.9" y="26.5" width="268" height="136"/>
					</defs>
					<clipPath id="SVGID_00000072998227084493706370000000129106750600181648_">
						<use xlink:href="#SVGID_00000064327210542233836010000003233763418032401045_"  style="overflow:visible;"/>
					</clipPath>
					<g style="clip-path:url(#SVGID_00000072998227084493706370000000129106750600181648_);">
						<g class="st3">
							<path d="M208,116.5c-1.4,0-2.5-0.4-3.3-1.2c-0.8-0.8-1.2-1.9-1.2-3.2c0-1.4,0.4-2.5,1.2-3.3c0.8-0.8,1.9-1.2,3.3-1.2
								c1.4,0,2.5,0.4,3.3,1.2c0.8,0.8,1.2,1.9,1.2,3.3c0,1.3-0.4,2.4-1.2,3.2C210.4,116.1,209.4,116.5,208,116.5z"/>
							<path d="M238.7,116.5c-3,0-5.3-1-7.2-3s-2.7-4.7-2.7-8v-8.7c0-3.4,0.9-6.1,2.7-8.1c1.8-2,4.2-3,7.2-3c2.4,0,4.4,0.7,5.9,2
								c1.5,1.3,2.2,3.1,2.2,5.3l-1-1.1h1.1l-0.1-6.8v-8.6h4.9V116h-4.9v-5.7h-1l1-1.1c0,2.3-0.7,4.1-2.2,5.4
								C243.1,115.9,241.1,116.5,238.7,116.5z M240.3,112.3c2,0,3.6-0.6,4.8-1.9c1.2-1.3,1.7-3,1.7-5.2v-8.1c0-2.2-0.6-4-1.7-5.2
								c-1.2-1.3-2.7-1.9-4.8-1.9c-2.1,0-3.7,0.6-4.9,1.8c-1.2,1.2-1.8,3-1.8,5.3v8.1c0,2.3,0.6,4.1,1.8,5.3
								C236.6,111.7,238.2,112.3,240.3,112.3z"/>
							<path d="M272.8,116.5c-2.3,0-4.4-0.5-6.1-1.4c-1.7-0.9-3.1-2.3-4.1-4c-1-1.7-1.4-3.7-1.4-6v-8.1c0-2.3,0.5-4.3,1.4-6
								c1-1.7,2.3-3,4.1-3.9c1.7-0.9,3.8-1.4,6.1-1.4s4.4,0.5,6.1,1.4c1.7,0.9,3.1,2.3,4.1,3.9c1,1.7,1.4,3.7,1.4,6v5.2h-18.5v2.9
								c0,2.3,0.6,4.1,1.8,5.4s2.9,1.9,5.1,1.9c1.9,0,3.4-0.3,4.5-1c1.2-0.7,1.9-1.7,2.1-3h4.9c-0.3,2.5-1.5,4.5-3.6,5.9
								C278.6,115.8,275.9,116.5,272.8,116.5z M279.7,99.1v-2c0-2.3-0.6-4.1-1.8-5.4c-1.2-1.3-2.9-1.9-5.1-1.9
								c-2.2,0-3.9,0.6-5.1,1.9c-1.2,1.3-1.8,3.1-1.8,5.4v1.6H280L279.7,99.1z"/>
							<path d="M301.9,116L292,86.3h5l6.6,20c0.4,1.2,0.8,2.3,1.1,3.4s0.6,2,0.7,2.6c0.2-0.6,0.4-1.5,0.8-2.6s0.7-2.2,1-3.4l6.4-20
								h4.9l-9.9,29.7H301.9z"/>
						</g>
					</g>
				</g>
				<g>
					<defs>
						<rect id="SVGID_00000095303222832568384490000000509125906430424721_" x="68.9" y="26.5" width="268" height="136"/>
					</defs>
					<clipPath id="SVGID_00000156556412861597260390000010959437857096611496_">
						<use xlink:href="#SVGID_00000095303222832568384490000000509125906430424721_"  style="overflow:visible;"/>
					</clipPath>
					<g style="clip-path:url(#SVGID_00000156556412861597260390000010959437857096611496_);">
						<g>
							<defs>
								<rect id="SVGID_00000111902013912873428070000014015264814498991292_" x="81.9" y="30.5" width="128" height="128"/>
							</defs>
							<clipPath id="SVGID_00000083808463453241727940000009983946477830521021_">
								<use xlink:href="#SVGID_00000111902013912873428070000014015264814498991292_"  style="overflow:visible;"/>
							</clipPath>
							<g style="opacity:0;clip-path:url(#SVGID_00000083808463453241727940000009983946477830521021_);">
								<g>
									<g>
										<defs>
											<rect id="SVGID_00000132084069909136084050000017529871570904265623_" x="81.8" y="30.5" width="128" height="128"/>
										</defs>
										<clipPath id="SVGID_00000002377131041481698170000013897096357429557426_">
											<use xlink:href="#SVGID_00000132084069909136084050000017529871570904265623_"  style="overflow:visible;"/>
										</clipPath>
										
											<rect x="81.9" y="30.5" style="clip-path:url(#SVGID_00000002377131041481698170000013897096357429557426_);fill:#FFFFFF;" width="128" height="128"/>
									</g>
									<g>
										<defs>
											<rect id="SVGID_00000011723612130372937230000012714369922974887843_" x="81.8" y="30.5" width="128" height="128"/>
										</defs>
										<clipPath id="SVGID_00000031168774775370101260000003217099793313229192_">
											<use xlink:href="#SVGID_00000011723612130372937230000012714369922974887843_"  style="overflow:visible;"/>
										</clipPath>
										<path style="clip-path:url(#SVGID_00000031168774775370101260000003217099793313229192_);" d="M81.9,30.6h127.9v127.9
											H81.9V30.6z M81.8,158.5h128v-128h-128V158.5z"/>
									</g>
								</g>
							</g>
						</g>
						<g>
							<defs>
								<rect id="SVGID_00000034802264986133676070000000297451670694154119_" x="81.9" y="30.5" width="128" height="128"/>
							</defs>
							<clipPath id="SVGID_00000116936575744904673570000000716100044938862991_">
								<use xlink:href="#SVGID_00000034802264986133676070000000297451670694154119_"  style="overflow:visible;"/>
							</clipPath>
							<path style="clip-path:url(#SVGID_00000116936575744904673570000000716100044938862991_);fill:#FFFFFF;" d="M99.8,35.9
								c-1,0-0.6,2.5,2.1,9.3c5.9,15,16.4,28.2,30.2,34.6c-12.3-3.9-17.8-8.9-24.8-13.1c-5-3-12.4-8.8-17-13.4
								c-7.1-7-6.8-1.8-4.4,4.1c3.9,9.4,14,16.1,21.6,20.5c-11.1-3.4-23.5-16.6-23.1-12c0.3,2.8,4.3,8.7,10.7,14
								c4.3,3.6,9.5,6.8,14.9,8.6c-11.1-2.7-18.3-8.8-19.4-8.5c-2,0.5-1.7,2.6,1.9,7.3c5.7,7.5,12.6,11.3,21.7,12.6
								c-4.8-0.1-8.6-0.8-11.3-1.5c-10.3-2.4-2.7,3.2,0.4,5.5s7.2,4,11.3,5.1c4.8,1.3,9.4,2.3,13.9,2.6c-8.1,0.6-17.6-0.2-18.4,1.2
								c-1.2,2,4,4.3,10.8,5.5c3.7,0.7,5.8,0.8,10.8,0.4c-5.6,1-8.1,1.9-8.7,2.7c-1.6,2.3,11,4.6,20.3,1.4c-4.1,1.7-5.2,2.8-4,3
								c0.9,0.2,2.7-0.8,6.9-1.6c-11.2,4.4-2.9,5.5,3.3,3.9c-6.3,3.3,1.9,3.8,5.3,3.8c-4.1,0.9-6.7,1.5-8,2.4
								c-3.4,2.4,3.6,4.2,11.5,2.2c-9.1,3.6-8.5,4.7-2.1,6.3c3.5,0.9,6.8,0.3,9.9-0.1c-5.9,1.6,2.4,2,4.5,1.2c-3.3,1.9-8.2,1-8.6,2
								c-0.6,1.4,3.4,3,8.7,3c-4.6,1.7,3.6,2.2,5.3,2c-5.8,2.8,2.4,3,9,1.5c4-0.9,7.9-2.2,9.2-3.5c10-0.4,13.5-15.4,13.6-15.8
								c0.1-0.5-5.6-2.5-10.9-5c-4.3-2-8.8-5.2-12-8.1l-13.6-16.9c-3-4.6-5.8-9.5-8.6-14.2c-2.7-4.6-4.7-4.1-5-3
								c-3.9-3.6-10.7-5.8-19-10.7c-6.1-3.7-12.6-9.2-20-17.4C112.9,51.4,102.2,35.9,99.8,35.9"/>
						</g>
						<g>
							<defs>
								<rect id="SVGID_00000018945407383385652200000016408347147871151805_" x="81.9" y="30.5" width="128" height="128"/>
							</defs>
							<clipPath id="SVGID_00000008135972120862219100000009711786308735906453_">
								<use xlink:href="#SVGID_00000018945407383385652200000016408347147871151805_"  style="overflow:visible;"/>
							</clipPath>
							<path style="clip-path:url(#SVGID_00000008135972120862219100000009711786308735906453_);" d="M204.2,130.6
								c-2.1-0.8-4.6-1.7-7.2-2.9c-5.2-2.5-10.6-6.6-13.9-9.9c-8.3-8.5-14.1-18.9-20.2-29.2c-1.6-2.8-3-3.8-4.1-3.9
								c-0.6-0.1-1,0.2-1.3,0.5c-0.1,0.1-0.1,0.2-0.2,0.4c-1.1-1-2.9-2.1-4.9-3.1c-2.3-1.2-4.7-2.1-6.4-1.9c-0.1,0-0.2,0.1-0.2,0.1
								c-0.1,0.1-0.1,0.2-0.1,0.2c0,0.1,0,0.2,0.1,0.2c0.1,0.1,0.1,0.2,0.2,0.3c0.2,0.2,0.5,0.5,0.9,0.9s1,0.8,1.7,1.3
								c-3.1-0.7-5.7-1.1-7.8-1.1c-2.6,0-4.5,0.4-5.4,1.1c-0.1,0.1-0.2,0.2-0.2,0.4c0,0.2,0,0.3,0.1,0.4c0.1,0.2,0.3,0.3,0.6,0.5
								c0.5,0.3,1.3,0.7,2.4,1.1c1.4,0.5,3.1,1.1,5.2,1.7c-0.3,0-0.6,0-0.9,0c-1.2,0.1-1.9,0.3-2.4,0.7c-0.2,0.2-0.3,0.5-0.3,0.8
								s0.1,0.5,0.3,0.8c0.4,0.5,1,0.9,1.8,1.2c2.2,1,5.6,1.9,8,2.4c-1.3,0.2-2.2,0.4-2.8,0.7c-0.5,0.2-0.8,0.4-0.9,0.8
								c0,0.2,0,0.4,0.1,0.5c0.1,0.2,0.2,0.3,0.4,0.4c0.6,0.5,1.6,0.9,2.9,1.2c1.6,0.5,3.6,0.9,5.4,1.1c-0.9,0.2-1.6,0.4-2.1,0.6
								s-0.8,0.4-1,0.7c-0.2,0.3-0.1,0.7,0.1,1.1c0.4,0.6,1.1,0.9,1.8,1.1c0.7,0.1,1.5,0.1,2.4,0c1.6-0.3,3.3-0.9,4.2-1.5
								c0.6-0.4,1-0.9,1.4-1.6c-0.6,0.3-1.2,0.6-1.8,1c-1.7,1.2-2.5,2.4-2.6,3.4c0,0.4,0,0.8,0.3,1.1c0.2,0.3,0.6,0.5,1,0.5
								c0.5,0.1,1.1-0.1,1.8-0.4c-0.2,0.4-0.3,0.8-0.3,1.1c0,0.3,0,0.6,0.2,0.8c0.2,0.2,0.4,0.4,0.7,0.4c0.5,0.1,1.1,0,1.8-0.4
								c0.4-0.2,0.9-0.5,1.4-0.9c-0.1,0.5-0.1,1.1,0,1.7c0.1,1,0.2,2,0.5,2.8c0.1,0.4,0.3,0.7,0.4,0.9c0.1,0.1,0.2,0.2,0.4,0.3
								c0.2,0,0.4,0,0.5-0.1c0.3-0.2,0.4-0.4,0.5-0.8c0.4,2.4,1.4,4.9,2.4,6.7c0.3,0.6,0.6,1,0.9,1.4c0.3,0.4,0.5,0.6,0.9,0.7
								c0.2,0.1,0.4,0,0.6-0.1l0.1-0.1c0.2,0.6,0.5,1.2,0.9,1.6c0.4,0.5,0.8,0.9,1.4,1c0.2,0.1,0.5,0.1,0.7,0.1
								c-0.3,0.3-0.5,0.5-0.7,0.7s-0.3,0.4-0.4,0.6c-0.1,0.2-0.2,0.5-0.1,0.7c0.1,0.2,0.3,0.4,0.6,0.4c0.2,0.1,0.5,0.1,0.9,0.1
								c0.5,0,1.1-0.1,1.8-0.2c-0.1,0.1-0.2,0.2-0.3,0.3c-0.4,0.3-0.6,0.5-0.7,0.8c0,0.2,0,0.3,0,0.5c0.1,0.1,0.2,0.2,0.3,0.3
								c0.2,0.1,0.5,0.2,0.8,0.3c0.5,0.1,1.2,0.2,1.8,0.3c-0.1,0.2-0.2,0.5-0.2,0.7c0,0.4,0.2,0.8,0.4,1.2c0.6,0.7,1.5,1.3,2.7,1.8
								s2.4,0.9,3.5,1.1c1.1,0.2,2.1,0.3,2.8,0.1c0.4-0.1,0.8-0.4,1-0.8c-0.4,0-0.8,0.1-1.2,0.1c-1.3,0.2-2.1,0.5-2.6,0.9
								c-0.2,0.2-0.4,0.5-0.5,0.7c0,0.3,0,0.6,0.2,0.8c0.3,0.5,0.9,0.8,1.6,1.1c0.6,0.2,1.3,0.4,2.1,0.4c-0.1,0.3-0.1,0.5-0.1,0.8
								c0,0.4,0.2,0.7,0.5,0.8c0.5,0.4,1.2,0.4,1.9,0.3c0.8-0.1,1.6-0.2,2.3-0.4c0.1,0,0.2,0,0.3-0.1c-0.4,0.3-0.6,0.6-0.8,0.9
								c-0.1,0.2-0.2,0.5-0.1,0.8c0.1,0.3,0.3,0.4,0.6,0.5c0.5,0.2,1.1,0.2,1.9,0c0.4-0.1,0.8-0.2,1.3-0.3c-0.1,0.1-0.1,0.2-0.1,0.3
								c-0.2,0.5-0.1,0.9,0.2,1.3c0.6,0.6,1.7,0.9,2.8,0.8l-0.4-0.3c0.1,0.5,0.2,0.9,0.5,1.4c0.2,0.3,0.5,0.6,0.9,0.7
								c0.7,0.2,1.4,0.2,1.8,0.1c0.4-0.1,0.7-0.1,0.7-0.1s-0.3,0-0.7-0.1c-0.4,0-1.1-0.1-1.6-0.4c-0.2-0.1-0.4-0.3-0.5-0.5
								c-0.2-0.3-0.2-0.7-0.3-1.1v-0.3c-0.1,0-0.2,0-0.3,0c-1.1,0.1-2-0.2-2.3-0.6c-0.2-0.2-0.2-0.3-0.1-0.6c0.1-0.3,0.4-0.6,0.9-1
								l2.1-1.6l-2.4,1c-0.9,0.4-1.8,0.6-2.5,0.7c-0.7,0.1-1.3,0.1-1.6,0c-0.1,0-0.1-0.1-0.1-0.1s0-0.1,0.1-0.2
								c0.2-0.3,0.7-0.8,1.8-1.5c0.2-0.2,0.5-0.3,0.7-0.4c-0.3-0.1-0.6-0.2-0.9-0.2c-0.5,0-1.1,0.1-1.9,0.3
								c-0.7,0.2-1.5,0.3-2.2,0.4c-0.7,0.1-1.2,0-1.5-0.2c-0.1-0.1-0.2-0.2-0.2-0.4s0-0.5,0.2-0.9c0.1-0.2,0.1-0.3,0.2-0.5
								c-0.2,0-0.4,0-0.6,0c-0.9,0-1.7-0.2-2.4-0.4s-1.1-0.6-1.2-0.8c-0.1-0.1-0.1-0.2-0.1-0.3s0.1-0.2,0.2-0.3
								c0.3-0.3,1-0.6,2.2-0.7l-0.2-0.7c-0.4,0.1-1.3,0.1-2.4-0.1c-1.1-0.2-2.3-0.6-3.4-1c-1.1-0.5-2-1-2.4-1.6
								c-0.2-0.3-0.3-0.5-0.3-0.7s0.1-0.5,0.4-0.8c0.2-0.2,0.4-0.3,0.7-0.5c-0.3-0.1-0.6-0.1-0.9-0.1c-0.8-0.1-1.8-0.2-2.3-0.3
								c-0.3-0.1-0.5-0.2-0.6-0.2c0,0-0.1,0,0,0c0,0,0,0.1,0,0c0,0,0.1-0.2,0.5-0.5c0.3-0.3,0.8-0.7,1.5-1.1
								c0.5-0.4,1.1-0.7,1.7-1.1c-0.6,0.2-1.3,0.3-1.9,0.4c-1.5,0.3-2.6,0.5-3.3,0.5c-0.3,0-0.6,0-0.7,0c-0.1,0-0.1-0.1-0.1,0
								c0,0,0,0,0-0.1c0.1-0.1,0.2-0.3,0.3-0.5c0.3-0.4,0.9-0.9,1.5-1.5l1.3-1.2l-1.6,0.6c-0.6,0.2-1.1,0.2-1.5,0.1
								s-0.7-0.4-1.1-0.8c-0.6-0.8-1-2.1-1.4-3.2l-1.6-5.8l0.9,5.9c0.1,0.7,0.1,1.2,0.1,1.4c0,0.1-0.1,0.1,0,0.1h0.1
								c0,0-0.3-0.2-0.5-0.5s-0.5-0.8-0.8-1.3c-1.2-2.2-2.5-5.8-2.5-8.5v-4.7l-0.7,4.6c-0.1,0.9-0.3,1.5-0.4,1.9
								c-0.1,0.4-0.3,0.6-0.3,0.6s0,0,0.1,0l0,0c-0.1-0.1-0.2-0.4-0.3-0.7c-0.2-0.7-0.4-1.6-0.4-2.6c-0.1-1,0-1.9,0.2-2.4l0.5-1.4
								l-1,1c-0.7,0.7-1.4,1.2-2,1.5s-1.1,0.4-1.4,0.3c-0.1,0-0.2-0.1-0.2-0.1c0-0.1-0.1-0.2-0.1-0.4c0-0.4,0.3-1.1,1-2.1l1.3-1.9
								l-1.8,1.4c-1.1,0.9-2,1.1-2.5,1.1c-0.3,0-0.4-0.1-0.5-0.2s-0.2-0.3-0.1-0.6c0.1-0.7,0.7-1.8,2.3-2.9l-0.4-0.6
								c-0.8,0.5-2.4,1.2-3.9,1.4c-0.8,0.1-1.5,0.1-2.1,0s-1.1-0.4-1.4-0.8c-0.1-0.2-0.1-0.2-0.1-0.3c0-0.1,0.3-0.3,0.7-0.4
								c0.8-0.3,2.4-0.7,4.6-1.1l4.5-1l-4.6,0.3c-1.9,0.1-5.4-0.4-7.9-1.1c-1.2-0.4-2.3-0.8-2.7-1.1c-0.1-0.1-0.2-0.2-0.2-0.2l0,0
								c0,0,0.1-0.2,0.5-0.3c0.7-0.3,2.1-0.6,4.5-0.9c1.2-0.2,2.3-0.3,3.5-0.4c-1.2,0-2.3-0.1-3.5-0.3c-1.9-0.3-6.9-1.5-9.7-2.8
								c-0.7-0.3-1.3-0.7-1.6-1c-0.1-0.2-0.2-0.3-0.2-0.4s0-0.1,0.1-0.2c0.2-0.2,0.8-0.4,1.9-0.5c1.1-0.1,2.7,0,4.8,0.3l6.9,1
								l-6.8-1.7c-3.8-0.9-7-1.9-9-2.7c-1-0.4-1.8-0.8-2.3-1c-0.2-0.1-0.3-0.3-0.4-0.3c0,0,0,0,0,0.1s0,0.1,0,0.1c0.7-0.6,2.4-1,5-1
								s5.9,0.5,9.9,1.7l3,0.9l-2.7-1.5c-1.5-0.9-2.8-1.7-3.5-2.4c-0.4-0.3-0.7-0.6-0.8-0.8c-0.1-0.1-0.1-0.2-0.1-0.2s0,0,0,0.1
								c0,0,0,0.1-0.1,0.2s-0.2,0.1-0.2,0.1c1.3-0.2,3.7,0.6,6,1.8c2.3,1.2,4.4,2.6,5.3,3.6l1.2,1.2l-0.6-1.6
								c-0.1-0.3-0.1-0.5,0.1-0.7s0.3-0.3,0.7-0.2c0.7,0.1,2,0.9,3.6,3.6c6.1,10.3,12,20.8,20.3,29.3c3.3,3.4,8.8,7.5,14.1,10
								c2.6,1.3,5.2,2.1,7.3,2.9c1.1,0.4,2.8,1.6,3.6,1.8C208.2,133.2,205.5,131.2,204.2,130.6"/>
						</g>
						<g>
							<defs>
								<rect id="SVGID_00000043437396655709990190000016105839948691799223_" x="81.9" y="30.5" width="128" height="128"/>
							</defs>
							<clipPath id="SVGID_00000158005650319042954850000003331142574524412827_">
								<use xlink:href="#SVGID_00000043437396655709990190000016105839948691799223_"  style="overflow:visible;"/>
							</clipPath>
							
								<path style="clip-path:url(#SVGID_00000158005650319042954850000003331142574524412827_);fill:none;stroke:#000000;stroke-width:1.861;stroke-linecap:round;stroke-linejoin:round;stroke-miterlimit:10;" d="
								M204.2,130.6c-2.1-0.8-4.6-1.7-7.2-2.9c-5.2-2.5-10.6-6.6-13.9-9.9c-8.3-8.5-14.1-18.9-20.2-29.2c-1.6-2.8-3-3.8-4.1-3.9
								c-0.6-0.1-1,0.2-1.3,0.5c-0.1,0.1-0.1,0.2-0.2,0.4c-1.1-1-2.9-2.1-4.9-3.1c-2.3-1.2-4.7-2.1-6.4-1.9c-0.1,0-0.2,0.1-0.2,0.1
								c-0.1,0.1-0.1,0.2-0.1,0.2c0,0.1,0,0.2,0.1,0.2c0.1,0.1,0.1,0.2,0.2,0.3c0.2,0.2,0.5,0.5,0.9,0.9s1,0.8,1.7,1.3
								c-3.1-0.7-5.7-1.1-7.8-1.1c-2.6,0-4.5,0.4-5.4,1.1c-0.1,0.1-0.2,0.2-0.2,0.4c0,0.2,0,0.3,0.1,0.4c0.1,0.2,0.3,0.3,0.6,0.5
								c0.5,0.3,1.3,0.7,2.4,1.1c1.4,0.5,3.1,1.1,5.2,1.7c-0.3,0-0.6,0-0.9,0c-1.2,0.1-1.9,0.3-2.4,0.7c-0.2,0.2-0.3,0.5-0.3,0.8
								s0.1,0.5,0.3,0.8c0.4,0.5,1,0.9,1.8,1.2c2.2,1,5.6,1.9,8,2.4c-1.3,0.2-2.2,0.4-2.8,0.7c-0.5,0.2-0.8,0.4-0.9,0.8
								c0,0.2,0,0.4,0.1,0.5c0.1,0.2,0.2,0.3,0.4,0.4c0.6,0.5,1.6,0.9,2.9,1.2c1.6,0.5,3.6,0.9,5.4,1.1c-0.9,0.2-1.6,0.4-2.1,0.6
								s-0.8,0.4-1,0.7c-0.2,0.3-0.1,0.7,0.1,1.1c0.4,0.6,1.1,0.9,1.8,1.1c0.7,0.1,1.5,0.1,2.4,0c1.6-0.3,3.3-0.9,4.2-1.5
								c0.6-0.4,1-0.9,1.4-1.6c-0.6,0.3-1.2,0.6-1.8,1c-1.7,1.2-2.5,2.4-2.6,3.4c0,0.4,0,0.8,0.3,1.1c0.2,0.3,0.6,0.5,1,0.5
								c0.5,0.1,1.1-0.1,1.8-0.4c-0.2,0.4-0.3,0.8-0.3,1.1c0,0.3,0,0.6,0.2,0.8c0.2,0.2,0.4,0.4,0.7,0.4c0.5,0.1,1.1,0,1.8-0.4
								c0.4-0.2,0.9-0.5,1.4-0.9c-0.1,0.5-0.1,1.1,0,1.7c0.1,1,0.2,2,0.5,2.8c0.1,0.4,0.3,0.7,0.4,0.9c0.1,0.1,0.2,0.2,0.4,0.3
								c0.2,0,0.4,0,0.5-0.1c0.3-0.2,0.4-0.4,0.5-0.8c0.4,2.4,1.4,4.9,2.4,6.7c0.3,0.6,0.6,1,0.9,1.4c0.3,0.4,0.5,0.6,0.9,0.7
								c0.2,0.1,0.4,0,0.6-0.1l0.1-0.1c0.2,0.6,0.5,1.2,0.9,1.6c0.4,0.5,0.8,0.9,1.4,1c0.2,0.1,0.5,0.1,0.7,0.1
								c-0.3,0.3-0.5,0.5-0.7,0.7s-0.3,0.4-0.4,0.6c-0.1,0.2-0.2,0.5-0.1,0.7c0.1,0.2,0.3,0.4,0.6,0.4c0.2,0.1,0.5,0.1,0.9,0.1
								c0.5,0,1.1-0.1,1.8-0.2c-0.1,0.1-0.2,0.2-0.3,0.3c-0.4,0.3-0.6,0.5-0.7,0.8c0,0.2,0,0.3,0,0.5c0.1,0.1,0.2,0.2,0.3,0.3
								c0.2,0.1,0.5,0.2,0.8,0.3c0.5,0.1,1.2,0.2,1.8,0.3c-0.1,0.2-0.2,0.5-0.2,0.7c0,0.4,0.2,0.8,0.4,1.2c0.6,0.7,1.5,1.3,2.7,1.8
								s2.4,0.9,3.5,1.1c1.1,0.2,2.1,0.3,2.8,0.1c0.4-0.1,0.8-0.4,1-0.8c-0.4,0-0.8,0.1-1.2,0.1c-1.3,0.2-2.1,0.5-2.6,0.9
								c-0.2,0.2-0.4,0.5-0.5,0.7c0,0.3,0,0.6,0.2,0.8c0.3,0.5,0.9,0.8,1.6,1.1c0.6,0.2,1.3,0.4,2.1,0.4c-0.1,0.3-0.1,0.5-0.1,0.8
								c0,0.4,0.2,0.7,0.5,0.8c0.5,0.4,1.2,0.4,1.9,0.3c0.8-0.1,1.6-0.2,2.3-0.4c0.1,0,0.2,0,0.3-0.1c-0.4,0.3-0.6,0.6-0.8,0.9
								c-0.1,0.2-0.2,0.5-0.1,0.8c0.1,0.3,0.3,0.4,0.6,0.5c0.5,0.2,1.1,0.2,1.9,0c0.4-0.1,0.8-0.2,1.3-0.3c-0.1,0.1-0.1,0.2-0.1,0.3
								c-0.2,0.5-0.1,0.9,0.2,1.3c0.6,0.6,1.7,0.9,2.8,0.8l-0.4-0.3c0.1,0.5,0.2,0.9,0.5,1.4c0.2,0.3,0.5,0.6,0.9,0.7
								c0.7,0.2,1.4,0.2,1.8,0.1c0.4-0.1,0.7-0.1,0.7-0.1s-0.3,0-0.7-0.1c-0.4,0-1.1-0.1-1.6-0.4c-0.2-0.1-0.4-0.3-0.5-0.5
								c-0.2-0.3-0.2-0.7-0.3-1.1v-0.3c-0.1,0-0.2,0-0.3,0c-1.1,0.1-2-0.2-2.3-0.6c-0.2-0.2-0.2-0.3-0.1-0.6c0.1-0.3,0.4-0.6,0.9-1
								l2.1-1.6l-2.4,1c-0.9,0.4-1.8,0.6-2.5,0.7c-0.7,0.1-1.3,0.1-1.6,0c-0.1,0-0.1-0.1-0.1-0.1s0-0.1,0.1-0.2
								c0.2-0.3,0.7-0.8,1.8-1.5c0.2-0.2,0.5-0.3,0.7-0.4c-0.3-0.1-0.6-0.2-0.9-0.2c-0.5,0-1.1,0.1-1.9,0.3
								c-0.7,0.2-1.5,0.3-2.2,0.4c-0.7,0.1-1.2,0-1.5-0.2c-0.1-0.1-0.2-0.2-0.2-0.4s0-0.5,0.2-0.9c0.1-0.2,0.1-0.3,0.2-0.5
								c-0.2,0-0.4,0-0.6,0c-0.9,0-1.7-0.2-2.4-0.4s-1.1-0.6-1.2-0.8c-0.1-0.1-0.1-0.2-0.1-0.3s0.1-0.2,0.2-0.3
								c0.3-0.3,1-0.6,2.2-0.7l-0.2-0.7c-0.4,0.1-1.3,0.1-2.4-0.1c-1.1-0.2-2.3-0.6-3.4-1c-1.1-0.5-2-1-2.4-1.6
								c-0.2-0.3-0.3-0.5-0.3-0.7s0.1-0.5,0.4-0.8c0.2-0.2,0.4-0.3,0.7-0.5c-0.3-0.1-0.6-0.1-0.9-0.1c-0.8-0.1-1.8-0.2-2.3-0.3
								c-0.3-0.1-0.5-0.2-0.6-0.2c0,0-0.1,0,0,0c0,0,0,0.1,0,0c0,0,0.1-0.2,0.5-0.5c0.3-0.3,0.8-0.7,1.5-1.1
								c0.5-0.4,1.1-0.7,1.7-1.1c-0.6,0.2-1.3,0.3-1.9,0.4c-1.5,0.3-2.6,0.5-3.3,0.5c-0.3,0-0.6,0-0.7,0c-0.1,0-0.1-0.1-0.1,0
								c0,0,0,0,0-0.1c0.1-0.1,0.2-0.3,0.3-0.5c0.3-0.4,0.9-0.9,1.5-1.5l1.3-1.2l-1.6,0.6c-0.6,0.2-1.1,0.2-1.5,0.1
								s-0.7-0.4-1.1-0.8c-0.6-0.8-1-2.1-1.4-3.2l-1.6-5.8l0.9,5.9c0.1,0.7,0.1,1.2,0.1,1.4c0,0.1-0.1,0.1,0,0.1h0.1
								c0,0-0.3-0.2-0.5-0.5s-0.5-0.8-0.8-1.3c-1.2-2.2-2.5-5.8-2.5-8.5v-4.7l-0.7,4.6c-0.1,0.9-0.3,1.5-0.4,1.9
								c-0.1,0.4-0.3,0.6-0.3,0.6s0,0,0.1,0l0,0c-0.1-0.1-0.2-0.4-0.3-0.7c-0.2-0.7-0.4-1.6-0.4-2.6c-0.1-1,0-1.9,0.2-2.4l0.5-1.4
								l-1,1c-0.7,0.7-1.4,1.2-2,1.5s-1.1,0.4-1.4,0.3c-0.1,0-0.2-0.1-0.2-0.1c0-0.1-0.1-0.2-0.1-0.4c0-0.4,0.3-1.1,1-2.1l1.3-1.9
								l-1.8,1.4c-1.1,0.9-2,1.1-2.5,1.1c-0.3,0-0.4-0.1-0.5-0.2s-0.2-0.3-0.1-0.6c0.1-0.7,0.7-1.8,2.3-2.9l-0.4-0.6
								c-0.8,0.5-2.4,1.2-3.9,1.4c-0.8,0.1-1.5,0.1-2.1,0s-1.1-0.4-1.4-0.8c-0.1-0.2-0.1-0.2-0.1-0.3c0-0.1,0.3-0.3,0.7-0.4
								c0.8-0.3,2.4-0.7,4.6-1.1l4.5-1l-4.6,0.3c-1.9,0.1-5.4-0.4-7.9-1.1c-1.2-0.4-2.3-0.8-2.7-1.1c-0.1-0.1-0.2-0.2-0.2-0.2l0,0
								c0,0,0.1-0.2,0.5-0.3c0.7-0.3,2.1-0.6,4.5-0.9c1.2-0.2,2.3-0.3,3.5-0.4c-1.2,0-2.3-0.1-3.5-0.3c-1.9-0.3-6.9-1.5-9.7-2.8
								c-0.7-0.3-1.3-0.7-1.6-1c-0.1-0.2-0.2-0.3-0.2-0.4s0-0.1,0.1-0.2c0.2-0.2,0.8-0.4,1.9-0.5c1.1-0.1,2.7,0,4.8,0.3l6.9,1
								l-6.8-1.7c-3.8-0.9-7-1.9-9-2.7c-1-0.4-1.8-0.8-2.3-1c-0.2-0.1-0.3-0.3-0.4-0.3c0,0,0,0,0,0.1s0,0.1,0,0.1c0.7-0.6,2.4-1,5-1
								s5.9,0.5,9.9,1.7l3,0.9l-2.7-1.5c-1.5-0.9-2.8-1.7-3.5-2.4c-0.4-0.3-0.7-0.6-0.8-0.8c-0.1-0.1-0.1-0.2-0.1-0.2s0,0,0,0.1
								c0,0,0,0.1-0.1,0.2s-0.2,0.1-0.2,0.1c1.3-0.2,3.7,0.6,6,1.8c2.3,1.2,4.4,2.6,5.3,3.6l1.2,1.2l-0.6-1.6
								c-0.1-0.3-0.1-0.5,0.1-0.7s0.3-0.3,0.7-0.2c0.7,0.1,2,0.9,3.6,3.6c6.1,10.3,12,20.8,20.3,29.3c3.3,3.4,8.8,7.5,14.1,10
								c2.6,1.3,5.2,2.1,7.3,2.9c1.1,0.4,2.8,1.6,3.6,1.8C208.2,133.2,205.5,131.2,204.2,130.6z"/>
						</g>
						<g>
							<defs>
								<rect id="SVGID_00000139294511188456595720000017067707450986562189_" x="81.9" y="30.5" width="128" height="128"/>
							</defs>
							<clipPath id="SVGID_00000014602330658729778350000001799170578357982870_">
								<use xlink:href="#SVGID_00000139294511188456595720000017067707450986562189_"  style="overflow:visible;"/>
							</clipPath>
							<path style="clip-path:url(#SVGID_00000014602330658729778350000001799170578357982870_);" d="M156.8,86.5
								c1,1,1.7,1.9,2.4,2.8c0.6,0.8,0.9,1.4,0.9,1.4s-0.2-0.7-0.6-1.6c-0.5-1-1.2-2.1-2.2-3.1c-2.3-2.4-5.5-4.5-9.3-6.3
								c-2.8-1.4-5.9-2.9-9.2-4.9c-6.1-3.6-12.6-9.2-19.9-17.3c-3.9-4.4-10.4-13.3-14.8-18.3c-1.1-1.2-2.1-2.2-2.8-2.8
								c-0.4-0.3-0.7-0.5-1.1-0.6c-0.2-0.1-0.3-0.1-0.5-0.1s-0.3,0.1-0.5,0.3c-0.2,0.3-0.3,0.6-0.2,1.1c0,0.5,0.1,1.1,0.3,1.8
								c0.4,1.5,1.1,3.6,2.3,6.6c5.3,13.5,14.3,25.6,26.2,32.6c-8-3.2-14.3-8-20.2-11.6c-5-3-12.4-8.8-17-13.3
								c-1.8-1.8-3.1-2.8-4.1-3.2c-0.5-0.2-0.9-0.3-1.3-0.2s-0.7,0.4-0.9,0.7c-0.3,0.7-0.3,1.7,0,3c0.3,1.2,0.7,2.7,1.3,4.2
								c3.3,8.1,11.2,14.2,18.2,18.5c-4.3-2-8.5-5-11.9-7.4c-2.2-1.6-4.1-2.9-5.4-3.6c-0.7-0.3-1.2-0.5-1.7-0.4
								c-0.2,0.1-0.5,0.2-0.6,0.5c-0.1,0.2-0.1,0.5-0.1,0.8c0.1,1.5,1.3,3.7,3.1,6.2c1.9,2.5,4.5,5.4,7.7,8c2.6,2.2,5.5,4.2,8.6,5.9
								c-2.6-1-4.9-2.2-6.8-3.2c-1.7-0.9-3-1.7-4-2.3c-0.5-0.3-0.9-0.5-1.3-0.7s-0.6-0.3-0.9-0.2c-0.6,0.1-1,0.4-1.3,0.8
								s-0.3,1-0.1,1.6c0.3,1.3,1.3,3,3.1,5.3c4.6,6.1,10,9.7,16.7,11.6c-2.3-0.3-4.3-0.7-5.9-1.1c-2.6-0.6-4.1-0.7-4.9-0.5
								c-0.2,0.1-0.4,0.2-0.5,0.3c-0.1,0.2-0.2,0.4-0.2,0.5c0,0.4,0.2,0.7,0.5,1.1c1.1,1.5,3.8,3.4,5.3,4.6
								c3.2,2.3,7.3,4.1,11.4,5.2c3.3,0.9,6.4,1.6,9.5,2.1c-2.6,0.1-5.3,0-7.5,0.1c-1.8,0-3.3,0.1-4.4,0.2c-0.6,0.1-1.1,0.2-1.5,0.3
								c-0.4,0.1-0.7,0.3-0.9,0.6c-0.2,0.3-0.2,0.7-0.2,1c0.1,0.3,0.2,0.6,0.5,0.9c0.5,0.6,1.3,1.1,2.3,1.6c2.1,1,5.1,1.9,8.5,2.5
								c2.4,0.4,4.2,0.7,6.4,0.7c-0.7,0.2-1.4,0.4-1.9,0.5c-1.4,0.5-2.2,0.9-2.6,1.4c-0.1,0.2-0.2,0.5-0.2,0.7s0.1,0.5,0.3,0.6
								c0.3,0.4,0.8,0.7,1.5,0.9c1.3,0.5,3.3,0.9,5.6,1.1c4.6,0.4,10.6-0.1,15.4-2.2c1.1-0.5,2.2-1.1,3.2-1.9
								c-1.2,0.4-2.3,0.8-3.5,1.2c-2.8,1.1-4.6,1.9-5.6,2.6c-0.5,0.3-0.8,0.6-0.9,1c-0.1,0.2,0,0.4,0.1,0.6c0.1,0.1,0.3,0.2,0.5,0.2
								c0.6,0.1,1.3-0.1,2.4-0.4c0.4-0.1,0.7-0.2,1.2-0.3c-0.9,0.5-1.5,0.9-1.9,1.3s-0.6,0.8-0.5,1.2s0.4,0.7,0.8,0.9
								c0.8,0.4,2.1,0.5,3.6,0.4c0.9,0,1.9-0.1,2.9-0.3c-0.1,0-0.1,0.1-0.2,0.1c-0.4,0.4-0.7,0.7-0.7,1.1c0,0.4,0.2,0.7,0.4,1
								c0.3,0.2,0.7,0.4,1.1,0.5c1,0.3,2.4,0.5,3.7,0.6c-2.6,0.6-4.5,1.1-5.5,1.9c-0.5,0.3-0.8,0.7-0.9,1c-0.2,0.4-0.1,0.8,0.1,1.1
								c0.4,0.6,1.3,1,2.5,1.3c1.7,0.4,4.2,0.4,6.9,0.1c-0.8,0.4-1.5,0.7-2.1,1c-1.1,0.6-1.8,1.2-2,1.9c-0.1,0.3,0.1,0.7,0.3,0.9
								c0.2,0.3,0.6,0.5,1,0.7c0.9,0.4,2.1,0.8,3.7,1.2c2.7,0.7,5.3,0.5,7.7,0.2c0,0.1-0.1,0.2-0.1,0.3c0,0.2,0.1,0.4,0.2,0.5
								c0.1,0.1,0.2,0.2,0.4,0.2c0.3,0.1,0.6,0.2,1,0.2c0.6,0.1,1.3,0.1,2,0.1c-0.7,0.1-1.5,0.2-2.1,0.3c-0.8,0.1-1.6,0.1-2.2,0.2
								c-0.3,0-0.6,0.1-0.8,0.2c-0.2,0.1-0.4,0.2-0.5,0.5c-0.1,0.2-0.1,0.5,0,0.8c0.1,0.2,0.3,0.5,0.5,0.7c0.4,0.4,1.1,0.7,1.9,1
								c1.4,0.5,3.2,0.9,5.3,1l0,0c-0.1,0.1-0.2,0.2-0.3,0.4s0,0.4,0,0.5c0.2,0.3,0.4,0.4,0.7,0.5s0.7,0.2,1.1,0.3
								c1.1,0.2,2.6,0.3,3.7,0.3c-0.3,0.2-0.5,0.4-0.6,0.5c-0.2,0.2-0.3,0.4-0.3,0.7c0,0.2,0.2,0.5,0.4,0.6c0.4,0.3,0.9,0.4,1.6,0.5
								c0.7,0.1,1.5,0.1,2.5,0.1c2.4-0.1,4.8-0.4,7-0.9s4-1.1,5.6-1.7c2.4-1,3.5-2.1,3.5-2.1s-1.2,1-3.6,1.8c-1.6,0.5-3.4,1-5.6,1.4
								c-2.2,0.4-4.5,0.7-6.9,0.8c-0.9,0-1.8,0-2.4-0.1c-0.6-0.1-1.1-0.2-1.3-0.4c-0.1-0.1-0.1-0.1-0.1-0.1s0-0.1,0.1-0.2
								c0.2-0.2,0.7-0.6,1.7-1.1l1.9-0.9l-2.1,0.3c-0.8,0.1-3.3,0-4.9-0.3c-0.4-0.1-0.8-0.2-1-0.3c-0.3-0.1-0.4-0.2-0.4-0.2v0.1
								c0,0,0,0,0.1-0.1c0.2-0.1,0.5-0.3,1-0.5l1.8-0.6h-1.9c-2.6,0-4.9-0.4-6.4-1c-0.8-0.3-1.3-0.6-1.7-0.9
								c-0.2-0.1-0.3-0.3-0.3-0.4c0-0.1,0-0.2,0-0.3c0,0,0,0,0.2-0.1c0.1-0.1,0.3-0.1,0.6-0.1c0.5-0.1,1.3-0.1,2.1-0.2
								c1.7-0.1,3.8-0.4,5.5-1.4l3.8-2.1l-4,1.5c-0.4,0.2-1.4,0.3-2.3,0.3c-1,0-2,0-2.8-0.1c-0.4,0-0.7-0.1-0.9-0.2
								c-0.1,0-0.2-0.1-0.2-0.1s0,0,0,0.1s0,0.1,0,0c0,0,0.1-0.1,0.3-0.2c0.3-0.1,0.8-0.3,1.5-0.5l5.6-1.5l-5.7,0.8
								c-3.1,0.4-6.3,1.1-9.8,0.1c-1.6-0.4-2.8-0.8-3.6-1.2c-0.4-0.2-0.7-0.4-0.8-0.5c-0.1-0.2-0.2-0.2-0.1-0.4
								c0-0.2,0.5-0.8,1.6-1.4c1.1-0.6,2.8-1.4,5-2.3l4.7-1.9L158,136c-3.9,1-7.6,1-9.8,0.5c-1.1-0.2-1.9-0.6-2-1
								c-0.1-0.2-0.1-0.3,0-0.5s0.3-0.4,0.7-0.7c1.1-0.8,3.8-1.4,7.9-2.3c1.4-0.3,2.8-0.6,4.1-1c-1.4,0.2-2.8,0.3-4.2,0.3
								c-1.7,0-4.6-0.1-6.2-0.6c-0.4-0.1-0.7-0.3-0.9-0.4c-0.2-0.1-0.2-0.2-0.2-0.4c0-0.1,0.1-0.4,0.5-0.7c0.3-0.3,0.9-0.7,1.7-1.1
								l2.6-1.3l-2.8,0.7c-1.5,0.4-3.2,0.6-4.7,0.7s-2.7-0.1-3.3-0.4c-0.3-0.1-0.4-0.3-0.4-0.4s0-0.3,0.3-0.6c0.6-0.6,2.2-1.5,5-2.6
								c1.1-0.4,2.3-0.8,3.4-1.2c-1.2,0.1-2.4,0.3-3.6,0.6c-2.1,0.4-3.6,0.9-4.7,1.2c-1.1,0.3-1.8,0.5-2.1,0.4
								c-0.1,0-0.2-0.1-0.2-0.1v0.1c0,0,0.2-0.3,0.6-0.6c0.9-0.6,2.7-1.5,5.4-2.5l-0.3-0.6c-4.6,2.1-10.5,2.6-15,2.2
								c-2.3-0.2-4.2-0.6-5.4-1.1c-0.6-0.2-1-0.5-1.2-0.7c-0.1-0.1-0.1-0.2-0.1-0.3c0-0.1,0-0.1,0.1-0.2c0.2-0.2,0.9-0.7,2.3-1.2
								c1.4-0.4,3.4-0.9,6.2-1.4l7.2-1.3l-7.2,0.6c-4.9,0.4-6.9,0.2-10.7-0.4c-3.4-0.6-6.4-1.5-8.3-2.5c-1-0.5-1.7-1-2.1-1.4
								c-0.2-0.2-0.3-0.4-0.3-0.6s0-0.3,0.1-0.5c0,0,0.2-0.2,0.5-0.3c0.3-0.1,0.8-0.2,1.3-0.3c1.1-0.1,2.6-0.2,4.4-0.2
								c3.5,0,7.9,0,11.9-0.3c2-0.1,4-0.4,6-0.7c-2,0.2-4,0.2-6,0c-4.5-0.3-9-1.3-13.8-2.6c-4-1.1-8-2.8-11.1-5.1
								c-1.6-1.1-4.2-3.1-5.2-4.4c-0.2-0.3-0.3-0.6-0.3-0.7s0-0.1,0-0.1s0.1-0.1,0.2-0.1c0.5-0.2,2-0.1,4.6,0.5
								c2.7,0.6,6.5,1.3,11.3,1.5c2.4,0.1,4.8,0,7.2-0.3c-2.4,0-4.8-0.1-7.1-0.4c-9-1.3-15.8-5-21.5-12.4c-1.8-2.3-2.7-4-3-5.1
								c-0.1-0.5-0.1-0.9,0.1-1.1s0.4-0.4,0.8-0.5c0,0,0.2,0,0.5,0.2c0.3,0.1,0.7,0.4,1.2,0.6c1,0.6,2.4,1.4,4,2.3
								c3.3,1.8,7.9,4,13.5,5.4l8.7,2.1l-8.5-2.8c-5.3-1.7-10.5-5-14.7-8.5c-3.2-2.6-5.8-5.4-7.6-7.9c-1.8-2.5-2.9-4.7-3-5.9
								c0-0.3,0-0.4,0-0.5s0-0.1,0.1-0.1s0.6,0.1,1.2,0.4c1.2,0.6,3.1,1.9,5.3,3.5c4.4,3.1,10.3,7.3,16,9c0.8,0.2,1.6,0.4,2.4,0.6
								c-0.7-0.4-1.4-0.8-2.1-1.2c-7.5-4.4-17.6-11-21.4-20.3c-0.6-1.5-1.1-2.9-1.3-4c-0.2-1.2-0.2-2.1-0.1-2.5
								c0.1-0.2,0.2-0.3,0.4-0.3c0.2,0,0.5,0,0.9,0.2c0.9,0.4,2.2,1.3,3.9,3.1c4.7,4.6,12,10.4,17.1,13.4c7,4.2,14.5,10.1,24.8,13.2
								c1.6,0.5,3.3,0.9,4.9,1.2c-1.6-0.5-3.2-1.1-4.7-1.8c-13.8-6.3-24.1-19.5-30-34.4c-1.2-2.9-1.9-5-2.2-6.5
								c-0.2-0.7-0.3-1.3-0.3-1.7s0.1-0.6,0.1-0.6l0,0c0,0,0.1,0,0.2,0c0.2,0.1,0.5,0.2,0.8,0.5c0.7,0.6,1.7,1.5,2.7,2.8
								c4.3,4.9,10.8,13.8,14.8,18.3c7.4,8.2,13.9,13.8,20.1,17.5c3.3,2,6.5,3.5,9.2,4.9C151.4,82.1,154.5,84.2,156.8,86.5"/>
						</g>
						<g>
							<defs>
								<rect id="SVGID_00000023274843710431630350000009502998209375014294_" x="81.9" y="30.5" width="128" height="128"/>
							</defs>
							<clipPath id="SVGID_00000173844894977181133250000009535371707948675464_">
								<use xlink:href="#SVGID_00000023274843710431630350000009502998209375014294_"  style="overflow:visible;"/>
							</clipPath>
							
								<path style="clip-path:url(#SVGID_00000173844894977181133250000009535371707948675464_);fill:none;stroke:#000000;stroke-width:1.861;stroke-linecap:round;stroke-linejoin:round;stroke-miterlimit:10;" d="
								M156.8,86.5c1,1,1.7,1.9,2.4,2.8c0.6,0.8,0.9,1.4,0.9,1.4s-0.2-0.7-0.6-1.6c-0.5-1-1.2-2.1-2.2-3.1c-2.3-2.4-5.5-4.5-9.3-6.3
								c-2.8-1.4-5.9-2.9-9.2-4.9c-6.1-3.6-12.6-9.2-19.9-17.3c-3.9-4.4-10.4-13.3-14.8-18.3c-1.1-1.2-2.1-2.2-2.8-2.8
								c-0.4-0.3-0.7-0.5-1.1-0.6c-0.2-0.1-0.3-0.1-0.5-0.1s-0.3,0.1-0.5,0.3c-0.2,0.3-0.3,0.6-0.2,1.1c0,0.5,0.1,1.1,0.3,1.8
								c0.4,1.5,1.1,3.6,2.3,6.6c5.3,13.5,14.3,25.6,26.2,32.6c-8-3.2-14.3-8-20.2-11.6c-5-3-12.4-8.8-17-13.3
								c-1.8-1.8-3.1-2.8-4.1-3.2c-0.5-0.2-0.9-0.3-1.3-0.2s-0.7,0.4-0.9,0.7c-0.3,0.7-0.3,1.7,0,3c0.3,1.2,0.7,2.7,1.3,4.2
								c3.3,8.1,11.2,14.2,18.2,18.5c-4.3-2-8.5-5-11.9-7.4c-2.2-1.6-4.1-2.9-5.4-3.6c-0.7-0.3-1.2-0.5-1.7-0.4
								c-0.2,0.1-0.5,0.2-0.6,0.5c-0.1,0.2-0.1,0.5-0.1,0.8c0.1,1.5,1.3,3.7,3.1,6.2c1.9,2.5,4.5,5.4,7.7,8c2.6,2.2,5.5,4.2,8.6,5.9
								c-2.6-1-4.9-2.2-6.8-3.2c-1.7-0.9-3-1.7-4-2.3c-0.5-0.3-0.9-0.5-1.3-0.7s-0.6-0.3-0.9-0.2c-0.6,0.1-1,0.4-1.3,0.8
								s-0.3,1-0.1,1.6c0.3,1.3,1.3,3,3.1,5.3c4.6,6.1,10,9.7,16.7,11.6c-2.3-0.3-4.3-0.7-5.9-1.1c-2.6-0.6-4.1-0.7-4.9-0.5
								c-0.2,0.1-0.4,0.2-0.5,0.3c-0.1,0.2-0.2,0.4-0.2,0.5c0,0.4,0.2,0.7,0.5,1.1c1.1,1.5,3.8,3.4,5.3,4.6
								c3.2,2.3,7.3,4.1,11.4,5.2c3.3,0.9,6.4,1.6,9.5,2.1c-2.6,0.1-5.3,0-7.5,0.1c-1.8,0-3.3,0.1-4.4,0.2c-0.6,0.1-1.1,0.2-1.5,0.3
								c-0.4,0.1-0.7,0.3-0.9,0.6c-0.2,0.3-0.2,0.7-0.2,1c0.1,0.3,0.2,0.6,0.5,0.9c0.5,0.6,1.3,1.1,2.3,1.6c2.1,1,5.1,1.9,8.5,2.5
								c2.4,0.4,4.2,0.7,6.4,0.7c-0.7,0.2-1.4,0.4-1.9,0.5c-1.4,0.5-2.2,0.9-2.6,1.4c-0.1,0.2-0.2,0.5-0.2,0.7s0.1,0.5,0.3,0.6
								c0.3,0.4,0.8,0.7,1.5,0.9c1.3,0.5,3.3,0.9,5.6,1.1c4.6,0.4,10.6-0.1,15.4-2.2c1.1-0.5,2.2-1.1,3.2-1.9
								c-1.2,0.4-2.3,0.8-3.5,1.2c-2.8,1.1-4.6,1.9-5.6,2.6c-0.5,0.3-0.8,0.6-0.9,1c-0.1,0.2,0,0.4,0.1,0.6c0.1,0.1,0.3,0.2,0.5,0.2
								c0.6,0.1,1.3-0.1,2.4-0.4c0.4-0.1,0.7-0.2,1.2-0.3c-0.9,0.5-1.5,0.9-1.9,1.3s-0.6,0.8-0.5,1.2s0.4,0.7,0.8,0.9
								c0.8,0.4,2.1,0.5,3.6,0.4c0.9,0,1.9-0.1,2.9-0.3c-0.1,0-0.1,0.1-0.2,0.1c-0.4,0.4-0.7,0.7-0.7,1.1c0,0.4,0.2,0.7,0.4,1
								c0.3,0.2,0.7,0.4,1.1,0.5c1,0.3,2.4,0.5,3.7,0.6c-2.6,0.6-4.5,1.1-5.5,1.9c-0.5,0.3-0.8,0.7-0.9,1c-0.2,0.4-0.1,0.8,0.1,1.1
								c0.4,0.6,1.3,1,2.5,1.3c1.7,0.4,4.2,0.4,6.9,0.1c-0.8,0.4-1.5,0.7-2.1,1c-1.1,0.6-1.8,1.2-2,1.9c-0.1,0.3,0.1,0.7,0.3,0.9
								c0.2,0.3,0.6,0.5,1,0.7c0.9,0.4,2.1,0.8,3.7,1.2c2.7,0.7,5.3,0.5,7.7,0.2c0,0.1-0.1,0.2-0.1,0.3c0,0.2,0.1,0.4,0.2,0.5
								c0.1,0.1,0.2,0.2,0.4,0.2c0.3,0.1,0.6,0.2,1,0.2c0.6,0.1,1.3,0.1,2,0.1c-0.7,0.1-1.5,0.2-2.1,0.3c-0.8,0.1-1.6,0.1-2.2,0.2
								c-0.3,0-0.6,0.1-0.8,0.2c-0.2,0.1-0.4,0.2-0.5,0.5c-0.1,0.2-0.1,0.5,0,0.8c0.1,0.2,0.3,0.5,0.5,0.7c0.4,0.4,1.1,0.7,1.9,1
								c1.4,0.5,3.2,0.9,5.3,1l0,0c-0.1,0.1-0.2,0.2-0.3,0.4s0,0.4,0,0.5c0.2,0.3,0.4,0.4,0.7,0.5s0.7,0.2,1.1,0.3
								c1.1,0.2,2.6,0.3,3.7,0.3c-0.3,0.2-0.5,0.4-0.6,0.5c-0.2,0.2-0.3,0.4-0.3,0.7c0,0.2,0.2,0.5,0.4,0.6c0.4,0.3,0.9,0.4,1.6,0.5
								c0.7,0.1,1.5,0.1,2.5,0.1c2.4-0.1,4.8-0.4,7-0.9s4-1.1,5.6-1.7c2.4-1,3.5-2.1,3.5-2.1s-1.2,1-3.6,1.8c-1.6,0.5-3.4,1-5.6,1.4
								c-2.2,0.4-4.5,0.7-6.9,0.8c-0.9,0-1.8,0-2.4-0.1c-0.6-0.1-1.1-0.2-1.3-0.4c-0.1-0.1-0.1-0.1-0.1-0.1s0-0.1,0.1-0.2
								c0.2-0.2,0.7-0.6,1.7-1.1l1.9-0.9l-2.1,0.3c-0.8,0.1-3.3,0-4.9-0.3c-0.4-0.1-0.8-0.2-1-0.3c-0.3-0.1-0.4-0.2-0.4-0.2v0.1
								c0,0,0,0,0.1-0.1c0.2-0.1,0.5-0.3,1-0.5l1.8-0.6h-1.9c-2.6,0-4.9-0.4-6.4-1c-0.8-0.3-1.3-0.6-1.7-0.9
								c-0.2-0.1-0.3-0.3-0.3-0.4c0-0.1,0-0.2,0-0.3c0,0,0,0,0.2-0.1c0.1-0.1,0.3-0.1,0.6-0.1c0.5-0.1,1.3-0.1,2.1-0.2
								c1.7-0.1,3.8-0.4,5.5-1.4l3.8-2.1l-4,1.5c-0.4,0.2-1.4,0.3-2.3,0.3c-1,0-2,0-2.8-0.1c-0.4,0-0.7-0.1-0.9-0.2
								c-0.1,0-0.2-0.1-0.2-0.1s0,0,0,0.1s0,0.1,0,0c0,0,0.1-0.1,0.3-0.2c0.3-0.1,0.8-0.3,1.5-0.5l5.6-1.5l-5.7,0.8
								c-3.1,0.4-6.3,1.1-9.8,0.1c-1.6-0.4-2.8-0.8-3.6-1.2c-0.4-0.2-0.7-0.4-0.8-0.5c-0.1-0.2-0.2-0.2-0.1-0.4
								c0-0.2,0.5-0.8,1.6-1.4c1.1-0.6,2.8-1.4,5-2.3l4.7-1.9L158,136c-3.9,1-7.6,1-9.8,0.5c-1.1-0.2-1.9-0.6-2-1
								c-0.1-0.2-0.1-0.3,0-0.5s0.3-0.4,0.7-0.7c1.1-0.8,3.8-1.4,7.9-2.3c1.4-0.3,2.8-0.6,4.1-1c-1.4,0.2-2.8,0.3-4.2,0.3
								c-1.7,0-4.6-0.1-6.2-0.6c-0.4-0.1-0.7-0.3-0.9-0.4c-0.2-0.1-0.2-0.2-0.2-0.4c0-0.1,0.1-0.4,0.5-0.7c0.3-0.3,0.9-0.7,1.7-1.1
								l2.6-1.3l-2.8,0.7c-1.5,0.4-3.2,0.6-4.7,0.7s-2.7-0.1-3.3-0.4c-0.3-0.1-0.4-0.3-0.4-0.4s0-0.3,0.3-0.6c0.6-0.6,2.2-1.5,5-2.6
								c1.1-0.4,2.3-0.8,3.4-1.2c-1.2,0.1-2.4,0.3-3.6,0.6c-2.1,0.4-3.6,0.9-4.7,1.2c-1.1,0.3-1.8,0.5-2.1,0.4
								c-0.1,0-0.2-0.1-0.2-0.1v0.1c0,0,0.2-0.3,0.6-0.6c0.9-0.6,2.7-1.5,5.4-2.5l-0.3-0.6c-4.6,2.1-10.5,2.6-15,2.2
								c-2.3-0.2-4.2-0.6-5.4-1.1c-0.6-0.2-1-0.5-1.2-0.7c-0.1-0.1-0.1-0.2-0.1-0.3c0-0.1,0-0.1,0.1-0.2c0.2-0.2,0.9-0.7,2.3-1.2
								c1.4-0.4,3.4-0.9,6.2-1.4l7.2-1.3l-7.2,0.6c-4.9,0.4-6.9,0.2-10.7-0.4c-3.4-0.6-6.4-1.5-8.3-2.5c-1-0.5-1.7-1-2.1-1.4
								c-0.2-0.2-0.3-0.4-0.3-0.6s0-0.3,0.1-0.5c0,0,0.2-0.2,0.5-0.3c0.3-0.1,0.8-0.2,1.3-0.3c1.1-0.1,2.6-0.2,4.4-0.2
								c3.5,0,7.9,0,11.9-0.3c2-0.1,4-0.4,6-0.7c-2,0.2-4,0.2-6,0c-4.5-0.3-9-1.3-13.8-2.6c-4-1.1-8-2.8-11.1-5.1
								c-1.6-1.1-4.2-3.1-5.2-4.4c-0.2-0.3-0.3-0.6-0.3-0.7s0-0.1,0-0.1s0.1-0.1,0.2-0.1c0.5-0.2,2-0.1,4.6,0.5
								c2.7,0.6,6.5,1.3,11.3,1.5c2.4,0.1,4.8,0,7.2-0.3c-2.4,0-4.8-0.1-7.1-0.4c-9-1.3-15.8-5-21.5-12.4c-1.8-2.3-2.7-4-3-5.1
								c-0.1-0.5-0.1-0.9,0.1-1.1s0.4-0.4,0.8-0.5c0,0,0.2,0,0.5,0.2c0.3,0.1,0.7,0.4,1.2,0.6c1,0.6,2.4,1.4,4,2.3
								c3.3,1.8,7.9,4,13.5,5.4l8.7,2.1l-8.5-2.8c-5.3-1.7-10.5-5-14.7-8.5c-3.2-2.6-5.8-5.4-7.6-7.9c-1.8-2.5-2.9-4.7-3-5.9
								c0-0.3,0-0.4,0-0.5s0-0.1,0.1-0.1s0.6,0.1,1.2,0.4c1.2,0.6,3.1,1.9,5.3,3.5c4.4,3.1,10.3,7.3,16,9c0.8,0.2,1.6,0.4,2.4,0.6
								c-0.7-0.4-1.4-0.8-2.1-1.2c-7.5-4.4-17.6-11-21.4-20.3c-0.6-1.5-1.1-2.9-1.3-4c-0.2-1.2-0.2-2.1-0.1-2.5
								c0.1-0.2,0.2-0.3,0.4-0.3c0.2,0,0.5,0,0.9,0.2c0.9,0.4,2.2,1.3,3.9,3.1c4.7,4.6,12,10.4,17.1,13.4c7,4.2,14.5,10.1,24.8,13.2
								c1.6,0.5,3.3,0.9,4.9,1.2c-1.6-0.5-3.2-1.1-4.7-1.8c-13.8-6.3-24.1-19.5-30-34.4c-1.2-2.9-1.9-5-2.2-6.5
								c-0.2-0.7-0.3-1.3-0.3-1.7s0.1-0.6,0.1-0.6l0,0c0,0,0.1,0,0.2,0c0.2,0.1,0.5,0.2,0.8,0.5c0.7,0.6,1.7,1.5,2.7,2.8
								c4.3,4.9,10.8,13.8,14.8,18.3c7.4,8.2,13.9,13.8,20.1,17.5c3.3,2,6.5,3.5,9.2,4.9C151.4,82.1,154.5,84.2,156.8,86.5z"/>
						</g>
						<g>
							<defs>
								<rect id="SVGID_00000065752605527676974930000007446629473577050536_" x="81.9" y="30.5" width="128" height="128"/>
							</defs>
							<clipPath id="SVGID_00000147215808591861405850000003935848269372438713_">
								<use xlink:href="#SVGID_00000065752605527676974930000007446629473577050536_"  style="overflow:visible;"/>
							</clipPath>
							<path style="clip-path:url(#SVGID_00000147215808591861405850000003935848269372438713_);" d="M129.2,82.5c0.2,0,0.4,0,0.6,0
								c1.2,0.1,2.3,0.2,3.2,0.2c0.9,0.1,1.4,0.1,1.4,0.1s-0.5-0.2-1.4-0.4c-0.8-0.2-2-0.5-3.2-0.6c-0.2,0-0.4,0-0.6,0
								c-0.4,0-0.7,0-1,0.3c-0.1,0.1-0.1,0.4-0.1,0.5c0,0.2,0.1,0.3,0.2,0.4c0.2,0.2,0.4,0.4,0.6,0.6c-1.3-0.5-2.4-0.8-3.2-1
								c-0.7-0.1-1.2-0.2-1.7-0.1s-0.8,0.2-0.9,0.6c-0.1,0.3-0.1,0.7,0.1,1.2c0.2,0.4,0.5,0.9,1,1.4c0.7,0.7,1.7,1.5,3.2,2.3
								c-1-0.2-1.9-0.5-2.6-0.8c-2.4-1.1-3.9-1.5-5-1.5c-0.5,0-0.9,0.2-1.2,0.5c-0.3,0.3-0.3,0.7-0.3,1.2c0.1,0.8,0.7,1.9,1.5,2.9
								c0.8,1.1,1.8,2.2,2.9,3.2c2.9,2.7,6.5,4.5,9.9,5.7c-2.3-0.5-4.7-1-7.5-1.1c-0.7,0-1.2,0-1.6,0.2c-0.4,0.1-0.7,0.4-0.9,0.7
								c-0.4,0.7-0.1,1.5,0.5,2.3c1.1,1.6,3.6,3.5,6.6,4.6c5.4,2,8.8,2.4,12.5,2.5c-1.8,0.2-3.3,0.3-4.6,0.4
								c-1.1,0.1-1.9,0.1-2.6,0.3c-0.7,0.1-1.2,0.3-1.5,0.7c-0.2,0.3-0.3,0.7-0.1,1.1c0.1,0.4,0.4,0.7,0.7,1
								c0.7,0.6,1.8,1.1,3.1,1.5c2.2,0.7,5,1.2,7.7,1c-0.4,0.2-0.6,0.5-0.9,0.7c-0.5,0.5-0.6,1-0.5,1.5c0.2,0.5,0.6,0.8,1.2,1
								c0.6,0.2,1.3,0.3,2.1,0.4c3.2,0.2,8-0.7,10.3-3.3c0.4-0.5,0.8-1,1-1.6c-0.5,0.4-1,0.7-1.5,1.2c-1.1,0.9-1.7,1.6-2,2.2
								c-0.1,0.3-0.2,0.6-0.1,0.8c0.1,0.3,0.3,0.5,0.5,0.6c0.4,0.2,1,0.2,1.7,0.1c-0.5,0.4-1,0.8-1.3,1.1c-0.8,0.8-1.4,1.4-1.4,2
								c0,0.3,0.1,0.7,0.4,0.9s0.7,0.3,1.1,0.4c0.5,0.1,1.2,0.1,2,0.1c-1.2,0.6-2,1.1-2.5,1.6c-0.3,0.4-0.5,0.8-0.4,1.2
								c0.1,0.4,0.4,0.7,0.9,0.9c0.8,0.4,2.2,0.6,3.7,0.7c0.9,0,1.9,0,3-0.1c-0.2,0.1-0.4,0.3-0.6,0.4c-0.3,0.2-0.6,0.4-0.7,0.6
								c-0.2,0.2-0.3,0.4-0.3,0.7s0.2,0.5,0.4,0.6s0.5,0.2,0.8,0.2c0.1,0,0.3,0,0.4,0c-0.5,0.3-0.9,0.5-1.3,0.8
								c-0.4,0.3-0.7,0.5-0.8,0.8c-0.2,0.3-0.2,0.7-0.1,1c0.2,0.3,0.4,0.5,0.8,0.7c0.4,0.2,0.8,0.3,1.4,0.4c0.9,0.2,2,0.4,3.3,0.5
								c-0.2,0.1-0.3,0.2-0.5,0.3c-0.4,0.3-0.7,0.6-0.8,1s0.1,0.8,0.3,1.1c0.3,0.3,0.7,0.6,1.1,0.8c2.5,1.3,4,1.9,8.1,1.8
								c-0.1,0.1-0.2,0.1-0.3,0.2c-0.6,0.3-0.9,0.6-1,1.1c-0.1,0.4,0.2,0.8,0.5,1.1s0.8,0.5,1.4,0.7c1.7,0.7,4.3,1.2,6.2,1.3
								c-0.2,0.1-0.4,0.3-0.6,0.4c-0.4,0.3-0.7,0.7-0.7,1.2c0,0.4,0.3,0.8,0.6,1.1s0.8,0.5,1.3,0.7c1.7,0.7,4.2,1,6.4,0.8
								c-0.1,0.1-0.1,0.1-0.1,0.2c-0.1,0.2,0,0.4,0.1,0.5c0.2,0.3,0.5,0.4,0.9,0.4c0.4,0.1,0.8,0.1,1.3,0.1c2,0,3.9-0.3,5.6-0.7
								c1-0.3,1.8-0.5,2.5-0.8c1.1-0.5,1.5-1,1.5-1s-0.5,0.5-1.6,0.8c-0.7,0.2-1.5,0.4-2.6,0.6c-1.6,0.3-3.5,0.5-5.4,0.5
								c-0.5,0-0.9,0-1.2-0.1s-0.4-0.2-0.4-0.1v0.1c0,0,0-0.1,0.1-0.1c0.2-0.2,0.6-0.4,1.1-0.7l4.3-2l-4.5,1.3
								c-2.2,0.7-5.7,0.4-7.7-0.4c-0.5-0.2-0.9-0.4-1.2-0.6c-0.3-0.2-0.4-0.4-0.4-0.6c0-0.2,0.1-0.4,0.4-0.6
								c0.3-0.3,0.9-0.6,1.7-0.9l1.8-0.7H182c-1.6,0-5.3-0.6-7.4-1.4c-0.5-0.2-0.9-0.4-1.2-0.6c-0.2-0.2-0.3-0.3-0.3-0.4
								c0-0.1,0.2-0.3,0.7-0.6s1.2-0.5,2.3-0.8l3-0.8l-3.1,0.1c-5.8,0.2-7.1-0.2-10-1.7c-0.4-0.2-0.8-0.5-0.9-0.7
								c-0.2-0.2-0.2-0.3-0.2-0.5c0-0.1,0.2-0.3,0.5-0.6c0.4-0.2,0.9-0.5,1.7-0.7s1.6-0.4,2.3-0.5c-0.8,0-1.6-0.1-2.4-0.2
								c-2.1-0.2-3.6-0.4-4.7-0.6c-0.6-0.1-1-0.3-1.3-0.4c-0.3-0.1-0.5-0.3-0.5-0.4c0-0.1-0.1-0.1,0-0.3s0.3-0.4,0.7-0.6
								c0.7-0.5,1.9-1.1,3.6-1.8l4.3-1.8l-4.5,1.1c-1.3,0.3-2.3,0.5-2.9,0.5c-0.3,0-0.5-0.1-0.5-0.1c-0.1,0,0,0,0,0s0-0.1,0.2-0.3
								c0.1-0.1,0.3-0.3,0.6-0.5c0.6-0.4,1.4-0.9,2.5-1.3l3-1.3l-3.2,0.6c-1.7,0.3-3.5,0.5-5,0.4c-1.5,0-2.8-0.3-3.4-0.6
								c-0.3-0.2-0.5-0.3-0.5-0.5c0-0.1,0-0.3,0.3-0.6c0.5-0.6,1.9-1.4,4.5-2.3l3-1.1l-3.1,0.4c-2,0.2-3.3,0.3-4.2,0.2
								c-0.4-0.1-0.7-0.2-0.8-0.3c-0.1-0.1-0.2-0.1-0.1-0.3c0-0.3,0.4-0.9,1.2-1.6s1.9-1.6,3.4-2.6l5.3-3.6l-5.7,3
								c-0.8,0.4-1.6,0.7-2.2,0.8c-0.6,0.1-1.2,0.1-1.4,0c-0.1,0-0.1-0.1-0.1-0.1c0-0.1,0-0.2,0.1-0.4c0.2-0.4,0.8-1.1,1.8-1.9
								l-0.5-0.5c-2,2.3-6.7,3.2-9.8,3c-0.8-0.1-1.4-0.2-1.9-0.3c-0.5-0.2-0.7-0.4-0.8-0.6s0-0.4,0.3-0.8c0.4-0.4,1-0.8,2.1-1.4
								l1.9-1l-2.1,0.3c-3,0.4-6.5,0-9-0.9c-1.3-0.4-2.3-0.9-2.9-1.4c-0.3-0.2-0.5-0.5-0.5-0.7c-0.1-0.2-0.1-0.3,0.1-0.5
								c0.1-0.1,0.4-0.3,1-0.4s1.5-0.2,2.5-0.2c2.1-0.1,5.1-0.3,8.9-1.1c1-0.2,1.9-0.4,2.9-0.6c-1,0-2,0-3,0
								c-5.7,0-9.2,0.3-16.5-2.5c-2.9-1.1-5.3-2.9-6.3-4.4c-0.5-0.7-0.6-1.3-0.4-1.6c0.1-0.2,0.2-0.3,0.5-0.4s0.8-0.2,1.3-0.1
								c4.2,0.2,7.6,1.4,11.5,1.8c0.9,0.1,1.8,0.1,2.7,0.1c-0.9-0.2-1.7-0.5-2.6-0.8c-4.2-1.3-9.5-3.2-13.5-6.9
								c-1.1-1-2.1-2.1-2.8-3.1c-0.8-1-1.3-2-1.4-2.6c0-0.3,0-0.5,0.1-0.6s0.3-0.2,0.7-0.2c0.8,0,2.4,0.4,4.7,1.4
								c1.5,0.7,3.4,1,5.3,1.4l3,0.7l-2.8-1.4c-2.7-1.3-4.3-2.5-5.2-3.4c-0.5-0.5-0.7-0.9-0.9-1.2c-0.1-0.3-0.1-0.5-0.1-0.6
								s0.1-0.1,0.4-0.2c0.3,0,0.8,0,1.4,0.1c1.3,0.3,3.2,0.9,5.9,2.1l3.8,1.7l-3.5-2.3c-1.6-1.1-2.6-1.9-2.9-2.3
								c-0.1-0.1-0.1-0.2-0.1-0.2v0.1C128.7,82.7,128.9,82.5,129.2,82.5"/>
						</g>
						<g>
							<defs>
								<rect id="SVGID_00000023250222439850287030000013248372487834347147_" x="81.9" y="30.5" width="128" height="128"/>
							</defs>
							<clipPath id="SVGID_00000011007266004314120660000001701868829371048865_">
								<use xlink:href="#SVGID_00000023250222439850287030000013248372487834347147_"  style="overflow:visible;"/>
							</clipPath>
							
								<path style="clip-path:url(#SVGID_00000011007266004314120660000001701868829371048865_);fill:none;stroke:#000000;stroke-width:1.861;stroke-linecap:round;stroke-linejoin:round;stroke-miterlimit:10;" d="
								M129.2,82.5c0.2,0,0.4,0,0.6,0c1.2,0.1,2.3,0.2,3.2,0.2c0.9,0.1,1.4,0.1,1.4,0.1s-0.5-0.2-1.4-0.4c-0.8-0.2-2-0.5-3.2-0.6
								c-0.2,0-0.4,0-0.6,0c-0.4,0-0.7,0-1,0.3c-0.1,0.1-0.1,0.4-0.1,0.5c0,0.2,0.1,0.3,0.2,0.4c0.2,0.2,0.4,0.4,0.6,0.6
								c-1.3-0.5-2.4-0.8-3.2-1c-0.7-0.1-1.2-0.2-1.7-0.1s-0.8,0.2-0.9,0.6c-0.1,0.3-0.1,0.7,0.1,1.2c0.2,0.4,0.5,0.9,1,1.4
								c0.7,0.7,1.7,1.5,3.2,2.3c-1-0.2-1.9-0.5-2.6-0.8c-2.4-1.1-3.9-1.5-5-1.5c-0.5,0-0.9,0.2-1.2,0.5c-0.3,0.3-0.3,0.7-0.3,1.2
								c0.1,0.8,0.7,1.9,1.5,2.9c0.8,1.1,1.8,2.2,2.9,3.2c2.9,2.7,6.5,4.5,9.9,5.7c-2.3-0.5-4.7-1-7.5-1.1c-0.7,0-1.2,0-1.6,0.2
								c-0.4,0.1-0.7,0.4-0.9,0.7c-0.4,0.7-0.1,1.5,0.5,2.3c1.1,1.6,3.6,3.5,6.6,4.6c5.4,2,8.8,2.4,12.5,2.5
								c-1.8,0.2-3.3,0.3-4.6,0.4c-1.1,0.1-1.9,0.1-2.6,0.3c-0.7,0.1-1.2,0.3-1.5,0.7c-0.2,0.3-0.3,0.7-0.1,1.1
								c0.1,0.4,0.4,0.7,0.7,1c0.7,0.6,1.8,1.1,3.1,1.5c2.2,0.7,5,1.2,7.7,1c-0.4,0.2-0.6,0.5-0.9,0.7c-0.5,0.5-0.6,1-0.5,1.5
								c0.2,0.5,0.6,0.8,1.2,1c0.6,0.2,1.3,0.3,2.1,0.4c3.2,0.2,8-0.7,10.3-3.3c0.4-0.5,0.8-1,1-1.6c-0.5,0.4-1,0.7-1.5,1.2
								c-1.1,0.9-1.7,1.6-2,2.2c-0.1,0.3-0.2,0.6-0.1,0.8c0.1,0.3,0.3,0.5,0.5,0.6c0.4,0.2,1,0.2,1.7,0.1c-0.5,0.4-1,0.8-1.3,1.1
								c-0.8,0.8-1.4,1.4-1.4,2c0,0.3,0.1,0.7,0.4,0.9s0.7,0.3,1.1,0.4c0.5,0.1,1.2,0.1,2,0.1c-1.2,0.6-2,1.1-2.5,1.6
								c-0.3,0.4-0.5,0.8-0.4,1.2c0.1,0.4,0.4,0.7,0.9,0.9c0.8,0.4,2.2,0.6,3.7,0.7c0.9,0,1.9,0,3-0.1c-0.2,0.1-0.4,0.3-0.6,0.4
								c-0.3,0.2-0.6,0.4-0.7,0.6c-0.2,0.2-0.3,0.4-0.3,0.7s0.2,0.5,0.4,0.6s0.5,0.2,0.8,0.2c0.1,0,0.3,0,0.4,0
								c-0.5,0.3-0.9,0.5-1.3,0.8c-0.4,0.3-0.7,0.5-0.8,0.8c-0.2,0.3-0.2,0.7-0.1,1c0.2,0.3,0.4,0.5,0.8,0.7
								c0.4,0.2,0.8,0.3,1.4,0.4c0.9,0.2,2,0.4,3.3,0.5c-0.2,0.1-0.3,0.2-0.5,0.3c-0.4,0.3-0.7,0.6-0.8,1s0.1,0.8,0.3,1.1
								c0.3,0.3,0.7,0.6,1.1,0.8c2.5,1.3,4,1.9,8.1,1.8c-0.1,0.1-0.2,0.1-0.3,0.2c-0.6,0.3-0.9,0.6-1,1.1c-0.1,0.4,0.2,0.8,0.5,1.1
								s0.8,0.5,1.4,0.7c1.7,0.7,4.3,1.2,6.2,1.3c-0.2,0.1-0.4,0.3-0.6,0.4c-0.4,0.3-0.7,0.7-0.7,1.2c0,0.4,0.3,0.8,0.6,1.1
								s0.8,0.5,1.3,0.7c1.7,0.7,4.2,1,6.4,0.8c-0.1,0.1-0.1,0.1-0.1,0.2c-0.1,0.2,0,0.4,0.1,0.5c0.2,0.3,0.5,0.4,0.9,0.4
								c0.4,0.1,0.8,0.1,1.3,0.1c2,0,3.9-0.3,5.6-0.7c1-0.3,1.8-0.5,2.5-0.8c1.1-0.5,1.5-1,1.5-1s-0.5,0.5-1.6,0.8
								c-0.7,0.2-1.5,0.4-2.6,0.6c-1.6,0.3-3.5,0.5-5.4,0.5c-0.5,0-0.9,0-1.2-0.1s-0.4-0.2-0.4-0.1v0.1c0,0,0-0.1,0.1-0.1
								c0.2-0.2,0.6-0.4,1.1-0.7l4.3-2l-4.5,1.3c-2.2,0.7-5.7,0.4-7.7-0.4c-0.5-0.2-0.9-0.4-1.2-0.6c-0.3-0.2-0.4-0.4-0.4-0.6
								c0-0.2,0.1-0.4,0.4-0.6c0.3-0.3,0.9-0.6,1.7-0.9l1.8-0.7H182c-1.6,0-5.3-0.6-7.4-1.4c-0.5-0.2-0.9-0.4-1.2-0.6
								c-0.2-0.2-0.3-0.3-0.3-0.4c0-0.1,0.2-0.3,0.7-0.6s1.2-0.5,2.3-0.8l3-0.8l-3.1,0.1c-5.8,0.2-7.1-0.2-10-1.7
								c-0.4-0.2-0.8-0.5-0.9-0.7c-0.2-0.2-0.2-0.3-0.2-0.5c0-0.1,0.2-0.3,0.5-0.6c0.4-0.2,0.9-0.5,1.7-0.7s1.6-0.4,2.3-0.5
								c-0.8,0-1.6-0.1-2.4-0.2c-2.1-0.2-3.6-0.4-4.7-0.6c-0.6-0.1-1-0.3-1.3-0.4c-0.3-0.1-0.5-0.3-0.5-0.4c0-0.1-0.1-0.1,0-0.3
								s0.3-0.4,0.7-0.6c0.7-0.5,1.9-1.1,3.6-1.8l4.3-1.8l-4.5,1.1c-1.3,0.3-2.3,0.5-2.9,0.5c-0.3,0-0.5-0.1-0.5-0.1c-0.1,0,0,0,0,0
								s0-0.1,0.2-0.3c0.1-0.1,0.3-0.3,0.6-0.5c0.6-0.4,1.4-0.9,2.5-1.3l3-1.3l-3.2,0.6c-1.7,0.3-3.5,0.5-5,0.4
								c-1.5,0-2.8-0.3-3.4-0.6c-0.3-0.2-0.5-0.3-0.5-0.5c0-0.1,0-0.3,0.3-0.6c0.5-0.6,1.9-1.4,4.5-2.3l3-1.1l-3.1,0.4
								c-2,0.2-3.3,0.3-4.2,0.2c-0.4-0.1-0.7-0.2-0.8-0.3c-0.1-0.1-0.2-0.1-0.1-0.3c0-0.3,0.4-0.9,1.2-1.6s1.9-1.6,3.4-2.6l5.3-3.6
								l-5.7,3c-0.8,0.4-1.6,0.7-2.2,0.8c-0.6,0.1-1.2,0.1-1.4,0c-0.1,0-0.1-0.1-0.1-0.1c0-0.1,0-0.2,0.1-0.4
								c0.2-0.4,0.8-1.1,1.8-1.9l-0.5-0.5c-2,2.3-6.7,3.2-9.8,3c-0.8-0.1-1.4-0.2-1.9-0.3c-0.5-0.2-0.7-0.4-0.8-0.6s0-0.4,0.3-0.8
								c0.4-0.4,1-0.8,2.1-1.4l1.9-1l-2.1,0.3c-3,0.4-6.5,0-9-0.9c-1.3-0.4-2.3-0.9-2.9-1.4c-0.3-0.2-0.5-0.5-0.5-0.7
								c-0.1-0.2-0.1-0.3,0.1-0.5c0.1-0.1,0.4-0.3,1-0.4s1.5-0.2,2.5-0.2c2.1-0.1,5.1-0.3,8.9-1.1c1-0.2,1.9-0.4,2.9-0.6
								c-1,0-2,0-3,0c-5.7,0-9.2,0.3-16.5-2.5c-2.9-1.1-5.3-2.9-6.3-4.4c-0.5-0.7-0.6-1.3-0.4-1.6c0.1-0.2,0.2-0.3,0.5-0.4
								s0.8-0.2,1.3-0.1c4.2,0.2,7.6,1.4,11.5,1.8c0.9,0.1,1.8,0.1,2.7,0.1c-0.9-0.2-1.7-0.5-2.6-0.8c-4.2-1.3-9.5-3.2-13.5-6.9
								c-1.1-1-2.1-2.1-2.8-3.1c-0.8-1-1.3-2-1.4-2.6c0-0.3,0-0.5,0.1-0.6s0.3-0.2,0.7-0.2c0.8,0,2.4,0.4,4.7,1.4
								c1.5,0.7,3.4,1,5.3,1.4l3,0.7l-2.8-1.4c-2.7-1.3-4.3-2.5-5.2-3.4c-0.5-0.5-0.7-0.9-0.9-1.2c-0.1-0.3-0.1-0.5-0.1-0.6
								s0.1-0.1,0.4-0.2c0.3,0,0.8,0,1.4,0.1c1.3,0.3,3.2,0.9,5.9,2.1l3.8,1.7l-3.5-2.3c-1.6-1.1-2.6-1.9-2.9-2.3
								c-0.1-0.1-0.1-0.2-0.1-0.2v0.1C128.7,82.7,128.9,82.5,129.2,82.5z"/>
						</g>
					</g>
				</g>
			</g>
		</g>
	</g>
</g>
</svg>
