<?xml version="1.0" encoding="utf-8"?>
<!-- Generator: Adobe Illustrator 26.4.1, SVG Export Plug-In . SVG Version: 6.00 Build 0)  -->
<svg version="1.1" id="Layer_1" xmlns="http://www.w3.org/2000/svg" xmlns:xlink="http://www.w3.org/1999/xlink" x="0px" y="0px"
	 viewBox="0 0 295.2 189.4" style="enable-background:new 0 0 295.2 189.4;" xml:space="preserve">
<style type="text/css">
	.st0{fill:none;stroke:#836FBA;stroke-miterlimit:10;}
	.st1{fill:none;stroke:#836FBA;stroke-miterlimit:10;stroke-dasharray:3.0206,3.0206;}
	.st2{enable-background:new    ;}
	.st3{fill:#836FBA;}
	.st4{clip-path:url(#SVGID_00000166649913635819144340000001631993200654631094_);}
	.st5{clip-path:url(#SVGID_00000109002925077889506020000018091903949929432478_);}
	.st6{opacity:0;clip-path:url(#SVGID_00000032615930377953290020000009302793885822153913_);}
	.st7{clip-path:url(#SVGID_00000037672482726068443450000004063501958582040244_);fill:#FFFFFF;}
	.st8{clip-path:url(#SVGID_00000037672482726068443450000004063501958582040244_);}
	.st9{clip-path:url(#SVGID_00000032615930377953290020000009302793885822153913_);fill:#FFFFFF;}
	.st10{clip-path:url(#SVGID_00000032615930377953290020000009302793885822153913_);}
	
		.st11{clip-path:url(#SVGID_00000032615930377953290020000009302793885822153913_);fill:none;stroke:#000000;stroke-width:1.8536;stroke-linecap:round;stroke-linejoin:round;stroke-miterlimit:10;}
</style>
<g>
	<g>
		<line class="st0" x1="-0.4" y1="31.2" x2="1.1" y2="31.2"/>
		<line class="st1" x1="4.1" y1="31.2" x2="292.6" y2="31.2"/>
		<line class="st0" x1="294.1" y1="31.2" x2="295.6" y2="31.2"/>
	</g>
</g>
<g>
	<g>
		<line class="st0" x1="-0.4" y1="158.7" x2="1.1" y2="158.7"/>
		<line class="st1" x1="4.1" y1="158.7" x2="292.6" y2="158.7"/>
		<line class="st0" x1="294.1" y1="158.7" x2="295.6" y2="158.7"/>
	</g>
</g>
<g class="st2">
	<path class="st3" d="M31,100.8h-1v-6.7c-0.3,0.2-0.6,0.5-1,0.7s-0.8,0.4-1.1,0.5v-1c0.6-0.3,1.1-0.6,1.5-1s0.8-0.8,0.9-1.1H31
		V100.8z"/>
	<path class="st3" d="M33.7,98.5l1.1-0.1c0.1,0.6,0.3,1,0.6,1.3s0.6,0.4,1.1,0.4s0.9-0.2,1.3-0.5s0.5-0.8,0.5-1.3s-0.2-0.9-0.5-1.2
		s-0.7-0.5-1.2-0.5c-0.2,0-0.4,0-0.7,0.1l0.1-0.9c0.1,0,0.1,0,0.2,0c0.4,0,0.9-0.1,1.2-0.4s0.5-0.6,0.5-1.1c0-0.4-0.1-0.7-0.4-1
		s-0.6-0.4-1-0.4s-0.8,0.1-1,0.4S35,94,34.9,94.6l-1.1-0.2c0.1-0.7,0.4-1.3,0.9-1.6s1-0.6,1.7-0.6c0.5,0,0.9,0.1,1.3,0.3
		s0.7,0.5,0.9,0.8s0.3,0.7,0.3,1.1s-0.1,0.7-0.3,1s-0.5,0.5-0.9,0.7c0.5,0.1,0.9,0.4,1.2,0.7s0.4,0.8,0.4,1.4c0,0.8-0.3,1.4-0.8,1.9
		s-1.2,0.8-2.1,0.8c-0.8,0-1.4-0.2-1.9-0.7S33.8,99.2,33.7,98.5z"/>
	<path class="st3" d="M41,100.8v-1.2h1.2v1.2H41z"/>
	<path class="st3" d="M49.3,99.8v1h-5.7c0-0.3,0-0.5,0.1-0.7c0.1-0.4,0.4-0.8,0.7-1.1s0.8-0.8,1.4-1.3c0.9-0.8,1.6-1.4,1.9-1.8
		c0.3-0.4,0.5-0.9,0.5-1.3s-0.1-0.8-0.4-1.1S47,93,46.6,93c-0.5,0-0.9,0.2-1.2,0.5s-0.5,0.7-0.5,1.3l-1.1-0.1
		c0.1-0.8,0.4-1.4,0.8-1.8s1.1-0.6,2-0.6c0.8,0,1.5,0.2,2,0.7s0.7,1,0.7,1.7c0,0.3-0.1,0.7-0.2,1s-0.4,0.7-0.7,1s-0.9,0.9-1.6,1.5
		c-0.6,0.5-1,0.9-1.2,1.1s-0.3,0.4-0.4,0.6L49.3,99.8L49.3,99.8z"/>
	<path class="st3" d="M50.7,100.8v-6.2h0.9v0.9c0.2-0.3,0.5-0.5,0.8-0.7s0.7-0.3,1.1-0.3c0.5,0,0.8,0.1,1.1,0.3s0.5,0.5,0.6,0.8
		c0.5-0.7,1.1-1.1,1.9-1.1c0.6,0,1.1,0.2,1.4,0.5s0.5,0.9,0.5,1.6v4.3h-1V97c0-0.4,0-0.7-0.1-0.9c-0.1-0.2-0.2-0.3-0.4-0.4
		s-0.4-0.2-0.6-0.2c-0.4,0-0.8,0.1-1.1,0.4s-0.4,0.8-0.4,1.4v3.6h-1.1v-4c0-0.5-0.1-0.8-0.3-1.1c-0.2-0.2-0.5-0.4-0.8-0.4
		s-0.6,0.1-0.8,0.2S52,96,51.9,96.3s-0.2,0.7-0.2,1.3v3.2C51.7,100.8,50.7,100.8,50.7,100.8z"/>
	<path class="st3" d="M60.7,100.8v-6.2h0.9v0.9c0.2-0.3,0.5-0.5,0.8-0.7s0.7-0.3,1.1-0.3c0.5,0,0.8,0.1,1.1,0.3s0.5,0.5,0.6,0.8
		c0.5-0.7,1.1-1.1,1.9-1.1c0.6,0,1.1,0.2,1.4,0.5s0.5,0.9,0.5,1.6v4.3h-1V97c0-0.4,0-0.7-0.1-0.9c-0.1-0.2-0.2-0.3-0.4-0.4
		s-0.4-0.2-0.6-0.2c-0.4,0-0.8,0.1-1.1,0.4c-0.3,0.3-0.4,0.8-0.4,1.4v3.6h-1.1v-4c0-0.5-0.1-0.8-0.3-1.1c-0.2-0.2-0.5-0.4-0.8-0.4
		s-0.6,0.1-0.8,0.2S62,96,61.9,96.3s-0.2,0.7-0.2,1.3v3.2C61.7,100.8,60.7,100.8,60.7,100.8z"/>
</g>
<g class="st2">
	<path class="st3" d="M248.5,100.4v1h-5.7c0-0.3,0-0.5,0.1-0.7c0.1-0.4,0.4-0.8,0.7-1.1s0.8-0.8,1.4-1.3c0.9-0.8,1.6-1.4,1.9-1.8
		s0.5-0.9,0.5-1.3s-0.1-0.8-0.4-1.1s-0.7-0.4-1.2-0.4s-0.9,0.2-1.2,0.5s-0.5,0.7-0.5,1.3l-1.1-0.1c0.1-0.8,0.4-1.4,0.8-1.8
		s1.1-0.6,2-0.6c0.8,0,1.5,0.2,2,0.7s0.7,1,0.7,1.7c0,0.3-0.1,0.7-0.2,1c-0.1,0.3-0.4,0.7-0.7,1s-0.9,0.9-1.6,1.5
		c-0.6,0.5-1,0.9-1.2,1.1s-0.3,0.4-0.4,0.6h4.1V100.4z"/>
	<path class="st3" d="M253,101.4v-2.1h-3.7v-1l3.9-5.6h0.9v5.6h1.2v1h-1.2v2.1H253z M253,98.4v-3.9l-2.7,3.9H253z"/>
	<path class="st3" d="M256.6,103.8v-8.6h1V96c0.2-0.3,0.5-0.6,0.8-0.7s0.6-0.2,1-0.2c0.5,0,1,0.1,1.4,0.4s0.7,0.7,0.9,1.2
		s0.3,1,0.3,1.6s-0.1,1.2-0.3,1.7s-0.6,0.9-1,1.2s-0.9,0.4-1.4,0.4c-0.4,0-0.7-0.1-0.9-0.2s-0.5-0.3-0.7-0.6v3H256.6z M257.6,98.3
		c0,0.8,0.2,1.4,0.5,1.8s0.7,0.6,1.2,0.6s0.9-0.2,1.2-0.6s0.5-1,0.5-1.8s-0.2-1.4-0.5-1.8s-0.7-0.6-1.2-0.6c-0.4,0-0.8,0.2-1.2,0.6
		S257.6,97.5,257.6,98.3z"/>
	<path class="st3" d="M262.6,101.4l2.3-3.2l-2.1-3h1.3l1,1.5c0.2,0.3,0.3,0.5,0.4,0.7c0.2-0.3,0.3-0.5,0.5-0.7l1-1.5h1.3l-2.2,2.9
		l2.3,3.3h-1.3l-1.3-1.9l-0.3-0.5l-1.6,2.5h-1.3V101.4z"/>
</g>
<g>
	<g>
		<defs>
			<rect id="SVGID_1_" x="84.6" y="31.2" width="127.5" height="127.5"/>
		</defs>
		<clipPath id="SVGID_00000001655184511797323230000008714111877835433390_">
			<use xlink:href="#SVGID_1_"  style="overflow:visible;"/>
		</clipPath>
		<g style="clip-path:url(#SVGID_00000001655184511797323230000008714111877835433390_);">
			<defs>
				<rect id="SVGID_00000064341035525248811960000007564855846412394420_" x="84.6" y="31.2" width="127.5" height="127.5"/>
			</defs>
			<clipPath id="SVGID_00000077303356964436374380000012878705159422922641_">
				<use xlink:href="#SVGID_00000064341035525248811960000007564855846412394420_"  style="overflow:visible;"/>
			</clipPath>
			<g style="clip-path:url(#SVGID_00000077303356964436374380000012878705159422922641_);">
				<defs>
					<rect id="SVGID_00000037693653270206519220000011910450152883742105_" x="84.6" y="31.2" width="127.5" height="127.5"/>
				</defs>
				<clipPath id="SVGID_00000101104405116042111120000001033705665139770551_">
					<use xlink:href="#SVGID_00000037693653270206519220000011910450152883742105_"  style="overflow:visible;"/>
				</clipPath>
				<g style="opacity:0;clip-path:url(#SVGID_00000101104405116042111120000001033705665139770551_);">
					<g>
						<defs>
							<rect id="SVGID_00000134949685505841635380000004595139672140249277_" x="84.6" y="31.2" width="127.5" height="127.5"/>
						</defs>
						<clipPath id="SVGID_00000175309009215023085080000004898158203364158118_">
							<use xlink:href="#SVGID_00000134949685505841635380000004595139672140249277_"  style="overflow:visible;"/>
						</clipPath>
						
							<rect x="84.6" y="31.2" style="clip-path:url(#SVGID_00000175309009215023085080000004898158203364158118_);fill:#FFFFFF;" width="127.5" height="127.5"/>
						<path style="clip-path:url(#SVGID_00000175309009215023085080000004898158203364158118_);" d="M212.1,158.6H84.6V31.2h127.4
							V158.6z M212.1,31.2H84.6v127.5h127.5V31.2z"/>
					</g>
				</g>
				<path style="clip-path:url(#SVGID_00000101104405116042111120000001033705665139770551_);fill:#FFFFFF;" d="M102.4,36.6
					c-1,0-0.6,2.5,2.1,9.2c5.9,14.9,16.3,28.1,30.1,34.4c-12.2-3.9-17.7-8.9-24.7-13.1c-5-3-12.4-8.8-17-13.3
					c-7-6.9-6.8-1.8-4.4,4.1c3.9,9.4,14,16,21.5,20.4c-11-3.4-23.4-16.5-23-11.9c0.3,2.8,4.3,8.7,10.7,14c4.3,3.5,9.4,6.8,14.8,8.5
					c-11-2.7-18.2-8.7-19.3-8.5c-2,0.5-1.7,2.6,1.9,7.2c5.7,7.5,12.6,11.2,21.6,12.5c-4.8-0.1-8.5-0.8-11.2-1.5
					c-10.3-2.4-2.7,3.2,0.4,5.4c3.1,2.3,7.2,4,11.2,5.1c4.8,1.3,9.3,2.3,13.8,2.6c-8,0.6-17.5-0.2-18.4,1.2c-1.2,1.9,4,4.3,10.8,5.5
					c3.7,0.7,5.8,0.8,10.7,0.4c-5.5,1-8.1,1.9-8.6,2.7c-1.6,2.3,11,4.6,20.2,1.4c-4,1.7-5.1,2.8-4,3c0.9,0.2,2.7-0.8,6.9-1.6
					c-11.2,4.4-2.9,5.5,3.3,3.9c-6.3,3.3,1.9,3.8,5.3,3.8c-4.1,0.9-6.7,1.5-8,2.4c-3.4,2.4,3.6,4.2,11.5,2.2
					c-9.1,3.6-8.4,4.6-2.1,6.3c3.5,0.9,6.8,0.3,9.9-0.1c-5.8,1.6,2.4,2,4.5,1.2c-3.3,1.9-8.1,1-8.5,2c-0.6,1.4,3.4,3,8.7,3
					c-4.5,1.7,3.6,2.2,5.3,2c-5.7,2.8,2.4,3,9,1.5c4-0.9,7.8-2.2,9.1-3.5c10-0.4,13.4-15.3,13.5-15.8c0.1-0.5-5.6-2.5-10.8-5
					c-4.3-2-8.7-5.2-12-8.1l-13.6-16.8c-3-4.6-5.8-9.4-8.6-14.2c-2.7-4.6-4.7-4.1-5-3c-3.8-3.6-10.7-5.7-18.9-10.6
					c-6.1-3.7-12.6-9.2-19.9-17.3C115.6,51.9,104.9,36.6,102.4,36.6"/>
				<path style="clip-path:url(#SVGID_00000101104405116042111120000001033705665139770551_);" d="M206.5,130.9
					c-2.1-0.8-4.6-1.7-7.2-2.9c-5.2-2.5-10.6-6.5-13.9-9.9c-8.2-8.4-14.1-18.8-20.1-29.1c-1.6-2.8-3-3.8-4.1-3.9
					c-0.6-0.1-1,0.2-1.3,0.5c-0.1,0.1-0.1,0.2-0.2,0.4c-1.1-1-2.9-2.1-4.8-3.1c-2.3-1.2-4.7-2.1-6.4-1.8c-0.1,0-0.2,0.1-0.2,0.1
					c-0.1,0.1-0.1,0.2-0.1,0.2c0,0.1,0,0.2,0.1,0.2c0.1,0.1,0.1,0.2,0.2,0.3c0.2,0.2,0.5,0.5,0.9,0.9c0.4,0.4,1,0.8,1.6,1.3
					c-3.1-0.7-5.7-1.1-7.8-1.1c-2.6,0-4.5,0.4-5.4,1.1c-0.1,0.1-0.2,0.2-0.2,0.4c0,0.1,0,0.3,0.1,0.4c0.1,0.2,0.3,0.3,0.6,0.5
					c0.5,0.3,1.3,0.7,2.4,1.1c1.4,0.5,3.1,1.1,5.2,1.7c-0.3,0-0.6,0-0.9,0c-1.2,0.1-1.9,0.3-2.3,0.7c-0.2,0.2-0.3,0.5-0.3,0.8
					c0,0.3,0.1,0.5,0.3,0.8c0.4,0.5,1,0.9,1.8,1.2c2.2,1,5.6,1.9,8,2.4c-1.3,0.2-2.2,0.4-2.8,0.7c-0.5,0.2-0.8,0.4-0.9,0.8
					c0,0.2,0,0.4,0.1,0.5c0.1,0.2,0.2,0.3,0.4,0.4c0.6,0.5,1.6,0.9,2.9,1.2c1.6,0.5,3.6,0.9,5.4,1c-0.9,0.2-1.6,0.4-2.1,0.6
					c-0.5,0.2-0.8,0.4-1,0.7c-0.2,0.3-0.1,0.7,0.1,1.1c0.4,0.6,1.1,0.9,1.8,1.1c0.7,0.1,1.5,0.1,2.4,0c1.6-0.3,3.3-0.9,4.2-1.5
					c0.6-0.4,1-0.9,1.4-1.6c-0.6,0.3-1.2,0.6-1.8,1c-1.6,1.1-2.5,2.4-2.6,3.4c0,0.4,0,0.8,0.3,1.1c0.2,0.3,0.6,0.5,1,0.5
					c0.5,0.1,1.1-0.1,1.7-0.4c-0.2,0.4-0.3,0.8-0.3,1.1c0,0.3,0,0.6,0.2,0.8c0.1,0.2,0.4,0.4,0.7,0.4c0.5,0.1,1.1,0,1.8-0.4
					c0.4-0.2,0.9-0.5,1.4-0.9c-0.1,0.5-0.1,1.1,0,1.6c0.1,1,0.2,2,0.5,2.8c0.1,0.4,0.3,0.7,0.4,0.9c0.1,0.1,0.2,0.2,0.4,0.3
					c0.2,0,0.4,0,0.5-0.1c0.3-0.2,0.4-0.4,0.5-0.8c0.4,2.4,1.4,4.9,2.3,6.6c0.3,0.6,0.6,1,0.9,1.4c0.3,0.4,0.5,0.6,0.9,0.7
					c0.2,0.1,0.4,0,0.6-0.1c0,0,0.1-0.1,0.1-0.1c0.2,0.6,0.5,1.1,0.9,1.6c0.4,0.5,0.8,0.8,1.4,1c0.2,0.1,0.5,0.1,0.7,0.1
					c-0.3,0.3-0.5,0.5-0.7,0.7c-0.2,0.2-0.3,0.4-0.4,0.6c-0.1,0.2-0.2,0.4-0.1,0.7c0.1,0.2,0.3,0.4,0.6,0.4c0.2,0.1,0.5,0.1,0.9,0.1
					c0.5,0,1.1-0.1,1.8-0.2c-0.1,0.1-0.2,0.2-0.3,0.3c-0.4,0.3-0.6,0.5-0.7,0.8c0,0.1,0,0.3,0,0.5c0.1,0.1,0.2,0.2,0.3,0.3
					c0.2,0.1,0.5,0.2,0.8,0.3c0.5,0.1,1.2,0.2,1.8,0.3c-0.1,0.2-0.2,0.5-0.2,0.7c0,0.4,0.2,0.8,0.4,1.2c0.6,0.7,1.5,1.3,2.7,1.8
					c1.1,0.5,2.4,0.8,3.5,1.1c1.1,0.2,2.1,0.3,2.8,0.1c0.4-0.1,0.8-0.4,1-0.8c-0.4,0-0.8,0.1-1.2,0.1c-1.3,0.2-2.1,0.5-2.6,0.9
					c-0.2,0.2-0.4,0.5-0.5,0.7c0,0.3,0,0.6,0.2,0.8c0.3,0.5,0.9,0.8,1.6,1.1c0.6,0.2,1.3,0.4,2.1,0.4c-0.1,0.3-0.1,0.5-0.1,0.7
					c0,0.3,0.2,0.7,0.5,0.8c0.5,0.4,1.2,0.4,1.9,0.3c0.7-0.1,1.6-0.2,2.3-0.4c0.1,0,0.2,0,0.3-0.1c-0.4,0.3-0.6,0.6-0.8,0.9
					c-0.1,0.2-0.2,0.5-0.1,0.8c0.1,0.3,0.3,0.4,0.6,0.5c0.5,0.2,1.1,0.2,1.9,0c0.4-0.1,0.8-0.2,1.3-0.3c-0.1,0.1-0.1,0.2-0.1,0.3
					c-0.2,0.5-0.1,0.9,0.2,1.2c0.6,0.6,1.7,0.9,2.8,0.8l-0.4-0.3c0,0,0,0,0,0c0.1,0.5,0.2,0.9,0.5,1.4c0.2,0.3,0.5,0.6,0.9,0.7
					c0.7,0.2,1.4,0.2,1.8,0.1c0.4-0.1,0.7-0.1,0.7-0.1s-0.3,0-0.7-0.1c-0.4,0-1.1-0.1-1.6-0.4c-0.2-0.1-0.4-0.3-0.5-0.5
					c-0.2-0.3-0.2-0.7-0.3-1.1c0,0,0,0,0-0.3c-0.1,0-0.2,0-0.3,0c-1.1,0.1-2-0.2-2.3-0.6c-0.2-0.2-0.2-0.3-0.1-0.6
					c0.1-0.3,0.4-0.6,0.9-1l2.1-1.6l-2.4,1c-0.9,0.4-1.8,0.6-2.5,0.7c-0.7,0.1-1.3,0.1-1.5,0c-0.1,0-0.1-0.1-0.1-0.1
					c0,0,0-0.1,0.1-0.2c0.2-0.3,0.7-0.8,1.8-1.5c0.2-0.2,0.5-0.3,0.7-0.4c-0.3-0.1-0.6-0.2-0.9-0.2c-0.5,0-1.1,0.1-1.9,0.3
					c-0.7,0.2-1.5,0.3-2.2,0.4c-0.7,0.1-1.2,0-1.5-0.2c-0.1-0.1-0.2-0.2-0.2-0.4s0-0.5,0.2-0.9c0.1-0.2,0.1-0.3,0.2-0.5
					c-0.2,0-0.4,0-0.5,0c-0.9,0-1.7-0.2-2.3-0.4c-0.6-0.2-1.1-0.6-1.2-0.8c-0.1-0.1-0.1-0.2-0.1-0.3c0-0.1,0.1-0.2,0.2-0.3
					c0.3-0.3,1-0.5,2.2-0.7l-0.2-0.7c-0.4,0.1-1.3,0.1-2.4-0.1c-1.1-0.2-2.3-0.6-3.4-1c-1.1-0.5-2-1-2.4-1.6
					c-0.2-0.3-0.3-0.5-0.3-0.7s0.1-0.5,0.4-0.8c0.2-0.2,0.4-0.3,0.7-0.5c-0.3,0-0.6-0.1-0.9-0.1c-0.8-0.1-1.8-0.2-2.3-0.3
					c-0.3-0.1-0.5-0.2-0.6-0.2c0,0-0.1,0,0,0c0,0,0,0.1,0,0c0,0,0.1-0.2,0.5-0.5c0.3-0.3,0.8-0.7,1.5-1.1c0.5-0.4,1.1-0.7,1.6-1.1
					c-0.6,0.2-1.3,0.3-1.9,0.4c-1.5,0.3-2.6,0.5-3.2,0.5c-0.3,0-0.6,0-0.7,0c-0.1,0-0.1-0.1-0.1,0c0,0,0,0,0-0.1
					c0.1-0.1,0.2-0.3,0.3-0.5c0.3-0.4,0.9-0.9,1.5-1.5l1.3-1.2l-1.6,0.6c-0.6,0.2-1.1,0.2-1.5,0.1c-0.4-0.1-0.7-0.4-1-0.8
					c-0.6-0.8-1-2-1.4-3.2l-1.6-5.8l0.9,5.9c0.1,0.7,0.1,1.2,0.1,1.4c0,0.1-0.1,0.1,0,0.1c0,0,0.1,0,0.1,0c0,0-0.3-0.2-0.5-0.5
					c-0.2-0.3-0.5-0.8-0.8-1.3c-1.2-2.2-2.5-5.8-2.5-8.5l0-4.6l-0.7,4.6c-0.1,0.9-0.3,1.5-0.4,1.9c-0.1,0.4-0.3,0.6-0.3,0.6
					c0,0,0,0,0.1,0s0,0,0,0c-0.1-0.1-0.2-0.3-0.3-0.7c-0.2-0.7-0.4-1.6-0.4-2.6s0-1.9,0.2-2.4l0.5-1.4l-1,1c-0.7,0.7-1.4,1.2-2,1.5
					c-0.6,0.3-1.1,0.4-1.4,0.3c-0.1,0-0.2-0.1-0.2-0.1c0-0.1-0.1-0.2-0.1-0.4c0-0.4,0.3-1.1,1-2.1l1.3-1.9l-1.8,1.4
					c-1.1,0.9-2,1.1-2.5,1.1c-0.3,0-0.4-0.1-0.5-0.2c-0.1-0.1-0.2-0.3-0.1-0.6c0.1-0.7,0.7-1.8,2.3-2.9l-0.4-0.6
					c-0.8,0.5-2.4,1.2-3.9,1.4c-0.8,0.1-1.5,0.1-2.1,0c-0.6-0.1-1.1-0.4-1.4-0.8c-0.1-0.2-0.1-0.2-0.1-0.3c0-0.1,0.3-0.3,0.7-0.4
					c0.8-0.3,2.4-0.7,4.6-1.1l4.5-0.9l-4.6,0.3c-1.9,0.1-5.3-0.4-7.8-1.1c-1.2-0.4-2.3-0.8-2.7-1.1c-0.1-0.1-0.2-0.2-0.2-0.2
					c0,0,0,0,0,0c0,0,0.1-0.2,0.5-0.3c0.7-0.3,2.1-0.6,4.5-0.9c1.2-0.2,2.3-0.3,3.5-0.4c-1.2,0-2.3-0.1-3.5-0.3
					c-1.9-0.3-6.9-1.5-9.7-2.8c-0.7-0.3-1.3-0.7-1.6-1c-0.1-0.2-0.2-0.3-0.2-0.4c0-0.1,0-0.1,0.1-0.2c0.2-0.2,0.8-0.4,1.9-0.5
					s2.7,0,4.8,0.3l6.9,1l-6.8-1.7c-3.8-0.9-6.9-1.9-9-2.7c-1-0.4-1.8-0.8-2.2-1c-0.2-0.1-0.3-0.3-0.4-0.3c0,0,0,0,0,0.1
					c0,0,0,0.1,0,0.1c0.7-0.5,2.4-1,5-1c2.6,0,5.9,0.5,9.9,1.7l3,0.9l-2.7-1.5c-1.5-0.8-2.7-1.7-3.5-2.4c-0.4-0.3-0.7-0.6-0.8-0.8
					c-0.1-0.1-0.1-0.2-0.1-0.2c0,0,0,0,0,0.1c0,0,0,0.1-0.1,0.2c-0.1,0.1-0.2,0.1-0.2,0.1c1.3-0.2,3.7,0.6,6,1.8s4.4,2.6,5.3,3.6
					l1.2,1.2l-0.6-1.6c-0.1-0.3-0.1-0.5,0-0.7c0.1-0.2,0.3-0.3,0.7-0.2c0.7,0.1,2,0.9,3.6,3.6c6.1,10.3,11.9,20.7,20.2,29.2
					c3.3,3.4,8.8,7.5,14,10c2.6,1.2,5.2,2.1,7.2,2.9c1.1,0.4,2.8,1.5,3.6,1.7C210.5,133.4,207.8,131.4,206.5,130.9"/>
				
					<path style="clip-path:url(#SVGID_00000101104405116042111120000001033705665139770551_);fill:none;stroke:#000000;stroke-width:1.8536;stroke-linecap:round;stroke-linejoin:round;stroke-miterlimit:10;" d="
					M206.5,130.9c-2.1-0.8-4.6-1.7-7.2-2.9c-5.2-2.5-10.6-6.5-13.9-9.9c-8.2-8.4-14.1-18.8-20.1-29.1c-1.6-2.8-3-3.8-4.1-3.9
					c-0.6-0.1-1,0.2-1.3,0.5c-0.1,0.1-0.1,0.2-0.2,0.4c-1.1-1-2.9-2.1-4.8-3.1c-2.3-1.2-4.7-2.1-6.4-1.8c-0.1,0-0.2,0.1-0.2,0.1
					c-0.1,0.1-0.1,0.2-0.1,0.2c0,0.1,0,0.2,0.1,0.2c0.1,0.1,0.1,0.2,0.2,0.3c0.2,0.2,0.5,0.5,0.9,0.9c0.4,0.4,1,0.8,1.6,1.3
					c-3.1-0.7-5.7-1.1-7.8-1.1c-2.6,0-4.5,0.4-5.4,1.1c-0.1,0.1-0.2,0.2-0.2,0.4c0,0.1,0,0.3,0.1,0.4c0.1,0.2,0.3,0.3,0.6,0.5
					c0.5,0.3,1.3,0.7,2.4,1.1c1.4,0.5,3.1,1.1,5.2,1.7c-0.3,0-0.6,0-0.9,0c-1.2,0.1-1.9,0.3-2.3,0.7c-0.2,0.2-0.3,0.5-0.3,0.8
					c0,0.3,0.1,0.5,0.3,0.8c0.4,0.5,1,0.9,1.8,1.2c2.2,1,5.6,1.9,8,2.4c-1.3,0.2-2.2,0.4-2.8,0.7c-0.5,0.2-0.8,0.4-0.9,0.8
					c0,0.2,0,0.4,0.1,0.5c0.1,0.2,0.2,0.3,0.4,0.4c0.6,0.5,1.6,0.9,2.9,1.2c1.6,0.5,3.6,0.9,5.4,1c-0.9,0.2-1.6,0.4-2.1,0.6
					c-0.5,0.2-0.8,0.4-1,0.7c-0.2,0.3-0.1,0.7,0.1,1.1c0.4,0.6,1.1,0.9,1.8,1.1c0.7,0.1,1.5,0.1,2.4,0c1.6-0.3,3.3-0.9,4.2-1.5
					c0.6-0.4,1-0.9,1.4-1.6c-0.6,0.3-1.2,0.6-1.8,1c-1.6,1.1-2.5,2.4-2.6,3.4c0,0.4,0,0.8,0.3,1.1c0.2,0.3,0.6,0.5,1,0.5
					c0.5,0.1,1.1-0.1,1.7-0.4c-0.2,0.4-0.3,0.8-0.3,1.1c0,0.3,0,0.6,0.2,0.8c0.1,0.2,0.4,0.4,0.7,0.4c0.5,0.1,1.1,0,1.8-0.4
					c0.4-0.2,0.9-0.5,1.4-0.9c-0.1,0.5-0.1,1.1,0,1.6c0.1,1,0.2,2,0.5,2.8c0.1,0.4,0.3,0.7,0.4,0.9c0.1,0.1,0.2,0.2,0.4,0.3
					c0.2,0,0.4,0,0.5-0.1c0.3-0.2,0.4-0.4,0.5-0.8c0.4,2.4,1.4,4.9,2.3,6.6c0.3,0.6,0.6,1,0.9,1.4c0.3,0.4,0.5,0.6,0.9,0.7
					c0.2,0.1,0.4,0,0.6-0.1c0,0,0.1-0.1,0.1-0.1c0.2,0.6,0.5,1.1,0.9,1.6c0.4,0.5,0.8,0.8,1.4,1c0.2,0.1,0.5,0.1,0.7,0.1
					c-0.3,0.3-0.5,0.5-0.7,0.7c-0.2,0.2-0.3,0.4-0.4,0.6c-0.1,0.2-0.2,0.4-0.1,0.7c0.1,0.2,0.3,0.4,0.6,0.4c0.2,0.1,0.5,0.1,0.9,0.1
					c0.5,0,1.1-0.1,1.8-0.2c-0.1,0.1-0.2,0.2-0.3,0.3c-0.4,0.3-0.6,0.5-0.7,0.8c0,0.1,0,0.3,0,0.5c0.1,0.1,0.2,0.2,0.3,0.3
					c0.2,0.1,0.5,0.2,0.8,0.3c0.5,0.1,1.2,0.2,1.8,0.3c-0.1,0.2-0.2,0.5-0.2,0.7c0,0.4,0.2,0.8,0.4,1.2c0.6,0.7,1.5,1.3,2.7,1.8
					c1.1,0.5,2.4,0.8,3.5,1.1c1.1,0.2,2.1,0.3,2.8,0.1c0.4-0.1,0.8-0.4,1-0.8c-0.4,0-0.8,0.1-1.2,0.1c-1.3,0.2-2.1,0.5-2.6,0.9
					c-0.2,0.2-0.4,0.5-0.5,0.7c0,0.3,0,0.6,0.2,0.8c0.3,0.5,0.9,0.8,1.6,1.1c0.6,0.2,1.3,0.4,2.1,0.4c-0.1,0.3-0.1,0.5-0.1,0.7
					c0,0.3,0.2,0.7,0.5,0.8c0.5,0.4,1.2,0.4,1.9,0.3c0.7-0.1,1.6-0.2,2.3-0.4c0.1,0,0.2,0,0.3-0.1c-0.4,0.3-0.6,0.6-0.8,0.9
					c-0.1,0.2-0.2,0.5-0.1,0.8c0.1,0.3,0.3,0.4,0.6,0.5c0.5,0.2,1.1,0.2,1.9,0c0.4-0.1,0.8-0.2,1.3-0.3c-0.1,0.1-0.1,0.2-0.1,0.3
					c-0.2,0.5-0.1,0.9,0.2,1.2c0.6,0.6,1.7,0.9,2.8,0.8l-0.4-0.3c0,0,0,0,0,0c0.1,0.5,0.2,0.9,0.5,1.4c0.2,0.3,0.5,0.6,0.9,0.7
					c0.7,0.2,1.4,0.2,1.8,0.1c0.4-0.1,0.7-0.1,0.7-0.1s-0.3,0-0.7-0.1c-0.4,0-1.1-0.1-1.6-0.4c-0.2-0.1-0.4-0.3-0.5-0.5
					c-0.2-0.3-0.2-0.7-0.3-1.1c0,0,0,0,0-0.3c-0.1,0-0.2,0-0.3,0c-1.1,0.1-2-0.2-2.3-0.6c-0.2-0.2-0.2-0.3-0.1-0.6
					c0.1-0.3,0.4-0.6,0.9-1l2.1-1.6l-2.4,1c-0.9,0.4-1.8,0.6-2.5,0.7c-0.7,0.1-1.3,0.1-1.5,0c-0.1,0-0.1-0.1-0.1-0.1
					c0,0,0-0.1,0.1-0.2c0.2-0.3,0.7-0.8,1.8-1.5c0.2-0.2,0.5-0.3,0.7-0.4c-0.3-0.1-0.6-0.2-0.9-0.2c-0.5,0-1.1,0.1-1.9,0.3
					c-0.7,0.2-1.5,0.3-2.2,0.4c-0.7,0.1-1.2,0-1.5-0.2c-0.1-0.1-0.2-0.2-0.2-0.4s0-0.5,0.2-0.9c0.1-0.2,0.1-0.3,0.2-0.5
					c-0.2,0-0.4,0-0.5,0c-0.9,0-1.7-0.2-2.3-0.4c-0.6-0.2-1.1-0.6-1.2-0.8c-0.1-0.1-0.1-0.2-0.1-0.3c0-0.1,0.1-0.2,0.2-0.3
					c0.3-0.3,1-0.5,2.2-0.7l-0.2-0.7c-0.4,0.1-1.3,0.1-2.4-0.1c-1.1-0.2-2.3-0.6-3.4-1c-1.1-0.5-2-1-2.4-1.6
					c-0.2-0.3-0.3-0.5-0.3-0.7s0.1-0.5,0.4-0.8c0.2-0.2,0.4-0.3,0.7-0.5c-0.3,0-0.6-0.1-0.9-0.1c-0.8-0.1-1.8-0.2-2.3-0.3
					c-0.3-0.1-0.5-0.2-0.6-0.2c0,0-0.1,0,0,0c0,0,0,0.1,0,0c0,0,0.1-0.2,0.5-0.5c0.3-0.3,0.8-0.7,1.5-1.1c0.5-0.4,1.1-0.7,1.6-1.1
					c-0.6,0.2-1.3,0.3-1.9,0.4c-1.5,0.3-2.6,0.5-3.2,0.5c-0.3,0-0.6,0-0.7,0c-0.1,0-0.1-0.1-0.1,0c0,0,0,0,0-0.1
					c0.1-0.1,0.2-0.3,0.3-0.5c0.3-0.4,0.9-0.9,1.5-1.5l1.3-1.2l-1.6,0.6c-0.6,0.2-1.1,0.2-1.5,0.1c-0.4-0.1-0.7-0.4-1-0.8
					c-0.6-0.8-1-2-1.4-3.2l-1.6-5.8l0.9,5.9c0.1,0.7,0.1,1.2,0.1,1.4c0,0.1-0.1,0.1,0,0.1c0,0,0.1,0,0.1,0c0,0-0.3-0.2-0.5-0.5
					c-0.2-0.3-0.5-0.8-0.8-1.3c-1.2-2.2-2.5-5.8-2.5-8.5l0-4.6l-0.7,4.6c-0.1,0.9-0.3,1.5-0.4,1.9c-0.1,0.4-0.3,0.6-0.3,0.6
					c0,0,0,0,0.1,0s0,0,0,0c-0.1-0.1-0.2-0.3-0.3-0.7c-0.2-0.7-0.4-1.6-0.4-2.6s0-1.9,0.2-2.4l0.5-1.4l-1,1c-0.7,0.7-1.4,1.2-2,1.5
					c-0.6,0.3-1.1,0.4-1.4,0.3c-0.1,0-0.2-0.1-0.2-0.1c0-0.1-0.1-0.2-0.1-0.4c0-0.4,0.3-1.1,1-2.1l1.3-1.9l-1.8,1.4
					c-1.1,0.9-2,1.1-2.5,1.1c-0.3,0-0.4-0.1-0.5-0.2c-0.1-0.1-0.2-0.3-0.1-0.6c0.1-0.7,0.7-1.8,2.3-2.9l-0.4-0.6
					c-0.8,0.5-2.4,1.2-3.9,1.4c-0.8,0.1-1.5,0.1-2.1,0c-0.6-0.1-1.1-0.4-1.4-0.8c-0.1-0.2-0.1-0.2-0.1-0.3c0-0.1,0.3-0.3,0.7-0.4
					c0.8-0.3,2.4-0.7,4.6-1.1l4.5-0.9l-4.6,0.3c-1.9,0.1-5.3-0.4-7.8-1.1c-1.2-0.4-2.3-0.8-2.7-1.1c-0.1-0.1-0.2-0.2-0.2-0.2
					c0,0,0,0,0,0c0,0,0.1-0.2,0.5-0.3c0.7-0.3,2.1-0.6,4.5-0.9c1.2-0.2,2.3-0.3,3.5-0.4c-1.2,0-2.3-0.1-3.5-0.3
					c-1.9-0.3-6.9-1.5-9.7-2.8c-0.7-0.3-1.3-0.7-1.6-1c-0.1-0.2-0.2-0.3-0.2-0.4c0-0.1,0-0.1,0.1-0.2c0.2-0.2,0.8-0.4,1.9-0.5
					s2.7,0,4.8,0.3l6.9,1l-6.8-1.7c-3.8-0.9-6.9-1.9-9-2.7c-1-0.4-1.8-0.8-2.2-1c-0.2-0.1-0.3-0.3-0.4-0.3c0,0,0,0,0,0.1
					c0,0,0,0.1,0,0.1c0.7-0.5,2.4-1,5-1c2.6,0,5.9,0.5,9.9,1.7l3,0.9l-2.7-1.5c-1.5-0.8-2.7-1.7-3.5-2.4c-0.4-0.3-0.7-0.6-0.8-0.8
					c-0.1-0.1-0.1-0.2-0.1-0.2c0,0,0,0,0,0.1c0,0,0,0.1-0.1,0.2c-0.1,0.1-0.2,0.1-0.2,0.1c1.3-0.2,3.7,0.6,6,1.8s4.4,2.6,5.3,3.6
					l1.2,1.2l-0.6-1.6c-0.1-0.3-0.1-0.5,0-0.7c0.1-0.2,0.3-0.3,0.7-0.2c0.7,0.1,2,0.9,3.6,3.6c6.1,10.3,11.9,20.7,20.2,29.2
					c3.3,3.4,8.8,7.5,14,10c2.6,1.2,5.2,2.1,7.2,2.9c1.1,0.4,2.8,1.5,3.6,1.7C210.5,133.4,207.8,131.4,206.5,130.9z"/>
				<path style="clip-path:url(#SVGID_00000101104405116042111120000001033705665139770551_);" d="M159.2,86.9c1,1,1.7,1.9,2.4,2.8
					c0.6,0.8,0.9,1.4,0.9,1.4s-0.2-0.7-0.6-1.6c-0.5-1-1.2-2.1-2.2-3.1c-2.3-2.4-5.5-4.5-9.3-6.3c-2.8-1.4-5.8-2.9-9.2-4.8
					c-6.1-3.6-12.5-9.1-19.8-17.3c-3.9-4.4-10.4-13.3-14.7-18.2c-1.1-1.2-2-2.2-2.8-2.8c-0.4-0.3-0.7-0.5-1.1-0.6
					c-0.2-0.1-0.3-0.1-0.5-0.1c-0.2,0-0.3,0.1-0.5,0.3c-0.2,0.3-0.3,0.6-0.2,1.1c0,0.5,0.1,1.1,0.3,1.8c0.4,1.5,1.1,3.6,2.3,6.5
					c5.3,13.4,14.3,25.5,26.1,32.4c-8-3.2-14.2-7.9-20.2-11.5c-5-3-12.3-8.8-16.9-13.3c-1.8-1.7-3.1-2.7-4.1-3.2
					c-0.5-0.2-0.9-0.3-1.3-0.2c-0.4,0.1-0.7,0.4-0.9,0.7c-0.3,0.7-0.3,1.7,0,3c0.3,1.2,0.7,2.7,1.3,4.1c3.3,8.1,11.2,14.1,18.1,18.4
					c-4.3-2-8.5-5-11.9-7.4c-2.2-1.6-4.1-2.9-5.4-3.5c-0.7-0.3-1.2-0.5-1.7-0.4c-0.2,0.1-0.5,0.2-0.6,0.5c-0.1,0.2-0.1,0.5-0.1,0.8
					c0.1,1.5,1.3,3.7,3.1,6.2c1.9,2.5,4.5,5.3,7.7,8c2.6,2.1,5.5,4.2,8.6,5.8c-2.6-1-4.9-2.2-6.8-3.2c-1.6-0.9-3-1.7-4-2.3
					c-0.5-0.3-0.9-0.5-1.3-0.7c-0.3-0.2-0.6-0.3-0.9-0.2c-0.5,0.1-1,0.4-1.3,0.8c-0.3,0.4-0.3,1-0.1,1.6c0.3,1.3,1.3,3,3.1,5.3
					c4.6,6,10,9.7,16.6,11.6c-2.3-0.3-4.3-0.7-5.9-1.1c-2.6-0.6-4-0.7-4.9-0.5c-0.2,0.1-0.4,0.2-0.5,0.3c-0.1,0.2-0.2,0.4-0.2,0.5
					c0,0.4,0.2,0.7,0.5,1.1c1.1,1.5,3.7,3.4,5.3,4.5c3.2,2.3,7.2,4,11.3,5.2c3.3,0.9,6.4,1.6,9.5,2.1c-2.6,0.1-5.2,0-7.5,0.1
					c-1.7,0-3.3,0.1-4.4,0.2c-0.6,0.1-1.1,0.2-1.5,0.3c-0.4,0.1-0.7,0.3-0.9,0.6c-0.2,0.3-0.2,0.6-0.2,1c0.1,0.3,0.2,0.6,0.5,0.9
					c0.5,0.6,1.3,1.1,2.3,1.6c2,1,5.1,1.9,8.5,2.5c2.4,0.4,4.1,0.7,6.4,0.7c-0.7,0.2-1.4,0.4-1.9,0.5c-1.4,0.5-2.2,0.9-2.6,1.4
					c-0.1,0.2-0.2,0.5-0.2,0.7c0,0.2,0.1,0.5,0.3,0.6c0.3,0.4,0.8,0.7,1.5,0.9c1.3,0.5,3.3,0.9,5.6,1.1c4.6,0.4,10.6-0.1,15.3-2.2
					c1.1-0.5,2.2-1.1,3.2-1.9c-1.2,0.4-2.3,0.8-3.5,1.2c-2.8,1.1-4.6,1.9-5.6,2.6c-0.5,0.3-0.8,0.6-0.9,1c-0.1,0.2,0,0.4,0.1,0.6
					c0.1,0.1,0.3,0.2,0.5,0.2c0.6,0.1,1.3-0.1,2.4-0.4c0.4-0.1,0.7-0.2,1.2-0.3c-0.9,0.5-1.5,0.9-1.9,1.3c-0.4,0.4-0.6,0.8-0.5,1.2
					c0.1,0.4,0.4,0.7,0.8,0.9c0.8,0.4,2.1,0.5,3.6,0.4c0.9,0,1.9-0.1,2.9-0.3c-0.1,0-0.1,0.1-0.2,0.1c-0.4,0.4-0.6,0.7-0.7,1.1
					c0,0.4,0.2,0.7,0.4,1c0.3,0.2,0.7,0.4,1.1,0.5c1,0.3,2.4,0.5,3.7,0.6c-2.6,0.6-4.5,1.1-5.5,1.8c-0.5,0.3-0.8,0.7-0.9,1
					c-0.2,0.4-0.1,0.8,0.1,1.1c0.4,0.6,1.3,1,2.5,1.3c1.7,0.4,4.2,0.4,6.9,0.1c-0.8,0.4-1.5,0.7-2.1,1c-1.1,0.6-1.8,1.2-1.9,1.8
					c-0.1,0.3,0.1,0.7,0.3,0.9c0.2,0.3,0.6,0.5,1,0.7c0.9,0.4,2.1,0.8,3.7,1.2c2.7,0.7,5.2,0.5,7.6,0.2c0,0.1-0.1,0.2-0.1,0.3
					c0,0.2,0.1,0.4,0.2,0.5c0.1,0.1,0.2,0.2,0.4,0.2c0.3,0.1,0.6,0.2,1,0.2c0.6,0.1,1.3,0.1,2,0.1c-0.7,0.1-1.4,0.2-2.1,0.3
					c-0.8,0.1-1.6,0.1-2.2,0.2c-0.3,0-0.5,0.1-0.8,0.2c-0.2,0.1-0.4,0.2-0.5,0.5c-0.1,0.2-0.1,0.5,0,0.8s0.3,0.5,0.5,0.7
					c0.4,0.4,1.1,0.7,1.9,1c1.4,0.5,3.2,0.9,5.3,1c0,0,0,0,0,0c-0.1,0.1-0.2,0.2-0.3,0.4c-0.1,0.2,0,0.4,0,0.5
					c0.2,0.3,0.4,0.4,0.7,0.5c0.3,0.1,0.7,0.2,1.1,0.3c1.1,0.2,2.5,0.3,3.7,0.3c-0.3,0.2-0.5,0.4-0.6,0.5c-0.2,0.2-0.3,0.4-0.3,0.7
					c0,0.2,0.2,0.5,0.4,0.6c0.4,0.3,0.9,0.4,1.6,0.5c0.7,0.1,1.5,0.1,2.5,0.1c2.4-0.1,4.8-0.4,6.9-0.9c2.2-0.5,4-1.1,5.6-1.7
					c2.4-1,3.5-2,3.5-2s-1.2,1-3.6,1.8c-1.6,0.5-3.4,1-5.6,1.4c-2.2,0.4-4.5,0.7-6.8,0.8c-0.9,0-1.7,0-2.4-0.1
					c-0.6-0.1-1.1-0.2-1.3-0.3c-0.1-0.1-0.1-0.1-0.1-0.1c0,0,0-0.1,0.1-0.2c0.2-0.2,0.7-0.6,1.7-1.1l1.9-0.9l-2.1,0.3
					c-0.8,0.1-3.3,0-4.9-0.3c-0.4-0.1-0.8-0.2-1-0.3c-0.3-0.1-0.4-0.2-0.4-0.2c0,0,0,0.1,0,0.1c0,0,0,0,0.1-0.1
					c0.2-0.1,0.5-0.3,1-0.5l1.8-0.6l-1.9,0c-2.6,0-4.9-0.4-6.4-1c-0.8-0.3-1.3-0.6-1.7-0.9c-0.2-0.1-0.3-0.3-0.3-0.4
					c0-0.1,0-0.2,0-0.3c0,0,0,0,0.2-0.1c0.1-0.1,0.3-0.1,0.6-0.1c0.5-0.1,1.3-0.1,2.1-0.2c1.7-0.1,3.8-0.4,5.5-1.4l3.7-2.1l-4,1.5
					c-0.4,0.2-1.3,0.3-2.3,0.3c-1,0-2,0-2.8-0.1c-0.4,0-0.7-0.1-0.9-0.2c-0.1,0-0.2-0.1-0.2-0.1c0,0,0,0,0,0.1c0,0.1,0,0.1,0,0
					c0,0,0.1-0.1,0.3-0.2c0.3-0.1,0.8-0.3,1.5-0.5l5.5-1.5l-5.7,0.8c-3.1,0.4-6.3,1-9.7,0.1c-1.6-0.4-2.8-0.8-3.6-1.2
					c-0.4-0.2-0.7-0.4-0.8-0.5c-0.1-0.2-0.2-0.2-0.1-0.4c0-0.2,0.5-0.8,1.6-1.4c1.1-0.6,2.7-1.4,5-2.3l4.7-1.9l-4.9,1.2
					c-3.9,1-7.6,1-9.8,0.5c-1.1-0.2-1.8-0.6-2-1c-0.1-0.2-0.1-0.3,0-0.5c0.1-0.2,0.3-0.4,0.7-0.7c1.1-0.8,3.8-1.4,7.8-2.3
					c1.4-0.3,2.8-0.6,4.1-1c-1.4,0.2-2.8,0.3-4.2,0.3c-1.7,0-4.6-0.1-6.2-0.6c-0.4-0.1-0.7-0.3-0.9-0.4s-0.2-0.2-0.2-0.4
					c0-0.1,0.1-0.4,0.5-0.7c0.3-0.3,0.9-0.7,1.6-1.1l2.6-1.3l-2.8,0.7c-1.5,0.4-3.2,0.6-4.7,0.7c-1.5,0.1-2.7-0.1-3.3-0.4
					c-0.3-0.1-0.4-0.3-0.4-0.4c0-0.1,0-0.3,0.3-0.6c0.6-0.6,2.2-1.5,5-2.6c1.1-0.4,2.2-0.8,3.4-1.2c-1.2,0.1-2.4,0.3-3.6,0.5
					c-2.1,0.4-3.6,0.9-4.7,1.2c-1.1,0.3-1.8,0.5-2,0.4c-0.1,0-0.2-0.1-0.2-0.1c0,0,0,0.1,0,0.1c0,0,0.2-0.3,0.6-0.6
					c0.9-0.6,2.7-1.5,5.4-2.5l-0.3-0.6c-4.6,2.1-10.5,2.5-15,2.2c-2.3-0.2-4.2-0.6-5.4-1.1c-0.6-0.2-1-0.5-1.2-0.7
					c-0.1-0.1-0.1-0.2-0.1-0.3s0-0.1,0.1-0.2c0.2-0.2,0.9-0.7,2.3-1.2c1.4-0.4,3.4-0.9,6.1-1.4l7.1-1.3l-7.2,0.6
					c-4.9,0.4-6.9,0.2-10.6-0.4c-3.4-0.6-6.4-1.5-8.3-2.4c-1-0.5-1.7-1-2.1-1.4c-0.2-0.2-0.3-0.4-0.3-0.6c0-0.2,0-0.3,0.1-0.5
					c0,0,0.2-0.2,0.5-0.3c0.3-0.1,0.8-0.2,1.3-0.3c1.1-0.1,2.6-0.2,4.4-0.2c3.5,0,7.9,0,11.9-0.3c2-0.1,4-0.4,6-0.7
					c-2,0.1-4,0.2-6,0c-4.5-0.3-8.9-1.3-13.8-2.6c-4-1.1-8-2.8-11.1-5c-1.6-1.1-4.2-3.1-5.1-4.4c-0.2-0.3-0.3-0.6-0.3-0.7
					c0-0.1,0-0.1,0-0.1c0,0,0.1-0.1,0.2-0.1c0.5-0.2,2-0.1,4.5,0.5c2.7,0.6,6.5,1.3,11.3,1.5c2.4,0.1,4.8,0,7.2-0.3
					c-2.4,0-4.8-0.1-7.1-0.4c-9-1.3-15.7-5-21.4-12.4c-1.8-2.3-2.7-4-2.9-5.1c-0.1-0.5-0.1-0.9,0.1-1.1c0.1-0.2,0.4-0.4,0.8-0.5
					c0,0,0.2,0,0.5,0.2c0.3,0.1,0.7,0.4,1.2,0.6c1,0.6,2.3,1.4,4,2.3c3.3,1.8,7.9,4,13.5,5.4l8.6,2.1l-8.4-2.8
					c-5.3-1.7-10.4-4.9-14.7-8.5c-3.1-2.6-5.7-5.4-7.5-7.9c-1.8-2.5-2.9-4.6-3-5.9c0-0.3,0-0.4,0-0.5c0-0.1,0-0.1,0.1-0.1
					c0.1,0,0.6,0.1,1.2,0.4c1.2,0.6,3.1,1.9,5.3,3.5c4.4,3.1,10.3,7.3,15.9,9c0.8,0.2,1.6,0.4,2.4,0.6c-0.7-0.4-1.4-0.8-2.1-1.2
					c-7.5-4.4-17.5-11-21.3-20.2c-0.6-1.5-1.1-2.9-1.3-4c-0.2-1.2-0.2-2.1-0.1-2.5c0.1-0.2,0.2-0.3,0.4-0.3c0.2,0,0.5,0,0.9,0.2
					c0.9,0.4,2.1,1.3,3.9,3c4.6,4.6,12,10.4,17,13.4c6.9,4.2,14.4,10.1,24.7,13.1c1.6,0.5,3.2,0.9,4.9,1.2c-1.6-0.5-3.1-1.1-4.7-1.8
					c-13.7-6.3-24-19.4-29.9-34.2c-1.1-2.9-1.9-5-2.2-6.5c-0.2-0.7-0.3-1.3-0.3-1.7c0-0.4,0.1-0.6,0.1-0.6c0,0,0,0,0,0
					c0,0,0.1,0,0.2,0c0.2,0.1,0.5,0.2,0.8,0.5c0.7,0.6,1.7,1.5,2.7,2.8c4.3,4.9,10.8,13.8,14.8,18.2c7.3,8.2,13.8,13.7,20,17.4
					c3.3,2,6.4,3.5,9.2,4.9C153.9,82.6,157,84.6,159.2,86.9z"/>
				
					<path style="clip-path:url(#SVGID_00000101104405116042111120000001033705665139770551_);fill:none;stroke:#000000;stroke-width:1.8536;stroke-linecap:round;stroke-linejoin:round;stroke-miterlimit:10;" d="
					M159.2,86.9c1,1,1.7,1.9,2.4,2.8c0.6,0.8,0.9,1.4,0.9,1.4s-0.2-0.7-0.6-1.6c-0.5-1-1.2-2.1-2.2-3.1c-2.3-2.4-5.5-4.5-9.3-6.3
					c-2.8-1.4-5.8-2.9-9.2-4.8c-6.1-3.6-12.5-9.1-19.8-17.3c-3.9-4.4-10.4-13.3-14.7-18.2c-1.1-1.2-2-2.2-2.8-2.8
					c-0.4-0.3-0.7-0.5-1.1-0.6c-0.2-0.1-0.3-0.1-0.5-0.1c-0.2,0-0.3,0.1-0.5,0.3c-0.2,0.3-0.3,0.6-0.2,1.1c0,0.5,0.1,1.1,0.3,1.8
					c0.4,1.5,1.1,3.6,2.3,6.5c5.3,13.4,14.3,25.5,26.1,32.4c-8-3.2-14.2-7.9-20.2-11.5c-5-3-12.3-8.8-16.9-13.3
					c-1.8-1.7-3.1-2.7-4.1-3.2c-0.5-0.2-0.9-0.3-1.3-0.2c-0.4,0.1-0.7,0.4-0.9,0.7c-0.3,0.7-0.3,1.7,0,3c0.3,1.2,0.7,2.7,1.3,4.1
					c3.3,8.1,11.2,14.1,18.1,18.4c-4.3-2-8.5-5-11.9-7.4c-2.2-1.6-4.1-2.9-5.4-3.5c-0.7-0.3-1.2-0.5-1.7-0.4
					c-0.2,0.1-0.5,0.2-0.6,0.5c-0.1,0.2-0.1,0.5-0.1,0.8c0.1,1.5,1.3,3.7,3.1,6.2c1.9,2.5,4.5,5.3,7.7,8c2.6,2.1,5.5,4.2,8.6,5.8
					c-2.6-1-4.9-2.2-6.8-3.2c-1.6-0.9-3-1.7-4-2.3c-0.5-0.3-0.9-0.5-1.3-0.7c-0.3-0.2-0.6-0.3-0.9-0.2c-0.5,0.1-1,0.4-1.3,0.8
					c-0.3,0.4-0.3,1-0.1,1.6c0.3,1.3,1.3,3,3.1,5.3c4.6,6,10,9.7,16.6,11.6c-2.3-0.3-4.3-0.7-5.9-1.1c-2.6-0.6-4-0.7-4.9-0.5
					c-0.2,0.1-0.4,0.2-0.5,0.3c-0.1,0.2-0.2,0.4-0.2,0.5c0,0.4,0.2,0.7,0.5,1.1c1.1,1.5,3.7,3.4,5.3,4.5c3.2,2.3,7.2,4,11.3,5.2
					c3.3,0.9,6.4,1.6,9.5,2.1c-2.6,0.1-5.2,0-7.5,0.1c-1.7,0-3.3,0.1-4.4,0.2c-0.6,0.1-1.1,0.2-1.5,0.3c-0.4,0.1-0.7,0.3-0.9,0.6
					c-0.2,0.3-0.2,0.6-0.2,1c0.1,0.3,0.2,0.6,0.5,0.9c0.5,0.6,1.3,1.1,2.3,1.6c2,1,5.1,1.9,8.5,2.5c2.4,0.4,4.1,0.7,6.4,0.7
					c-0.7,0.2-1.4,0.4-1.9,0.5c-1.4,0.5-2.2,0.9-2.6,1.4c-0.1,0.2-0.2,0.5-0.2,0.7c0,0.2,0.1,0.5,0.3,0.6c0.3,0.4,0.8,0.7,1.5,0.9
					c1.3,0.5,3.3,0.9,5.6,1.1c4.6,0.4,10.6-0.1,15.3-2.2c1.1-0.5,2.2-1.1,3.2-1.9c-1.2,0.4-2.3,0.8-3.5,1.2
					c-2.8,1.1-4.6,1.9-5.6,2.6c-0.5,0.3-0.8,0.6-0.9,1c-0.1,0.2,0,0.4,0.1,0.6c0.1,0.1,0.3,0.2,0.5,0.2c0.6,0.1,1.3-0.1,2.4-0.4
					c0.4-0.1,0.7-0.2,1.2-0.3c-0.9,0.5-1.5,0.9-1.9,1.3c-0.4,0.4-0.6,0.8-0.5,1.2c0.1,0.4,0.4,0.7,0.8,0.9c0.8,0.4,2.1,0.5,3.6,0.4
					c0.9,0,1.9-0.1,2.9-0.3c-0.1,0-0.1,0.1-0.2,0.1c-0.4,0.4-0.6,0.7-0.7,1.1c0,0.4,0.2,0.7,0.4,1c0.3,0.2,0.7,0.4,1.1,0.5
					c1,0.3,2.4,0.5,3.7,0.6c-2.6,0.6-4.5,1.1-5.5,1.8c-0.5,0.3-0.8,0.7-0.9,1c-0.2,0.4-0.1,0.8,0.1,1.1c0.4,0.6,1.3,1,2.5,1.3
					c1.7,0.4,4.2,0.4,6.9,0.1c-0.8,0.4-1.5,0.7-2.1,1c-1.1,0.6-1.8,1.2-1.9,1.8c-0.1,0.3,0.1,0.7,0.3,0.9c0.2,0.3,0.6,0.5,1,0.7
					c0.9,0.4,2.1,0.8,3.7,1.2c2.7,0.7,5.2,0.5,7.6,0.2c0,0.1-0.1,0.2-0.1,0.3c0,0.2,0.1,0.4,0.2,0.5c0.1,0.1,0.2,0.2,0.4,0.2
					c0.3,0.1,0.6,0.2,1,0.2c0.6,0.1,1.3,0.1,2,0.1c-0.7,0.1-1.4,0.2-2.1,0.3c-0.8,0.1-1.6,0.1-2.2,0.2c-0.3,0-0.5,0.1-0.8,0.2
					c-0.2,0.1-0.4,0.2-0.5,0.5c-0.1,0.2-0.1,0.5,0,0.8s0.3,0.5,0.5,0.7c0.4,0.4,1.1,0.7,1.9,1c1.4,0.5,3.2,0.9,5.3,1c0,0,0,0,0,0
					c-0.1,0.1-0.2,0.2-0.3,0.4c-0.1,0.2,0,0.4,0,0.5c0.2,0.3,0.4,0.4,0.7,0.5c0.3,0.1,0.7,0.2,1.1,0.3c1.1,0.2,2.5,0.3,3.7,0.3
					c-0.3,0.2-0.5,0.4-0.6,0.5c-0.2,0.2-0.3,0.4-0.3,0.7c0,0.2,0.2,0.5,0.4,0.6c0.4,0.3,0.9,0.4,1.6,0.5c0.7,0.1,1.5,0.1,2.5,0.1
					c2.4-0.1,4.8-0.4,6.9-0.9c2.2-0.5,4-1.1,5.6-1.7c2.4-1,3.5-2,3.5-2s-1.2,1-3.6,1.8c-1.6,0.5-3.4,1-5.6,1.4
					c-2.2,0.4-4.5,0.7-6.8,0.8c-0.9,0-1.7,0-2.4-0.1c-0.6-0.1-1.1-0.2-1.3-0.3c-0.1-0.1-0.1-0.1-0.1-0.1c0,0,0-0.1,0.1-0.2
					c0.2-0.2,0.7-0.6,1.7-1.1l1.9-0.9l-2.1,0.3c-0.8,0.1-3.3,0-4.9-0.3c-0.4-0.1-0.8-0.2-1-0.3c-0.3-0.1-0.4-0.2-0.4-0.2
					c0,0,0,0.1,0,0.1c0,0,0,0,0.1-0.1c0.2-0.1,0.5-0.3,1-0.5l1.8-0.6l-1.9,0c-2.6,0-4.9-0.4-6.4-1c-0.8-0.3-1.3-0.6-1.7-0.9
					c-0.2-0.1-0.3-0.3-0.3-0.4c0-0.1,0-0.2,0-0.3c0,0,0,0,0.2-0.1c0.1-0.1,0.3-0.1,0.6-0.1c0.5-0.1,1.3-0.1,2.1-0.2
					c1.7-0.1,3.8-0.4,5.5-1.4l3.7-2.1l-4,1.5c-0.4,0.2-1.3,0.3-2.3,0.3c-1,0-2,0-2.8-0.1c-0.4,0-0.7-0.1-0.9-0.2
					c-0.1,0-0.2-0.1-0.2-0.1c0,0,0,0,0,0.1c0,0.1,0,0.1,0,0c0,0,0.1-0.1,0.3-0.2c0.3-0.1,0.8-0.3,1.5-0.5l5.5-1.5l-5.7,0.8
					c-3.1,0.4-6.3,1-9.7,0.1c-1.6-0.4-2.8-0.8-3.6-1.2c-0.4-0.2-0.7-0.4-0.8-0.5c-0.1-0.2-0.2-0.2-0.1-0.4c0-0.2,0.5-0.8,1.6-1.4
					c1.1-0.6,2.7-1.4,5-2.3l4.7-1.9l-4.9,1.2c-3.9,1-7.6,1-9.8,0.5c-1.1-0.2-1.8-0.6-2-1c-0.1-0.2-0.1-0.3,0-0.5
					c0.1-0.2,0.3-0.4,0.7-0.7c1.1-0.8,3.8-1.4,7.8-2.3c1.4-0.3,2.8-0.6,4.1-1c-1.4,0.2-2.8,0.3-4.2,0.3c-1.7,0-4.6-0.1-6.2-0.6
					c-0.4-0.1-0.7-0.3-0.9-0.4s-0.2-0.2-0.2-0.4c0-0.1,0.1-0.4,0.5-0.7c0.3-0.3,0.9-0.7,1.6-1.1l2.6-1.3l-2.8,0.7
					c-1.5,0.4-3.2,0.6-4.7,0.7c-1.5,0.1-2.7-0.1-3.3-0.4c-0.3-0.1-0.4-0.3-0.4-0.4c0-0.1,0-0.3,0.3-0.6c0.6-0.6,2.2-1.5,5-2.6
					c1.1-0.4,2.2-0.8,3.4-1.2c-1.2,0.1-2.4,0.3-3.6,0.5c-2.1,0.4-3.6,0.9-4.7,1.2c-1.1,0.3-1.8,0.5-2,0.4c-0.1,0-0.2-0.1-0.2-0.1
					c0,0,0,0.1,0,0.1c0,0,0.2-0.3,0.6-0.6c0.9-0.6,2.7-1.5,5.4-2.5l-0.3-0.6c-4.6,2.1-10.5,2.5-15,2.2c-2.3-0.2-4.2-0.6-5.4-1.1
					c-0.6-0.2-1-0.5-1.2-0.7c-0.1-0.1-0.1-0.2-0.1-0.3s0-0.1,0.1-0.2c0.2-0.2,0.9-0.7,2.3-1.2c1.4-0.4,3.4-0.9,6.1-1.4l7.1-1.3
					l-7.2,0.6c-4.9,0.4-6.9,0.2-10.6-0.4c-3.4-0.6-6.4-1.5-8.3-2.4c-1-0.5-1.7-1-2.1-1.4c-0.2-0.2-0.3-0.4-0.3-0.6
					c0-0.2,0-0.3,0.1-0.5c0,0,0.2-0.2,0.5-0.3c0.3-0.1,0.8-0.2,1.3-0.3c1.1-0.1,2.6-0.2,4.4-0.2c3.5,0,7.9,0,11.9-0.3
					c2-0.1,4-0.4,6-0.7c-2,0.1-4,0.2-6,0c-4.5-0.3-8.9-1.3-13.8-2.6c-4-1.1-8-2.8-11.1-5c-1.6-1.1-4.2-3.1-5.1-4.4
					c-0.2-0.3-0.3-0.6-0.3-0.7c0-0.1,0-0.1,0-0.1c0,0,0.1-0.1,0.2-0.1c0.5-0.2,2-0.1,4.5,0.5c2.7,0.6,6.5,1.3,11.3,1.5
					c2.4,0.1,4.8,0,7.2-0.3c-2.4,0-4.8-0.1-7.1-0.4c-9-1.3-15.7-5-21.4-12.4c-1.8-2.3-2.7-4-2.9-5.1c-0.1-0.5-0.1-0.9,0.1-1.1
					c0.1-0.2,0.4-0.4,0.8-0.5c0,0,0.2,0,0.5,0.2c0.3,0.1,0.7,0.4,1.2,0.6c1,0.6,2.3,1.4,4,2.3c3.3,1.8,7.9,4,13.5,5.4l8.6,2.1
					l-8.4-2.8c-5.3-1.7-10.4-4.9-14.7-8.5c-3.1-2.6-5.7-5.4-7.5-7.9c-1.8-2.5-2.9-4.6-3-5.9c0-0.3,0-0.4,0-0.5c0-0.1,0-0.1,0.1-0.1
					c0.1,0,0.6,0.1,1.2,0.4c1.2,0.6,3.1,1.9,5.3,3.5c4.4,3.1,10.3,7.3,15.9,9c0.8,0.2,1.6,0.4,2.4,0.6c-0.7-0.4-1.4-0.8-2.1-1.2
					c-7.5-4.4-17.5-11-21.3-20.2c-0.6-1.5-1.1-2.9-1.3-4c-0.2-1.2-0.2-2.1-0.1-2.5c0.1-0.2,0.2-0.3,0.4-0.3c0.2,0,0.5,0,0.9,0.2
					c0.9,0.4,2.1,1.3,3.9,3c4.6,4.6,12,10.4,17,13.4c6.9,4.2,14.4,10.1,24.7,13.1c1.6,0.5,3.2,0.9,4.9,1.2c-1.6-0.5-3.1-1.1-4.7-1.8
					c-13.7-6.3-24-19.4-29.9-34.2c-1.1-2.9-1.9-5-2.2-6.5c-0.2-0.7-0.3-1.3-0.3-1.7c0-0.4,0.1-0.6,0.1-0.6c0,0,0,0,0,0
					c0,0,0.1,0,0.2,0c0.2,0.1,0.5,0.2,0.8,0.5c0.7,0.6,1.7,1.5,2.7,2.8c4.3,4.9,10.8,13.8,14.8,18.2c7.3,8.2,13.8,13.7,20,17.4
					c3.3,2,6.4,3.5,9.2,4.9C153.9,82.6,157,84.6,159.2,86.9z"/>
				<path style="clip-path:url(#SVGID_00000101104405116042111120000001033705665139770551_);" d="M131.8,83c0.2,0,0.4,0,0.6,0
					c1.2,0.1,2.3,0.2,3.2,0.2c0.9,0.1,1.4,0.1,1.4,0.1s-0.5-0.2-1.4-0.4c-0.8-0.2-2-0.5-3.2-0.6c-0.2,0-0.4,0-0.6,0
					c-0.4,0-0.7,0-1,0.3c-0.1,0.1-0.1,0.4-0.1,0.5c0,0.2,0.1,0.3,0.2,0.4c0.2,0.2,0.4,0.4,0.6,0.6c-1.3-0.5-2.4-0.8-3.2-1
					c-0.7-0.1-1.2-0.2-1.7-0.1c-0.4,0.1-0.8,0.2-0.9,0.6c-0.1,0.3-0.1,0.7,0.1,1.2c0.2,0.4,0.5,0.9,1,1.4c0.7,0.7,1.7,1.5,3.1,2.3
					c-1-0.2-1.9-0.5-2.6-0.8c-2.4-1.1-3.9-1.5-5-1.5c-0.5,0-0.9,0.2-1.2,0.5c-0.3,0.3-0.3,0.7-0.3,1.2c0.1,0.8,0.7,1.8,1.5,2.9
					c0.8,1.1,1.8,2.2,2.9,3.2c2.9,2.7,6.5,4.5,9.8,5.7c-2.3-0.5-4.7-1-7.5-1.1c-0.6,0-1.2,0-1.6,0.2c-0.4,0.1-0.7,0.4-0.9,0.7
					c-0.3,0.7-0.1,1.5,0.5,2.3c1.1,1.6,3.6,3.5,6.6,4.6c5.4,2,8.8,2.4,12.4,2.5c-1.8,0.2-3.3,0.3-4.5,0.4c-1.1,0.1-1.9,0.1-2.6,0.2
					c-0.7,0.1-1.2,0.3-1.5,0.7c-0.2,0.3-0.3,0.7-0.1,1.1c0.1,0.4,0.4,0.7,0.7,1c0.7,0.6,1.8,1.1,3.1,1.5c2.2,0.7,5,1.2,7.7,1
					c-0.4,0.2-0.6,0.5-0.9,0.7c-0.4,0.5-0.6,1-0.5,1.5c0.2,0.5,0.6,0.7,1.2,1c0.6,0.2,1.3,0.3,2.1,0.4c3.2,0.2,8-0.7,10.3-3.3
					c0.4-0.5,0.8-1,1-1.6c-0.5,0.4-1,0.7-1.5,1.2c-1.1,0.9-1.7,1.6-2,2.2c-0.1,0.3-0.2,0.6-0.1,0.8c0.1,0.3,0.3,0.5,0.5,0.6
					c0.4,0.2,1,0.2,1.7,0.1c-0.5,0.4-1,0.8-1.3,1.1c-0.8,0.8-1.4,1.4-1.4,2c0,0.3,0.1,0.7,0.4,0.9c0.3,0.2,0.6,0.3,1.1,0.4
					c0.5,0.1,1.2,0.1,2,0.1c-1.2,0.6-2,1.1-2.5,1.6c-0.3,0.4-0.5,0.8-0.4,1.2c0.1,0.4,0.4,0.7,0.9,0.9c0.8,0.4,2.1,0.6,3.7,0.7
					c0.9,0,1.9,0,2.9-0.1c-0.2,0.1-0.4,0.3-0.6,0.4c-0.3,0.2-0.6,0.4-0.7,0.6c-0.2,0.2-0.3,0.4-0.3,0.7c0,0.3,0.2,0.5,0.4,0.6
					c0.2,0.1,0.5,0.2,0.8,0.2c0.1,0,0.3,0,0.4,0c-0.5,0.3-0.9,0.5-1.3,0.7c-0.4,0.3-0.7,0.5-0.8,0.8c-0.2,0.3-0.2,0.7-0.1,0.9
					c0.2,0.3,0.4,0.5,0.8,0.7c0.4,0.2,0.8,0.3,1.4,0.4c0.9,0.2,2,0.4,3.3,0.5c-0.2,0.1-0.3,0.2-0.5,0.3c-0.4,0.3-0.7,0.6-0.8,1
					c-0.1,0.4,0.1,0.8,0.3,1.1c0.3,0.3,0.7,0.6,1.1,0.8c2.5,1.3,4,1.9,8,1.8c-0.1,0.1-0.2,0.1-0.3,0.2c-0.6,0.3-0.9,0.6-1,1.1
					c-0.1,0.4,0.2,0.8,0.5,1.1c0.3,0.3,0.8,0.5,1.4,0.7c1.7,0.7,4.3,1.2,6.2,1.3c-0.2,0.1-0.4,0.3-0.6,0.4c-0.4,0.3-0.7,0.7-0.7,1.2
					c0,0.4,0.3,0.8,0.6,1.1c0.3,0.3,0.8,0.5,1.3,0.7c1.7,0.7,4.2,1,6.4,0.8c0,0.1-0.1,0.1-0.1,0.2c-0.1,0.2,0,0.4,0.1,0.5
					c0.2,0.3,0.5,0.4,0.9,0.4c0.4,0.1,0.8,0.1,1.3,0.1c2,0,3.9-0.3,5.5-0.7c1-0.3,1.8-0.5,2.5-0.8c1.1-0.5,1.5-1,1.5-1
					s-0.5,0.5-1.6,0.8c-0.7,0.2-1.5,0.4-2.5,0.6c-1.6,0.3-3.5,0.5-5.4,0.5c-0.5,0-0.9,0-1.2-0.1c-0.3-0.1-0.4-0.2-0.4-0.1
					c0,0,0,0.1,0,0.1c0,0,0-0.1,0.1-0.1c0.2-0.2,0.6-0.4,1.1-0.7l4.3-2l-4.5,1.3c-2.2,0.7-5.7,0.4-7.7-0.4c-0.5-0.2-0.9-0.4-1.1-0.6
					c-0.3-0.2-0.3-0.4-0.4-0.6c0-0.2,0.1-0.4,0.4-0.6c0.3-0.3,0.9-0.6,1.7-0.9l1.8-0.7h-1.9c-1.6,0-5.3-0.6-7.3-1.4
					c-0.5-0.2-0.9-0.4-1.2-0.6c-0.2-0.2-0.3-0.3-0.3-0.4c0-0.1,0.2-0.3,0.7-0.6c0.5-0.3,1.2-0.5,2.3-0.8l3-0.8l-3.1,0.1
					c-5.7,0.2-7.1-0.2-9.9-1.7c-0.4-0.2-0.8-0.5-0.9-0.7c-0.2-0.2-0.2-0.3-0.2-0.5c0-0.1,0.2-0.3,0.5-0.6c0.4-0.2,0.9-0.5,1.7-0.7
					c0.8-0.2,1.5-0.4,2.3-0.5c-0.8,0-1.6-0.1-2.4-0.2c-2-0.2-3.6-0.4-4.7-0.6c-0.6-0.1-1-0.3-1.3-0.4c-0.3-0.1-0.5-0.3-0.5-0.4
					c0-0.1-0.1-0.1,0-0.3c0.1-0.2,0.3-0.4,0.7-0.6c0.7-0.5,1.9-1.1,3.6-1.8l4.2-1.8l-4.5,1.1c-1.3,0.3-2.3,0.5-2.9,0.5
					c-0.3,0-0.5-0.1-0.5-0.1c-0.1,0,0,0,0,0c0,0,0-0.1,0.2-0.3c0.1-0.1,0.3-0.3,0.6-0.5c0.6-0.4,1.4-0.9,2.5-1.3l3-1.3l-3.2,0.6
					c-1.7,0.3-3.4,0.5-4.9,0.4c-1.5,0-2.8-0.3-3.4-0.6c-0.3-0.2-0.5-0.3-0.5-0.5c0-0.1,0-0.3,0.3-0.6c0.5-0.6,1.9-1.4,4.4-2.3l3-1.1
					l-3.1,0.4c-2,0.2-3.3,0.3-4.2,0.2c-0.4-0.1-0.7-0.2-0.8-0.3c-0.1-0.1-0.2-0.1-0.1-0.3c0-0.3,0.4-0.9,1.2-1.6s1.9-1.6,3.4-2.5
					l5.3-3.6l-5.6,3c-0.8,0.4-1.6,0.7-2.2,0.8c-0.6,0.1-1.2,0.1-1.4,0c-0.1,0-0.1-0.1-0.1-0.1c0-0.1,0-0.2,0.1-0.4
					c0.2-0.4,0.8-1.1,1.8-1.9l-0.5-0.5c-2,2.3-6.7,3.2-9.7,3c-0.8-0.1-1.4-0.2-1.9-0.3c-0.5-0.2-0.7-0.4-0.8-0.6
					c-0.1-0.2,0-0.4,0.3-0.8c0.4-0.4,1-0.8,2.1-1.4l1.9-1L149,114c-3,0.4-6.4,0-8.9-0.9c-1.3-0.4-2.3-0.9-2.9-1.4
					c-0.3-0.2-0.5-0.5-0.5-0.7c-0.1-0.2-0.1-0.3,0.1-0.5c0.1-0.1,0.4-0.3,1-0.4s1.4-0.2,2.5-0.2c2.1-0.1,5.1-0.3,8.9-1.1
					c1-0.2,1.9-0.4,2.9-0.6c-1,0-2,0-3,0c-5.7,0-9.2,0.3-16.5-2.5c-2.9-1.1-5.3-2.9-6.3-4.4c-0.5-0.7-0.6-1.3-0.4-1.6
					c0.1-0.2,0.2-0.3,0.5-0.4c0.3-0.1,0.7-0.2,1.3-0.1c4.2,0.2,7.5,1.4,11.4,1.8c0.9,0.1,1.8,0.1,2.7,0.1c-0.9-0.2-1.7-0.5-2.6-0.8
					c-4.2-1.3-9.5-3.2-13.4-6.9c-1.1-1-2.1-2.1-2.8-3.1c-0.8-1-1.3-2-1.4-2.6c0-0.3,0-0.5,0.1-0.6c0.1-0.1,0.3-0.2,0.7-0.2
					c0.8,0,2.3,0.4,4.7,1.4c1.5,0.7,3.3,1,5.2,1.4l3,0.7l-2.8-1.4c-2.6-1.3-4.3-2.5-5.2-3.4c-0.5-0.5-0.7-0.9-0.9-1.2
					c-0.1-0.3-0.1-0.5-0.1-0.6c0-0.1,0.1-0.1,0.4-0.2c0.3,0,0.8,0,1.4,0.1c1.3,0.3,3.2,0.9,5.8,2.1l3.8,1.7l-3.5-2.3
					c-1.6-1.1-2.6-1.8-2.9-2.3c-0.1-0.1-0.1-0.2-0.1-0.2c0,0,0,0.1,0,0.1C131.3,83.1,131.4,83,131.8,83z"/>
				
					<path style="clip-path:url(#SVGID_00000101104405116042111120000001033705665139770551_);fill:none;stroke:#000000;stroke-width:1.8536;stroke-linecap:round;stroke-linejoin:round;stroke-miterlimit:10;" d="
					M131.8,83c0.2,0,0.4,0,0.6,0c1.2,0.1,2.3,0.2,3.2,0.2c0.9,0.1,1.4,0.1,1.4,0.1s-0.5-0.2-1.4-0.4c-0.8-0.2-2-0.5-3.2-0.6
					c-0.2,0-0.4,0-0.6,0c-0.4,0-0.7,0-1,0.3c-0.1,0.1-0.1,0.4-0.1,0.5c0,0.2,0.1,0.3,0.2,0.4c0.2,0.2,0.4,0.4,0.6,0.6
					c-1.3-0.5-2.4-0.8-3.2-1c-0.7-0.1-1.2-0.2-1.7-0.1c-0.4,0.1-0.8,0.2-0.9,0.6c-0.1,0.3-0.1,0.7,0.1,1.2c0.2,0.4,0.5,0.9,1,1.4
					c0.7,0.7,1.7,1.5,3.1,2.3c-1-0.2-1.9-0.5-2.6-0.8c-2.4-1.1-3.9-1.5-5-1.5c-0.5,0-0.9,0.2-1.2,0.5c-0.3,0.3-0.3,0.7-0.3,1.2
					c0.1,0.8,0.7,1.8,1.5,2.9c0.8,1.1,1.8,2.2,2.9,3.2c2.9,2.7,6.5,4.5,9.8,5.7c-2.3-0.5-4.7-1-7.5-1.1c-0.6,0-1.2,0-1.6,0.2
					c-0.4,0.1-0.7,0.4-0.9,0.7c-0.3,0.7-0.1,1.5,0.5,2.3c1.1,1.6,3.6,3.5,6.6,4.6c5.4,2,8.8,2.4,12.4,2.5c-1.8,0.2-3.3,0.3-4.5,0.4
					c-1.1,0.1-1.9,0.1-2.6,0.2c-0.7,0.1-1.2,0.3-1.5,0.7c-0.2,0.3-0.3,0.7-0.1,1.1c0.1,0.4,0.4,0.7,0.7,1c0.7,0.6,1.8,1.1,3.1,1.5
					c2.2,0.7,5,1.2,7.7,1c-0.4,0.2-0.6,0.5-0.9,0.7c-0.4,0.5-0.6,1-0.5,1.5c0.2,0.5,0.6,0.7,1.2,1c0.6,0.2,1.3,0.3,2.1,0.4
					c3.2,0.2,8-0.7,10.3-3.3c0.4-0.5,0.8-1,1-1.6c-0.5,0.4-1,0.7-1.5,1.2c-1.1,0.9-1.7,1.6-2,2.2c-0.1,0.3-0.2,0.6-0.1,0.8
					c0.1,0.3,0.3,0.5,0.5,0.6c0.4,0.2,1,0.2,1.7,0.1c-0.5,0.4-1,0.8-1.3,1.1c-0.8,0.8-1.4,1.4-1.4,2c0,0.3,0.1,0.7,0.4,0.9
					c0.3,0.2,0.6,0.3,1.1,0.4c0.5,0.1,1.2,0.1,2,0.1c-1.2,0.6-2,1.1-2.5,1.6c-0.3,0.4-0.5,0.8-0.4,1.2c0.1,0.4,0.4,0.7,0.9,0.9
					c0.8,0.4,2.1,0.6,3.7,0.7c0.9,0,1.9,0,2.9-0.1c-0.2,0.1-0.4,0.3-0.6,0.4c-0.3,0.2-0.6,0.4-0.7,0.6c-0.2,0.2-0.3,0.4-0.3,0.7
					c0,0.3,0.2,0.5,0.4,0.6c0.2,0.1,0.5,0.2,0.8,0.2c0.1,0,0.3,0,0.4,0c-0.5,0.3-0.9,0.5-1.3,0.7c-0.4,0.3-0.7,0.5-0.8,0.8
					c-0.2,0.3-0.2,0.7-0.1,0.9c0.2,0.3,0.4,0.5,0.8,0.7c0.4,0.2,0.8,0.3,1.4,0.4c0.9,0.2,2,0.4,3.3,0.5c-0.2,0.1-0.3,0.2-0.5,0.3
					c-0.4,0.3-0.7,0.6-0.8,1c-0.1,0.4,0.1,0.8,0.3,1.1c0.3,0.3,0.7,0.6,1.1,0.8c2.5,1.3,4,1.9,8,1.8c-0.1,0.1-0.2,0.1-0.3,0.2
					c-0.6,0.3-0.9,0.6-1,1.1c-0.1,0.4,0.2,0.8,0.5,1.1c0.3,0.3,0.8,0.5,1.4,0.7c1.7,0.7,4.3,1.2,6.2,1.3c-0.2,0.1-0.4,0.3-0.6,0.4
					c-0.4,0.3-0.7,0.7-0.7,1.2c0,0.4,0.3,0.8,0.6,1.1c0.3,0.3,0.8,0.5,1.3,0.7c1.7,0.7,4.2,1,6.4,0.8c0,0.1-0.1,0.1-0.1,0.2
					c-0.1,0.2,0,0.4,0.1,0.5c0.2,0.3,0.5,0.4,0.9,0.4c0.4,0.1,0.8,0.1,1.3,0.1c2,0,3.9-0.3,5.5-0.7c1-0.3,1.8-0.5,2.5-0.8
					c1.1-0.5,1.5-1,1.5-1s-0.5,0.5-1.6,0.8c-0.7,0.2-1.5,0.4-2.5,0.6c-1.6,0.3-3.5,0.5-5.4,0.5c-0.5,0-0.9,0-1.2-0.1
					c-0.3-0.1-0.4-0.2-0.4-0.1c0,0,0,0.1,0,0.1c0,0,0-0.1,0.1-0.1c0.2-0.2,0.6-0.4,1.1-0.7l4.3-2l-4.5,1.3c-2.2,0.7-5.7,0.4-7.7-0.4
					c-0.5-0.2-0.9-0.4-1.1-0.6c-0.3-0.2-0.3-0.4-0.4-0.6c0-0.2,0.1-0.4,0.4-0.6c0.3-0.3,0.9-0.6,1.7-0.9l1.8-0.7h-1.9
					c-1.6,0-5.3-0.6-7.3-1.4c-0.5-0.2-0.9-0.4-1.2-0.6c-0.2-0.2-0.3-0.3-0.3-0.4c0-0.1,0.2-0.3,0.7-0.6c0.5-0.3,1.2-0.5,2.3-0.8
					l3-0.8l-3.1,0.1c-5.7,0.2-7.1-0.2-9.9-1.7c-0.4-0.2-0.8-0.5-0.9-0.7c-0.2-0.2-0.2-0.3-0.2-0.5c0-0.1,0.2-0.3,0.5-0.6
					c0.4-0.2,0.9-0.5,1.7-0.7c0.8-0.2,1.5-0.4,2.3-0.5c-0.8,0-1.6-0.1-2.4-0.2c-2-0.2-3.6-0.4-4.7-0.6c-0.6-0.1-1-0.3-1.3-0.4
					c-0.3-0.1-0.5-0.3-0.5-0.4c0-0.1-0.1-0.1,0-0.3c0.1-0.2,0.3-0.4,0.7-0.6c0.7-0.5,1.9-1.1,3.6-1.8l4.2-1.8l-4.5,1.1
					c-1.3,0.3-2.3,0.5-2.9,0.5c-0.3,0-0.5-0.1-0.5-0.1c-0.1,0,0,0,0,0c0,0,0-0.1,0.2-0.3c0.1-0.1,0.3-0.3,0.6-0.5
					c0.6-0.4,1.4-0.9,2.5-1.3l3-1.3l-3.2,0.6c-1.7,0.3-3.4,0.5-4.9,0.4c-1.5,0-2.8-0.3-3.4-0.6c-0.3-0.2-0.5-0.3-0.5-0.5
					c0-0.1,0-0.3,0.3-0.6c0.5-0.6,1.9-1.4,4.4-2.3l3-1.1l-3.1,0.4c-2,0.2-3.3,0.3-4.2,0.2c-0.4-0.1-0.7-0.2-0.8-0.3
					c-0.1-0.1-0.2-0.1-0.1-0.3c0-0.3,0.4-0.9,1.2-1.6s1.9-1.6,3.4-2.5l5.3-3.6l-5.6,3c-0.8,0.4-1.6,0.7-2.2,0.8
					c-0.6,0.1-1.2,0.1-1.4,0c-0.1,0-0.1-0.1-0.1-0.1c0-0.1,0-0.2,0.1-0.4c0.2-0.4,0.8-1.1,1.8-1.9l-0.5-0.5c-2,2.3-6.7,3.2-9.7,3
					c-0.8-0.1-1.4-0.2-1.9-0.3c-0.5-0.2-0.7-0.4-0.8-0.6c-0.1-0.2,0-0.4,0.3-0.8c0.4-0.4,1-0.8,2.1-1.4l1.9-1L149,114
					c-3,0.4-6.4,0-8.9-0.9c-1.3-0.4-2.3-0.9-2.9-1.4c-0.3-0.2-0.5-0.5-0.5-0.7c-0.1-0.2-0.1-0.3,0.1-0.5c0.1-0.1,0.4-0.3,1-0.4
					s1.4-0.2,2.5-0.2c2.1-0.1,5.1-0.3,8.9-1.1c1-0.2,1.9-0.4,2.9-0.6c-1,0-2,0-3,0c-5.7,0-9.2,0.3-16.5-2.5
					c-2.9-1.1-5.3-2.9-6.3-4.4c-0.5-0.7-0.6-1.3-0.4-1.6c0.1-0.2,0.2-0.3,0.5-0.4c0.3-0.1,0.7-0.2,1.3-0.1c4.2,0.2,7.5,1.4,11.4,1.8
					c0.9,0.1,1.8,0.1,2.7,0.1c-0.9-0.2-1.7-0.5-2.6-0.8c-4.2-1.3-9.5-3.2-13.4-6.9c-1.1-1-2.1-2.1-2.8-3.1c-0.8-1-1.3-2-1.4-2.6
					c0-0.3,0-0.5,0.1-0.6c0.1-0.1,0.3-0.2,0.7-0.2c0.8,0,2.3,0.4,4.7,1.4c1.5,0.7,3.3,1,5.2,1.4l3,0.7l-2.8-1.4
					c-2.6-1.3-4.3-2.5-5.2-3.4c-0.5-0.5-0.7-0.9-0.9-1.2c-0.1-0.3-0.1-0.5-0.1-0.6c0-0.1,0.1-0.1,0.4-0.2c0.3,0,0.8,0,1.4,0.1
					c1.3,0.3,3.2,0.9,5.8,2.1l3.8,1.7l-3.5-2.3c-1.6-1.1-2.6-1.8-2.9-2.3c-0.1-0.1-0.1-0.2-0.1-0.2c0,0,0,0.1,0,0.1
					C131.3,83.1,131.4,83,131.8,83z"/>
			</g>
		</g>
	</g>
</g>
</svg>
