<?xml version="1.0" encoding="utf-8"?>
<!-- Generator: Adobe Illustrator 26.4.1, SVG Export Plug-In . SVG Version: 6.00 Build 0)  -->
<svg version="1.1" id="Layer_1" xmlns="http://www.w3.org/2000/svg" xmlns:xlink="http://www.w3.org/1999/xlink" x="0px" y="0px"
	 viewBox="0 0 400.3 274" style="enable-background:new 0 0 400.3 274;" xml:space="preserve">
<style type="text/css">
	.st0{enable-background:new    ;}
	.st1{fill:#231F20;}
	.st2{fill:none;stroke:#836FBA;stroke-miterlimit:10;}
	.st3{opacity:0.25;fill:#836FBA;enable-background:new    ;}
	.st4{clip-path:url(#SVGID_00000140702605096652996340000012146299121745390742_);}
	.st5{clip-path:url(#SVGID_00000081644968486623944190000001297489865117471673_);}
	.st6{opacity:0;clip-path:url(#SVGID_00000075858401393789031540000003560386440383048863_);}
	.st7{clip-path:url(#SVGID_00000057116663357245865510000002772420643242955413_);fill:#FFFFFF;}
	.st8{clip-path:url(#SVGID_00000057116663357245865510000002772420643242955413_);}
	.st9{clip-path:url(#SVGID_00000075858401393789031540000003560386440383048863_);fill:#FFFFFF;}
	.st10{clip-path:url(#SVGID_00000075858401393789031540000003560386440383048863_);}
	
		.st11{clip-path:url(#SVGID_00000075858401393789031540000003560386440383048863_);fill:none;stroke:#000000;stroke-width:1.8645;stroke-linecap:round;stroke-linejoin:round;stroke-miterlimit:10;}
</style>
<g class="st0">
	<path class="st1" d="M32,225.3l2.3-3.2l-2.1-3h1.3l1,1.5c0.2,0.3,0.3,0.5,0.4,0.7c0.2-0.3,0.3-0.5,0.5-0.7l1-1.5h1.3l-2.2,2.9
		l2.3,3.3h-1.3l-1.3-1.9l-0.3-0.5l-1.6,2.5H32V225.3z"/>
</g>
<g class="st0">
	<path class="st1" d="M98.2,18.3v1h-5.7c0-0.3,0-0.5,0.1-0.7c0.1-0.4,0.4-0.8,0.7-1.1s0.8-0.8,1.4-1.3c0.9-0.8,1.6-1.4,1.9-1.8
		s0.5-0.9,0.5-1.3c0-0.4-0.1-0.8-0.4-1.1s-0.7-0.4-1.2-0.4s-0.9,0.2-1.2,0.5s-0.5,0.7-0.5,1.3l-1.1-0.1c0.1-0.8,0.4-1.4,0.8-1.8
		s1.1-0.6,2-0.6c0.8,0,1.5,0.2,2,0.7s0.7,1,0.7,1.7c0,0.3-0.1,0.7-0.2,1s-0.4,0.7-0.7,1s-0.9,0.9-1.6,1.5c-0.6,0.5-1,0.9-1.2,1.1
		s-0.3,0.4-0.4,0.6h4.1V18.3z"/>
	<path class="st1" d="M98.9,19.4l2.3-3.2l-2.1-3h1.3l1,1.5c0.2,0.3,0.3,0.5,0.4,0.7c0.2-0.3,0.3-0.5,0.5-0.7l1-1.5h1.3l-2.2,2.9
		l2.3,3.3h-1.3l-1.3-1.9l-0.3-0.5l-1.6,2.5L98.9,19.4L98.9,19.4z"/>
</g>
<g class="st0">
	<path class="st1" d="M307.3,17v1h-5.7c0-0.3,0-0.5,0.1-0.7c0.1-0.4,0.4-0.8,0.7-1.1s0.8-0.8,1.4-1.3c0.9-0.8,1.6-1.4,1.9-1.8
		s0.5-0.9,0.5-1.3c0-0.4-0.1-0.8-0.4-1.1s-0.7-0.4-1.2-0.4s-0.9,0.2-1.2,0.5s-0.5,0.7-0.5,1.3l-1.1-0.1c0.1-0.8,0.4-1.4,0.8-1.8
		s1.1-0.6,2-0.6c0.8,0,1.5,0.2,2,0.7s0.7,1,0.7,1.7c0,0.3-0.1,0.7-0.2,1s-0.4,0.7-0.7,1s-0.9,0.9-1.6,1.5c-0.6,0.5-1,0.9-1.2,1.1
		s-0.3,0.4-0.4,0.6h4.1V17z"/>
	<path class="st1" d="M308,18l2.3-3.2l-2.1-3h1.3l1,1.5c0.2,0.3,0.3,0.5,0.4,0.7c0.2-0.3,0.3-0.5,0.5-0.7l1-1.5h1.3l-2.2,2.9
		l2.3,3.3h-1.3l-1.3-1.9l-0.3-0.5l-1.6,2.5H308V18z"/>
</g>
<g class="st0">
	<path class="st1" d="M362.3,54l2.3-3.2l-2.1-3h1.3l1,1.5c0.2,0.3,0.3,0.5,0.4,0.7c0.2-0.3,0.3-0.5,0.5-0.7l1-1.5h1.3l-2.2,2.9
		l2.3,3.3h-1.3l-1.3-1.9l-0.3-0.5l-1.6,2.5L362.3,54L362.3,54z"/>
</g>
<line class="st2" x1="139.3" y1="31.5" x2="139.3" y2="242.5"/>
<line class="st2" x1="267.3" y1="31.5" x2="267.3" y2="242.5"/>
<line class="st2" x1="59.3" y1="72.5" x2="348.3" y2="72.5"/>
<line class="st2" x1="59.3" y1="200.5" x2="348.3" y2="200.5"/>
<rect x="59.3" y="31.5" class="st2" width="288.5" height="211"/>
<line class="st2" x1="60.3" y1="201" x2="60.3" y2="242"/>
<line class="st2" x1="58.8" y1="32.5" x2="138.8" y2="32.5"/>
<line class="st2" x1="346.8" y1="31.5" x2="346.8" y2="72.5"/>
<circle class="st3" cx="287.3" cy="51.5" r="20"/>
<circle class="st3" cx="327.3" cy="51.5" r="20"/>
<circle class="st3" cx="79.3" cy="221.5" r="20"/>
<circle class="st3" cx="119.3" cy="221.5" r="20"/>
<line class="st2" x1="267.3" y1="32.5" x2="347.3" y2="32.5"/>
<g>
	<g>
		<defs>
			<rect id="SVGID_1_" x="138.8" y="72.5" width="128.5" height="128"/>
		</defs>
		<clipPath id="SVGID_00000159440619641863176330000013121866459339131780_">
			<use xlink:href="#SVGID_1_"  style="overflow:visible;"/>
		</clipPath>
		<g style="clip-path:url(#SVGID_00000159440619641863176330000013121866459339131780_);">
			<defs>
				<rect id="SVGID_00000130642866536717864930000005581907221527851694_" x="138.8" y="72.5" width="128.5" height="128"/>
			</defs>
			<clipPath id="SVGID_00000128472793138615497990000016886540552192254878_">
				<use xlink:href="#SVGID_00000130642866536717864930000005581907221527851694_"  style="overflow:visible;"/>
			</clipPath>
			<g style="clip-path:url(#SVGID_00000128472793138615497990000016886540552192254878_);">
				<defs>
					<rect id="SVGID_00000145762651714497186890000004719801281736322749_" x="138.8" y="72.5" width="128.5" height="128"/>
				</defs>
				<clipPath id="SVGID_00000089537452326657282850000009733849178297526713_">
					<use xlink:href="#SVGID_00000145762651714497186890000004719801281736322749_"  style="overflow:visible;"/>
				</clipPath>
				<g style="opacity:0;clip-path:url(#SVGID_00000089537452326657282850000009733849178297526713_);">
					<g>
						<defs>
							<rect id="SVGID_00000045582942124486662800000011018422381457407135_" x="138.8" y="72.5" width="128.5" height="128"/>
						</defs>
						<clipPath id="SVGID_00000160868906525831691920000011672619578100161675_">
							<use xlink:href="#SVGID_00000045582942124486662800000011018422381457407135_"  style="overflow:visible;"/>
						</clipPath>
						
							<rect x="138.8" y="72.5" style="clip-path:url(#SVGID_00000160868906525831691920000011672619578100161675_);fill:#FFFFFF;" width="128.5" height="128"/>
						<path style="clip-path:url(#SVGID_00000160868906525831691920000011672619578100161675_);" d="M267.3,200.5H138.8V72.6h128.4
							V200.5z M267.3,72.5H138.8v128h128.5V72.5z"/>
					</g>
				</g>
				<path style="clip-path:url(#SVGID_00000089537452326657282850000009733849178297526713_);fill:#FFFFFF;" d="M156.8,77.9
					c-1,0-0.6,2.5,2.1,9.3c6,15,16.4,28.2,30.3,34.6c-12.3-3.9-17.8-8.9-24.9-13.1c-5-3-12.4-8.8-17.1-13.4c-7.1-7-6.8-1.8-4.4,4.1
					c3.9,9.4,14.1,16.1,21.6,20.5c-11.1-3.4-23.6-16.6-23.2-12c0.3,2.8,4.4,8.7,10.7,14c4.3,3.6,9.5,6.8,14.9,8.6
					c-11.1-2.7-18.3-8.8-19.5-8.5c-2,0.5-1.7,2.6,1.9,7.3c5.8,7.5,12.7,11.3,21.8,12.6c-4.8-0.1-8.6-0.8-11.3-1.5
					c-10.4-2.4-2.7,3.2,0.4,5.5c3.2,2.3,7.2,4,11.3,5.1c4.9,1.3,9.4,2.3,13.9,2.6c-8.1,0.6-17.7-0.2-18.5,1.2c-1.2,2,4,4.3,10.9,5.5
					c3.8,0.7,5.8,0.8,10.8,0.4c-5.6,1-8.1,1.9-8.7,2.7c-1.6,2.3,11,4.6,20.3,1.4c-4.1,1.7-5.2,2.8-4.1,3c0.9,0.2,2.7-0.8,6.9-1.6
					c-11.3,4.4-3,5.5,3.3,3.9c-6.3,3.3,1.9,3.8,5.3,3.8c-4.1,0.9-6.8,1.5-8,2.4c-3.4,2.4,3.6,4.2,11.5,2.2c-9.2,3.6-8.5,4.7-2.1,6.3
					c3.5,0.9,6.8,0.3,9.9-0.1c-5.9,1.6,2.4,2,4.5,1.2c-3.3,1.9-8.2,1-8.6,2c-0.6,1.4,3.4,3,8.7,3c-4.6,1.7,3.6,2.2,5.3,2
					c-5.8,2.8,2.4,3,9.1,1.5c4-0.9,7.9-2.2,9.2-3.5c10.1-0.4,13.5-15.4,13.7-15.8c0.1-0.5-5.6-2.5-10.9-5c-4.3-2-8.8-5.2-12.1-8.1
					l-13.7-16.9c-3-4.6-5.8-9.5-8.6-14.2c-2.7-4.6-4.8-4.1-5-3c-3.9-3.6-10.8-5.8-19.1-10.7c-6.2-3.7-12.7-9.2-20.1-17.4
					C170,93.4,159.2,77.9,156.8,77.9"/>
				<path style="clip-path:url(#SVGID_00000089537452326657282850000009733849178297526713_);" d="M261.6,172.6
					c-2.1-0.8-4.6-1.7-7.3-2.9c-5.2-2.5-10.7-6.6-14-9.9c-8.3-8.5-14.2-18.9-20.3-29.2c-1.6-2.8-3.1-3.8-4.2-3.9
					c-0.6-0.1-1,0.2-1.3,0.5c-0.1,0.1-0.1,0.2-0.2,0.4c-1.1-1-3-2.1-4.9-3.1c-2.3-1.2-4.7-2.1-6.4-1.9c-0.1,0-0.2,0.1-0.2,0.1
					c-0.1,0.1-0.1,0.2-0.1,0.2c0,0.1,0,0.2,0.1,0.2c0.1,0.1,0.1,0.2,0.2,0.3c0.2,0.2,0.5,0.5,0.9,0.9c0.4,0.4,1,0.8,1.7,1.3
					c-3.1-0.7-5.7-1.1-7.9-1.1c-2.7,0-4.5,0.4-5.5,1.1c-0.1,0.1-0.2,0.2-0.2,0.4c0,0.2,0,0.3,0.1,0.4c0.1,0.2,0.3,0.3,0.6,0.5
					c0.5,0.3,1.3,0.7,2.4,1.1c1.4,0.5,3.2,1.1,5.3,1.7c-0.3,0-0.6,0-0.9,0c-1.2,0.1-1.9,0.3-2.4,0.7c-0.2,0.2-0.3,0.5-0.3,0.8
					c0,0.3,0.1,0.5,0.3,0.8c0.4,0.5,1,0.9,1.8,1.2c2.2,1,5.7,1.9,8,2.4c-1.3,0.2-2.2,0.4-2.8,0.7c-0.5,0.2-0.8,0.4-0.9,0.8
					c0,0.2,0,0.4,0.1,0.5c0.1,0.2,0.2,0.3,0.4,0.4c0.6,0.5,1.6,0.9,2.9,1.2c1.6,0.5,3.6,0.9,5.4,1.1c-0.9,0.2-1.6,0.4-2.1,0.6
					c-0.5,0.2-0.8,0.4-1,0.7c-0.2,0.3-0.1,0.7,0.1,1.1c0.4,0.6,1.1,0.9,1.8,1.1c0.7,0.1,1.6,0.1,2.4,0c1.6-0.3,3.3-0.9,4.2-1.6
					c0.6-0.4,1-0.9,1.4-1.6c-0.6,0.3-1.2,0.6-1.8,1c-1.7,1.2-2.5,2.4-2.6,3.4c0,0.4,0,0.8,0.3,1.1c0.2,0.3,0.6,0.5,1,0.5
					c0.5,0.1,1.1-0.1,1.8-0.4c-0.2,0.4-0.3,0.8-0.3,1.1c0,0.3,0,0.6,0.2,0.8c0.1,0.2,0.4,0.4,0.7,0.4c0.5,0.1,1.1,0,1.8-0.4
					c0.4-0.2,0.9-0.5,1.4-0.9c-0.1,0.5-0.1,1.1,0,1.7c0.1,1,0.2,2,0.5,2.8c0.1,0.4,0.3,0.7,0.5,0.9c0.1,0.1,0.2,0.2,0.4,0.3
					c0.2,0,0.4,0,0.5-0.1c0.3-0.2,0.4-0.4,0.5-0.8c0.4,2.4,1.4,4.9,2.4,6.7c0.3,0.6,0.6,1,0.9,1.4c0.3,0.4,0.5,0.6,0.9,0.7
					c0.2,0.1,0.4,0,0.6-0.1c0,0,0.1-0.1,0.1-0.1c0.2,0.6,0.5,1.2,0.9,1.6c0.4,0.5,0.8,0.9,1.4,1c0.2,0.1,0.5,0.1,0.7,0.1
					c-0.3,0.3-0.5,0.5-0.7,0.7c-0.2,0.2-0.3,0.4-0.4,0.6c-0.1,0.2-0.2,0.5-0.1,0.7s0.3,0.4,0.6,0.4c0.2,0.1,0.5,0.1,0.9,0.1
					c0.5,0,1.1-0.1,1.8-0.2c-0.1,0.1-0.2,0.2-0.3,0.3c-0.4,0.3-0.6,0.5-0.7,0.8c0,0.2,0,0.3,0,0.5c0.1,0.1,0.2,0.2,0.3,0.3
					c0.2,0.1,0.5,0.2,0.8,0.3c0.5,0.1,1.2,0.2,1.8,0.3c-0.1,0.2-0.2,0.5-0.2,0.7c0,0.4,0.2,0.8,0.4,1.2c0.6,0.7,1.5,1.3,2.7,1.8
					c1.1,0.5,2.4,0.9,3.5,1.1c1.1,0.2,2.1,0.3,2.8,0.1c0.4-0.1,0.8-0.4,1-0.8c-0.4,0-0.8,0.1-1.2,0.1c-1.3,0.2-2.1,0.5-2.6,0.9
					c-0.2,0.2-0.4,0.5-0.5,0.7c0,0.3,0,0.6,0.2,0.8c0.3,0.5,0.9,0.8,1.6,1.1c0.6,0.2,1.3,0.4,2.1,0.4c-0.1,0.3-0.1,0.5-0.1,0.8
					c0,0.4,0.2,0.7,0.5,0.8c0.5,0.4,1.2,0.4,2,0.3c0.8-0.1,1.6-0.2,2.3-0.4c0.1,0,0.2,0,0.3-0.1c-0.4,0.3-0.6,0.6-0.8,0.9
					c-0.1,0.2-0.2,0.5-0.1,0.8c0.1,0.3,0.3,0.4,0.6,0.5c0.5,0.2,1.1,0.2,1.9,0c0.4-0.1,0.8-0.2,1.3-0.3c-0.1,0.1-0.1,0.2-0.1,0.3
					c-0.2,0.5-0.1,0.9,0.2,1.3c0.6,0.6,1.7,0.9,2.9,0.8l-0.4-0.3c0,0,0,0,0,0c0.1,0.5,0.2,0.9,0.5,1.4c0.2,0.3,0.5,0.6,0.9,0.7
					c0.7,0.2,1.4,0.2,1.8,0.1c0.4-0.1,0.7-0.1,0.7-0.1s-0.3,0-0.7-0.1c-0.4,0-1.1-0.1-1.6-0.4c-0.2-0.1-0.4-0.3-0.5-0.5
					c-0.2-0.3-0.3-0.7-0.3-1.1c0,0,0,0,0-0.3c-0.1,0-0.2,0-0.3,0c-1.1,0.1-2-0.2-2.3-0.6c-0.2-0.2-0.2-0.3-0.1-0.6
					c0.1-0.3,0.4-0.6,0.9-1l2.1-1.6l-2.5,1c-0.9,0.4-1.8,0.6-2.5,0.7c-0.7,0.1-1.3,0.1-1.6,0c-0.1,0-0.1-0.1-0.1-0.1
					c0,0,0-0.1,0.1-0.2c0.2-0.3,0.7-0.8,1.8-1.5c0.2-0.2,0.5-0.3,0.7-0.4c-0.3-0.1-0.6-0.2-0.9-0.2c-0.5,0-1.1,0.1-1.9,0.3
					c-0.7,0.2-1.5,0.3-2.2,0.4c-0.7,0.1-1.3,0-1.5-0.2c-0.1-0.1-0.2-0.2-0.2-0.4c0-0.2,0-0.5,0.2-0.9c0.1-0.2,0.1-0.3,0.2-0.5
					c-0.2,0-0.4,0-0.6,0c-0.9,0-1.7-0.2-2.4-0.4c-0.6-0.2-1.1-0.6-1.2-0.8c-0.1-0.1-0.1-0.2-0.1-0.3c0-0.1,0.1-0.2,0.2-0.3
					c0.3-0.3,1-0.6,2.2-0.7l-0.2-0.7c-0.4,0.1-1.4,0.1-2.4-0.1c-1.1-0.2-2.3-0.6-3.4-1c-1.1-0.5-2-1-2.4-1.6
					c-0.2-0.3-0.3-0.5-0.3-0.7c0-0.2,0.1-0.5,0.4-0.8c0.2-0.2,0.4-0.3,0.7-0.5c-0.3-0.1-0.6-0.1-0.9-0.1c-0.8-0.1-1.8-0.2-2.3-0.3
					c-0.3-0.1-0.5-0.2-0.6-0.2c0,0-0.1,0,0,0c0,0,0,0.1,0,0c0,0,0.1-0.2,0.5-0.5c0.3-0.3,0.8-0.7,1.5-1.1c0.5-0.4,1.1-0.7,1.7-1.1
					c-0.6,0.2-1.3,0.3-1.9,0.4c-1.5,0.3-2.6,0.5-3.3,0.5c-0.3,0-0.6,0-0.7,0c-0.1,0-0.1-0.1-0.1,0c0,0,0,0,0-0.1
					c0.1-0.1,0.2-0.3,0.3-0.5c0.3-0.4,0.9-0.9,1.5-1.5l1.3-1.2l-1.6,0.6c-0.6,0.2-1.1,0.2-1.5,0.1c-0.4-0.1-0.7-0.4-1.1-0.8
					c-0.6-0.8-1-2.1-1.4-3.2l-1.6-5.8l0.9,5.9c0.1,0.7,0.1,1.2,0.1,1.4c0,0.1-0.1,0.1,0,0.1c0,0,0.1,0,0.1,0c0,0-0.3-0.2-0.5-0.5
					c-0.2-0.3-0.5-0.8-0.8-1.3c-1.2-2.2-2.5-5.8-2.5-8.5l0-4.7l-0.7,4.6c-0.1,0.9-0.3,1.5-0.4,1.9c-0.1,0.4-0.3,0.6-0.3,0.6
					c0,0,0,0,0.1,0c0,0,0,0,0,0c-0.1-0.1-0.2-0.4-0.3-0.7c-0.2-0.7-0.4-1.6-0.4-2.6c-0.1-1,0-1.9,0.2-2.4l0.5-1.4l-1,1
					c-0.7,0.7-1.4,1.2-2,1.5c-0.6,0.3-1.1,0.4-1.4,0.3c-0.1,0-0.2-0.1-0.2-0.1c0-0.1-0.1-0.2-0.1-0.4c0-0.4,0.3-1.1,1-2.1l1.3-1.9
					l-1.8,1.4c-1.1,0.9-2,1.1-2.5,1.1c-0.3,0-0.4-0.1-0.5-0.2c-0.1-0.1-0.2-0.3-0.1-0.6c0.1-0.7,0.7-1.8,2.3-2.9l-0.4-0.6
					c-0.8,0.5-2.4,1.2-3.9,1.4c-0.8,0.1-1.5,0.1-2.1,0c-0.6-0.1-1.1-0.4-1.4-0.8c-0.1-0.2-0.1-0.2-0.1-0.3c0-0.1,0.3-0.3,0.7-0.4
					c0.8-0.3,2.4-0.7,4.6-1.1l4.5-1l-4.6,0.3c-1.9,0.1-5.4-0.4-7.9-1.1c-1.2-0.4-2.3-0.8-2.7-1.1c-0.1-0.1-0.2-0.2-0.2-0.2
					c0,0,0,0,0,0c0,0,0.1-0.2,0.5-0.3c0.7-0.3,2.1-0.6,4.5-0.9c1.2-0.2,2.3-0.3,3.5-0.4c-1.2,0-2.3-0.1-3.5-0.3
					c-1.9-0.3-6.9-1.5-9.8-2.8c-0.7-0.3-1.3-0.7-1.6-1c-0.1-0.2-0.2-0.3-0.2-0.4c0-0.1,0-0.1,0.1-0.2c0.2-0.2,0.8-0.4,1.9-0.5
					c1.1-0.1,2.7,0,4.8,0.3l7,1l-6.8-1.7c-3.8-0.9-7-1.9-9.1-2.7c-1-0.4-1.8-0.8-2.3-1c-0.2-0.1-0.3-0.3-0.4-0.3c0,0,0,0,0,0.1
					c0,0,0,0.1,0,0.1c0.7-0.6,2.4-1,5-1c2.6,0,6,0.5,10,1.7l3,0.9l-2.7-1.5c-1.6-0.9-2.8-1.7-3.5-2.4c-0.4-0.3-0.7-0.6-0.8-0.8
					c-0.1-0.1-0.1-0.2-0.1-0.2c0,0,0,0,0,0.1c0,0,0,0.1-0.1,0.2c-0.1,0.1-0.2,0.1-0.2,0.1c1.3-0.2,3.7,0.6,6,1.8
					c2.3,1.2,4.4,2.6,5.3,3.6l1.2,1.2l-0.6-1.6c-0.1-0.3-0.1-0.5,0.1-0.7c0.1-0.2,0.3-0.3,0.7-0.2c0.7,0.1,2.1,0.9,3.6,3.6
					c6.1,10.3,12,20.8,20.4,29.3c3.3,3.4,8.8,7.5,14.2,10c2.7,1.3,5.3,2.1,7.3,2.9c1.1,0.4,2.8,1.6,3.6,1.8
					C265.7,175.2,262.9,173.2,261.6,172.6"/>
				
					<path style="clip-path:url(#SVGID_00000089537452326657282850000009733849178297526713_);fill:none;stroke:#000000;stroke-width:1.8645;stroke-linecap:round;stroke-linejoin:round;stroke-miterlimit:10;" d="
					M261.6,172.6c-2.1-0.8-4.6-1.7-7.3-2.9c-5.2-2.5-10.7-6.6-14-9.9c-8.3-8.5-14.2-18.9-20.3-29.2c-1.6-2.8-3.1-3.8-4.2-3.9
					c-0.6-0.1-1,0.2-1.3,0.5c-0.1,0.1-0.1,0.2-0.2,0.4c-1.1-1-3-2.1-4.9-3.1c-2.3-1.2-4.7-2.1-6.4-1.9c-0.1,0-0.2,0.1-0.2,0.1
					c-0.1,0.1-0.1,0.2-0.1,0.2c0,0.1,0,0.2,0.1,0.2c0.1,0.1,0.1,0.2,0.2,0.3c0.2,0.2,0.5,0.5,0.9,0.9c0.4,0.4,1,0.8,1.7,1.3
					c-3.1-0.7-5.7-1.1-7.9-1.1c-2.7,0-4.5,0.4-5.5,1.1c-0.1,0.1-0.2,0.2-0.2,0.4c0,0.2,0,0.3,0.1,0.4c0.1,0.2,0.3,0.3,0.6,0.5
					c0.5,0.3,1.3,0.7,2.4,1.1c1.4,0.5,3.2,1.1,5.3,1.7c-0.3,0-0.6,0-0.9,0c-1.2,0.1-1.9,0.3-2.4,0.7c-0.2,0.2-0.3,0.5-0.3,0.8
					c0,0.3,0.1,0.5,0.3,0.8c0.4,0.5,1,0.9,1.8,1.2c2.2,1,5.7,1.9,8,2.4c-1.3,0.2-2.2,0.4-2.8,0.7c-0.5,0.2-0.8,0.4-0.9,0.8
					c0,0.2,0,0.4,0.1,0.5c0.1,0.2,0.2,0.3,0.4,0.4c0.6,0.5,1.6,0.9,2.9,1.2c1.6,0.5,3.6,0.9,5.4,1.1c-0.9,0.2-1.6,0.4-2.1,0.6
					c-0.5,0.2-0.8,0.4-1,0.7c-0.2,0.3-0.1,0.7,0.1,1.1c0.4,0.6,1.1,0.9,1.8,1.1c0.7,0.1,1.6,0.1,2.4,0c1.6-0.3,3.3-0.9,4.2-1.6
					c0.6-0.4,1-0.9,1.4-1.6c-0.6,0.3-1.2,0.6-1.8,1c-1.7,1.2-2.5,2.4-2.6,3.4c0,0.4,0,0.8,0.3,1.1c0.2,0.3,0.6,0.5,1,0.5
					c0.5,0.1,1.1-0.1,1.8-0.4c-0.2,0.4-0.3,0.8-0.3,1.1c0,0.3,0,0.6,0.2,0.8c0.1,0.2,0.4,0.4,0.7,0.4c0.5,0.1,1.1,0,1.8-0.4
					c0.4-0.2,0.9-0.5,1.4-0.9c-0.1,0.5-0.1,1.1,0,1.7c0.1,1,0.2,2,0.5,2.8c0.1,0.4,0.3,0.7,0.5,0.9c0.1,0.1,0.2,0.2,0.4,0.3
					c0.2,0,0.4,0,0.5-0.1c0.3-0.2,0.4-0.4,0.5-0.8c0.4,2.4,1.4,4.9,2.4,6.7c0.3,0.6,0.6,1,0.9,1.4c0.3,0.4,0.5,0.6,0.9,0.7
					c0.2,0.1,0.4,0,0.6-0.1c0,0,0.1-0.1,0.1-0.1c0.2,0.6,0.5,1.2,0.9,1.6c0.4,0.5,0.8,0.9,1.4,1c0.2,0.1,0.5,0.1,0.7,0.1
					c-0.3,0.3-0.5,0.5-0.7,0.7c-0.2,0.2-0.3,0.4-0.4,0.6c-0.1,0.2-0.2,0.5-0.1,0.7s0.3,0.4,0.6,0.4c0.2,0.1,0.5,0.1,0.9,0.1
					c0.5,0,1.1-0.1,1.8-0.2c-0.1,0.1-0.2,0.2-0.3,0.3c-0.4,0.3-0.6,0.5-0.7,0.8c0,0.2,0,0.3,0,0.5c0.1,0.1,0.2,0.2,0.3,0.3
					c0.2,0.1,0.5,0.2,0.8,0.3c0.5,0.1,1.2,0.2,1.8,0.3c-0.1,0.2-0.2,0.5-0.2,0.7c0,0.4,0.2,0.8,0.4,1.2c0.6,0.7,1.5,1.3,2.7,1.8
					c1.1,0.5,2.4,0.9,3.5,1.1c1.1,0.2,2.1,0.3,2.8,0.1c0.4-0.1,0.8-0.4,1-0.8c-0.4,0-0.8,0.1-1.2,0.1c-1.3,0.2-2.1,0.5-2.6,0.9
					c-0.2,0.2-0.4,0.5-0.5,0.7c0,0.3,0,0.6,0.2,0.8c0.3,0.5,0.9,0.8,1.6,1.1c0.6,0.2,1.3,0.4,2.1,0.4c-0.1,0.3-0.1,0.5-0.1,0.8
					c0,0.4,0.2,0.7,0.5,0.8c0.5,0.4,1.2,0.4,2,0.3c0.8-0.1,1.6-0.2,2.3-0.4c0.1,0,0.2,0,0.3-0.1c-0.4,0.3-0.6,0.6-0.8,0.9
					c-0.1,0.2-0.2,0.5-0.1,0.8c0.1,0.3,0.3,0.4,0.6,0.5c0.5,0.2,1.1,0.2,1.9,0c0.4-0.1,0.8-0.2,1.3-0.3c-0.1,0.1-0.1,0.2-0.1,0.3
					c-0.2,0.5-0.1,0.9,0.2,1.3c0.6,0.6,1.7,0.9,2.9,0.8l-0.4-0.3c0,0,0,0,0,0c0.1,0.5,0.2,0.9,0.5,1.4c0.2,0.3,0.5,0.6,0.9,0.7
					c0.7,0.2,1.4,0.2,1.8,0.1c0.4-0.1,0.7-0.1,0.7-0.1s-0.3,0-0.7-0.1c-0.4,0-1.1-0.1-1.6-0.4c-0.2-0.1-0.4-0.3-0.5-0.5
					c-0.2-0.3-0.3-0.7-0.3-1.1c0,0,0,0,0-0.3c-0.1,0-0.2,0-0.3,0c-1.1,0.1-2-0.2-2.3-0.6c-0.2-0.2-0.2-0.3-0.1-0.6
					c0.1-0.3,0.4-0.6,0.9-1l2.1-1.6l-2.5,1c-0.9,0.4-1.8,0.6-2.5,0.7c-0.7,0.1-1.3,0.1-1.6,0c-0.1,0-0.1-0.1-0.1-0.1
					c0,0,0-0.1,0.1-0.2c0.2-0.3,0.7-0.8,1.8-1.5c0.2-0.2,0.5-0.3,0.7-0.4c-0.3-0.1-0.6-0.2-0.9-0.2c-0.5,0-1.1,0.1-1.9,0.3
					c-0.7,0.2-1.5,0.3-2.2,0.4c-0.7,0.1-1.3,0-1.5-0.2c-0.1-0.1-0.2-0.2-0.2-0.4c0-0.2,0-0.5,0.2-0.9c0.1-0.2,0.1-0.3,0.2-0.5
					c-0.2,0-0.4,0-0.6,0c-0.9,0-1.7-0.2-2.4-0.4c-0.6-0.2-1.1-0.6-1.2-0.8c-0.1-0.1-0.1-0.2-0.1-0.3c0-0.1,0.1-0.2,0.2-0.3
					c0.3-0.3,1-0.6,2.2-0.7l-0.2-0.7c-0.4,0.1-1.4,0.1-2.4-0.1c-1.1-0.2-2.3-0.6-3.4-1c-1.1-0.5-2-1-2.4-1.6
					c-0.2-0.3-0.3-0.5-0.3-0.7c0-0.2,0.1-0.5,0.4-0.8c0.2-0.2,0.4-0.3,0.7-0.5c-0.3-0.1-0.6-0.1-0.9-0.1c-0.8-0.1-1.8-0.2-2.3-0.3
					c-0.3-0.1-0.5-0.2-0.6-0.2c0,0-0.1,0,0,0c0,0,0,0.1,0,0c0,0,0.1-0.2,0.5-0.5c0.3-0.3,0.8-0.7,1.5-1.1c0.5-0.4,1.1-0.7,1.7-1.1
					c-0.6,0.2-1.3,0.3-1.9,0.4c-1.5,0.3-2.6,0.5-3.3,0.5c-0.3,0-0.6,0-0.7,0c-0.1,0-0.1-0.1-0.1,0c0,0,0,0,0-0.1
					c0.1-0.1,0.2-0.3,0.3-0.5c0.3-0.4,0.9-0.9,1.5-1.5l1.3-1.2l-1.6,0.6c-0.6,0.2-1.1,0.2-1.5,0.1c-0.4-0.1-0.7-0.4-1.1-0.8
					c-0.6-0.8-1-2.1-1.4-3.2l-1.6-5.8l0.9,5.9c0.1,0.7,0.1,1.2,0.1,1.4c0,0.1-0.1,0.1,0,0.1c0,0,0.1,0,0.1,0c0,0-0.3-0.2-0.5-0.5
					c-0.2-0.3-0.5-0.8-0.8-1.3c-1.2-2.2-2.5-5.8-2.5-8.5l0-4.7l-0.7,4.6c-0.1,0.9-0.3,1.5-0.4,1.9c-0.1,0.4-0.3,0.6-0.3,0.6
					c0,0,0,0,0.1,0c0,0,0,0,0,0c-0.1-0.1-0.2-0.4-0.3-0.7c-0.2-0.7-0.4-1.6-0.4-2.6c-0.1-1,0-1.9,0.2-2.4l0.5-1.4l-1,1
					c-0.7,0.7-1.4,1.2-2,1.5c-0.6,0.3-1.1,0.4-1.4,0.3c-0.1,0-0.2-0.1-0.2-0.1c0-0.1-0.1-0.2-0.1-0.4c0-0.4,0.3-1.1,1-2.1l1.3-1.9
					l-1.8,1.4c-1.1,0.9-2,1.1-2.5,1.1c-0.3,0-0.4-0.1-0.5-0.2c-0.1-0.1-0.2-0.3-0.1-0.6c0.1-0.7,0.7-1.8,2.3-2.9l-0.4-0.6
					c-0.8,0.5-2.4,1.2-3.9,1.4c-0.8,0.1-1.5,0.1-2.1,0c-0.6-0.1-1.1-0.4-1.4-0.8c-0.1-0.2-0.1-0.2-0.1-0.3c0-0.1,0.3-0.3,0.7-0.4
					c0.8-0.3,2.4-0.7,4.6-1.1l4.5-1l-4.6,0.3c-1.9,0.1-5.4-0.4-7.9-1.1c-1.2-0.4-2.3-0.8-2.7-1.1c-0.1-0.1-0.2-0.2-0.2-0.2
					c0,0,0,0,0,0c0,0,0.1-0.2,0.5-0.3c0.7-0.3,2.1-0.6,4.5-0.9c1.2-0.2,2.3-0.3,3.5-0.4c-1.2,0-2.3-0.1-3.5-0.3
					c-1.9-0.3-6.9-1.5-9.8-2.8c-0.7-0.3-1.3-0.7-1.6-1c-0.1-0.2-0.2-0.3-0.2-0.4c0-0.1,0-0.1,0.1-0.2c0.2-0.2,0.8-0.4,1.9-0.5
					c1.1-0.1,2.7,0,4.8,0.3l7,1l-6.8-1.7c-3.8-0.9-7-1.9-9.1-2.7c-1-0.4-1.8-0.8-2.3-1c-0.2-0.1-0.3-0.3-0.4-0.3c0,0,0,0,0,0.1
					c0,0,0,0.1,0,0.1c0.7-0.6,2.4-1,5-1c2.6,0,6,0.5,10,1.7l3,0.9l-2.7-1.5c-1.6-0.9-2.8-1.7-3.5-2.4c-0.4-0.3-0.7-0.6-0.8-0.8
					c-0.1-0.1-0.1-0.2-0.1-0.2c0,0,0,0,0,0.1c0,0,0,0.1-0.1,0.2c-0.1,0.1-0.2,0.1-0.2,0.1c1.3-0.2,3.7,0.6,6,1.8
					c2.3,1.2,4.4,2.6,5.3,3.6l1.2,1.2l-0.6-1.6c-0.1-0.3-0.1-0.5,0.1-0.7c0.1-0.2,0.3-0.3,0.7-0.2c0.7,0.1,2.1,0.9,3.6,3.6
					c6.1,10.3,12,20.8,20.4,29.3c3.3,3.4,8.8,7.5,14.2,10c2.7,1.3,5.3,2.1,7.3,2.9c1.1,0.4,2.8,1.6,3.6,1.8
					C265.7,175.2,262.9,173.2,261.6,172.6z"/>
				<path style="clip-path:url(#SVGID_00000089537452326657282850000009733849178297526713_);" d="M214,128.5c1,1,1.7,1.9,2.4,2.8
					c0.6,0.8,0.9,1.4,0.9,1.4s-0.2-0.7-0.6-1.6c-0.5-1-1.2-2.1-2.2-3.1c-2.3-2.4-5.5-4.5-9.4-6.3c-2.8-1.4-5.9-2.9-9.2-4.9
					c-6.1-3.6-12.6-9.2-20-17.3c-4-4.4-10.5-13.3-14.9-18.3c-1.1-1.2-2.1-2.2-2.8-2.8c-0.4-0.3-0.7-0.5-1.1-0.6
					c-0.2-0.1-0.3-0.1-0.5-0.1c-0.2,0-0.3,0.1-0.5,0.3c-0.2,0.3-0.3,0.6-0.3,1.1c0,0.5,0.1,1.1,0.3,1.8c0.4,1.5,1.1,3.6,2.3,6.6
					c5.4,13.5,14.4,25.6,26.3,32.6c-8.1-3.2-14.3-8-20.3-11.6c-5-3-12.4-8.8-17-13.3c-1.8-1.8-3.1-2.8-4.1-3.2
					c-0.5-0.2-1-0.3-1.3-0.2c-0.4,0.1-0.7,0.4-0.9,0.7c-0.3,0.7-0.3,1.7,0,3c0.3,1.2,0.7,2.7,1.4,4.2c3.4,8.1,11.3,14.2,18.2,18.5
					c-4.3-2-8.6-5-12-7.4c-2.2-1.6-4.1-2.9-5.4-3.6c-0.7-0.3-1.2-0.5-1.7-0.4c-0.2,0.1-0.5,0.2-0.6,0.5c-0.1,0.2-0.1,0.5-0.1,0.8
					c0.1,1.5,1.3,3.7,3.1,6.2c1.9,2.5,4.5,5.4,7.7,8c2.6,2.2,5.5,4.2,8.7,5.9c-2.6-1-4.9-2.2-6.8-3.2c-1.7-0.9-3-1.7-4-2.3
					c-0.5-0.3-0.9-0.5-1.3-0.7c-0.3-0.2-0.6-0.3-0.9-0.2c-0.6,0.1-1,0.4-1.3,0.8c-0.3,0.4-0.3,1-0.1,1.6c0.3,1.3,1.3,3,3.1,5.3
					c4.6,6.1,10.1,9.7,16.8,11.6c-2.4-0.3-4.3-0.7-5.9-1.1c-2.6-0.6-4.1-0.7-4.9-0.5c-0.2,0.1-0.4,0.2-0.5,0.3
					c-0.1,0.2-0.2,0.4-0.2,0.5c0,0.4,0.2,0.7,0.5,1.1c1.1,1.5,3.8,3.4,5.3,4.6c3.2,2.3,7.3,4.1,11.4,5.2c3.3,0.9,6.5,1.6,9.6,2.1
					c-2.7,0.1-5.3,0-7.5,0.1c-1.8,0-3.3,0.1-4.5,0.2c-0.6,0.1-1.1,0.2-1.5,0.3c-0.4,0.1-0.7,0.3-0.9,0.6c-0.2,0.3-0.2,0.7-0.2,1
					s0.2,0.6,0.5,0.9c0.5,0.6,1.3,1.1,2.3,1.6c2.1,1,5.1,1.9,8.5,2.5c2.4,0.4,4.2,0.7,6.5,0.7c-0.7,0.2-1.4,0.4-1.9,0.5
					c-1.4,0.5-2.3,0.9-2.6,1.4c-0.1,0.2-0.2,0.5-0.2,0.7c0,0.2,0.1,0.5,0.3,0.6c0.3,0.4,0.8,0.7,1.5,0.9c1.3,0.5,3.3,0.9,5.6,1.1
					c4.6,0.4,10.7-0.1,15.4-2.2c1.1-0.5,2.2-1.1,3.3-1.9c-1.2,0.4-2.4,0.8-3.5,1.2c-2.8,1.1-4.6,1.9-5.6,2.6c-0.5,0.3-0.8,0.6-0.9,1
					c-0.1,0.2,0,0.4,0.1,0.6c0.1,0.1,0.3,0.2,0.5,0.2c0.6,0.1,1.3-0.1,2.4-0.4c0.4-0.1,0.8-0.2,1.2-0.3c-0.9,0.5-1.5,0.9-1.9,1.3
					c-0.4,0.4-0.6,0.8-0.5,1.2c0.1,0.4,0.4,0.7,0.8,0.9c0.8,0.4,2.1,0.5,3.6,0.4c0.9,0,1.9-0.1,2.9-0.3c-0.1,0-0.1,0.1-0.2,0.1
					c-0.4,0.4-0.7,0.7-0.7,1.1s0.2,0.7,0.4,1c0.3,0.2,0.7,0.4,1.1,0.5c1,0.3,2.4,0.5,3.8,0.6c-2.7,0.6-4.5,1.1-5.6,1.9
					c-0.5,0.3-0.8,0.7-0.9,1c-0.2,0.4-0.1,0.8,0.1,1.1c0.4,0.6,1.3,1,2.5,1.3c1.7,0.4,4.2,0.4,6.9,0.1c-0.8,0.4-1.5,0.7-2.1,1
					c-1.2,0.6-1.8,1.2-2,1.8c-0.1,0.3,0.1,0.7,0.3,0.9c0.2,0.3,0.6,0.5,1,0.7c0.9,0.4,2.1,0.8,3.7,1.2c2.7,0.7,5.3,0.5,7.7,0.2
					c0,0.1-0.1,0.2-0.1,0.3c0,0.2,0.1,0.4,0.2,0.5c0.1,0.1,0.2,0.2,0.4,0.2c0.3,0.1,0.6,0.2,1,0.2c0.6,0.1,1.3,0.1,2,0.1
					c-0.7,0.1-1.5,0.2-2.1,0.3c-0.8,0.1-1.6,0.1-2.2,0.2c-0.3,0-0.6,0.1-0.8,0.2c-0.2,0.1-0.4,0.2-0.5,0.5c-0.1,0.2-0.1,0.5,0,0.8
					c0.1,0.2,0.3,0.5,0.5,0.7c0.4,0.4,1.1,0.7,1.9,1c1.4,0.5,3.2,0.9,5.3,1c0,0,0,0,0,0c-0.1,0.1-0.2,0.2-0.3,0.4
					c-0.1,0.2,0,0.4,0,0.5c0.2,0.3,0.4,0.4,0.7,0.5s0.7,0.2,1.1,0.3c1.1,0.2,2.6,0.3,3.7,0.3c-0.3,0.2-0.5,0.4-0.6,0.5
					c-0.2,0.2-0.3,0.4-0.3,0.7c0,0.2,0.2,0.5,0.4,0.6c0.4,0.3,0.9,0.4,1.6,0.5c0.7,0.1,1.5,0.1,2.5,0.1c2.4-0.1,4.8-0.4,7-0.9
					c2.2-0.5,4-1.1,5.6-1.7c2.4-1,3.5-2.1,3.5-2.1s-1.2,1-3.6,1.8c-1.6,0.5-3.4,1-5.6,1.4c-2.2,0.4-4.5,0.7-6.9,0.8
					c-0.9,0-1.8,0-2.4-0.1c-0.6-0.1-1.1-0.2-1.3-0.4c-0.1-0.1-0.1-0.1-0.1-0.1c0,0,0-0.1,0.1-0.2c0.2-0.2,0.7-0.6,1.7-1.1l1.9-0.9
					l-2.1,0.3c-0.8,0.1-3.3,0-4.9-0.3c-0.4-0.1-0.8-0.2-1-0.3c-0.3-0.1-0.4-0.2-0.4-0.2c0,0,0,0.1,0,0.1c0,0,0,0,0.1-0.1
					c0.2-0.1,0.5-0.3,1.1-0.5l1.8-0.6l-1.9,0c-2.6,0-4.9-0.4-6.5-1c-0.8-0.3-1.3-0.6-1.7-0.9c-0.2-0.1-0.3-0.3-0.3-0.4s0-0.2,0-0.3
					c0,0,0,0,0.2-0.1c0.1-0.1,0.4-0.1,0.6-0.1c0.5-0.1,1.3-0.1,2.1-0.2c1.7-0.1,3.8-0.4,5.5-1.4l3.8-2.1l-4.1,1.5
					c-0.5,0.2-1.4,0.3-2.3,0.3c-1,0-2,0-2.8-0.1c-0.4,0-0.7-0.1-0.9-0.2c-0.1,0-0.2-0.1-0.2-0.1c0,0,0,0,0,0.1c0,0.1,0,0.1,0,0
					c0,0,0.1-0.1,0.3-0.2c0.3-0.1,0.8-0.3,1.5-0.5l5.6-1.5l-5.7,0.8c-3.1,0.4-6.4,1.1-9.8,0.1c-1.6-0.4-2.8-0.8-3.6-1.2
					c-0.4-0.2-0.7-0.4-0.8-0.5s-0.2-0.2-0.1-0.4c0-0.2,0.5-0.8,1.6-1.4c1.1-0.6,2.8-1.4,5.1-2.3l4.7-1.9l-4.9,1.2
					c-3.9,1-7.6,1-9.9,0.5c-1.1-0.2-1.9-0.6-2.1-1c-0.1-0.2-0.1-0.3,0-0.5c0.1-0.2,0.3-0.4,0.7-0.7c1.1-0.8,3.8-1.4,7.9-2.3
					c1.4-0.3,2.8-0.6,4.2-1c-1.4,0.2-2.8,0.3-4.2,0.3c-1.7,0-4.6-0.1-6.2-0.6c-0.4-0.1-0.7-0.3-0.9-0.4s-0.2-0.2-0.2-0.4
					c0-0.1,0.1-0.4,0.5-0.7c0.3-0.3,0.9-0.7,1.7-1.1l2.6-1.3l-2.8,0.7c-1.5,0.4-3.2,0.6-4.7,0.7c-1.5,0.1-2.7-0.1-3.3-0.4
					c-0.3-0.1-0.4-0.3-0.4-0.4c0-0.1,0-0.3,0.3-0.6c0.6-0.6,2.2-1.5,5-2.6c1.1-0.4,2.3-0.8,3.4-1.2c-1.2,0.1-2.4,0.3-3.6,0.5
					c-2.1,0.4-3.7,0.9-4.8,1.2c-1.1,0.3-1.8,0.5-2.1,0.4c-0.1,0-0.2-0.1-0.2-0.1c0,0,0,0.1,0,0.1c0,0,0.2-0.3,0.6-0.6
					c0.9-0.6,2.7-1.5,5.5-2.5l-0.3-0.6c-4.6,2.1-10.5,2.6-15.1,2.2c-2.3-0.2-4.2-0.6-5.4-1.1c-0.6-0.2-1-0.5-1.2-0.7
					c-0.1-0.1-0.1-0.2-0.1-0.3s0-0.1,0.1-0.2c0.2-0.3,0.9-0.7,2.3-1.2c1.4-0.4,3.4-0.9,6.2-1.4l7.2-1.3l-7.3,0.6
					c-5,0.4-7,0.2-10.7-0.4c-3.4-0.6-6.4-1.5-8.4-2.5c-1-0.5-1.7-1-2.1-1.4c-0.2-0.2-0.3-0.4-0.3-0.6c0-0.2,0-0.3,0.1-0.5
					c0,0,0.2-0.2,0.5-0.3c0.3-0.1,0.8-0.2,1.3-0.3c1.1-0.1,2.6-0.2,4.4-0.2c3.5,0,7.9,0,12-0.3c2-0.1,4-0.4,6-0.7c-2,0.2-4,0.2-6,0
					c-4.5-0.3-9-1.3-13.9-2.6c-4.1-1.1-8.1-2.8-11.2-5.1c-1.6-1.1-4.3-3.1-5.2-4.4c-0.2-0.3-0.3-0.6-0.3-0.7c0-0.1,0-0.1,0-0.1
					c0,0,0.1-0.1,0.2-0.1c0.5-0.2,2-0.1,4.6,0.5c2.7,0.6,6.5,1.3,11.4,1.5c2.4,0.1,4.8,0,7.2-0.3c-2.4,0-4.8-0.1-7.2-0.4
					c-9-1.3-15.8-5-21.5-12.4c-1.8-2.3-2.7-4-3-5.1c-0.1-0.5-0.1-0.9,0.1-1.1c0.1-0.2,0.4-0.4,0.8-0.5c0,0,0.2,0,0.5,0.2
					c0.3,0.1,0.7,0.4,1.2,0.6c1,0.6,2.4,1.4,4,2.3c3.4,1.8,8,4,13.6,5.4l8.7,2.1l-8.5-2.8c-5.3-1.7-10.5-5-14.8-8.5
					c-3.2-2.6-5.8-5.4-7.6-7.9c-1.8-2.5-2.9-4.7-3-5.9c0-0.3,0-0.4,0-0.5c0-0.1,0-0.1,0.1-0.1c0.1,0,0.6,0.1,1.2,0.4
					c1.2,0.6,3.1,1.9,5.3,3.5c4.5,3.1,10.4,7.3,16,9c0.8,0.2,1.6,0.4,2.4,0.6c-0.7-0.4-1.4-0.8-2.1-1.2c-7.5-4.4-17.7-11-21.5-20.3
					c-0.6-1.5-1.1-2.9-1.3-4c-0.2-1.2-0.2-2.1-0.1-2.5c0.1-0.2,0.2-0.3,0.4-0.3c0.2,0,0.5,0,0.9,0.2c0.9,0.4,2.2,1.3,3.9,3.1
					c4.7,4.6,12.1,10.4,17.2,13.4c7,4.2,14.5,10.1,24.9,13.2c1.6,0.5,3.3,0.9,4.9,1.2c-1.6-0.5-3.2-1.1-4.7-1.8
					c-13.8-6.3-24.2-19.5-30.2-34.4c-1.2-2.9-1.9-5-2.2-6.5c-0.2-0.7-0.3-1.3-0.3-1.7c0-0.4,0.1-0.6,0.1-0.6c0,0,0,0,0,0
					c0,0,0.1,0,0.2,0c0.2,0.1,0.5,0.2,0.9,0.5c0.7,0.6,1.7,1.5,2.8,2.8c4.3,4.9,10.9,13.8,14.9,18.3c7.4,8.2,13.9,13.8,20.1,17.5
					c3.4,2,6.5,3.5,9.3,4.9C208.6,124.1,211.8,126.2,214,128.5z"/>
				
					<path style="clip-path:url(#SVGID_00000089537452326657282850000009733849178297526713_);fill:none;stroke:#000000;stroke-width:1.8645;stroke-linecap:round;stroke-linejoin:round;stroke-miterlimit:10;" d="
					M214,128.5c1,1,1.7,1.9,2.4,2.8c0.6,0.8,0.9,1.4,0.9,1.4s-0.2-0.7-0.6-1.6c-0.5-1-1.2-2.1-2.2-3.1c-2.3-2.4-5.5-4.5-9.4-6.3
					c-2.8-1.4-5.9-2.9-9.2-4.9c-6.1-3.6-12.6-9.2-20-17.3c-4-4.4-10.5-13.3-14.9-18.3c-1.1-1.2-2.1-2.2-2.8-2.8
					c-0.4-0.3-0.7-0.5-1.1-0.6c-0.2-0.1-0.3-0.1-0.5-0.1c-0.2,0-0.3,0.1-0.5,0.3c-0.2,0.3-0.3,0.6-0.3,1.1c0,0.5,0.1,1.1,0.3,1.8
					c0.4,1.5,1.1,3.6,2.3,6.6c5.4,13.5,14.4,25.6,26.3,32.6c-8.1-3.2-14.3-8-20.3-11.6c-5-3-12.4-8.8-17-13.3
					c-1.8-1.8-3.1-2.8-4.1-3.2c-0.5-0.2-1-0.3-1.3-0.2c-0.4,0.1-0.7,0.4-0.9,0.7c-0.3,0.7-0.3,1.7,0,3c0.3,1.2,0.7,2.7,1.4,4.2
					c3.4,8.1,11.3,14.2,18.2,18.5c-4.3-2-8.6-5-12-7.4c-2.2-1.6-4.1-2.9-5.4-3.6c-0.7-0.3-1.2-0.5-1.7-0.4c-0.2,0.1-0.5,0.2-0.6,0.5
					c-0.1,0.2-0.1,0.5-0.1,0.8c0.1,1.5,1.3,3.7,3.1,6.2c1.9,2.5,4.5,5.4,7.7,8c2.6,2.2,5.5,4.2,8.7,5.9c-2.6-1-4.9-2.2-6.8-3.2
					c-1.7-0.9-3-1.7-4-2.3c-0.5-0.3-0.9-0.5-1.3-0.7c-0.3-0.2-0.6-0.3-0.9-0.2c-0.6,0.1-1,0.4-1.3,0.8c-0.3,0.4-0.3,1-0.1,1.6
					c0.3,1.3,1.3,3,3.1,5.3c4.6,6.1,10.1,9.7,16.8,11.6c-2.4-0.3-4.3-0.7-5.9-1.1c-2.6-0.6-4.1-0.7-4.9-0.5
					c-0.2,0.1-0.4,0.2-0.5,0.3c-0.1,0.2-0.2,0.4-0.2,0.5c0,0.4,0.2,0.7,0.5,1.1c1.1,1.5,3.8,3.4,5.3,4.6c3.2,2.3,7.3,4.1,11.4,5.2
					c3.3,0.9,6.5,1.6,9.6,2.1c-2.7,0.1-5.3,0-7.5,0.1c-1.8,0-3.3,0.1-4.5,0.2c-0.6,0.1-1.1,0.2-1.5,0.3c-0.4,0.1-0.7,0.3-0.9,0.6
					c-0.2,0.3-0.2,0.7-0.2,1s0.2,0.6,0.5,0.9c0.5,0.6,1.3,1.1,2.3,1.6c2.1,1,5.1,1.9,8.5,2.5c2.4,0.4,4.2,0.7,6.5,0.7
					c-0.7,0.2-1.4,0.4-1.9,0.5c-1.4,0.5-2.3,0.9-2.6,1.4c-0.1,0.2-0.2,0.5-0.2,0.7c0,0.2,0.1,0.5,0.3,0.6c0.3,0.4,0.8,0.7,1.5,0.9
					c1.3,0.5,3.3,0.9,5.6,1.1c4.6,0.4,10.7-0.1,15.4-2.2c1.1-0.5,2.2-1.1,3.3-1.9c-1.2,0.4-2.4,0.8-3.5,1.2
					c-2.8,1.1-4.6,1.9-5.6,2.6c-0.5,0.3-0.8,0.6-0.9,1c-0.1,0.2,0,0.4,0.1,0.6c0.1,0.1,0.3,0.2,0.5,0.2c0.6,0.1,1.3-0.1,2.4-0.4
					c0.4-0.1,0.8-0.2,1.2-0.3c-0.9,0.5-1.5,0.9-1.9,1.3c-0.4,0.4-0.6,0.8-0.5,1.2c0.1,0.4,0.4,0.7,0.8,0.9c0.8,0.4,2.1,0.5,3.6,0.4
					c0.9,0,1.9-0.1,2.9-0.3c-0.1,0-0.1,0.1-0.2,0.1c-0.4,0.4-0.7,0.7-0.7,1.1s0.2,0.7,0.4,1c0.3,0.2,0.7,0.4,1.1,0.5
					c1,0.3,2.4,0.5,3.8,0.6c-2.7,0.6-4.5,1.1-5.6,1.9c-0.5,0.3-0.8,0.7-0.9,1c-0.2,0.4-0.1,0.8,0.1,1.1c0.4,0.6,1.3,1,2.5,1.3
					c1.7,0.4,4.2,0.4,6.9,0.1c-0.8,0.4-1.5,0.7-2.1,1c-1.2,0.6-1.8,1.2-2,1.8c-0.1,0.3,0.1,0.7,0.3,0.9c0.2,0.3,0.6,0.5,1,0.7
					c0.9,0.4,2.1,0.8,3.7,1.2c2.7,0.7,5.3,0.5,7.7,0.2c0,0.1-0.1,0.2-0.1,0.3c0,0.2,0.1,0.4,0.2,0.5c0.1,0.1,0.2,0.2,0.4,0.2
					c0.3,0.1,0.6,0.2,1,0.2c0.6,0.1,1.3,0.1,2,0.1c-0.7,0.1-1.5,0.2-2.1,0.3c-0.8,0.1-1.6,0.1-2.2,0.2c-0.3,0-0.6,0.1-0.8,0.2
					c-0.2,0.1-0.4,0.2-0.5,0.5c-0.1,0.2-0.1,0.5,0,0.8c0.1,0.2,0.3,0.5,0.5,0.7c0.4,0.4,1.1,0.7,1.9,1c1.4,0.5,3.2,0.9,5.3,1
					c0,0,0,0,0,0c-0.1,0.1-0.2,0.2-0.3,0.4c-0.1,0.2,0,0.4,0,0.5c0.2,0.3,0.4,0.4,0.7,0.5s0.7,0.2,1.1,0.3c1.1,0.2,2.6,0.3,3.7,0.3
					c-0.3,0.2-0.5,0.4-0.6,0.5c-0.2,0.2-0.3,0.4-0.3,0.7c0,0.2,0.2,0.5,0.4,0.6c0.4,0.3,0.9,0.4,1.6,0.5c0.7,0.1,1.5,0.1,2.5,0.1
					c2.4-0.1,4.8-0.4,7-0.9c2.2-0.5,4-1.1,5.6-1.7c2.4-1,3.5-2.1,3.5-2.1s-1.2,1-3.6,1.8c-1.6,0.5-3.4,1-5.6,1.4
					c-2.2,0.4-4.5,0.7-6.9,0.8c-0.9,0-1.8,0-2.4-0.1c-0.6-0.1-1.1-0.2-1.3-0.4c-0.1-0.1-0.1-0.1-0.1-0.1c0,0,0-0.1,0.1-0.2
					c0.2-0.2,0.7-0.6,1.7-1.1l1.9-0.9l-2.1,0.3c-0.8,0.1-3.3,0-4.9-0.3c-0.4-0.1-0.8-0.2-1-0.3c-0.3-0.1-0.4-0.2-0.4-0.2
					c0,0,0,0.1,0,0.1c0,0,0,0,0.1-0.1c0.2-0.1,0.5-0.3,1.1-0.5l1.8-0.6l-1.9,0c-2.6,0-4.9-0.4-6.5-1c-0.8-0.3-1.3-0.6-1.7-0.9
					c-0.2-0.1-0.3-0.3-0.3-0.4s0-0.2,0-0.3c0,0,0,0,0.2-0.1c0.1-0.1,0.4-0.1,0.6-0.1c0.5-0.1,1.3-0.1,2.1-0.2
					c1.7-0.1,3.8-0.4,5.5-1.4l3.8-2.1l-4.1,1.5c-0.5,0.2-1.4,0.3-2.3,0.3c-1,0-2,0-2.8-0.1c-0.4,0-0.7-0.1-0.9-0.2
					c-0.1,0-0.2-0.1-0.2-0.1c0,0,0,0,0,0.1c0,0.1,0,0.1,0,0c0,0,0.1-0.1,0.3-0.2c0.3-0.1,0.8-0.3,1.5-0.5l5.6-1.5l-5.7,0.8
					c-3.1,0.4-6.4,1.1-9.8,0.1c-1.6-0.4-2.8-0.8-3.6-1.2c-0.4-0.2-0.7-0.4-0.8-0.5s-0.2-0.2-0.1-0.4c0-0.2,0.5-0.8,1.6-1.4
					c1.1-0.6,2.8-1.4,5.1-2.3l4.7-1.9l-4.9,1.2c-3.9,1-7.6,1-9.9,0.5c-1.1-0.2-1.9-0.6-2.1-1c-0.1-0.2-0.1-0.3,0-0.5
					c0.1-0.2,0.3-0.4,0.7-0.7c1.1-0.8,3.8-1.4,7.9-2.3c1.4-0.3,2.8-0.6,4.2-1c-1.4,0.2-2.8,0.3-4.2,0.3c-1.7,0-4.6-0.1-6.2-0.6
					c-0.4-0.1-0.7-0.3-0.9-0.4s-0.2-0.2-0.2-0.4c0-0.1,0.1-0.4,0.5-0.7c0.3-0.3,0.9-0.7,1.7-1.1l2.6-1.3l-2.8,0.7
					c-1.5,0.4-3.2,0.6-4.7,0.7c-1.5,0.1-2.7-0.1-3.3-0.4c-0.3-0.1-0.4-0.3-0.4-0.4c0-0.1,0-0.3,0.3-0.6c0.6-0.6,2.2-1.5,5-2.6
					c1.1-0.4,2.3-0.8,3.4-1.2c-1.2,0.1-2.4,0.3-3.6,0.5c-2.1,0.4-3.7,0.9-4.8,1.2c-1.1,0.3-1.8,0.5-2.1,0.4c-0.1,0-0.2-0.1-0.2-0.1
					c0,0,0,0.1,0,0.1c0,0,0.2-0.3,0.6-0.6c0.9-0.6,2.7-1.5,5.5-2.5l-0.3-0.6c-4.6,2.1-10.5,2.6-15.1,2.2c-2.3-0.2-4.2-0.6-5.4-1.1
					c-0.6-0.2-1-0.5-1.2-0.7c-0.1-0.1-0.1-0.2-0.1-0.3s0-0.1,0.1-0.2c0.2-0.3,0.9-0.7,2.3-1.2c1.4-0.4,3.4-0.9,6.2-1.4l7.2-1.3
					l-7.3,0.6c-5,0.4-7,0.2-10.7-0.4c-3.4-0.6-6.4-1.5-8.4-2.5c-1-0.5-1.7-1-2.1-1.4c-0.2-0.2-0.3-0.4-0.3-0.6c0-0.2,0-0.3,0.1-0.5
					c0,0,0.2-0.2,0.5-0.3c0.3-0.1,0.8-0.2,1.3-0.3c1.1-0.1,2.6-0.2,4.4-0.2c3.5,0,7.9,0,12-0.3c2-0.1,4-0.4,6-0.7c-2,0.2-4,0.2-6,0
					c-4.5-0.3-9-1.3-13.9-2.6c-4.1-1.1-8.1-2.8-11.2-5.1c-1.6-1.1-4.3-3.1-5.2-4.4c-0.2-0.3-0.3-0.6-0.3-0.7c0-0.1,0-0.1,0-0.1
					c0,0,0.1-0.1,0.2-0.1c0.5-0.2,2-0.1,4.6,0.5c2.7,0.6,6.5,1.3,11.4,1.5c2.4,0.1,4.8,0,7.2-0.3c-2.4,0-4.8-0.1-7.2-0.4
					c-9-1.3-15.8-5-21.5-12.4c-1.8-2.3-2.7-4-3-5.1c-0.1-0.5-0.1-0.9,0.1-1.1c0.1-0.2,0.4-0.4,0.8-0.5c0,0,0.2,0,0.5,0.2
					c0.3,0.1,0.7,0.4,1.2,0.6c1,0.6,2.4,1.4,4,2.3c3.4,1.8,8,4,13.6,5.4l8.7,2.1l-8.5-2.8c-5.3-1.7-10.5-5-14.8-8.5
					c-3.2-2.6-5.8-5.4-7.6-7.9c-1.8-2.5-2.9-4.7-3-5.9c0-0.3,0-0.4,0-0.5c0-0.1,0-0.1,0.1-0.1c0.1,0,0.6,0.1,1.2,0.4
					c1.2,0.6,3.1,1.9,5.3,3.5c4.5,3.1,10.4,7.3,16,9c0.8,0.2,1.6,0.4,2.4,0.6c-0.7-0.4-1.4-0.8-2.1-1.2c-7.5-4.4-17.7-11-21.5-20.3
					c-0.6-1.5-1.1-2.9-1.3-4c-0.2-1.2-0.2-2.1-0.1-2.5c0.1-0.2,0.2-0.3,0.4-0.3c0.2,0,0.5,0,0.9,0.2c0.9,0.4,2.2,1.3,3.9,3.1
					c4.7,4.6,12.1,10.4,17.2,13.4c7,4.2,14.5,10.1,24.9,13.2c1.6,0.5,3.3,0.9,4.9,1.2c-1.6-0.5-3.2-1.1-4.7-1.8
					c-13.8-6.3-24.2-19.5-30.2-34.4c-1.2-2.9-1.9-5-2.2-6.5c-0.2-0.7-0.3-1.3-0.3-1.7c0-0.4,0.1-0.6,0.1-0.6c0,0,0,0,0,0
					c0,0,0.1,0,0.2,0c0.2,0.1,0.5,0.2,0.9,0.5c0.7,0.6,1.7,1.5,2.8,2.8c4.3,4.9,10.9,13.8,14.9,18.3c7.4,8.2,13.9,13.8,20.1,17.5
					c3.4,2,6.5,3.5,9.3,4.9C208.6,124.1,211.8,126.2,214,128.5z"/>
				<path style="clip-path:url(#SVGID_00000089537452326657282850000009733849178297526713_);" d="M186.4,124.5c0.2,0,0.4,0,0.6,0
					c1.2,0.1,2.4,0.2,3.2,0.2c0.9,0.1,1.4,0.1,1.4,0.1s-0.5-0.2-1.4-0.4c-0.8-0.2-2-0.5-3.2-0.6c-0.2,0-0.4,0-0.6,0
					c-0.4,0-0.7,0-1,0.3c-0.1,0.1-0.1,0.4-0.1,0.5c0,0.2,0.1,0.3,0.2,0.4c0.2,0.2,0.4,0.4,0.7,0.6c-1.3-0.5-2.4-0.8-3.3-1
					c-0.7-0.1-1.2-0.2-1.7-0.1c-0.4,0.1-0.8,0.2-1,0.6c-0.1,0.3-0.1,0.7,0.1,1.2s0.5,0.9,1,1.4c0.7,0.7,1.7,1.5,3.2,2.3
					c-1-0.2-1.9-0.5-2.6-0.8c-2.4-1.1-3.9-1.5-5-1.5c-0.5,0-1,0.2-1.2,0.5c-0.3,0.3-0.3,0.7-0.3,1.2c0.1,0.9,0.7,1.9,1.5,2.9
					c0.8,1.1,1.8,2.2,2.9,3.2c2.9,2.7,6.5,4.5,9.9,5.7c-2.4-0.5-4.7-1-7.5-1.1c-0.7,0-1.2,0-1.6,0.2c-0.4,0.1-0.7,0.4-0.9,0.7
					c-0.4,0.7-0.1,1.5,0.5,2.3c1.1,1.6,3.6,3.5,6.7,4.6c5.4,2,8.9,2.4,12.5,2.5c-1.8,0.2-3.3,0.3-4.6,0.4c-1.1,0.1-1.9,0.1-2.6,0.3
					c-0.7,0.1-1.2,0.3-1.5,0.7c-0.2,0.3-0.3,0.7-0.1,1.1c0.1,0.4,0.4,0.7,0.7,1c0.7,0.6,1.8,1.1,3.1,1.5c2.2,0.7,5,1.2,7.7,1
					c-0.4,0.2-0.6,0.5-0.9,0.7c-0.5,0.5-0.6,1-0.5,1.5c0.2,0.5,0.6,0.8,1.2,1c0.6,0.2,1.3,0.3,2.1,0.4c3.2,0.2,8-0.7,10.4-3.3
					c0.4-0.5,0.8-1,1.1-1.6c-0.5,0.4-1,0.7-1.5,1.2c-1.1,0.9-1.7,1.6-2,2.2c-0.1,0.3-0.2,0.6-0.1,0.8c0.1,0.3,0.3,0.5,0.5,0.6
					c0.5,0.2,1,0.2,1.7,0.1c-0.5,0.4-1,0.8-1.4,1.1c-0.8,0.8-1.4,1.4-1.4,2c0,0.3,0.1,0.7,0.4,0.9c0.3,0.2,0.7,0.3,1.1,0.4
					c0.5,0.1,1.2,0.1,2,0.1c-1.2,0.6-2,1.1-2.5,1.6c-0.4,0.4-0.5,0.8-0.4,1.2c0.1,0.4,0.4,0.7,0.9,0.9c0.8,0.4,2.2,0.6,3.7,0.7
					c0.9,0,1.9,0,3-0.1c-0.2,0.1-0.5,0.3-0.6,0.4c-0.3,0.2-0.6,0.4-0.7,0.6c-0.2,0.2-0.3,0.4-0.3,0.7c0,0.3,0.2,0.5,0.4,0.6
					c0.2,0.1,0.5,0.2,0.8,0.2c0.1,0,0.3,0,0.4,0c-0.5,0.3-0.9,0.5-1.3,0.8c-0.4,0.3-0.7,0.5-0.8,0.8c-0.2,0.3-0.2,0.7-0.1,1
					c0.2,0.3,0.4,0.5,0.8,0.7s0.8,0.3,1.4,0.4c0.9,0.2,2,0.4,3.4,0.5c-0.2,0.1-0.3,0.2-0.5,0.3c-0.5,0.3-0.8,0.6-0.8,1
					c-0.1,0.4,0.1,0.8,0.4,1.1c0.3,0.3,0.7,0.6,1.1,0.8c2.5,1.3,4,1.9,8.1,1.8c-0.1,0.1-0.2,0.1-0.3,0.2c-0.6,0.3-0.9,0.6-1,1.1
					c-0.1,0.4,0.2,0.8,0.5,1.1c0.3,0.3,0.8,0.5,1.4,0.7c1.7,0.7,4.3,1.2,6.2,1.3c-0.2,0.1-0.4,0.3-0.6,0.4c-0.4,0.3-0.7,0.7-0.7,1.2
					c0,0.4,0.3,0.8,0.6,1.1c0.3,0.3,0.8,0.5,1.4,0.7c1.7,0.7,4.2,1,6.4,0.8c-0.1,0.1-0.1,0.1-0.1,0.2c-0.1,0.2,0,0.4,0.1,0.5
					c0.2,0.3,0.5,0.4,0.9,0.4c0.4,0.1,0.8,0.1,1.3,0.1c2,0,3.9-0.3,5.6-0.7c1-0.3,1.8-0.5,2.5-0.8c1.1-0.5,1.5-1,1.5-1
					s-0.5,0.5-1.6,0.8c-0.7,0.2-1.5,0.4-2.6,0.6c-1.7,0.3-3.5,0.5-5.5,0.5c-0.5,0-0.9,0-1.2-0.1c-0.3-0.1-0.4-0.2-0.4-0.2
					c0,0,0,0.1,0,0.1c0,0,0-0.1,0.1-0.1c0.2-0.2,0.6-0.4,1.1-0.7l4.3-2l-4.5,1.3c-2.3,0.7-5.8,0.4-7.7-0.4c-0.5-0.2-0.9-0.4-1.2-0.6
					c-0.3-0.2-0.4-0.4-0.4-0.6c0-0.2,0.1-0.4,0.4-0.6c0.3-0.3,0.9-0.6,1.7-0.9l1.8-0.7h-1.9c-1.6,0-5.3-0.6-7.4-1.4
					c-0.5-0.2-0.9-0.4-1.2-0.6c-0.2-0.2-0.3-0.3-0.3-0.4c0-0.1,0.2-0.3,0.7-0.6c0.5-0.3,1.2-0.5,2.3-0.8l3-0.8l-3.1,0.1
					c-5.8,0.2-7.1-0.2-10-1.7c-0.4-0.2-0.8-0.5-0.9-0.7c-0.2-0.2-0.2-0.3-0.2-0.5c0-0.1,0.2-0.3,0.5-0.6c0.4-0.2,0.9-0.5,1.7-0.7
					c0.8-0.2,1.6-0.4,2.4-0.5c-0.8,0-1.6-0.1-2.4-0.2c-2.1-0.2-3.7-0.4-4.8-0.6c-0.6-0.1-1-0.3-1.3-0.4c-0.3-0.1-0.5-0.3-0.5-0.4
					c0-0.1-0.1-0.1,0-0.3c0.1-0.2,0.3-0.4,0.7-0.6c0.7-0.5,1.9-1.1,3.6-1.8l4.3-1.8l-4.5,1.1c-1.3,0.3-2.3,0.5-2.9,0.5
					c-0.3,0-0.5-0.1-0.5-0.1c-0.1,0,0,0,0,0c0,0,0-0.1,0.2-0.3c0.1-0.1,0.3-0.3,0.6-0.5c0.6-0.4,1.4-0.9,2.5-1.3l3-1.3l-3.2,0.6
					c-1.7,0.3-3.5,0.5-5,0.4c-1.5,0-2.8-0.3-3.4-0.6c-0.3-0.2-0.5-0.3-0.5-0.5c0-0.1,0-0.3,0.3-0.6c0.5-0.6,1.9-1.4,4.5-2.3l3-1.1
					l-3.1,0.4c-2,0.2-3.4,0.3-4.2,0.2c-0.4-0.1-0.7-0.2-0.8-0.3c-0.1-0.1-0.2-0.1-0.1-0.3c0-0.3,0.4-0.9,1.2-1.6
					c0.8-0.7,2-1.6,3.4-2.6l5.3-3.6l-5.7,3c-0.8,0.4-1.6,0.7-2.2,0.8c-0.6,0.1-1.2,0.1-1.4,0c-0.1,0-0.1-0.1-0.1-0.1
					c0-0.1,0-0.2,0.1-0.4c0.2-0.4,0.8-1.1,1.8-1.9l-0.5-0.5c-2.1,2.3-6.8,3.2-9.8,3c-0.8-0.1-1.4-0.2-1.9-0.3
					c-0.5-0.2-0.7-0.4-0.8-0.6c-0.1-0.2,0-0.4,0.3-0.8c0.4-0.4,1-0.8,2.1-1.4l1.9-1l-2.1,0.3c-3,0.4-6.5,0-9-0.9
					c-1.3-0.4-2.3-0.9-2.9-1.4c-0.3-0.2-0.5-0.5-0.5-0.7c-0.1-0.2-0.1-0.3,0.1-0.5c0.1-0.1,0.4-0.3,1-0.4s1.5-0.2,2.5-0.2
					c2.1-0.1,5.1-0.3,8.9-1.1c1-0.2,1.9-0.4,2.9-0.6c-1,0-2,0-3,0c-5.7,0-9.2,0.3-16.6-2.5c-2.9-1.1-5.3-2.9-6.3-4.4
					c-0.5-0.7-0.6-1.3-0.4-1.6c0.1-0.2,0.2-0.3,0.5-0.4c0.3-0.1,0.8-0.2,1.4-0.1c4.2,0.2,7.6,1.4,11.5,1.8c0.9,0.1,1.8,0.1,2.7,0.1
					c-0.9-0.2-1.7-0.5-2.6-0.8c-4.2-1.3-9.5-3.2-13.5-6.9c-1.1-1-2.1-2.1-2.8-3.1c-0.8-1-1.3-2-1.4-2.6c0-0.3,0-0.5,0.1-0.6
					c0.1-0.1,0.3-0.2,0.7-0.2c0.8,0,2.4,0.4,4.7,1.4c1.5,0.7,3.4,1,5.3,1.4l3.1,0.7l-2.8-1.4c-2.7-1.3-4.3-2.5-5.3-3.4
					c-0.5-0.5-0.7-0.9-0.9-1.2c-0.1-0.3-0.1-0.5-0.1-0.6c0-0.1,0.1-0.1,0.4-0.2c0.3,0,0.8,0,1.4,0.1c1.3,0.3,3.2,0.9,5.9,2.1
					l3.8,1.7L189,127c-1.6-1.1-2.6-1.9-2.9-2.3c-0.1-0.1-0.1-0.2-0.1-0.2c0,0,0,0.1,0,0.1C185.9,124.7,186,124.5,186.4,124.5z"/>
				
					<path style="clip-path:url(#SVGID_00000089537452326657282850000009733849178297526713_);fill:none;stroke:#000000;stroke-width:1.8645;stroke-linecap:round;stroke-linejoin:round;stroke-miterlimit:10;" d="
					M186.4,124.5c0.2,0,0.4,0,0.6,0c1.2,0.1,2.4,0.2,3.2,0.2c0.9,0.1,1.4,0.1,1.4,0.1s-0.5-0.2-1.4-0.4c-0.8-0.2-2-0.5-3.2-0.6
					c-0.2,0-0.4,0-0.6,0c-0.4,0-0.7,0-1,0.3c-0.1,0.1-0.1,0.4-0.1,0.5c0,0.2,0.1,0.3,0.2,0.4c0.2,0.2,0.4,0.4,0.7,0.6
					c-1.3-0.5-2.4-0.8-3.3-1c-0.7-0.1-1.2-0.2-1.7-0.1c-0.4,0.1-0.8,0.2-1,0.6c-0.1,0.3-0.1,0.7,0.1,1.2s0.5,0.9,1,1.4
					c0.7,0.7,1.7,1.5,3.2,2.3c-1-0.2-1.9-0.5-2.6-0.8c-2.4-1.1-3.9-1.5-5-1.5c-0.5,0-1,0.2-1.2,0.5c-0.3,0.3-0.3,0.7-0.3,1.2
					c0.1,0.9,0.7,1.9,1.5,2.9c0.8,1.1,1.8,2.2,2.9,3.2c2.9,2.7,6.5,4.5,9.9,5.7c-2.4-0.5-4.7-1-7.5-1.1c-0.7,0-1.2,0-1.6,0.2
					c-0.4,0.1-0.7,0.4-0.9,0.7c-0.4,0.7-0.1,1.5,0.5,2.3c1.1,1.6,3.6,3.5,6.7,4.6c5.4,2,8.9,2.4,12.5,2.5c-1.8,0.2-3.3,0.3-4.6,0.4
					c-1.1,0.1-1.9,0.1-2.6,0.3c-0.7,0.1-1.2,0.3-1.5,0.7c-0.2,0.3-0.3,0.7-0.1,1.1c0.1,0.4,0.4,0.7,0.7,1c0.7,0.6,1.8,1.1,3.1,1.5
					c2.2,0.7,5,1.2,7.7,1c-0.4,0.2-0.6,0.5-0.9,0.7c-0.5,0.5-0.6,1-0.5,1.5c0.2,0.5,0.6,0.8,1.2,1c0.6,0.2,1.3,0.3,2.1,0.4
					c3.2,0.2,8-0.7,10.4-3.3c0.4-0.5,0.8-1,1.1-1.6c-0.5,0.4-1,0.7-1.5,1.2c-1.1,0.9-1.7,1.6-2,2.2c-0.1,0.3-0.2,0.6-0.1,0.8
					c0.1,0.3,0.3,0.5,0.5,0.6c0.5,0.2,1,0.2,1.7,0.1c-0.5,0.4-1,0.8-1.4,1.1c-0.8,0.8-1.4,1.4-1.4,2c0,0.3,0.1,0.7,0.4,0.9
					c0.3,0.2,0.7,0.3,1.1,0.4c0.5,0.1,1.2,0.1,2,0.1c-1.2,0.6-2,1.1-2.5,1.6c-0.4,0.4-0.5,0.8-0.4,1.2c0.1,0.4,0.4,0.7,0.9,0.9
					c0.8,0.4,2.2,0.6,3.7,0.7c0.9,0,1.9,0,3-0.1c-0.2,0.1-0.5,0.3-0.6,0.4c-0.3,0.2-0.6,0.4-0.7,0.6c-0.2,0.2-0.3,0.4-0.3,0.7
					c0,0.3,0.2,0.5,0.4,0.6c0.2,0.1,0.5,0.2,0.8,0.2c0.1,0,0.3,0,0.4,0c-0.5,0.3-0.9,0.5-1.3,0.8c-0.4,0.3-0.7,0.5-0.8,0.8
					c-0.2,0.3-0.2,0.7-0.1,1c0.2,0.3,0.4,0.5,0.8,0.7s0.8,0.3,1.4,0.4c0.9,0.2,2,0.4,3.4,0.5c-0.2,0.1-0.3,0.2-0.5,0.3
					c-0.5,0.3-0.8,0.6-0.8,1c-0.1,0.4,0.1,0.8,0.4,1.1c0.3,0.3,0.7,0.6,1.1,0.8c2.5,1.3,4,1.9,8.1,1.8c-0.1,0.1-0.2,0.1-0.3,0.2
					c-0.6,0.3-0.9,0.6-1,1.1c-0.1,0.4,0.2,0.8,0.5,1.1c0.3,0.3,0.8,0.5,1.4,0.7c1.7,0.7,4.3,1.2,6.2,1.3c-0.2,0.1-0.4,0.3-0.6,0.4
					c-0.4,0.3-0.7,0.7-0.7,1.2c0,0.4,0.3,0.8,0.6,1.1c0.3,0.3,0.8,0.5,1.4,0.7c1.7,0.7,4.2,1,6.4,0.8c-0.1,0.1-0.1,0.1-0.1,0.2
					c-0.1,0.2,0,0.4,0.1,0.5c0.2,0.3,0.5,0.4,0.9,0.4c0.4,0.1,0.8,0.1,1.3,0.1c2,0,3.9-0.3,5.6-0.7c1-0.3,1.8-0.5,2.5-0.8
					c1.1-0.5,1.5-1,1.5-1s-0.5,0.5-1.6,0.8c-0.7,0.2-1.5,0.4-2.6,0.6c-1.7,0.3-3.5,0.5-5.5,0.5c-0.5,0-0.9,0-1.2-0.1
					c-0.3-0.1-0.4-0.2-0.4-0.2c0,0,0,0.1,0,0.1c0,0,0-0.1,0.1-0.1c0.2-0.2,0.6-0.4,1.1-0.7l4.3-2l-4.5,1.3c-2.3,0.7-5.8,0.4-7.7-0.4
					c-0.5-0.2-0.9-0.4-1.2-0.6c-0.3-0.2-0.4-0.4-0.4-0.6c0-0.2,0.1-0.4,0.4-0.6c0.3-0.3,0.9-0.6,1.7-0.9l1.8-0.7h-1.9
					c-1.6,0-5.3-0.6-7.4-1.4c-0.5-0.2-0.9-0.4-1.2-0.6c-0.2-0.2-0.3-0.3-0.3-0.4c0-0.1,0.2-0.3,0.7-0.6c0.5-0.3,1.2-0.5,2.3-0.8
					l3-0.8l-3.1,0.1c-5.8,0.2-7.1-0.2-10-1.7c-0.4-0.2-0.8-0.5-0.9-0.7c-0.2-0.2-0.2-0.3-0.2-0.5c0-0.1,0.2-0.3,0.5-0.6
					c0.4-0.2,0.9-0.5,1.7-0.7c0.8-0.2,1.6-0.4,2.4-0.5c-0.8,0-1.6-0.1-2.4-0.2c-2.1-0.2-3.7-0.4-4.8-0.6c-0.6-0.1-1-0.3-1.3-0.4
					c-0.3-0.1-0.5-0.3-0.5-0.4c0-0.1-0.1-0.1,0-0.3c0.1-0.2,0.3-0.4,0.7-0.6c0.7-0.5,1.9-1.1,3.6-1.8l4.3-1.8l-4.5,1.1
					c-1.3,0.3-2.3,0.5-2.9,0.5c-0.3,0-0.5-0.1-0.5-0.1c-0.1,0,0,0,0,0c0,0,0-0.1,0.2-0.3c0.1-0.1,0.3-0.3,0.6-0.5
					c0.6-0.4,1.4-0.9,2.5-1.3l3-1.3l-3.2,0.6c-1.7,0.3-3.5,0.5-5,0.4c-1.5,0-2.8-0.3-3.4-0.6c-0.3-0.2-0.5-0.3-0.5-0.5
					c0-0.1,0-0.3,0.3-0.6c0.5-0.6,1.9-1.4,4.5-2.3l3-1.1l-3.1,0.4c-2,0.2-3.4,0.3-4.2,0.2c-0.4-0.1-0.7-0.2-0.8-0.3
					c-0.1-0.1-0.2-0.1-0.1-0.3c0-0.3,0.4-0.9,1.2-1.6c0.8-0.7,2-1.6,3.4-2.6l5.3-3.6l-5.7,3c-0.8,0.4-1.6,0.7-2.2,0.8
					c-0.6,0.1-1.2,0.1-1.4,0c-0.1,0-0.1-0.1-0.1-0.1c0-0.1,0-0.2,0.1-0.4c0.2-0.4,0.8-1.1,1.8-1.9l-0.5-0.5c-2.1,2.3-6.8,3.2-9.8,3
					c-0.8-0.1-1.4-0.2-1.9-0.3c-0.5-0.2-0.7-0.4-0.8-0.6c-0.1-0.2,0-0.4,0.3-0.8c0.4-0.4,1-0.8,2.1-1.4l1.9-1l-2.1,0.3
					c-3,0.4-6.5,0-9-0.9c-1.3-0.4-2.3-0.9-2.9-1.4c-0.3-0.2-0.5-0.5-0.5-0.7c-0.1-0.2-0.1-0.3,0.1-0.5c0.1-0.1,0.4-0.3,1-0.4
					s1.5-0.2,2.5-0.2c2.1-0.1,5.1-0.3,8.9-1.1c1-0.2,1.9-0.4,2.9-0.6c-1,0-2,0-3,0c-5.7,0-9.2,0.3-16.6-2.5
					c-2.9-1.1-5.3-2.9-6.3-4.4c-0.5-0.7-0.6-1.3-0.4-1.6c0.1-0.2,0.2-0.3,0.5-0.4c0.3-0.1,0.8-0.2,1.4-0.1c4.2,0.2,7.6,1.4,11.5,1.8
					c0.9,0.1,1.8,0.1,2.7,0.1c-0.9-0.2-1.7-0.5-2.6-0.8c-4.2-1.3-9.5-3.2-13.5-6.9c-1.1-1-2.1-2.1-2.8-3.1c-0.8-1-1.3-2-1.4-2.6
					c0-0.3,0-0.5,0.1-0.6c0.1-0.1,0.3-0.2,0.7-0.2c0.8,0,2.4,0.4,4.7,1.4c1.5,0.7,3.4,1,5.3,1.4l3.1,0.7l-2.8-1.4
					c-2.7-1.3-4.3-2.5-5.3-3.4c-0.5-0.5-0.7-0.9-0.9-1.2c-0.1-0.3-0.1-0.5-0.1-0.6c0-0.1,0.1-0.1,0.4-0.2c0.3,0,0.8,0,1.4,0.1
					c1.3,0.3,3.2,0.9,5.9,2.1l3.8,1.7L189,127c-1.6-1.1-2.6-1.9-2.9-2.3c-0.1-0.1-0.1-0.2-0.1-0.2c0,0,0,0.1,0,0.1
					C185.9,124.7,186,124.5,186.4,124.5z"/>
			</g>
		</g>
	</g>
</g>
</svg>
