<?xml version="1.0" encoding="utf-8"?>
<!-- Generator: Adobe Illustrator 26.4.1, SVG Export Plug-In . SVG Version: 6.00 Build 0)  -->
<svg version="1.1" id="Layer_1" xmlns="http://www.w3.org/2000/svg" xmlns:xlink="http://www.w3.org/1999/xlink" x="0px" y="0px"
	 viewBox="0 0 515.3 274" style="enable-background:new 0 0 515.3 274;" xml:space="preserve">
<style type="text/css">
	.st0{fill:none;stroke:#836FBA;stroke-miterlimit:10;}
	.st1{clip-path:url(#SVGID_00000119837005651909891270000004291546787083629454_);}
	.st2{clip-path:url(#SVGID_00000075152954781854597080000004147682962372723330_);}
	.st3{opacity:0;clip-path:url(#SVGID_00000025410098787846721470000016119400145715821210_);}
	.st4{clip-path:url(#SVGID_00000166646075685736166160000000439782386672177569_);fill:#FFFFFF;}
	.st5{clip-path:url(#SVGID_00000127008233159593501650000014682276634412937912_);}
	.st6{enable-background:new    ;}
	.st7{clip-path:url(#SVGID_00000091697453909577157220000016829088781523680693_);}
	.st8{opacity:0;clip-path:url(#SVGID_00000065067396524336238510000011352768572474687128_);}
	.st9{clip-path:url(#SVGID_00000179640492149795398210000008743619076463182727_);fill:#FFFFFF;}
	.st10{clip-path:url(#SVGID_00000095308825199317524720000009045502021179574185_);}
	.st11{clip-path:url(#SVGID_00000078765957958260225360000011732918931658195639_);fill:#FFFFFF;}
	.st12{clip-path:url(#SVGID_00000139293168910008696190000010692931828121555635_);}
	
		.st13{clip-path:url(#SVGID_00000084516006820310125100000010125852334758732703_);fill:none;stroke:#000000;stroke-width:1.8339;stroke-linecap:round;stroke-linejoin:round;stroke-miterlimit:10;}
	.st14{clip-path:url(#SVGID_00000108290749612045058410000013849098409232953267_);}
	
		.st15{clip-path:url(#SVGID_00000073719460887801396110000007225156538731114381_);fill:none;stroke:#000000;stroke-width:1.8339;stroke-linecap:round;stroke-linejoin:round;stroke-miterlimit:10;}
	.st16{clip-path:url(#SVGID_00000049932442507548526680000006837637986112574342_);}
	
		.st17{clip-path:url(#SVGID_00000177446387903368248760000002696029708299573410_);fill:none;stroke:#000000;stroke-width:1.8339;stroke-linecap:round;stroke-linejoin:round;stroke-miterlimit:10;}
	.st18{opacity:0.25;fill:#836FBA;enable-background:new    ;}
</style>
<line class="st0" x1="59.8" y1="119.8" x2="455.8" y2="119.8"/>
<line class="st0" x1="59.8" y1="159" x2="455.8" y2="159"/>
<line class="st0" x1="139.3" y1="31.5" x2="139.3" y2="242.5"/>
<line class="st0" x1="375.3" y1="31.5" x2="375.3" y2="242.5"/>
<line class="st0" x1="59.3" y1="72.5" x2="456.3" y2="72.5"/>
<line class="st0" x1="59.3" y1="200.5" x2="456.3" y2="200.5"/>
<rect x="59.3" y="31.5" class="st0" width="397" height="211"/>
<g>
	<g>
		<g>
			<g>
				<defs>
					<rect id="SVGID_1_" x="125.8" y="70.5" width="264.1" height="134"/>
				</defs>
				<clipPath id="SVGID_00000019654341031315868250000011913053815130021777_">
					<use xlink:href="#SVGID_1_"  style="overflow:visible;"/>
				</clipPath>
				<g style="clip-path:url(#SVGID_00000019654341031315868250000011913053815130021777_);">
					<g>
						<g>
							<defs>
								<rect id="SVGID_00000139998081361390308850000007724553562532506521_" x="125.8" y="70.5" width="264.1" height="134"/>
							</defs>
							<clipPath id="SVGID_00000030459837500316157990000006534203369719825798_">
								<use xlink:href="#SVGID_00000139998081361390308850000007724553562532506521_"  style="overflow:visible;"/>
							</clipPath>
							<g style="clip-path:url(#SVGID_00000030459837500316157990000006534203369719825798_);">
								<g>
									<g>
										<defs>
											<rect id="SVGID_00000021820309585770838600000011569649071322572201_" x="125.8" y="70.5" width="264.1" height="134"/>
										</defs>
										<clipPath id="SVGID_00000085237041434748709340000001252841350183800460_">
											<use xlink:href="#SVGID_00000021820309585770838600000011569649071322572201_"  style="overflow:visible;"/>
										</clipPath>
										<g style="opacity:0;clip-path:url(#SVGID_00000085237041434748709340000001252841350183800460_);">
											<g>
												<g>
													<g>
														<defs>
															
																<rect id="SVGID_00000005973208895624151590000012699591473245345470_" x="125.8" y="70.5" width="264.1" height="134"/>
														</defs>
														<clipPath id="SVGID_00000078764596895244973030000002435817756674746298_">
															<use xlink:href="#SVGID_00000005973208895624151590000012699591473245345470_"  style="overflow:visible;"/>
														</clipPath>
														
															<rect x="125.8" y="70.5" style="clip-path:url(#SVGID_00000078764596895244973030000002435817756674746298_);fill:#FFFFFF;" width="264.1" height="134"/>
													</g>
												</g>
											</g>
										</g>
									</g>
								</g>
							</g>
						</g>
					</g>
					<g>
						<g>
							<defs>
								<rect id="SVGID_00000111157092138460535010000012118189727490350242_" x="125.8" y="70.5" width="264.1" height="134"/>
							</defs>
							<clipPath id="SVGID_00000119079217301520521780000001851819847550247337_">
								<use xlink:href="#SVGID_00000111157092138460535010000012118189727490350242_"  style="overflow:visible;"/>
							</clipPath>
							<g style="clip-path:url(#SVGID_00000119079217301520521780000001851819847550247337_);">
								<g class="st6">
									<path d="M262.9,159.2c-1.3,0-2.4-0.4-3.2-1.2c-0.8-0.8-1.2-1.8-1.2-3.1c0-1.4,0.4-2.5,1.2-3.3c0.8-0.8,1.9-1.2,3.2-1.2
										s2.4,0.4,3.2,1.2c0.8,0.8,1.2,1.9,1.2,3.3c0,1.3-0.4,2.4-1.2,3.1S264.2,159.2,262.9,159.2z"/>
									<path d="M293.1,159.2c-2.9,0-5.3-1-7.1-2.9c-1.8-2-2.7-4.6-2.7-7.9v-8.6c0-3.4,0.9-6,2.7-8c1.8-2,4.1-2.9,7.1-2.9
										c2.4,0,4.3,0.7,5.8,2c1.5,1.3,2.2,3.1,2.2,5.3l-1-1.1h1.1l-0.1-6.7v-8.5h4.8v38.9h-4.8v-5.6h-1l1-1.1c0,2.2-0.7,4-2.2,5.3
										C297.4,158.5,295.5,159.2,293.1,159.2z M294.7,155c2,0,3.5-0.6,4.7-1.9s1.7-3,1.7-5.2v-8c0-2.2-0.6-3.9-1.7-5.2
										s-2.7-1.9-4.7-1.9c-2,0-3.6,0.6-4.8,1.8c-1.2,1.2-1.8,2.9-1.8,5.2v8c0,2.3,0.6,4,1.8,5.2C291.1,154.4,292.7,155,294.7,155z
										"/>
									<path d="M326.7,159.2c-2.3,0-4.3-0.5-6-1.4c-1.7-0.9-3.1-2.2-4-3.9s-1.4-3.6-1.4-5.9v-8c0-2.3,0.5-4.2,1.4-5.9s2.3-3,4-3.9
										c1.7-0.9,3.7-1.4,6-1.4s4.3,0.5,6,1.4c1.7,0.9,3.1,2.2,4,3.9c0.9,1.7,1.4,3.6,1.4,5.9v5.2H320v2.8c0,2.3,0.6,4.1,1.8,5.3
										c1.2,1.2,2.8,1.8,5,1.8c1.8,0,3.3-0.3,4.5-1c1.1-0.7,1.8-1.6,2.1-3h4.8c-0.3,2.4-1.5,4.4-3.6,5.8
										C332.4,158.5,329.8,159.2,326.7,159.2z M333.5,142v-2c0-2.3-0.6-4.1-1.7-5.3c-1.2-1.2-2.8-1.9-5-1.9c-2.2,0-3.8,0.6-5,1.9
										c-1.2,1.2-1.8,3-1.8,5.3v1.5h13.9L333.5,142z"/>
									<path d="M355.4,158.7l-9.8-29.3h4.9l6.5,19.7c0.4,1.2,0.7,2.3,1.1,3.4c0.3,1.1,0.5,1.9,0.7,2.5c0.2-0.6,0.4-1.4,0.7-2.5
										c0.3-1.1,0.7-2.2,1-3.4l6.3-19.7h4.8l-9.8,29.3H355.4z"/>
								</g>
							</g>
						</g>
					</g>
					<g>
						<g>
							<defs>
								<rect id="SVGID_00000134955645335796396830000007868043181794246063_" x="125.8" y="70.5" width="264.1" height="134"/>
							</defs>
							<clipPath id="SVGID_00000048470392319561510360000016624131763056860846_">
								<use xlink:href="#SVGID_00000134955645335796396830000007868043181794246063_"  style="overflow:visible;"/>
							</clipPath>
							<g style="clip-path:url(#SVGID_00000048470392319561510360000016624131763056860846_);">
								<g>
									<g>
										<defs>
											
												<rect id="SVGID_00000179628878505489381640000002098523217671772569_" x="138.6" y="74.4" width="126.1" height="126.1"/>
										</defs>
										<clipPath id="SVGID_00000129203916913512261290000003424775101022430349_">
											<use xlink:href="#SVGID_00000179628878505489381640000002098523217671772569_"  style="overflow:visible;"/>
										</clipPath>
										<g style="opacity:0;clip-path:url(#SVGID_00000129203916913512261290000003424775101022430349_);">
											<g>
												<g>
													<g>
														<defs>
															
																<rect id="SVGID_00000007411921441624140970000008892296901327899008_" x="138.6" y="74.4" width="126.2" height="126.2"/>
														</defs>
														<clipPath id="SVGID_00000042706027990971322260000015697707084645547683_">
															<use xlink:href="#SVGID_00000007411921441624140970000008892296901327899008_"  style="overflow:visible;"/>
														</clipPath>
														
															<rect x="138.6" y="74.5" style="clip-path:url(#SVGID_00000042706027990971322260000015697707084645547683_);fill:#FFFFFF;" width="126.1" height="126.1"/>
													</g>
												</g>
												<g>
													<g>
														<defs>
															
																<rect id="SVGID_00000034091335365064103940000016006263566632780426_" x="138.6" y="74.4" width="126.2" height="126.2"/>
														</defs>
														<clipPath id="SVGID_00000011032169876323644860000009990941029690306200_">
															<use xlink:href="#SVGID_00000034091335365064103940000016006263566632780426_"  style="overflow:visible;"/>
														</clipPath>
														<path style="clip-path:url(#SVGID_00000011032169876323644860000009990941029690306200_);" d="M138.6,74.5h126v126
															h-126V74.5z M138.6,200.6h126.2V74.4H138.6V200.6z"/>
													</g>
												</g>
											</g>
										</g>
									</g>
								</g>
								<g>
									<g>
										<defs>
											
												<rect id="SVGID_00000011715472932570516880000002836173283577946543_" x="138.6" y="74.4" width="126.1" height="126.1"/>
										</defs>
										<clipPath id="SVGID_00000111178478492693865690000005400127257932439180_">
											<use xlink:href="#SVGID_00000011715472932570516880000002836173283577946543_"  style="overflow:visible;"/>
										</clipPath>
										<path style="clip-path:url(#SVGID_00000111178478492693865690000005400127257932439180_);fill:#FFFFFF;" d="M156.2,79.8
											c-1,0-0.6,2.5,2,9.1c5.8,14.8,16.1,27.8,29.8,34.1c-12.1-3.8-17.5-8.8-24.4-12.9c-4.9-3-12.2-8.7-16.8-13.2
											c-7-6.9-6.7-1.8-4.3,4c3.8,9.3,13.8,15.8,21.2,20.2c-10.9-3.4-23.2-16.4-22.7-11.8c0.3,2.7,4.3,8.6,10.5,13.8
											c4.2,3.5,9.3,6.7,14.6,8.4c-10.9-2.7-18-8.7-19.1-8.4c-1.9,0.5-1.7,2.5,1.9,7.1c5.6,7.4,12.4,11.1,21.4,12.4
											c-4.7-0.1-8.4-0.8-11.1-1.4c-10.2-2.4-2.7,3.1,0.4,5.4c3.1,2.2,7.1,4,11.1,5c4.8,1.3,9.2,2.3,13.7,2.5
											c-7.9,0.6-17.3-0.2-18.2,1.2c-1.1,1.9,4,4.2,10.7,5.4c3.7,0.7,5.7,0.8,10.6,0.4c-5.5,1-8,1.9-8.5,2.7
											c-1.6,2.3,10.8,4.5,20,1.4c-4,1.7-5.1,2.7-4,3c0.9,0.2,2.7-0.8,6.8-1.6c-11.1,4.4-2.9,5.4,3.3,3.9
											c-6.2,3.2,1.9,3.7,5.2,3.7c-4,0.9-6.6,1.5-7.9,2.4c-3.4,2.4,3.6,4.1,11.3,2.2c-9,3.6-8.4,4.6-2,6.3
											c3.5,0.9,6.7,0.3,9.8-0.1c-5.8,1.6,2.3,2,4.4,1.2c-3.2,1.8-8.1,1-8.4,1.9c-0.6,1.4,3.4,2.9,8.6,3c-4.5,1.6,3.5,2.2,5.2,2
											c-5.7,2.7,2.4,3,8.9,1.5c3.9-0.9,7.8-2.2,9-3.5c9.9-0.4,13.3-15.1,13.4-15.6s-5.5-2.5-10.7-4.9c-4.3-2-8.6-5.1-11.9-8
											L226.6,146c-3-4.6-5.7-9.3-8.5-14c-2.7-4.5-4.7-4.1-4.9-3c-3.8-3.6-10.6-5.7-18.7-10.5c-6-3.6-12.5-9.1-19.7-17.2
											C169.2,95,158.6,79.8,156.2,79.8"/>
									</g>
								</g>
								<g>
									<g>
										<defs>
											
												<rect id="SVGID_00000008840249348915265300000005873895617970710413_" x="138.6" y="74.4" width="126.1" height="126.1"/>
										</defs>
										<clipPath id="SVGID_00000016046171005845874750000015709321267056003203_">
											<use xlink:href="#SVGID_00000008840249348915265300000005873895617970710413_"  style="overflow:visible;"/>
										</clipPath>
										<path style="clip-path:url(#SVGID_00000016046171005845874750000015709321267056003203_);" d="M259.1,173.1
											c-2-0.8-4.6-1.6-7.1-2.8c-5.1-2.4-10.5-6.5-13.7-9.8c-8.1-8.3-13.9-18.6-19.9-28.8c-1.6-2.7-3-3.8-4.1-3.9
											c-0.5-0.1-1,0.2-1.3,0.5c-0.1,0.1-0.1,0.2-0.2,0.4c-1.1-1-2.9-2.1-4.8-3.1c-2.3-1.2-4.6-2.1-6.3-1.8
											c-0.1,0-0.2,0.1-0.2,0.1c-0.1,0.1-0.1,0.2-0.1,0.2c0,0.1,0,0.2,0.1,0.2c0.1,0.1,0.1,0.2,0.2,0.3c0.2,0.2,0.5,0.5,0.9,0.9
											s1,0.8,1.6,1.3c-3-0.7-5.6-1.1-7.7-1.1c-2.6,0-4.4,0.4-5.4,1.1c-0.1,0.1-0.2,0.2-0.2,0.4c0,0.1,0,0.3,0.1,0.4
											c0.1,0.2,0.3,0.3,0.6,0.5c0.5,0.3,1.3,0.7,2.3,1.1c1.3,0.5,3.1,1.1,5.2,1.7c-0.3,0-0.6,0-0.9,0c-1.2,0.1-1.9,0.3-2.3,0.7
											c-0.2,0.2-0.3,0.5-0.3,0.8s0.1,0.5,0.3,0.8c0.4,0.5,1,0.9,1.8,1.2c2.2,0.9,5.5,1.8,7.9,2.4c-1.3,0.2-2.2,0.4-2.7,0.7
											c-0.5,0.2-0.8,0.4-0.9,0.8c0,0.2,0,0.4,0.1,0.5c0.1,0.2,0.2,0.3,0.4,0.4c0.6,0.5,1.6,0.9,2.9,1.2c1.6,0.5,3.6,0.8,5.3,1
											c-0.9,0.2-1.5,0.4-2,0.6c-0.5,0.2-0.8,0.4-1,0.7s-0.1,0.7,0.1,1.1c0.4,0.6,1.1,0.9,1.8,1s1.5,0.1,2.3,0
											c1.6-0.3,3.2-0.9,4.1-1.5c0.6-0.4,1-0.9,1.3-1.5c-0.6,0.3-1.2,0.6-1.7,1c-1.6,1.1-2.4,2.3-2.5,3.3c0,0.4,0,0.8,0.3,1.1
											c0.2,0.3,0.6,0.5,1,0.5c0.5,0.1,1.1-0.1,1.7-0.4c-0.2,0.4-0.3,0.8-0.3,1.1s0,0.6,0.2,0.8c0.1,0.2,0.4,0.4,0.6,0.4
											c0.5,0.1,1.1,0,1.8-0.4c0.4-0.2,0.9-0.5,1.4-0.9c-0.1,0.5,0,1.1,0,1.6c0.1,1,0.2,2,0.5,2.7c0.1,0.4,0.3,0.7,0.4,0.9
											c0.1,0.1,0.2,0.2,0.4,0.3c0.2,0,0.4,0,0.5-0.1c0.3-0.2,0.4-0.4,0.5-0.8c0.4,2.4,1.4,4.9,2.3,6.6c0.3,0.6,0.6,1,0.9,1.4
											c0.3,0.4,0.5,0.6,0.8,0.7c0.2,0.1,0.4,0,0.6-0.1l0.1-0.1c0.2,0.6,0.5,1.1,0.9,1.6s0.8,0.8,1.4,1c0.2,0.1,0.5,0.1,0.7,0.1
											c-0.3,0.3-0.5,0.5-0.7,0.7s-0.3,0.4-0.4,0.6c-0.1,0.2-0.2,0.4-0.1,0.7c0.1,0.2,0.3,0.4,0.6,0.4c0.2,0.1,0.5,0.1,0.9,0.1
											c0.5,0,1.1-0.1,1.8-0.2c-0.1,0.1-0.2,0.2-0.3,0.3c-0.4,0.3-0.6,0.5-0.7,0.8c0,0.1,0,0.3,0,0.5c0.1,0.1,0.2,0.2,0.3,0.3
											c0.2,0.1,0.5,0.2,0.8,0.3c0.5,0.1,1.2,0.2,1.8,0.3c-0.1,0.2-0.2,0.5-0.2,0.7c0,0.4,0.1,0.8,0.4,1.2
											c0.5,0.7,1.5,1.3,2.6,1.8s2.4,0.8,3.5,1s2.1,0.3,2.7,0.1c0.4-0.1,0.8-0.4,1-0.8c-0.4,0-0.8,0.1-1.1,0.1
											c-1.2,0.2-2,0.5-2.5,0.9c-0.2,0.2-0.4,0.4-0.5,0.7c0,0.3,0,0.5,0.2,0.8c0.3,0.5,0.8,0.8,1.6,1.1c0.6,0.2,1.3,0.4,2.1,0.4
											c-0.1,0.3-0.1,0.5-0.1,0.7c0,0.3,0.2,0.6,0.4,0.8c0.5,0.4,1.2,0.4,1.9,0.3c0.7-0.1,1.6-0.2,2.3-0.4c0.1,0,0.2,0,0.3-0.1
											c-0.4,0.3-0.6,0.6-0.8,0.9c-0.1,0.2-0.2,0.5-0.1,0.8c0.1,0.3,0.3,0.4,0.5,0.5c0.5,0.2,1.1,0.2,1.9,0
											c0.4-0.1,0.8-0.2,1.3-0.3c-0.1,0.1-0.1,0.2-0.1,0.3c-0.2,0.4-0.1,0.9,0.2,1.2c0.6,0.6,1.6,0.9,2.8,0.8l-0.4-0.3
											c0.1,0.5,0.2,0.9,0.5,1.3c0.2,0.3,0.5,0.6,0.9,0.7c0.7,0.2,1.4,0.2,1.8,0.1c0.4-0.1,0.7-0.1,0.7-0.1s-0.3,0-0.7-0.1
											c-0.4,0-1.1-0.1-1.6-0.4c-0.2-0.1-0.4-0.3-0.5-0.5c-0.2-0.3-0.2-0.7-0.3-1.1v-0.3c-0.1,0-0.2,0-0.3,0
											c-1,0.1-2-0.2-2.3-0.6c-0.1-0.2-0.2-0.3-0.1-0.6c0.1-0.3,0.4-0.6,0.9-1l2.1-1.5l-2.4,1c-0.9,0.4-1.7,0.6-2.5,0.7
											c-0.7,0.1-1.3,0.1-1.5,0c-0.1,0-0.1-0.1-0.1-0.1s0-0.1,0.1-0.2c0.2-0.3,0.7-0.8,1.7-1.5c0.2-0.2,0.5-0.3,0.7-0.4
											c-0.3-0.1-0.6-0.2-0.9-0.2c-0.5,0-1.1,0.1-1.8,0.3c-0.7,0.1-1.5,0.3-2.2,0.4c-0.7,0.1-1.2,0-1.4-0.2
											c-0.1-0.1-0.2-0.2-0.2-0.4s0-0.5,0.2-0.9c0.1-0.2,0.1-0.3,0.2-0.5c-0.2,0-0.4,0-0.5,0c-0.9,0-1.7-0.2-2.3-0.4
											s-1.1-0.5-1.2-0.8c-0.1-0.1-0.1-0.2-0.1-0.3s0.1-0.2,0.2-0.3c0.3-0.3,1-0.5,2.2-0.7l-0.2-0.7c-0.4,0.1-1.3,0.1-2.4-0.1
											c-1.1-0.2-2.3-0.5-3.3-1c-1.1-0.5-1.9-1-2.4-1.6c-0.2-0.3-0.3-0.5-0.3-0.7s0.1-0.5,0.4-0.8c0.2-0.2,0.4-0.3,0.7-0.5
											c-0.3,0-0.6-0.1-0.9-0.1c-0.8-0.1-1.7-0.2-2.3-0.3c-0.3-0.1-0.5-0.2-0.6-0.2c0,0-0.1,0,0,0c0,0,0,0.1,0,0
											c0,0,0.1-0.2,0.5-0.5c0.3-0.3,0.8-0.6,1.5-1.1c0.5-0.4,1.1-0.7,1.6-1.1c-0.6,0.2-1.3,0.3-1.9,0.4
											c-1.5,0.3-2.5,0.5-3.2,0.5c-0.3,0-0.6,0-0.7,0c-0.1,0-0.1-0.1-0.1,0c0,0,0,0,0-0.1c0.1-0.1,0.2-0.3,0.3-0.5
											c0.3-0.4,0.9-0.9,1.5-1.4l1.3-1.1l-1.6,0.6c-0.6,0.2-1.1,0.2-1.5,0.1c-0.4-0.1-0.7-0.4-1-0.8c-0.6-0.8-1-2-1.3-3.2
											l-1.6-5.7l0.9,5.8c0.1,0.7,0.1,1.2,0.1,1.4c0,0.1-0.1,0.1,0,0.1h0.1c0,0-0.3-0.2-0.5-0.5s-0.5-0.8-0.8-1.3
											c-1.2-2.1-2.4-5.7-2.4-8.4v-4.6l-0.7,4.5c-0.1,0.8-0.3,1.5-0.4,1.9c-0.1,0.4-0.3,0.6-0.3,0.6s0,0,0.1,0l0,0
											c-0.1-0.1-0.2-0.3-0.3-0.7c-0.2-0.7-0.4-1.6-0.4-2.6c-0.1-0.9,0-1.9,0.2-2.4l0.5-1.3l-1,1c-0.7,0.7-1.4,1.1-2,1.4
											c-0.6,0.3-1.1,0.4-1.4,0.3c-0.1,0-0.2-0.1-0.2-0.1c0-0.1-0.1-0.2-0.1-0.4c0-0.4,0.3-1.1,1-2l1.3-1.8l-1.7,1.4
											c-1.1,0.9-2,1.1-2.5,1.1c-0.2,0-0.4-0.1-0.5-0.2c-0.1-0.1-0.2-0.3-0.1-0.6c0.1-0.7,0.7-1.8,2.2-2.8l-0.4-0.6
											c-0.7,0.5-2.3,1.2-3.8,1.4c-0.8,0.1-1.5,0.1-2.1,0s-1.1-0.4-1.4-0.8c-0.1-0.2-0.1-0.2-0.1-0.3s0.3-0.2,0.7-0.4
											c0.8-0.3,2.3-0.7,4.5-1.1l4.5-0.9L214,141c-1.9,0.1-5.3-0.4-7.7-1.1c-1.2-0.4-2.2-0.8-2.6-1.1c-0.1-0.1-0.2-0.2-0.2-0.2
											l0,0c0,0,0.1-0.1,0.5-0.3c0.7-0.3,2.1-0.6,4.5-0.9c1.1-0.2,2.3-0.3,3.5-0.4c-1.2,0-2.3-0.1-3.4-0.3
											c-1.9-0.3-6.8-1.5-9.6-2.7c-0.7-0.3-1.3-0.7-1.5-1c-0.1-0.2-0.2-0.3-0.2-0.4c0-0.1,0-0.1,0.1-0.2c0.2-0.2,0.8-0.4,1.9-0.5
											c1.1-0.1,2.6,0,4.7,0.3l6.8,1l-6.7-1.7c-3.8-0.9-6.9-1.9-8.9-2.7c-1-0.4-1.8-0.7-2.2-1c-0.2-0.1-0.3-0.3-0.4-0.3
											c0,0,0,0,0,0.1v0.1c0.7-0.5,2.4-1,4.9-1s5.8,0.5,9.8,1.6l3,0.9l-2.7-1.5c-1.5-0.8-2.7-1.7-3.5-2.4
											c-0.4-0.3-0.7-0.6-0.8-0.8c-0.1-0.1-0.1-0.2-0.1-0.2s0,0,0,0.1c0,0,0,0.1-0.1,0.2s-0.2,0.1-0.2,0.1
											c1.3-0.2,3.7,0.6,5.9,1.8c2.2,1.1,4.3,2.6,5.2,3.5l1.2,1.2l-0.6-1.5c-0.1-0.3-0.1-0.5,0-0.7s0.3-0.3,0.7-0.2
											c0.7,0.1,2,0.9,3.6,3.5c6,10.2,11.8,20.5,20,28.9c3.3,3.4,8.7,7.4,13.9,9.9c2.6,1.2,5.2,2.1,7.2,2.9
											c1.1,0.4,2.8,1.5,3.6,1.7C263.1,175.6,260.4,173.6,259.1,173.1"/>
									</g>
								</g>
								<g>
									<g>
										<defs>
											
												<rect id="SVGID_00000141423404070287765810000018117573677565039236_" x="138.6" y="74.4" width="126.1" height="126.1"/>
										</defs>
										<clipPath id="SVGID_00000158740418034419741020000011308926177276300673_">
											<use xlink:href="#SVGID_00000141423404070287765810000018117573677565039236_"  style="overflow:visible;"/>
										</clipPath>
										
											<path style="clip-path:url(#SVGID_00000158740418034419741020000011308926177276300673_);fill:none;stroke:#000000;stroke-width:1.8339;stroke-linecap:round;stroke-linejoin:round;stroke-miterlimit:10;" d="
											M259.1,173.1c-2-0.8-4.6-1.6-7.1-2.8c-5.1-2.4-10.5-6.5-13.7-9.8c-8.1-8.3-13.9-18.6-19.9-28.8c-1.6-2.7-3-3.8-4.1-3.9
											c-0.5-0.1-1,0.2-1.3,0.5c-0.1,0.1-0.1,0.2-0.2,0.4c-1.1-1-2.9-2.1-4.8-3.1c-2.3-1.2-4.6-2.1-6.3-1.8
											c-0.1,0-0.2,0.1-0.2,0.1c-0.1,0.1-0.1,0.2-0.1,0.2c0,0.1,0,0.2,0.1,0.2c0.1,0.1,0.1,0.2,0.2,0.3c0.2,0.2,0.5,0.5,0.9,0.9
											s1,0.8,1.6,1.3c-3-0.7-5.6-1.1-7.7-1.1c-2.6,0-4.4,0.4-5.4,1.1c-0.1,0.1-0.2,0.2-0.2,0.4c0,0.1,0,0.3,0.1,0.4
											c0.1,0.2,0.3,0.3,0.6,0.5c0.5,0.3,1.3,0.7,2.3,1.1c1.3,0.5,3.1,1.1,5.2,1.7c-0.3,0-0.6,0-0.9,0c-1.2,0.1-1.9,0.3-2.3,0.7
											c-0.2,0.2-0.3,0.5-0.3,0.8s0.1,0.5,0.3,0.8c0.4,0.5,1,0.9,1.8,1.2c2.2,0.9,5.5,1.8,7.9,2.4c-1.3,0.2-2.2,0.4-2.7,0.7
											c-0.5,0.2-0.8,0.4-0.9,0.8c0,0.2,0,0.4,0.1,0.5c0.1,0.2,0.2,0.3,0.4,0.4c0.6,0.5,1.6,0.9,2.9,1.2c1.6,0.5,3.6,0.8,5.3,1
											c-0.9,0.2-1.5,0.4-2,0.6c-0.5,0.2-0.8,0.4-1,0.7s-0.1,0.7,0.1,1.1c0.4,0.6,1.1,0.9,1.8,1s1.5,0.1,2.3,0
											c1.6-0.3,3.2-0.9,4.1-1.5c0.6-0.4,1-0.9,1.3-1.5c-0.6,0.3-1.2,0.6-1.7,1c-1.6,1.1-2.4,2.3-2.5,3.3c0,0.4,0,0.8,0.3,1.1
											c0.2,0.3,0.6,0.5,1,0.5c0.5,0.1,1.1-0.1,1.7-0.4c-0.2,0.4-0.3,0.8-0.3,1.1s0,0.6,0.2,0.8c0.1,0.2,0.4,0.4,0.6,0.4
											c0.5,0.1,1.1,0,1.8-0.4c0.4-0.2,0.9-0.5,1.4-0.9c-0.1,0.5,0,1.1,0,1.6c0.1,1,0.2,2,0.5,2.7c0.1,0.4,0.3,0.7,0.4,0.9
											c0.1,0.1,0.2,0.2,0.4,0.3c0.2,0,0.4,0,0.5-0.1c0.3-0.2,0.4-0.4,0.5-0.8c0.4,2.4,1.4,4.9,2.3,6.6c0.3,0.6,0.6,1,0.9,1.4
											c0.3,0.4,0.5,0.6,0.8,0.7c0.2,0.1,0.4,0,0.6-0.1l0.1-0.1c0.2,0.6,0.5,1.1,0.9,1.6s0.8,0.8,1.4,1c0.2,0.1,0.5,0.1,0.7,0.1
											c-0.3,0.3-0.5,0.5-0.7,0.7s-0.3,0.4-0.4,0.6c-0.1,0.2-0.2,0.4-0.1,0.7c0.1,0.2,0.3,0.4,0.6,0.4c0.2,0.1,0.5,0.1,0.9,0.1
											c0.5,0,1.1-0.1,1.8-0.2c-0.1,0.1-0.2,0.2-0.3,0.3c-0.4,0.3-0.6,0.5-0.7,0.8c0,0.1,0,0.3,0,0.5c0.1,0.1,0.2,0.2,0.3,0.3
											c0.2,0.1,0.5,0.2,0.8,0.3c0.5,0.1,1.2,0.2,1.8,0.3c-0.1,0.2-0.2,0.5-0.2,0.7c0,0.4,0.1,0.8,0.4,1.2
											c0.5,0.7,1.5,1.3,2.6,1.8s2.4,0.8,3.5,1s2.1,0.3,2.7,0.1c0.4-0.1,0.8-0.4,1-0.8c-0.4,0-0.8,0.1-1.1,0.1
											c-1.2,0.2-2,0.5-2.5,0.9c-0.2,0.2-0.4,0.4-0.5,0.7c0,0.3,0,0.5,0.2,0.8c0.3,0.5,0.8,0.8,1.6,1.1c0.6,0.2,1.3,0.4,2.1,0.4
											c-0.1,0.3-0.1,0.5-0.1,0.7c0,0.3,0.2,0.6,0.4,0.8c0.5,0.4,1.2,0.4,1.9,0.3c0.7-0.1,1.6-0.2,2.3-0.4c0.1,0,0.2,0,0.3-0.1
											c-0.4,0.3-0.6,0.6-0.8,0.9c-0.1,0.2-0.2,0.5-0.1,0.8c0.1,0.3,0.3,0.4,0.5,0.5c0.5,0.2,1.1,0.2,1.9,0
											c0.4-0.1,0.8-0.2,1.3-0.3c-0.1,0.1-0.1,0.2-0.1,0.3c-0.2,0.4-0.1,0.9,0.2,1.2c0.6,0.6,1.6,0.9,2.8,0.8l-0.4-0.3
											c0.1,0.5,0.2,0.9,0.5,1.3c0.2,0.3,0.5,0.6,0.9,0.7c0.7,0.2,1.4,0.2,1.8,0.1c0.4-0.1,0.7-0.1,0.7-0.1s-0.3,0-0.7-0.1
											c-0.4,0-1.1-0.1-1.6-0.4c-0.2-0.1-0.4-0.3-0.5-0.5c-0.2-0.3-0.2-0.7-0.3-1.1v-0.3c-0.1,0-0.2,0-0.3,0
											c-1,0.1-2-0.2-2.3-0.6c-0.1-0.2-0.2-0.3-0.1-0.6c0.1-0.3,0.4-0.6,0.9-1l2.1-1.5l-2.4,1c-0.9,0.4-1.7,0.6-2.5,0.7
											c-0.7,0.1-1.3,0.1-1.5,0c-0.1,0-0.1-0.1-0.1-0.1s0-0.1,0.1-0.2c0.2-0.3,0.7-0.8,1.7-1.5c0.2-0.2,0.5-0.3,0.7-0.4
											c-0.3-0.1-0.6-0.2-0.9-0.2c-0.5,0-1.1,0.1-1.8,0.3c-0.7,0.1-1.5,0.3-2.2,0.4c-0.7,0.1-1.2,0-1.4-0.2
											c-0.1-0.1-0.2-0.2-0.2-0.4s0-0.5,0.2-0.9c0.1-0.2,0.1-0.3,0.2-0.5c-0.2,0-0.4,0-0.5,0c-0.9,0-1.7-0.2-2.3-0.4
											s-1.1-0.5-1.2-0.8c-0.1-0.1-0.1-0.2-0.1-0.3s0.1-0.2,0.2-0.3c0.3-0.3,1-0.5,2.2-0.7l-0.2-0.7c-0.4,0.1-1.3,0.1-2.4-0.1
											c-1.1-0.2-2.3-0.5-3.3-1c-1.1-0.5-1.9-1-2.4-1.6c-0.2-0.3-0.3-0.5-0.3-0.7s0.1-0.5,0.4-0.8c0.2-0.2,0.4-0.3,0.7-0.5
											c-0.3,0-0.6-0.1-0.9-0.1c-0.8-0.1-1.7-0.2-2.3-0.3c-0.3-0.1-0.5-0.2-0.6-0.2c0,0-0.1,0,0,0c0,0,0,0.1,0,0
											c0,0,0.1-0.2,0.5-0.5c0.3-0.3,0.8-0.6,1.5-1.1c0.5-0.4,1.1-0.7,1.6-1.1c-0.6,0.2-1.3,0.3-1.9,0.4
											c-1.5,0.3-2.5,0.5-3.2,0.5c-0.3,0-0.6,0-0.7,0c-0.1,0-0.1-0.1-0.1,0c0,0,0,0,0-0.1c0.1-0.1,0.2-0.3,0.3-0.5
											c0.3-0.4,0.9-0.9,1.5-1.4l1.3-1.1l-1.6,0.6c-0.6,0.2-1.1,0.2-1.5,0.1c-0.4-0.1-0.7-0.4-1-0.8c-0.6-0.8-1-2-1.3-3.2
											l-1.6-5.7l0.9,5.8c0.1,0.7,0.1,1.2,0.1,1.4c0,0.1-0.1,0.1,0,0.1h0.1c0,0-0.3-0.2-0.5-0.5s-0.5-0.8-0.8-1.3
											c-1.2-2.1-2.4-5.7-2.4-8.4v-4.6l-0.7,4.5c-0.1,0.8-0.3,1.5-0.4,1.9c-0.1,0.4-0.3,0.6-0.3,0.6s0,0,0.1,0l0,0
											c-0.1-0.1-0.2-0.3-0.3-0.7c-0.2-0.7-0.4-1.6-0.4-2.6c-0.1-0.9,0-1.9,0.2-2.4l0.5-1.3l-1,1c-0.7,0.7-1.4,1.1-2,1.4
											c-0.6,0.3-1.1,0.4-1.4,0.3c-0.1,0-0.2-0.1-0.2-0.1c0-0.1-0.1-0.2-0.1-0.4c0-0.4,0.3-1.1,1-2l1.3-1.8l-1.7,1.4
											c-1.1,0.9-2,1.1-2.5,1.1c-0.2,0-0.4-0.1-0.5-0.2c-0.1-0.1-0.2-0.3-0.1-0.6c0.1-0.7,0.7-1.8,2.2-2.8l-0.4-0.6
											c-0.7,0.5-2.3,1.2-3.8,1.4c-0.8,0.1-1.5,0.1-2.1,0s-1.1-0.4-1.4-0.8c-0.1-0.2-0.1-0.2-0.1-0.3s0.3-0.2,0.7-0.4
											c0.8-0.3,2.3-0.7,4.5-1.1l4.5-0.9L214,141c-1.9,0.1-5.3-0.4-7.7-1.1c-1.2-0.4-2.2-0.8-2.6-1.1c-0.1-0.1-0.2-0.2-0.2-0.2
											l0,0c0,0,0.1-0.1,0.5-0.3c0.7-0.3,2.1-0.6,4.5-0.9c1.1-0.2,2.3-0.3,3.5-0.4c-1.2,0-2.3-0.1-3.4-0.3
											c-1.9-0.3-6.8-1.5-9.6-2.7c-0.7-0.3-1.3-0.7-1.5-1c-0.1-0.2-0.2-0.3-0.2-0.4c0-0.1,0-0.1,0.1-0.2c0.2-0.2,0.8-0.4,1.9-0.5
											c1.1-0.1,2.6,0,4.7,0.3l6.8,1l-6.7-1.7c-3.8-0.9-6.9-1.9-8.9-2.7c-1-0.4-1.8-0.7-2.2-1c-0.2-0.1-0.3-0.3-0.4-0.3
											c0,0,0,0,0,0.1v0.1c0.7-0.5,2.4-1,4.9-1s5.8,0.5,9.8,1.6l3,0.9l-2.7-1.5c-1.5-0.8-2.7-1.7-3.5-2.4
											c-0.4-0.3-0.7-0.6-0.8-0.8c-0.1-0.1-0.1-0.2-0.1-0.2s0,0,0,0.1c0,0,0,0.1-0.1,0.2s-0.2,0.1-0.2,0.1
											c1.3-0.2,3.7,0.6,5.9,1.8c2.2,1.1,4.3,2.6,5.2,3.5l1.2,1.2l-0.6-1.5c-0.1-0.3-0.1-0.5,0-0.7s0.3-0.3,0.7-0.2
											c0.7,0.1,2,0.9,3.6,3.5c6,10.2,11.8,20.5,20,28.9c3.3,3.4,8.7,7.4,13.9,9.9c2.6,1.2,5.2,2.1,7.2,2.9
											c1.1,0.4,2.8,1.5,3.6,1.7C263.1,175.6,260.4,173.6,259.1,173.1z"/>
									</g>
								</g>
								<g>
									<g>
										<defs>
											
												<rect id="SVGID_00000016782480085665439830000013196997958776166276_" x="138.6" y="74.4" width="126.1" height="126.1"/>
										</defs>
										<clipPath id="SVGID_00000031907554039611150080000007537911973156808594_">
											<use xlink:href="#SVGID_00000016782480085665439830000013196997958776166276_"  style="overflow:visible;"/>
										</clipPath>
										<path style="clip-path:url(#SVGID_00000031907554039611150080000007537911973156808594_);" d="M212.4,129.6
											c1,1,1.7,1.9,2.3,2.7s0.9,1.4,0.9,1.4s-0.2-0.7-0.6-1.6c-0.5-1-1.2-2-2.2-3c-2.3-2.3-5.4-4.4-9.2-6.3
											c-2.7-1.3-5.8-2.8-9.1-4.8c-6-3.6-12.4-9-19.6-17.1c-3.9-4.3-10.3-13.2-14.6-18c-1.1-1.2-2-2.2-2.8-2.8
											c-0.4-0.3-0.7-0.5-1-0.6c-0.2-0.1-0.3-0.1-0.5-0.1s-0.3,0.1-0.5,0.3c-0.2,0.3-0.3,0.6-0.2,1.1c0,0.5,0.1,1,0.3,1.8
											c0.4,1.5,1.1,3.6,2.2,6.5c5.3,13.3,14.1,25.2,25.8,32.1c-7.9-3.2-14.1-7.8-20-11.4c-4.9-2.9-12.2-8.7-16.7-13.1
											c-1.8-1.7-3.1-2.7-4.1-3.1c-0.5-0.2-0.9-0.3-1.3-0.2c-0.4,0.1-0.7,0.4-0.8,0.7c-0.3,0.7-0.2,1.7,0,2.9
											c0.3,1.2,0.7,2.6,1.3,4.1c3.3,8,11.1,14,17.9,18.2c-4.2-2-8.4-4.9-11.8-7.3c-2.2-1.6-4-2.9-5.3-3.5
											c-0.7-0.3-1.2-0.5-1.7-0.4c-0.2,0.1-0.5,0.2-0.6,0.5c-0.1,0.2-0.1,0.5-0.1,0.8c0.1,1.5,1.2,3.7,3.1,6.2
											c1.8,2.5,4.4,5.3,7.6,7.9c2.6,2.1,5.4,4.1,8.5,5.8c-2.6-1-4.9-2.2-6.7-3.2c-1.6-0.9-3-1.7-4-2.3c-0.5-0.3-0.9-0.5-1.3-0.7
											c-0.3-0.2-0.6-0.3-0.9-0.2c-0.5,0.1-1,0.4-1.2,0.8s-0.3,1-0.1,1.6c0.3,1.3,1.3,2.9,3,5.3c4.6,6,9.9,9.6,16.4,11.4
											c-2.3-0.3-4.3-0.7-5.8-1c-2.6-0.6-4-0.7-4.8-0.5c-0.2,0.1-0.4,0.2-0.5,0.3c-0.1,0.2-0.2,0.4-0.2,0.5
											c0,0.4,0.2,0.7,0.4,1.1c1.1,1.5,3.7,3.4,5.2,4.5c3.1,2.3,7.2,4,11.2,5.1c3.2,0.9,6.3,1.6,9.4,2.1c-2.6,0.1-5.2,0-7.4,0.1
											c-1.7,0-3.2,0.1-4.4,0.2c-0.6,0.1-1.1,0.2-1.4,0.3c-0.4,0.1-0.7,0.3-0.9,0.6s-0.2,0.6-0.2,1c0.1,0.3,0.2,0.6,0.5,0.9
											c0.5,0.6,1.3,1.1,2.3,1.6c2,1,5,1.9,8.4,2.5c2.4,0.4,4.1,0.7,6.3,0.7c-0.7,0.2-1.4,0.4-1.9,0.5c-1.4,0.5-2.2,0.9-2.6,1.4
											c-0.1,0.2-0.2,0.4-0.2,0.7c0,0.2,0.1,0.5,0.3,0.6c0.3,0.4,0.8,0.7,1.5,0.9c1.3,0.5,3.2,0.9,5.5,1.1
											c4.6,0.4,10.5-0.1,15.1-2.2c1.1-0.5,2.2-1.1,3.2-1.8c-1.2,0.4-2.3,0.8-3.5,1.2c-2.8,1-4.5,1.9-5.5,2.6
											c-0.5,0.3-0.8,0.6-0.9,0.9c-0.1,0.2,0,0.4,0.1,0.6c0.1,0.1,0.3,0.2,0.5,0.2c0.6,0.1,1.3-0.1,2.3-0.4
											c0.3-0.1,0.7-0.2,1.2-0.3c-0.9,0.5-1.5,0.9-1.9,1.3c-0.4,0.4-0.6,0.8-0.5,1.2s0.4,0.7,0.8,0.8c0.8,0.4,2.1,0.5,3.6,0.4
											c0.9,0,1.9-0.1,2.9-0.3c-0.1,0-0.1,0.1-0.2,0.1c-0.4,0.4-0.6,0.7-0.7,1.1c0,0.4,0.2,0.7,0.4,1c0.3,0.2,0.7,0.4,1.1,0.5
											c1,0.3,2.4,0.5,3.7,0.6c-2.6,0.6-4.4,1.1-5.5,1.8c-0.5,0.3-0.8,0.6-0.9,1c-0.2,0.4-0.1,0.8,0.1,1.1c0.4,0.6,1.3,1,2.4,1.2
											c1.7,0.4,4.1,0.4,6.8,0.1c-0.8,0.4-1.5,0.7-2.1,1c-1.1,0.6-1.8,1.1-1.9,1.8c-0.1,0.3,0.1,0.7,0.3,0.9
											c0.2,0.3,0.6,0.5,1,0.7c0.8,0.4,2.1,0.8,3.7,1.2c2.7,0.7,5.2,0.5,7.6,0.2c0,0.1-0.1,0.2-0.1,0.3c0,0.2,0.1,0.4,0.2,0.5
											c0.1,0.1,0.2,0.2,0.4,0.2c0.3,0.1,0.6,0.2,1,0.2c0.6,0.1,1.3,0.1,2,0.1c-0.7,0.1-1.4,0.2-2.1,0.3
											c-0.8,0.1-1.6,0.1-2.1,0.2c-0.3,0-0.5,0.1-0.8,0.2c-0.2,0.1-0.4,0.2-0.5,0.5c-0.1,0.2-0.1,0.5,0,0.8
											c0.1,0.2,0.3,0.5,0.5,0.6c0.4,0.4,1.1,0.7,1.9,1c1.3,0.5,3.2,0.8,5.2,1l0,0c-0.1,0.1-0.2,0.2-0.3,0.4s0,0.4,0,0.5
											c0.2,0.3,0.4,0.4,0.7,0.5s0.7,0.2,1.1,0.3c1.1,0.2,2.5,0.3,3.6,0.3c-0.3,0.2-0.5,0.4-0.6,0.5c-0.2,0.2-0.3,0.4-0.3,0.7
											c0,0.2,0.2,0.5,0.3,0.6c0.4,0.3,0.9,0.4,1.6,0.5c0.7,0.1,1.5,0.1,2.5,0.1c2.4-0.1,4.7-0.4,6.9-0.9s3.9-1.1,5.5-1.7
											c2.4-1,3.5-2,3.5-2s-1.2,1-3.6,1.8c-1.6,0.5-3.3,1-5.5,1.4c-2.1,0.4-4.4,0.7-6.8,0.8c-0.9,0-1.7,0-2.4-0.1
											c-0.6-0.1-1.1-0.2-1.3-0.3c-0.1-0.1-0.1-0.1-0.1-0.1s0-0.1,0.1-0.2c0.2-0.2,0.7-0.6,1.6-1l1.9-0.9l-2.1,0.3
											c-0.8,0.1-3.2,0-4.8-0.3c-0.4-0.1-0.8-0.2-1-0.3s-0.4-0.2-0.4-0.2v0.1c0,0,0,0,0.1-0.1s0.5-0.3,1-0.5l1.7-0.6h-1.9
											c-2.6,0-4.8-0.4-6.3-1c-0.8-0.3-1.3-0.6-1.6-0.9c-0.2-0.1-0.2-0.3-0.3-0.4c0-0.1,0-0.2,0-0.3c0,0,0,0,0.2-0.1
											c0.1-0.1,0.3-0.1,0.6-0.1c0.5-0.1,1.3-0.1,2.1-0.2c1.7-0.1,3.7-0.4,5.4-1.4l3.7-2.1l-4,1.5c-0.4,0.2-1.3,0.3-2.3,0.3
											c-0.9,0-2,0-2.7-0.1c-0.4,0-0.7-0.1-0.9-0.2c-0.1,0-0.2-0.1-0.2-0.1s0,0,0,0.1s0,0.1,0,0c0,0,0.1-0.1,0.3-0.2
											c0.3-0.1,0.8-0.3,1.5-0.5l5.5-1.5l-5.6,0.8c-3.1,0.4-6.2,1-9.6,0.1c-1.6-0.4-2.8-0.8-3.5-1.2c-0.4-0.2-0.6-0.4-0.8-0.5
											c-0.1-0.1-0.2-0.2-0.1-0.3c0-0.2,0.5-0.8,1.6-1.4c1.1-0.6,2.7-1.3,5-2.2l4.6-1.8l-4.8,1.2c-3.8,0.9-7.5,1-9.7,0.5
											c-1.1-0.2-1.8-0.6-2-0.9c-0.1-0.2-0.1-0.3,0-0.4c0.1-0.2,0.3-0.4,0.7-0.7c1.1-0.8,3.7-1.4,7.8-2.3
											c1.4-0.3,2.7-0.6,4.1-0.9c-1.4,0.2-2.8,0.3-4.2,0.3c-1.7,0-4.5-0.1-6.1-0.6c-0.4-0.1-0.7-0.3-0.9-0.4
											c-0.2-0.1-0.2-0.2-0.2-0.3s0.1-0.4,0.5-0.6c0.3-0.3,0.9-0.6,1.6-1l2.5-1.3l-2.8,0.7c-1.5,0.4-3.2,0.6-4.6,0.7
											c-1.4,0.1-2.7-0.1-3.3-0.3c-0.3-0.1-0.4-0.3-0.4-0.4c0-0.1,0-0.3,0.3-0.6c0.6-0.6,2.2-1.5,4.9-2.6
											c1.1-0.4,2.2-0.8,3.4-1.2c-1.2,0.1-2.4,0.3-3.5,0.5c-2.1,0.4-3.6,0.8-4.7,1.2s-1.7,0.5-2,0.4c-0.1,0-0.2-0.1-0.2-0.1v0.1
											c0,0,0.2-0.3,0.6-0.6c0.9-0.6,2.6-1.5,5.4-2.5l-0.3-0.6c-4.5,2.1-10.3,2.5-14.8,2.1c-2.2-0.2-4.1-0.6-5.3-1.1
											c-0.6-0.2-1-0.5-1.2-0.7c-0.1-0.1-0.1-0.2-0.1-0.3s0-0.1,0.1-0.2c0.2-0.2,0.9-0.7,2.2-1.1c1.4-0.4,3.3-0.9,6.1-1.4
											l7.1-1.2l-7.1,0.6c-4.9,0.4-6.8,0.2-10.5-0.4c-3.3-0.6-6.3-1.5-8.2-2.4c-1-0.5-1.7-1-2-1.4c-0.2-0.2-0.3-0.4-0.3-0.6
											c0-0.2,0-0.3,0.1-0.5c0,0,0.2-0.2,0.5-0.3s0.8-0.2,1.3-0.2c1.1-0.1,2.6-0.2,4.3-0.2c3.4,0,7.8,0,11.8-0.3
											c2-0.1,3.9-0.4,5.9-0.7c-2,0.1-3.9,0.2-5.9,0c-4.4-0.3-8.8-1.2-13.6-2.5c-4-1.1-7.9-2.8-11-5c-1.5-1.1-4.2-3.1-5.1-4.3
											c-0.2-0.3-0.3-0.6-0.3-0.7c0-0.1,0-0.1,0-0.1s0.1-0.1,0.2-0.1c0.5-0.2,2-0.1,4.5,0.5c2.7,0.6,6.4,1.3,11.2,1.5
											c2.4,0.1,4.7,0,7.1-0.3c-2.4,0-4.7-0.1-7-0.4c-8.9-1.2-15.5-4.9-21.1-12.2c-1.8-2.3-2.7-4-2.9-5c-0.1-0.5-0.1-0.9,0.1-1.1
											s0.4-0.4,0.8-0.5c0,0,0.2,0,0.5,0.2c0.3,0.1,0.7,0.4,1.2,0.6c1,0.6,2.3,1.4,4,2.3c3.3,1.8,7.8,4,13.3,5.3l8.5,2.1
											l-8.4-2.7c-5.3-1.7-10.3-4.9-14.5-8.4c-3.1-2.6-5.7-5.3-7.5-7.8c-1.8-2.4-2.8-4.6-2.9-5.8c0-0.3,0-0.4,0-0.5
											s0-0.1,0.1-0.1s0.6,0.1,1.2,0.4c1.2,0.6,3,1.9,5.2,3.5c4.4,3.1,10.2,7.2,15.7,8.9c0.8,0.2,1.6,0.4,2.4,0.6
											c-0.7-0.4-1.4-0.8-2.1-1.2c-7.4-4.3-17.3-10.9-21.1-20c-0.6-1.4-1-2.8-1.3-4c-0.2-1.2-0.2-2.1-0.1-2.5
											c0.1-0.2,0.2-0.3,0.4-0.3s0.5,0,0.9,0.2c0.8,0.4,2.1,1.3,3.8,3c4.6,4.5,11.9,10.2,16.9,13.2c6.9,4.1,14.2,9.9,24.5,13
											c1.6,0.5,3.2,0.9,4.8,1.2c-1.6-0.5-3.1-1.1-4.6-1.8c-13.6-6.2-23.8-19.2-29.6-33.9c-1.1-2.9-1.8-5-2.2-6.4
											c-0.2-0.7-0.3-1.3-0.3-1.7c0-0.4,0.1-0.6,0.1-0.6l0,0c0,0,0.1,0,0.2,0c0.2,0.1,0.5,0.2,0.8,0.5c0.7,0.6,1.6,1.5,2.7,2.7
											c4.3,4.8,10.7,13.6,14.6,18c7.2,8.1,13.7,13.6,19.8,17.2c3.3,2,6.4,3.5,9.1,4.8C207.1,125.3,210.2,127.3,212.4,129.6"/>
									</g>
								</g>
								<g>
									<g>
										<defs>
											
												<rect id="SVGID_00000149348052714123875750000009524577354528826267_" x="138.6" y="74.4" width="126.1" height="126.1"/>
										</defs>
										<clipPath id="SVGID_00000157266763249139778640000003555472241542787253_">
											<use xlink:href="#SVGID_00000149348052714123875750000009524577354528826267_"  style="overflow:visible;"/>
										</clipPath>
										
											<path style="clip-path:url(#SVGID_00000157266763249139778640000003555472241542787253_);fill:none;stroke:#000000;stroke-width:1.8339;stroke-linecap:round;stroke-linejoin:round;stroke-miterlimit:10;" d="
											M212.4,129.6c1,1,1.7,1.9,2.3,2.7s0.9,1.4,0.9,1.4s-0.2-0.7-0.6-1.6c-0.5-1-1.2-2-2.2-3c-2.3-2.3-5.4-4.4-9.2-6.3
											c-2.7-1.3-5.8-2.8-9.1-4.8c-6-3.6-12.4-9-19.6-17.1c-3.9-4.3-10.3-13.2-14.6-18c-1.1-1.2-2-2.2-2.8-2.8
											c-0.4-0.3-0.7-0.5-1-0.6c-0.2-0.1-0.3-0.1-0.5-0.1s-0.3,0.1-0.5,0.3c-0.2,0.3-0.3,0.6-0.2,1.1c0,0.5,0.1,1,0.3,1.8
											c0.4,1.5,1.1,3.6,2.2,6.5c5.3,13.3,14.1,25.2,25.8,32.1c-7.9-3.2-14.1-7.8-20-11.4c-4.9-2.9-12.2-8.7-16.7-13.1
											c-1.8-1.7-3.1-2.7-4.1-3.1c-0.5-0.2-0.9-0.3-1.3-0.2c-0.4,0.1-0.7,0.4-0.8,0.7c-0.3,0.7-0.2,1.7,0,2.9
											c0.3,1.2,0.7,2.6,1.3,4.1c3.3,8,11.1,14,17.9,18.2c-4.2-2-8.4-4.9-11.8-7.3c-2.2-1.6-4-2.9-5.3-3.5
											c-0.7-0.3-1.2-0.5-1.7-0.4c-0.2,0.1-0.5,0.2-0.6,0.5c-0.1,0.2-0.1,0.5-0.1,0.8c0.1,1.5,1.2,3.7,3.1,6.2
											c1.8,2.5,4.4,5.3,7.6,7.9c2.6,2.1,5.4,4.1,8.5,5.8c-2.6-1-4.9-2.2-6.7-3.2c-1.6-0.9-3-1.7-4-2.3c-0.5-0.3-0.9-0.5-1.3-0.7
											c-0.3-0.2-0.6-0.3-0.9-0.2c-0.5,0.1-1,0.4-1.2,0.8s-0.3,1-0.1,1.6c0.3,1.3,1.3,2.9,3,5.3c4.6,6,9.9,9.6,16.4,11.4
											c-2.3-0.3-4.3-0.7-5.8-1c-2.6-0.6-4-0.7-4.8-0.5c-0.2,0.1-0.4,0.2-0.5,0.3c-0.1,0.2-0.2,0.4-0.2,0.5
											c0,0.4,0.2,0.7,0.4,1.1c1.1,1.5,3.7,3.4,5.2,4.5c3.1,2.3,7.2,4,11.2,5.1c3.2,0.9,6.3,1.6,9.4,2.1c-2.6,0.1-5.2,0-7.4,0.1
											c-1.7,0-3.2,0.1-4.4,0.2c-0.6,0.1-1.1,0.2-1.4,0.3c-0.4,0.1-0.7,0.3-0.9,0.6s-0.2,0.6-0.2,1c0.1,0.3,0.2,0.6,0.5,0.9
											c0.5,0.6,1.3,1.1,2.3,1.6c2,1,5,1.9,8.4,2.5c2.4,0.4,4.1,0.7,6.3,0.7c-0.7,0.2-1.4,0.4-1.9,0.5c-1.4,0.5-2.2,0.9-2.6,1.4
											c-0.1,0.2-0.2,0.4-0.2,0.7c0,0.2,0.1,0.5,0.3,0.6c0.3,0.4,0.8,0.7,1.5,0.9c1.3,0.5,3.2,0.9,5.5,1.1
											c4.6,0.4,10.5-0.1,15.1-2.2c1.1-0.5,2.2-1.1,3.2-1.8c-1.2,0.4-2.3,0.8-3.5,1.2c-2.8,1-4.5,1.9-5.5,2.6
											c-0.5,0.3-0.8,0.6-0.9,0.9c-0.1,0.2,0,0.4,0.1,0.6c0.1,0.1,0.3,0.2,0.5,0.2c0.6,0.1,1.3-0.1,2.3-0.4
											c0.3-0.1,0.7-0.2,1.2-0.3c-0.9,0.5-1.5,0.9-1.9,1.3c-0.4,0.4-0.6,0.8-0.5,1.2s0.4,0.7,0.8,0.8c0.8,0.4,2.1,0.5,3.6,0.4
											c0.9,0,1.9-0.1,2.9-0.3c-0.1,0-0.1,0.1-0.2,0.1c-0.4,0.4-0.6,0.7-0.7,1.1c0,0.4,0.2,0.7,0.4,1c0.3,0.2,0.7,0.4,1.1,0.5
											c1,0.3,2.4,0.5,3.7,0.6c-2.6,0.6-4.4,1.1-5.5,1.8c-0.5,0.3-0.8,0.6-0.9,1c-0.2,0.4-0.1,0.8,0.1,1.1c0.4,0.6,1.3,1,2.4,1.2
											c1.7,0.4,4.1,0.4,6.8,0.1c-0.8,0.4-1.5,0.7-2.1,1c-1.1,0.6-1.8,1.1-1.9,1.8c-0.1,0.3,0.1,0.7,0.3,0.9
											c0.2,0.3,0.6,0.5,1,0.7c0.8,0.4,2.1,0.8,3.7,1.2c2.7,0.7,5.2,0.5,7.6,0.2c0,0.1-0.1,0.2-0.1,0.3c0,0.2,0.1,0.4,0.2,0.5
											c0.1,0.1,0.2,0.2,0.4,0.2c0.3,0.1,0.6,0.2,1,0.2c0.6,0.1,1.3,0.1,2,0.1c-0.7,0.1-1.4,0.2-2.1,0.3
											c-0.8,0.1-1.6,0.1-2.1,0.2c-0.3,0-0.5,0.1-0.8,0.2c-0.2,0.1-0.4,0.2-0.5,0.5c-0.1,0.2-0.1,0.5,0,0.8
											c0.1,0.2,0.3,0.5,0.5,0.6c0.4,0.4,1.1,0.7,1.9,1c1.3,0.5,3.2,0.8,5.2,1l0,0c-0.1,0.1-0.2,0.2-0.3,0.4s0,0.4,0,0.5
											c0.2,0.3,0.4,0.4,0.7,0.5s0.7,0.2,1.1,0.3c1.1,0.2,2.5,0.3,3.6,0.3c-0.3,0.2-0.5,0.4-0.6,0.5c-0.2,0.2-0.3,0.4-0.3,0.7
											c0,0.2,0.2,0.5,0.3,0.6c0.4,0.3,0.9,0.4,1.6,0.5c0.7,0.1,1.5,0.1,2.5,0.1c2.4-0.1,4.7-0.4,6.9-0.9s3.9-1.1,5.5-1.7
											c2.4-1,3.5-2,3.5-2s-1.2,1-3.6,1.8c-1.6,0.5-3.3,1-5.5,1.4c-2.1,0.4-4.4,0.7-6.8,0.8c-0.9,0-1.7,0-2.4-0.1
											c-0.6-0.1-1.1-0.2-1.3-0.3c-0.1-0.1-0.1-0.1-0.1-0.1s0-0.1,0.1-0.2c0.2-0.2,0.7-0.6,1.6-1l1.9-0.9l-2.1,0.3
											c-0.8,0.1-3.2,0-4.8-0.3c-0.4-0.1-0.8-0.2-1-0.3s-0.4-0.2-0.4-0.2v0.1c0,0,0,0,0.1-0.1s0.5-0.3,1-0.5l1.7-0.6h-1.9
											c-2.6,0-4.8-0.4-6.3-1c-0.8-0.3-1.3-0.6-1.6-0.9c-0.2-0.1-0.2-0.3-0.3-0.4c0-0.1,0-0.2,0-0.3c0,0,0,0,0.2-0.1
											c0.1-0.1,0.3-0.1,0.6-0.1c0.5-0.1,1.3-0.1,2.1-0.2c1.7-0.1,3.7-0.4,5.4-1.4l3.7-2.1l-4,1.5c-0.4,0.2-1.3,0.3-2.3,0.3
											c-0.9,0-2,0-2.7-0.1c-0.4,0-0.7-0.1-0.9-0.2c-0.1,0-0.2-0.1-0.2-0.1s0,0,0,0.1s0,0.1,0,0c0,0,0.1-0.1,0.3-0.2
											c0.3-0.1,0.8-0.3,1.5-0.5l5.5-1.5l-5.6,0.8c-3.1,0.4-6.2,1-9.6,0.1c-1.6-0.4-2.8-0.8-3.5-1.2c-0.4-0.2-0.6-0.4-0.8-0.5
											c-0.1-0.1-0.2-0.2-0.1-0.3c0-0.2,0.5-0.8,1.6-1.4c1.1-0.6,2.7-1.3,5-2.2l4.6-1.8l-4.8,1.2c-3.8,0.9-7.5,1-9.7,0.5
											c-1.1-0.2-1.8-0.6-2-0.9c-0.1-0.2-0.1-0.3,0-0.4c0.1-0.2,0.3-0.4,0.7-0.7c1.1-0.8,3.7-1.4,7.8-2.3
											c1.4-0.3,2.7-0.6,4.1-0.9c-1.4,0.2-2.8,0.3-4.2,0.3c-1.7,0-4.5-0.1-6.1-0.6c-0.4-0.1-0.7-0.3-0.9-0.4
											c-0.2-0.1-0.2-0.2-0.2-0.3s0.1-0.4,0.5-0.6c0.3-0.3,0.9-0.6,1.6-1l2.5-1.3l-2.8,0.7c-1.5,0.4-3.2,0.6-4.6,0.7
											c-1.4,0.1-2.7-0.1-3.3-0.3c-0.3-0.1-0.4-0.3-0.4-0.4c0-0.1,0-0.3,0.3-0.6c0.6-0.6,2.2-1.5,4.9-2.6
											c1.1-0.4,2.2-0.8,3.4-1.2c-1.2,0.1-2.4,0.3-3.5,0.5c-2.1,0.4-3.6,0.8-4.7,1.2s-1.7,0.5-2,0.4c-0.1,0-0.2-0.1-0.2-0.1v0.1
											c0,0,0.2-0.3,0.6-0.6c0.9-0.6,2.6-1.5,5.4-2.5l-0.3-0.6c-4.5,2.1-10.3,2.5-14.8,2.1c-2.2-0.2-4.1-0.6-5.3-1.1
											c-0.6-0.2-1-0.5-1.2-0.7c-0.1-0.1-0.1-0.2-0.1-0.3s0-0.1,0.1-0.2c0.2-0.2,0.9-0.7,2.2-1.1c1.4-0.4,3.3-0.9,6.1-1.4
											l7.1-1.2l-7.1,0.6c-4.9,0.4-6.8,0.2-10.5-0.4c-3.3-0.6-6.3-1.5-8.2-2.4c-1-0.5-1.7-1-2-1.4c-0.2-0.2-0.3-0.4-0.3-0.6
											c0-0.2,0-0.3,0.1-0.5c0,0,0.2-0.2,0.5-0.3s0.8-0.2,1.3-0.2c1.1-0.1,2.6-0.2,4.3-0.2c3.4,0,7.8,0,11.8-0.3
											c2-0.1,3.9-0.4,5.9-0.7c-2,0.1-3.9,0.2-5.9,0c-4.4-0.3-8.8-1.2-13.6-2.5c-4-1.1-7.9-2.8-11-5c-1.5-1.1-4.2-3.1-5.1-4.3
											c-0.2-0.3-0.3-0.6-0.3-0.7c0-0.1,0-0.1,0-0.1s0.1-0.1,0.2-0.1c0.5-0.2,2-0.1,4.5,0.5c2.7,0.6,6.4,1.3,11.2,1.5
											c2.4,0.1,4.7,0,7.1-0.3c-2.4,0-4.7-0.1-7-0.4c-8.9-1.2-15.5-4.9-21.1-12.2c-1.8-2.3-2.7-4-2.9-5c-0.1-0.5-0.1-0.9,0.1-1.1
											s0.4-0.4,0.8-0.5c0,0,0.2,0,0.5,0.2c0.3,0.1,0.7,0.4,1.2,0.6c1,0.6,2.3,1.4,4,2.3c3.3,1.8,7.8,4,13.3,5.3l8.5,2.1
											l-8.4-2.7c-5.3-1.7-10.3-4.9-14.5-8.4c-3.1-2.6-5.7-5.3-7.5-7.8c-1.8-2.4-2.8-4.6-2.9-5.8c0-0.3,0-0.4,0-0.5
											s0-0.1,0.1-0.1s0.6,0.1,1.2,0.4c1.2,0.6,3,1.9,5.2,3.5c4.4,3.1,10.2,7.2,15.7,8.9c0.8,0.2,1.6,0.4,2.4,0.6
											c-0.7-0.4-1.4-0.8-2.1-1.2c-7.4-4.3-17.3-10.9-21.1-20c-0.6-1.4-1-2.8-1.3-4c-0.2-1.2-0.2-2.1-0.1-2.5
											c0.1-0.2,0.2-0.3,0.4-0.3s0.5,0,0.9,0.2c0.8,0.4,2.1,1.3,3.8,3c4.6,4.5,11.9,10.2,16.9,13.2c6.9,4.1,14.2,9.9,24.5,13
											c1.6,0.5,3.2,0.9,4.8,1.2c-1.6-0.5-3.1-1.1-4.6-1.8c-13.6-6.2-23.8-19.2-29.6-33.9c-1.1-2.9-1.8-5-2.2-6.4
											c-0.2-0.7-0.3-1.3-0.3-1.7c0-0.4,0.1-0.6,0.1-0.6l0,0c0,0,0.1,0,0.2,0c0.2,0.1,0.5,0.2,0.8,0.5c0.7,0.6,1.6,1.5,2.7,2.7
											c4.3,4.8,10.7,13.6,14.6,18c7.2,8.1,13.7,13.6,19.8,17.2c3.3,2,6.4,3.5,9.1,4.8C207.1,125.3,210.2,127.3,212.4,129.6z"/>
									</g>
								</g>
								<g>
									<g>
										<defs>
											
												<rect id="SVGID_00000026882048633833555430000013028878272368926093_" x="138.6" y="74.4" width="126.1" height="126.1"/>
										</defs>
										<clipPath id="SVGID_00000008830303475278268640000016724451570738254746_">
											<use xlink:href="#SVGID_00000026882048633833555430000013028878272368926093_"  style="overflow:visible;"/>
										</clipPath>
										<path style="clip-path:url(#SVGID_00000008830303475278268640000016724451570738254746_);" d="M185.2,125.7
											c0.2,0,0.4,0,0.6,0c1.2,0.1,2.3,0.2,3.2,0.2c0.9,0.1,1.4,0.1,1.4,0.1s-0.5-0.2-1.4-0.4c-0.8-0.2-2-0.5-3.1-0.6
											c-0.2,0-0.4,0-0.6,0c-0.4,0-0.7,0-1,0.3c-0.1,0.1-0.1,0.4-0.1,0.5s0.1,0.3,0.2,0.4c0.2,0.2,0.4,0.4,0.6,0.6
											c-1.3-0.5-2.4-0.8-3.2-1c-0.7-0.1-1.2-0.2-1.6-0.1c-0.4,0.1-0.8,0.2-0.9,0.6c-0.1,0.3-0.1,0.7,0.1,1.1
											c0.2,0.4,0.5,0.9,1,1.4c0.7,0.7,1.7,1.5,3.1,2.3c-1-0.2-1.8-0.5-2.6-0.8c-2.3-1-3.9-1.5-4.9-1.4c-0.5,0-0.9,0.2-1.2,0.5
											s-0.3,0.7-0.3,1.1c0.1,0.8,0.7,1.8,1.5,2.9s1.8,2.2,2.9,3.2c2.9,2.7,6.4,4.4,9.7,5.6c-2.3-0.5-4.6-1-7.4-1.1
											c-0.6,0-1.2,0-1.6,0.2c-0.4,0.1-0.7,0.4-0.9,0.7c-0.3,0.7-0.1,1.5,0.5,2.3c1.1,1.6,3.5,3.4,6.5,4.6
											c5.3,2,8.7,2.4,12.3,2.5c-1.8,0.2-3.3,0.3-4.5,0.4c-1,0.1-1.9,0.1-2.6,0.2c-0.7,0.1-1.2,0.3-1.4,0.7
											c-0.2,0.3-0.3,0.7-0.1,1.1c0.1,0.4,0.4,0.7,0.7,0.9c0.7,0.6,1.8,1.1,3.1,1.5c2.2,0.7,4.9,1.2,7.6,1
											c-0.3,0.2-0.6,0.5-0.8,0.7c-0.4,0.5-0.6,1-0.5,1.5c0.2,0.5,0.6,0.7,1.2,0.9c0.6,0.2,1.3,0.3,2,0.4
											c3.2,0.2,7.9-0.7,10.2-3.2c0.4-0.5,0.8-1,1-1.6c-0.5,0.4-1,0.7-1.5,1.1c-1.1,0.9-1.7,1.6-1.9,2.1
											c-0.1,0.3-0.2,0.6-0.1,0.8c0.1,0.3,0.3,0.5,0.5,0.6c0.4,0.2,1,0.2,1.7,0.1c-0.5,0.4-1,0.8-1.3,1.1c-0.8,0.8-1.4,1.4-1.4,2
											c0,0.3,0.1,0.7,0.4,0.9c0.3,0.2,0.6,0.3,1.1,0.4c0.5,0.1,1.2,0.1,1.9,0.1c-1.2,0.5-2,1.1-2.5,1.6
											c-0.3,0.4-0.5,0.8-0.4,1.2s0.4,0.7,0.9,0.9c0.8,0.4,2.1,0.6,3.7,0.7c0.9,0,1.9,0,2.9-0.1c-0.2,0.1-0.4,0.3-0.6,0.4
											c-0.3,0.2-0.5,0.4-0.7,0.6c-0.2,0.2-0.3,0.4-0.3,0.7s0.2,0.5,0.4,0.6s0.5,0.2,0.8,0.2c0.1,0,0.2,0,0.4,0
											c-0.5,0.3-0.9,0.5-1.2,0.7c-0.4,0.3-0.7,0.5-0.8,0.8s-0.2,0.7-0.1,0.9c0.2,0.3,0.4,0.5,0.8,0.6c0.4,0.2,0.8,0.3,1.4,0.4
											c0.9,0.2,2,0.4,3.3,0.5c-0.2,0.1-0.3,0.2-0.5,0.3c-0.4,0.3-0.7,0.6-0.8,1s0.1,0.8,0.3,1.1c0.3,0.3,0.6,0.5,1.1,0.8
											c2.4,1.3,4,1.8,7.9,1.8c-0.1,0.1-0.2,0.1-0.3,0.2c-0.6,0.3-0.9,0.6-1,1s0.2,0.8,0.5,1.1s0.8,0.5,1.4,0.7
											c1.7,0.7,4.3,1.1,6.1,1.3c-0.2,0.1-0.4,0.3-0.6,0.4c-0.4,0.3-0.7,0.7-0.7,1.2c0,0.4,0.2,0.8,0.6,1.1
											c0.3,0.3,0.8,0.5,1.3,0.7c1.7,0.6,4.2,1,6.3,0.7c0,0.1-0.1,0.1-0.1,0.2c-0.1,0.2,0,0.4,0.1,0.5c0.2,0.3,0.5,0.4,0.9,0.4
											c0.4,0.1,0.8,0.1,1.3,0.1c2,0,3.9-0.3,5.5-0.7c1-0.3,1.8-0.5,2.5-0.8c1.1-0.5,1.5-1,1.5-1s-0.5,0.4-1.6,0.8
											c-0.7,0.2-1.5,0.4-2.5,0.6c-1.6,0.3-3.5,0.5-5.4,0.5c-0.5,0-0.9,0-1.2-0.1s-0.4-0.2-0.4-0.1v0.1c0,0,0-0.1,0.1-0.1
											c0.2-0.2,0.5-0.4,1.1-0.7l4.2-1.9l-4.4,1.3c-2.2,0.7-5.7,0.4-7.6-0.4c-0.5-0.2-0.9-0.4-1.1-0.6c-0.3-0.2-0.3-0.4-0.3-0.5
											c0-0.2,0.1-0.4,0.4-0.6c0.3-0.3,0.9-0.6,1.7-0.9l1.7-0.7h-1.9c-1.6,0-5.2-0.6-7.3-1.4c-0.5-0.2-0.9-0.4-1.2-0.6
											c-0.2-0.2-0.3-0.3-0.3-0.4s0.2-0.3,0.7-0.6s1.2-0.5,2.3-0.8l3-0.8l-3.1,0.1c-5.7,0.2-7-0.2-9.8-1.7
											c-0.4-0.2-0.7-0.4-0.9-0.6c-0.2-0.2-0.2-0.3-0.2-0.4c0-0.1,0.2-0.3,0.5-0.5c0.4-0.2,0.9-0.5,1.7-0.7s1.5-0.4,2.3-0.5
											c-0.8,0-1.6-0.1-2.4-0.2c-2-0.2-3.6-0.4-4.7-0.6c-0.5-0.1-1-0.3-1.3-0.4c-0.3-0.1-0.4-0.3-0.5-0.4c0-0.1-0.1-0.1,0-0.3
											s0.3-0.4,0.6-0.6c0.7-0.5,1.9-1.1,3.5-1.8l4.2-1.8l-4.4,1.1c-1.3,0.3-2.3,0.5-2.8,0.5c-0.3,0-0.5-0.1-0.5-0.1
											c-0.1,0,0,0,0,0s0-0.1,0.2-0.3c0.1-0.1,0.3-0.3,0.6-0.5c0.6-0.4,1.4-0.8,2.4-1.3l2.9-1.3l-3.1,0.6
											c-1.7,0.3-3.4,0.5-4.9,0.4c-1.5,0-2.7-0.3-3.4-0.6c-0.3-0.2-0.5-0.3-0.5-0.5c0-0.1,0-0.3,0.3-0.6c0.5-0.6,1.9-1.4,4.4-2.2
											l2.9-1l-3.1,0.4c-1.9,0.2-3.3,0.3-4.1,0.2c-0.4-0.1-0.7-0.2-0.8-0.3s-0.1-0.1-0.1-0.3c0-0.3,0.4-0.9,1.2-1.6
											c0.8-0.7,1.9-1.6,3.3-2.5l5.2-3.5l-5.6,2.9c-0.8,0.4-1.5,0.7-2.2,0.8c-0.6,0.1-1.1,0.1-1.3,0c-0.1,0-0.1-0.1-0.1-0.1
											c0-0.1,0-0.2,0.1-0.4c0.2-0.4,0.8-1.1,1.8-1.9l-0.5-0.5c-2,2.3-6.6,3.2-9.6,3c-0.7-0.1-1.4-0.2-1.9-0.3
											c-0.5-0.2-0.7-0.4-0.8-0.6c-0.1-0.2,0-0.4,0.3-0.7c0.3-0.4,1-0.8,2-1.3l1.9-0.9l-2.1,0.3c-2.9,0.4-6.4,0-8.8-0.9
											c-1.2-0.4-2.3-0.9-2.8-1.4c-0.3-0.2-0.5-0.5-0.5-0.7c-0.1-0.2-0.1-0.3,0.1-0.5c0.1-0.1,0.4-0.3,1-0.4
											c0.6-0.1,1.4-0.2,2.5-0.2c2.1-0.1,5-0.3,8.8-1c1-0.2,1.9-0.4,2.9-0.6c-1,0-1.9,0-2.9,0c-5.6,0-9.1,0.3-16.3-2.5
											c-2.9-1.1-5.2-2.9-6.2-4.3c-0.5-0.7-0.6-1.3-0.4-1.6c0.1-0.2,0.2-0.3,0.5-0.4c0.3-0.1,0.7-0.2,1.3-0.1
											c4.2,0.2,7.4,1.4,11.3,1.8c0.9,0.1,1.8,0.1,2.7,0.1c-0.9-0.2-1.7-0.5-2.6-0.8c-4.1-1.3-9.4-3.2-13.3-6.8
											c-1-1-2-2.1-2.8-3.1c-0.7-1-1.2-2-1.3-2.6c0-0.3,0-0.5,0.1-0.6s0.3-0.2,0.7-0.2c0.8,0,2.3,0.4,4.6,1.4
											c1.5,0.7,3.3,1,5.2,1.4l3,0.7l-2.8-1.4c-2.6-1.3-4.3-2.5-5.2-3.4c-0.5-0.5-0.7-0.9-0.9-1.2c-0.1-0.3-0.1-0.5-0.1-0.6
											s0.1-0.1,0.4-0.2c0.3,0,0.8,0,1.4,0.1c1.3,0.3,3.2,0.9,5.8,2.1l3.8,1.7L188,128c-1.6-1.1-2.6-1.8-2.9-2.2
											c-0.1-0.1-0.1-0.2-0.1-0.2v0.1C184.7,125.8,184.9,125.7,185.2,125.7"/>
									</g>
								</g>
								<g>
									<g>
										<defs>
											
												<rect id="SVGID_00000075129346747721307970000008950739453064448185_" x="138.6" y="74.4" width="126.1" height="126.1"/>
										</defs>
										<clipPath id="SVGID_00000130624993845193113760000008917981036720658615_">
											<use xlink:href="#SVGID_00000075129346747721307970000008950739453064448185_"  style="overflow:visible;"/>
										</clipPath>
										
											<path style="clip-path:url(#SVGID_00000130624993845193113760000008917981036720658615_);fill:none;stroke:#000000;stroke-width:1.8339;stroke-linecap:round;stroke-linejoin:round;stroke-miterlimit:10;" d="
											M185.2,125.7c0.2,0,0.4,0,0.6,0c1.2,0.1,2.3,0.2,3.2,0.2c0.9,0.1,1.4,0.1,1.4,0.1s-0.5-0.2-1.4-0.4
											c-0.8-0.2-2-0.5-3.1-0.6c-0.2,0-0.4,0-0.6,0c-0.4,0-0.7,0-1,0.3c-0.1,0.1-0.1,0.4-0.1,0.5s0.1,0.3,0.2,0.4
											c0.2,0.2,0.4,0.4,0.6,0.6c-1.3-0.5-2.4-0.8-3.2-1c-0.7-0.1-1.2-0.2-1.6-0.1c-0.4,0.1-0.8,0.2-0.9,0.6
											c-0.1,0.3-0.1,0.7,0.1,1.1c0.2,0.4,0.5,0.9,1,1.4c0.7,0.7,1.7,1.5,3.1,2.3c-1-0.2-1.8-0.5-2.6-0.8c-2.3-1-3.9-1.5-4.9-1.4
											c-0.5,0-0.9,0.2-1.2,0.5s-0.3,0.7-0.3,1.1c0.1,0.8,0.7,1.8,1.5,2.9s1.8,2.2,2.9,3.2c2.9,2.7,6.4,4.4,9.7,5.6
											c-2.3-0.5-4.6-1-7.4-1.1c-0.6,0-1.2,0-1.6,0.2c-0.4,0.1-0.7,0.4-0.9,0.7c-0.3,0.7-0.1,1.5,0.5,2.3
											c1.1,1.6,3.5,3.4,6.5,4.6c5.3,2,8.7,2.4,12.3,2.5c-1.8,0.2-3.3,0.3-4.5,0.4c-1,0.1-1.9,0.1-2.6,0.2
											c-0.7,0.1-1.2,0.3-1.4,0.7c-0.2,0.3-0.3,0.7-0.1,1.1c0.1,0.4,0.4,0.7,0.7,0.9c0.7,0.6,1.8,1.1,3.1,1.5
											c2.2,0.7,4.9,1.2,7.6,1c-0.3,0.2-0.6,0.5-0.8,0.7c-0.4,0.5-0.6,1-0.5,1.5c0.2,0.5,0.6,0.7,1.2,0.9c0.6,0.2,1.3,0.3,2,0.4
											c3.2,0.2,7.9-0.7,10.2-3.2c0.4-0.5,0.8-1,1-1.6c-0.5,0.4-1,0.7-1.5,1.1c-1.1,0.9-1.7,1.6-1.9,2.1
											c-0.1,0.3-0.2,0.6-0.1,0.8c0.1,0.3,0.3,0.5,0.5,0.6c0.4,0.2,1,0.2,1.7,0.1c-0.5,0.4-1,0.8-1.3,1.1c-0.8,0.8-1.4,1.4-1.4,2
											c0,0.3,0.1,0.7,0.4,0.9c0.3,0.2,0.6,0.3,1.1,0.4c0.5,0.1,1.2,0.1,1.9,0.1c-1.2,0.5-2,1.1-2.5,1.6
											c-0.3,0.4-0.5,0.8-0.4,1.2s0.4,0.7,0.9,0.9c0.8,0.4,2.1,0.6,3.7,0.7c0.9,0,1.9,0,2.9-0.1c-0.2,0.1-0.4,0.3-0.6,0.4
											c-0.3,0.2-0.5,0.4-0.7,0.6c-0.2,0.2-0.3,0.4-0.3,0.7s0.2,0.5,0.4,0.6s0.5,0.2,0.8,0.2c0.1,0,0.2,0,0.4,0
											c-0.5,0.3-0.9,0.5-1.2,0.7c-0.4,0.3-0.7,0.5-0.8,0.8s-0.2,0.7-0.1,0.9c0.2,0.3,0.4,0.5,0.8,0.6c0.4,0.2,0.8,0.3,1.4,0.4
											c0.9,0.2,2,0.4,3.3,0.5c-0.2,0.1-0.3,0.2-0.5,0.3c-0.4,0.3-0.7,0.6-0.8,1s0.1,0.8,0.3,1.1c0.3,0.3,0.6,0.5,1.1,0.8
											c2.4,1.3,4,1.8,7.9,1.8c-0.1,0.1-0.2,0.1-0.3,0.2c-0.6,0.3-0.9,0.6-1,1s0.2,0.8,0.5,1.1s0.8,0.5,1.4,0.7
											c1.7,0.7,4.3,1.1,6.1,1.3c-0.2,0.1-0.4,0.3-0.6,0.4c-0.4,0.3-0.7,0.7-0.7,1.2c0,0.4,0.2,0.8,0.6,1.1
											c0.3,0.3,0.8,0.5,1.3,0.7c1.7,0.6,4.2,1,6.3,0.7c0,0.1-0.1,0.1-0.1,0.2c-0.1,0.2,0,0.4,0.1,0.5c0.2,0.3,0.5,0.4,0.9,0.4
											c0.4,0.1,0.8,0.1,1.3,0.1c2,0,3.9-0.3,5.5-0.7c1-0.3,1.8-0.5,2.5-0.8c1.1-0.5,1.5-1,1.5-1s-0.5,0.4-1.6,0.8
											c-0.7,0.2-1.5,0.4-2.5,0.6c-1.6,0.3-3.5,0.5-5.4,0.5c-0.5,0-0.9,0-1.2-0.1s-0.4-0.2-0.4-0.1v0.1c0,0,0-0.1,0.1-0.1
											c0.2-0.2,0.5-0.4,1.1-0.7l4.2-1.9l-4.4,1.3c-2.2,0.7-5.7,0.4-7.6-0.4c-0.5-0.2-0.9-0.4-1.1-0.6c-0.3-0.2-0.3-0.4-0.3-0.5
											c0-0.2,0.1-0.4,0.4-0.6c0.3-0.3,0.9-0.6,1.7-0.9l1.7-0.7h-1.9c-1.6,0-5.2-0.6-7.3-1.4c-0.5-0.2-0.9-0.4-1.2-0.6
											c-0.2-0.2-0.3-0.3-0.3-0.4s0.2-0.3,0.7-0.6s1.2-0.5,2.3-0.8l3-0.8l-3.1,0.1c-5.7,0.2-7-0.2-9.8-1.7
											c-0.4-0.2-0.7-0.4-0.9-0.6c-0.2-0.2-0.2-0.3-0.2-0.4c0-0.1,0.2-0.3,0.5-0.5c0.4-0.2,0.9-0.5,1.7-0.7s1.5-0.4,2.3-0.5
											c-0.8,0-1.6-0.1-2.4-0.2c-2-0.2-3.6-0.4-4.7-0.6c-0.5-0.1-1-0.3-1.3-0.4c-0.3-0.1-0.4-0.3-0.5-0.4c0-0.1-0.1-0.1,0-0.3
											s0.3-0.4,0.6-0.6c0.7-0.5,1.9-1.1,3.5-1.8l4.2-1.8l-4.4,1.1c-1.3,0.3-2.3,0.5-2.8,0.5c-0.3,0-0.5-0.1-0.5-0.1
											c-0.1,0,0,0,0,0s0-0.1,0.2-0.3c0.1-0.1,0.3-0.3,0.6-0.5c0.6-0.4,1.4-0.8,2.4-1.3l2.9-1.3l-3.1,0.6
											c-1.7,0.3-3.4,0.5-4.9,0.4c-1.5,0-2.7-0.3-3.4-0.6c-0.3-0.2-0.5-0.3-0.5-0.5c0-0.1,0-0.3,0.3-0.6c0.5-0.6,1.9-1.4,4.4-2.2
											l2.9-1l-3.1,0.4c-1.9,0.2-3.3,0.3-4.1,0.2c-0.4-0.1-0.7-0.2-0.8-0.3s-0.1-0.1-0.1-0.3c0-0.3,0.4-0.9,1.2-1.6
											c0.8-0.7,1.9-1.6,3.3-2.5l5.2-3.5l-5.6,2.9c-0.8,0.4-1.5,0.7-2.2,0.8c-0.6,0.1-1.1,0.1-1.3,0c-0.1,0-0.1-0.1-0.1-0.1
											c0-0.1,0-0.2,0.1-0.4c0.2-0.4,0.8-1.1,1.8-1.9l-0.5-0.5c-2,2.3-6.6,3.2-9.6,3c-0.7-0.1-1.4-0.2-1.9-0.3
											c-0.5-0.2-0.7-0.4-0.8-0.6c-0.1-0.2,0-0.4,0.3-0.7c0.3-0.4,1-0.8,2-1.3l1.9-0.9l-2.1,0.3c-2.9,0.4-6.4,0-8.8-0.9
											c-1.2-0.4-2.3-0.9-2.8-1.4c-0.3-0.2-0.5-0.5-0.5-0.7c-0.1-0.2-0.1-0.3,0.1-0.5c0.1-0.1,0.4-0.3,1-0.4
											c0.6-0.1,1.4-0.2,2.5-0.2c2.1-0.1,5-0.3,8.8-1c1-0.2,1.9-0.4,2.9-0.6c-1,0-1.9,0-2.9,0c-5.6,0-9.1,0.3-16.3-2.5
											c-2.9-1.1-5.2-2.9-6.2-4.3c-0.5-0.7-0.6-1.3-0.4-1.6c0.1-0.2,0.2-0.3,0.5-0.4c0.3-0.1,0.7-0.2,1.3-0.1
											c4.2,0.2,7.4,1.4,11.3,1.8c0.9,0.1,1.8,0.1,2.7,0.1c-0.9-0.2-1.7-0.5-2.6-0.8c-4.1-1.3-9.4-3.2-13.3-6.8
											c-1-1-2-2.1-2.8-3.1c-0.7-1-1.2-2-1.3-2.6c0-0.3,0-0.5,0.1-0.6s0.3-0.2,0.7-0.2c0.8,0,2.3,0.4,4.6,1.4
											c1.5,0.7,3.3,1,5.2,1.4l3,0.7l-2.8-1.4c-2.6-1.3-4.3-2.5-5.2-3.4c-0.5-0.5-0.7-0.9-0.9-1.2c-0.1-0.3-0.1-0.5-0.1-0.6
											s0.1-0.1,0.4-0.2c0.3,0,0.8,0,1.4,0.1c1.3,0.3,3.2,0.9,5.8,2.1l3.8,1.7L188,128c-1.6-1.1-2.6-1.8-2.9-2.2
											c-0.1-0.1-0.1-0.2-0.1-0.2v0.1C184.7,125.8,184.9,125.7,185.2,125.7z"/>
									</g>
								</g>
							</g>
						</g>
					</g>
				</g>
			</g>
		</g>
	</g>
</g>
<circle class="st18" cx="79.3" cy="139.5" r="20"/>
<circle class="st18" cx="119.3" cy="139.5" r="20"/>
<line class="st0" x1="60.3" y1="118.5" x2="60.3" y2="159.5"/>
<line class="st0" x1="58.8" y1="32.5" x2="138.8" y2="32.5"/>
<line class="st0" x1="455.3" y1="31.5" x2="455.3" y2="72.5"/>
<circle class="st18" cx="395.3" cy="51.5" r="20"/>
<circle class="st18" cx="435.3" cy="51.5" r="20"/>
<circle class="st18" cx="396.3" cy="221.5" r="20"/>
<circle class="st18" cx="436.3" cy="221.5" r="20"/>
<line class="st0" x1="455.3" y1="200.5" x2="455.3" y2="242.5"/>
<line class="st0" x1="375.3" y1="32.5" x2="455.3" y2="32.5"/>
<line class="st0" x1="376.9" y1="92.2" x2="371.9" y2="97.2"/>
<line class="st0" x1="378.9" y1="94.2" x2="373.9" y2="99.2"/>
<line class="st0" x1="376.9" y1="177.2" x2="371.9" y2="182.2"/>
<line class="st0" x1="378.9" y1="179.2" x2="373.9" y2="184.2"/>
<g class="st6">
	<path d="M32,143.3l2.3-3.2l-2.1-3h1.3l1,1.5c0.2,0.3,0.3,0.5,0.4,0.7c0.2-0.3,0.3-0.5,0.5-0.7l1-1.5h1.3l-2.2,2.9l2.3,3.3h-1.3
		l-1.3-1.9l-0.3-0.5l-1.6,2.5H32V143.3z"/>
</g>
<g class="st6">
	<path d="M98.2,18.3v1h-5.7c0-0.3,0-0.5,0.1-0.7c0.1-0.4,0.4-0.8,0.7-1.1s0.8-0.8,1.4-1.3c0.9-0.8,1.6-1.4,1.9-1.8s0.5-0.9,0.5-1.3
		c0-0.4-0.1-0.8-0.4-1.1s-0.7-0.4-1.2-0.4s-0.9,0.2-1.2,0.5s-0.5,0.7-0.5,1.3l-1.1-0.1c0.1-0.8,0.4-1.4,0.8-1.8s1.1-0.6,2-0.6
		c0.8,0,1.5,0.2,2,0.7s0.7,1,0.7,1.7c0,0.3-0.1,0.7-0.2,1s-0.4,0.7-0.7,1s-0.9,0.9-1.6,1.5c-0.6,0.5-1,0.9-1.2,1.1s-0.3,0.4-0.4,0.6
		h4.1L98.2,18.3L98.2,18.3z"/>
	<path d="M98.9,19.4l2.3-3.2l-2.1-3h1.3l1,1.5c0.2,0.3,0.3,0.5,0.4,0.7c0.2-0.3,0.3-0.5,0.5-0.7l1-1.5h1.3l-2.2,2.9l2.3,3.3h-1.3
		l-1.3-1.9l-0.3-0.5l-1.6,2.5L98.9,19.4L98.9,19.4z"/>
</g>
<g class="st6">
	<path d="M420.3,17v1h-5.7c0-0.3,0-0.5,0.1-0.7c0.1-0.4,0.4-0.8,0.7-1.1s0.8-0.8,1.4-1.3c0.9-0.8,1.6-1.4,1.9-1.8s0.5-0.9,0.5-1.3
		c0-0.4-0.1-0.8-0.4-1.1s-0.7-0.4-1.2-0.4s-0.9,0.2-1.2,0.5s-0.5,0.7-0.5,1.3l-1.1-0.1c0.1-0.8,0.4-1.4,0.8-1.8s1.1-0.6,2-0.6
		c0.8,0,1.5,0.2,2,0.7s0.7,1,0.7,1.7c0,0.3-0.1,0.7-0.2,1s-0.4,0.7-0.7,1s-0.9,0.9-1.6,1.5c-0.6,0.5-1,0.9-1.2,1.1s-0.3,0.4-0.4,0.6
		h4.1L420.3,17L420.3,17z"/>
	<path d="M421,18l2.3-3.2l-2.1-3h1.3l1,1.5c0.2,0.3,0.3,0.5,0.4,0.7c0.2-0.3,0.3-0.5,0.5-0.7l1-1.5h1.3l-2.2,2.9l2.3,3.3h-1.3
		l-1.3-1.9l-0.3-0.5l-1.6,2.5H421V18z"/>
</g>
<g class="st6">
	<path d="M475.3,54l2.3-3.2l-2.1-3h1.3l1,1.5c0.2,0.3,0.3,0.5,0.4,0.7c0.2-0.3,0.3-0.5,0.5-0.7l1-1.5h1.3l-2.2,2.9l2.3,3.3h-1.3
		l-1.3-1.9l-0.3-0.5l-1.6,2.5L475.3,54L475.3,54z"/>
</g>
<g class="st6">
	<path d="M475.3,226l2.3-3.2l-2.1-3h1.3l1,1.5c0.2,0.3,0.3,0.5,0.4,0.7c0.2-0.3,0.3-0.5,0.5-0.7l1-1.5h1.3l-2.2,2.9l2.3,3.3h-1.3
		l-1.3-1.9l-0.3-0.5l-1.6,2.5h-1.3L475.3,226L475.3,226z"/>
</g>
</svg>
