<?xml version="1.0" encoding="utf-8"?>
<!-- Generator: Adobe Illustrator 27.0.0, SVG Export Plug-In . SVG Version: 6.00 Build 0)  -->
<svg version="1.1" id="Layer_1" xmlns="http://www.w3.org/2000/svg" xmlns:xlink="http://www.w3.org/1999/xlink" x="0px" y="0px"
	 viewBox="0 0 48 48" style="enable-background:new 0 0 48 48;" xml:space="preserve">
<style type="text/css">
	.st0{fill:url(#SVGID_1_);stroke:#8F65D0;stroke-linecap:round;stroke-linejoin:round;stroke-miterlimit:10;}
	.st1{opacity:0;fill:#FFFFFF;}
</style>
<linearGradient id="SVGID_1_" gradientUnits="userSpaceOnUse" x1="32.73" y1="41.0842" x2="12.9534" y2="6.8301">
	<stop  offset="0" style="stop-color:#9FE3F0"/>
	<stop  offset="1" style="stop-color:#D6ACF9"/>
</linearGradient>
<path class="st0" d="M20.1,28.7H28v3.5h-7.9V28.7z M41.2,19.1h-4.8c0.3,0.8,0.4,1.7,0.4,2.6c0,0.9,0,1.8,0,2.6h4.3v3.4h-4.3
	c0,0.8,0,1.6,0,2.4c0,0.8-0.1,1.6-0.4,2.4h4.7v3.4h-5.8c-1,2.2-2.5,3.9-4.6,5.1c-2,1.5-4.3,2-6.7,2s-4.7-0.6-6.8-1.8
	c-2.1-1.2-3.6-2.9-4.5-5.1H6.9v-3.5h4.6c-0.2-0.8-0.3-1.6-0.3-2.4s0-1.6,0-2.5H6.8v-3.4h4.3c0-0.9,0-1.7,0.1-2.6
	c0-0.9,0.2-1.7,0.4-2.6H6.9v-3.4h6.2c0.4-1.1,1-2,1.8-2.7c0.8-0.7,1.6-1.4,2.6-1.8l-3.9-3.8L16,5.1l4.7,4.7c1-0.4,2.1-0.7,3.2-0.7
	c1.1,0,2.2,0.2,3.3,0.6L32,4.9l2.3,2.3l-3.7,3.7c1.1,0.6,2,1.3,2.8,2.1c0.8,0.9,1.4,1.9,1.9,3h5.9V19.1z M32.2,22.5
	c0-2.4-0.8-4.5-2.3-6.2c-1.6-1.7-3.5-2.6-5.9-2.6s-4.4,0.8-5.9,2.5c-1.6,1.7-2.3,3.8-2.3,6.2v7.4c0,2.4,0.8,4.4,2.3,6.1
	c1.5,1.8,3.5,2.6,5.9,2.6s4.4-0.8,5.9-2.5s2.3-3.7,2.3-6.1V22.5z M20.1,23.6H28v-3.5h-7.9V23.6z"/>
<rect x="0" class="st1" width="48" height="48"/>
</svg>
