<?xml version="1.0" encoding="utf-8"?>
<!-- Generator: Adobe Illustrator 27.0.0, SVG Export Plug-In . SVG Version: 6.00 Build 0)  -->
<svg version="1.1" id="Layer_1" xmlns="http://www.w3.org/2000/svg" xmlns:xlink="http://www.w3.org/1999/xlink" x="0px" y="0px"
	 viewBox="0 0 48 48" style="enable-background:new 0 0 48 48;" xml:space="preserve">
<style type="text/css">
	.st0{fill:url(#SVGID_1_);stroke:#8F65D0;stroke-linecap:round;stroke-linejoin:round;stroke-miterlimit:10;}
	.st1{opacity:0;fill:#FFFFFF;}
</style>
<linearGradient id="SVGID_1_" gradientUnits="userSpaceOnUse" x1="36.8862" y1="1.7671" x2="11.1888" y2="46.2763" gradientTransform="matrix(1 0 0 -1 0 48)">
	<stop  offset="0" style="stop-color:#9FE3F0"/>
	<stop  offset="1" style="stop-color:#D6ACF9"/>
</linearGradient>
<path class="st0" d="M13.6,47c-1.2,0-2.3-0.5-3.2-1.4S9,43.6,9,42.4V5.6c0-1.2,0.5-2.3,1.4-3.2s2-1.4,3.2-1.4h20.9
	c1.2,0,2.3,0.5,3.2,1.4s1.4,2,1.4,3.2v6.8h-4.5V10h-21v28h20.9v-2.3H39v6.8c0,1.2-0.5,2.3-1.4,3.2s-2,1.4-3.2,1.4H13.6V47z
	 M13.6,40.9v1.5h20.9v-1.5H13.6z M13.6,7.2h20.9V5.6H13.6V7.2z M13.6,7.2V5.6V7.2z M13.6,40.9v1.5V40.9z M36.5,25.4H23.4v7.1h-2.8
	v-7.1c0-0.8,0.3-1.4,0.9-2s1.2-0.8,2-0.8h13.1l-4.2-4.1l2-2l7.5,7.6l-7.5,7.5l-2-2L36.5,25.4z"/>
<rect x="-1" y="-1" class="st1" width="48" height="48"/>
</svg>
