<?xml version="1.0" encoding="utf-8"?>
<!-- Generator: Adobe Illustrator 27.0.0, SVG Export Plug-In . SVG Version: 6.00 Build 0)  -->
<svg version="1.1" id="Layer_1" xmlns="http://www.w3.org/2000/svg" xmlns:xlink="http://www.w3.org/1999/xlink" x="0px" y="0px"
	 viewBox="0 0 48 48" style="enable-background:new 0 0 48 48;" xml:space="preserve">
<style type="text/css">
	.st0{fill:url(#SVGID_1_);stroke:#8F65D0;stroke-linecap:round;stroke-linejoin:round;stroke-miterlimit:10;}
	.st1{opacity:0;fill:#FFFFFF;}
</style>
<linearGradient id="SVGID_1_" gradientUnits="userSpaceOnUse" x1="33.1962" y1="7.3019" x2="14.1372" y2="40.3133" gradientTransform="matrix(1 0 0 -1 0 48)">
	<stop  offset="0" style="stop-color:#9FE3F0"/>
	<stop  offset="1" style="stop-color:#D6ACF9"/>
</linearGradient>
<path class="st0" d="M9.4,32.2L22,39.5V25.1L9.4,17.9V32.2z M26.1,39.5l12.5-7.2V17.9l-12.5,7.3C26.1,25.2,26.1,39.5,26.1,39.5z
	 M11.7,14.4L24,21.6l12.4-7.2L24,7.2L11.7,14.4z M4.8,35V15.7c0-0.8,0.2-1.6,0.6-2.2s0.9-1.3,1.7-1.7l14.6-8.4
	c0.7-0.4,1.5-0.6,2.2-0.6c0.8,0,1.5,0.2,2.3,0.6l14.6,8.4c0.8,0.4,1.3,1,1.8,1.7c0.4,0.7,0.6,1.5,0.6,2.2v16.5
	c0,0.8-0.2,1.6-0.6,2.3c-0.4,0.7-1,1.3-1.8,1.7l-14.6,8.4c-0.8,0.4-1.5,0.6-2.3,0.6s-1.5-0.2-2.2-0.6L4.8,35z"/>
<rect x="-1" y="-1" class="st1" width="48" height="48"/>
</svg>
