<?xml version="1.0" encoding="utf-8"?>
<!-- Generator: Adobe Illustrator 27.0.0, SVG Export Plug-In . SVG Version: 6.00 Build 0)  -->
<svg version="1.1" id="Layer_1" xmlns="http://www.w3.org/2000/svg" xmlns:xlink="http://www.w3.org/1999/xlink" x="0px" y="0px"
	 viewBox="0 0 2063.5 2063.5" style="enable-background:new 0 0 2063.5 2063.5;" xml:space="preserve">
<style type="text/css">
	.st0{opacity:0;}
	.st1{fill:#FFFFFF;}
	.st2{fill:#FFFFFF;stroke:#FFFFFF;stroke-width:30;stroke-linecap:round;stroke-linejoin:round;stroke-miterlimit:10;}
</style>
<g>
	<g class="st0">
		<rect x="0.3" y="0.8" class="st1" width="2062" height="2062"/>
		<path d="M2061.8,1.3v2061H0.8V1.3H2061.8 M2062.8,0.3H-0.2v2063h2063V0.3L2062.8,0.3z"/>
	</g>
	<path id="path4837" d="M288.6,87.6c-15.9-0.1-9.7,40.9,33.3,149.6C417.6,478.7,585.6,692.3,809,794.5
		c-197.9-62.8-286.4-143.9-399.2-211.7C329,534.2,209.9,440.6,135.2,367.1c-114-112.2-110-29.1-71,65.9
		c62.4,152,226.2,259.2,347.5,329.9c-178.7-54.9-378.9-267.7-372-193.1c4.2,44.7,69.9,141,172.4,226.1
		c69,57.3,152.7,109.6,239.5,137.9C272.9,890.3,157,792.2,138.7,796.5c-31.7,7.4-27.4,41.3,30.4,116.9
		c92.4,120.9,203.2,182,349.6,202.4c-77.2-2.1-138.2-13.6-181.7-23.7c-166.4-38.8-43.9,51.4,6.5,87.9
		c50.7,36.7,115.7,64.8,181.4,82.5c78.1,21.1,150.8,37,223.7,41.6c-129.9,9.5-283.6-3.9-297.2,19c-18.7,31.5,64.7,68.9,174.9,88.9
		c60.3,11,93.5,13.5,173.5,7.1c-89.6,15.8-130.6,30.9-139.5,43.9c-25.9,37.8,177.3,73.8,326.7,22.3c-65.4,27.3-83.1,44.9-65.2,48.3
		c14.4,2.7,43.6-12.6,111.6-25.7c-181.2,71.6-47.5,88.8,53.5,63.3c-101.7,53.2,30.9,61,85.8,61c-65.8,15.2-108.8,24.2-128.9,38.5
		c-55.1,39.2,58.5,67.4,185.3,36c-147.2,58.6-136.7,75.1-33.5,102.3c56.8,15,109.5,5,159.7-2.2c-94.6,25.4,38.4,32.3,72.5,19.6
		c-52.9,30.1-131.8,16.6-138,31.9c-9.2,22.3,54.9,48,140.3,48.8c-73.4,26.8,57.8,35.7,85.8,32.2c-93.1,44.7,38.6,48.4,145.8,25
		c64.2-14,126.9-35.3,147.7-56.6c161.4-6.6,217.1-247.6,219.2-255c2.1-7.4-90.5-40.1-175-80.1c-69.7-33-141.4-83.6-194.2-130.8
		l-219.5-271.8c-48.4-74.8-93.3-152.4-138.8-229.7c-43.5-73.8-76.5-66.7-80.7-49.1c-62.2-58.6-173.2-93-306.1-172.4
		C815.2,659.6,710.3,570.3,592,438C501.1,336.3,327.8,87.8,288.6,87.6z"/>
	<path id="path4797" class="st2" d="M1972.3,1614.1c-33.2-13.4-74.6-26.8-116.4-46.6c-84-39.7-171.7-105.9-224.2-159.7
		c-133.2-136.4-227.9-304.1-325.9-470.4c-26.3-44.6-49-61.6-66.9-63.4c-8.9-0.9-16.6,2.7-20.8,8.7c-1.3,1.9-2.3,3.9-2.9,6.1
		c-18.4-15.6-47.5-34.6-78.3-50.4c-37.2-19.1-76.1-34-103.2-29.9c-1.2,0.2-2.9,1-3.9,2.4c-1,1.4-1.2,2.9-1.1,3.8
		c0.1,1.9,0.6,2.6,1.1,3.4c0.9,1.6,2,3.1,3.6,5c3.2,3.7,8,8.6,14.6,14.4c7,6.1,15.9,13.2,26.6,20.6c-49.4-12-92.1-17.2-126.5-17.5
		c-42.6-0.4-72.3,6.1-87.5,18.5c-1.6,1.3-3.1,3.5-3.3,5.9c-0.3,2.4,0.6,4.6,1.6,6.2c2.1,3.3,5.2,5.6,9.3,8.2
		c8.3,5.3,21.2,11.1,38.4,17.6c21.9,8.3,50.6,17.6,84.6,27.3c-5.3,0-10.1,0.1-14.6,0.4c-18.9,1.1-30.9,4.4-37.9,11
		c-3.5,3.3-5.5,7.9-5.2,12.5c0.3,4.5,2.4,8.6,5.4,12.4c6.1,7.5,16.3,14.1,29.4,19.7c36.1,15.5,90.8,30.3,129.1,39
		c-21.3,3.6-35.7,7.2-45,10.9c-7.5,2.9-12.9,6.4-14.3,12.5c-0.7,3.1,0,6.3,1.4,8.8c1.4,2.5,3.4,4.5,5.8,6.5
		c9.6,7.7,26.5,14.1,47.1,20.1c26.3,7.6,58.2,13.9,86.7,16.9c-14.1,3.3-25.2,6.4-33.4,9.7c-7.6,3-13.1,6.1-16.3,11.4
		c-3.1,5.3-1.8,12,1.9,17.3c6.7,9.5,17.3,14.8,29.1,17.1s25,1.8,38.2-0.3c26.4-4.2,52.7-14.6,67.4-25c9.2-6.6,16.7-15.2,22-25.2
		c-9.9,4.5-19.4,10-28.3,16.2c-26.7,18.6-39.7,38.1-41.3,54.3c-0.6,6.5,0.8,12.6,4.4,17.2c3.6,4.7,9.2,7.5,15.7,8.2
		c8.1,0.9,17.6-1.2,28.3-6.6c-3.2,6.8-4.9,12.7-5.4,18c-0.5,5,0.3,9.7,2.7,13.4c2.4,3.7,6.4,6.1,10.6,7c8.5,1.9,18.4-0.7,29.4-6.1
		c7.2-3.5,14.9-8.4,22.7-14.6c-0.8,8.2-0.8,17.4-0.3,26.6c1,16.2,3.8,32.6,7.7,44.7c2,6,4.1,11,7.2,14.7c1.6,1.8,3.5,3.5,6.2,4.3
		c2.7,0.8,5.9,0.1,8.2-1.4c4.1-2.8,6.4-7.1,8.6-13.6c6.8,38.9,22.8,79.7,37.9,107.5c5,9.1,9.8,16.8,14.4,22.6
		c4.6,5.8,8.3,10.1,13.8,11.7c2.8,0.8,6.6,0.3,9.1-1.9c0.7-0.6,1.3-1.3,1.8-2.1c3.8,9.5,8.4,18.5,14.1,26.1
		c5.9,7.6,13.1,13.8,22.2,16.8c3.7,1.2,7.7,1.9,11.9,2c-4.4,4.2-8.2,8.2-11.3,11.9c-3.1,3.6-5.5,6.9-7.1,10.2
		c-1.6,3.4-2.6,7.3-1,11.1s5.3,6.1,9.3,7.1c4,1.1,8.8,1.3,14.9,1.1c7.6-0.3,17.3-1.5,29.5-3.6c-1.9,1.5-3.7,3-5.2,4.3
		c-5.8,5.1-9.3,8.7-10.8,13.6c-0.7,2.4-0.5,5.4,0.7,7.6c1.2,2.3,3,3.7,4.9,4.7c3.6,2.1,7.7,3.2,12.3,4.5c8.5,2.4,19.3,3.5,29.3,4.5
		c-2.2,3.7-3.4,7.6-3.7,11.6c-0.4,7,2.4,13.6,6.9,19.4c9,11.5,24.8,20.9,43,28.7s38.6,13.8,56.9,17.1c18.3,3.3,34,4.4,44.7,0.8
		c6.7-2.3,12.4-6.7,16.2-12.6c-6.3,0.4-12.5,1-18.7,1.9c-20.3,2.8-33.4,7.4-41.4,14c-4,3.3-6.7,7.3-7.5,11.8
		c-0.8,4.5,0.5,9,2.9,12.8c4.8,7.5,13.8,13.2,25.4,17.5c9.7,3.6,21.4,6,34.1,6.7c-1.2,4.4-1.6,8.4-1.2,12.1
		c0.6,5.6,3.3,10.5,7.3,13.7c8,6.2,19.3,6.5,31.4,5.5c12.1-1,25.4-3.7,37.2-6.2c1.9-0.4,3.8-0.8,5.6-1.1c-6.1,5-10.2,9.6-12.8,14
		c-2.4,4-3.5,8.5-2.1,12.6c1.4,4.2,5.1,6.8,8.9,8.2c7.7,2.8,18,2.6,30.6,0.6c6.4-1,13.2-2.6,20.5-4.6c-0.9,1.6-1.7,3.2-2.3,4.8
		c-2.7,7.3-0.9,15,3.7,20.2c9.2,10.4,26.8,14.1,45.9,13.1l-5.8-4.7c0,0,0,0,0,0c1,7.5,3.1,15.1,7.5,21.9c3.6,5.3,8.6,9.1,14,11.1
		c11.2,3.9,22.7,2.5,29.1,1.7c7.1-0.9,11.3-1.6,11.3-1.6s-4.3-0.5-11.3-1.3c-6.3-0.7-17.7-1.7-25.8-6.3c-3.6-1.9-6.7-5.1-8.7-8.9
		c-2.9-5.2-4-11.4-5.1-18.3c0,0,0,0-0.8-5.1c-1.7,0.2-3.3,0.3-5,0.4c-17,0.9-32.2-3.8-37-9.3c-2.4-2.8-3.1-5-1.6-9.1
		c1.5-4.1,6-10,15.1-16.8l34.1-25.2l-39.4,15.6c-14.5,5.8-28.5,9.6-40.1,11.5c-11.6,1.9-21,1.4-25,0c-2-0.7-2.3-1.3-2.3-1.4
		s-0.3-1,1.2-3.4c2.8-4.8,11.8-13.3,28.4-23.9c3.9-2.5,7.9-4.9,12-7.2c-4.7-2-9.8-3-15-3c-7.7,0-18.1,2.3-30,4.8s-24.8,5.1-35.9,6
		c-11.1,0.9-20.1-0.4-23.7-3.2c-1.8-1.4-2.8-2.9-3.1-6s0.4-7.9,3-14.3c1.1-2.7,2.3-5.3,3.7-7.9c-3,0.2-5.9,0.3-8.9,0.3
		c-14.5,0-27.7-2.5-37.9-6.2c-10.2-3.7-17.3-9-19.9-13c-1.3-2-1.5-3.5-1.3-4.9c0.2-1.4,1.1-3.1,3.7-5.2c5.1-4.2,16.7-8.9,35.9-11.6
		l-2.5-10.7c-6.3,2.1-21.7,1.9-39.2-1.2c-17.5-3.2-37.3-9-54.6-16.4c-17.2-7.4-31.8-16.6-38.6-25.4c-3.4-4.4-4.8-8.3-4.6-12
		c0.2-3.7,2-7.8,7-12.5c3.2-3,6.9-5.5,10.8-7.4c-4.6-0.8-9.3-1.5-14-2.1c-12.9-1.6-28.3-2.7-37.6-5.3c-4.5-1.3-8.2-2.5-9.7-3.4
		c-0.8-0.4-0.8-0.7-0.7-0.4c0.2,0.3,0.1,1,0.2,0.7c0.1-0.5,2.2-3.8,7.4-8.4c5.2-4.5,13.3-10.6,24.8-18.4
		c8.7-5.9,17.6-11.7,26.7-17.2c-10.3,2.6-20.6,5-30.9,7.2c-24.4,5.2-41.6,7.9-52.6,8.3c-5.5,0.2-9.4-0.1-11.6-0.7
		c-2.2-0.6-2.1-1-1.9-0.7c0.1,0.3-0.2-0.2,0.8-2.1c0.9-1.9,2.8-4.6,5.5-7.8c5.4-6.4,14-14.5,24.1-23.6l20.7-18.8l-26.3,9.5
		c-9.9,3.6-17.5,3.5-24,1.4c-6.5-2.2-12-6.6-16.9-13c-9.9-12.8-16.6-33.1-21.9-52.4l-25.5-93.4l14.7,95.7
		c1.8,11.4,1.8,19.1,1.1,22.7c-0.3,1.8-0.9,2.3-0.5,1.9c0.4-0.3,1.7-0.4,1.5-0.5c-0.4-0.1-4.3-2.8-8.2-7.9
		c-4-5.1-8.6-12.4-13.4-21.1c-19-35-39.9-93.6-39.9-137.7l0.1-75.2l-11.1,74.3c-2.1,13.9-4.3,23.9-6.5,30.7c-2.2,6.7-4.8,9.9-5,10.1
		c-0.1,0.1,0.7-0.2,1.1-0.1c0.3,0.1-0.1,0-0.7-0.8c-1.4-1.6-3.4-5.7-5.2-11c-3.5-10.7-6.3-26.5-7.2-41.9c-0.9-15.4,0.1-30.5,3.1-39
		l7.7-21.9l-16.7,16.1c-11.3,10.8-22.6,18.8-32.4,23.5s-18,6.2-22.1,5.2c-2.1-0.5-3-1.2-3.7-2.3c-0.7-1.1-1.3-3-1-6.3
		c0.6-6.6,5.2-18.1,15.6-33.4l20.6-30.1l-28.6,22.6c-17.8,14.1-32.2,18.4-40.3,17.5c-4.1-0.4-6.5-1.9-8.1-4s-2.5-5.1-2.1-9.4
		c1-10.9,11.6-28.9,36.6-46.3l-6.4-9c-12.2,8.7-38,19.2-62.7,23.1c-12.3,1.9-24.4,2.3-34.3,0.3c-9.9-1.9-17.5-6-22.1-12.6
		c-2.4-3.4-2.2-4-1.5-5.3c0.8-1.3,4.2-4.1,10.8-6.7c13.3-5.3,38.1-10.8,73.9-18.3l72.9-15.3l-74.4,4.4
		c-30.9,1.8-86.6-6.7-126.7-18.3c-20.1-5.8-36.5-12.7-43.3-18.1c-1.7-1.3-2.7-2.6-3.1-3.3c-0.4-0.7-0.3-0.7-0.3-0.7
		c0-0.1,1.6-2.5,7.6-4.9c11.1-4.4,34.4-9.6,72.9-14.8c18.8-2.6,37.6-4.7,56.5-6.4c-18.8,0.3-37.7-1.3-56.2-4.6
		c-31.1-5.5-111.4-24.9-157-44.5c-12-5.2-21-11.4-25.1-16.5c-2.1-2.6-2.9-4.7-3-6c-0.1-1.3,0.2-2.2,1.8-3.8c3.3-3.1,13.3-7,31-8
		c17.7-1.1,43,0.3,77,5.3l111.8,16.4l-109.7-27.3c-61.5-15.3-112.3-30.7-145.9-43.4c-16.8-6.4-29.3-12.2-36.4-16.6
		c-3.5-2.2-5.6-4.3-5.9-4.8c-0.2-0.3,0.1,0.1,0,0.9c-0.1,0.8-0.7,1.5-0.7,1.5c10.9-8.9,39.2-16.4,80.4-16
		c41.3,0.4,95.7,8.1,159.9,26.8l48.3,14.1l-44.1-24.3c-25-13.7-44.3-28.2-56.9-39.1c-6.3-5.5-10.9-10.1-13.5-13.2
		c-1.3-1.5-2.1-2.8-2.3-3c-0.1-0.1,0.2-0.1,0.2,1.2c0,0.7-0.1,1.9-1,3.2c-0.9,1.3-2.5,1.9-3.4,2.1l0,0l0,0
		c21.3-3.2,60.2,10.1,96.5,28.8c36.3,18.7,70.8,42.6,85.4,57.5l19,19.4l-10-25.3c-1.6-4.1-1.1-8.1,0.8-10.8c1.9-2.7,5-4.6,10.6-4
		c11.4,1.1,33,14.7,58.5,58c97.9,166.2,193.1,334.8,327.5,472.5c53.7,54.9,141.8,121.5,227.4,162c42.7,20.2,84.4,33.7,117,46.9
		c17.6,7.1,45,25,58.2,28.3C2037.6,1655.4,1993.6,1622.7,1972.3,1614.1z"/>
	<path id="path4807" class="st2" d="M1207.5,902.5c16.1,16.6,28,30.4,38.4,44.9c9.4,13.2,14.7,22.9,14.7,22.9s-2.6-10.7-9.9-25.7
		c-7.6-15.7-19.1-33.2-35.2-49.8c-37.3-38.4-89-72.2-150.4-102.3c-44.7-21.9-94.7-46.6-148.1-78.5
		c-98.3-58.7-202.8-147.7-320.8-279.7c-63.5-71-168.2-215.2-238.7-295c-17.6-19.9-33.1-35.9-45.6-45.8c-6.3-5-11.8-8.6-17.1-10.4
		c-2.7-0.9-5.3-1.4-8.1-1c-2.8,0.4-5.5,1.9-7.4,4.1c-3.7,4.4-4.4,10.3-4,17.8c0.3,7.6,2,17.1,5.1,29.2
		c6.1,24.3,17.9,58.7,36.6,105.8C403,456.8,547.7,652.1,739.1,764.3c-129.4-51.7-230.2-128.4-326.4-186.2
		c-80.2-48.2-199.3-141.8-273.6-215c-28.7-28.3-50-44.5-66.3-51.5c-8.2-3.5-15.3-4.9-21.6-3.4c-6.3,1.4-11.2,6.1-13.8,11.9
		c-5.2,11.6-4.1,28,0.1,47.9c4.2,19.9,11.8,43.1,21.7,67.1c53.9,131.2,181.1,228.5,292.7,298.2c-68.8-32.6-137.5-81-192.5-120
		c-35.8-25.4-65.6-46.7-87-57.4c-10.7-5.4-19.2-8.7-27.1-6.8c-4,0.9-7.6,3.9-9.4,7.8c-1.7,3.9-2,8.3-1.5,13.5
		c2.3,24.7,20.3,60,50.4,100.7c30.1,40.7,72.4,86.3,124,129.2c41.8,34.7,88.9,67.6,138.9,94.5c-42.5-16.9-79.4-35.5-109.9-52.2
		c-26.7-14.6-48.4-27.8-64.7-37.2c-8.2-4.7-15-8.4-20.6-10.9s-9.7-4.4-14.9-3.2c-8.9,2.1-16.2,6.4-20.3,13.4s-4.6,15.9-2.2,26.2
		c4.7,20.5,20.7,48.1,49.7,86.1c74.6,97.6,161.6,156.8,269.1,187.1c-37.8-4.7-69.7-11.1-95.5-17.2c-41.9-9.8-65.5-12-79.2-7.6
		c-3.4,1.1-6.4,2.8-8.6,5.2c-2.2,2.5-3.3,5.7-3.4,8.9c-0.1,6.2,3,11.9,7.4,17.9c17.4,24.1,60.6,55.2,85.8,73.4
		c51.5,37.2,117,65.5,183.2,83.4c53.1,14.3,103.7,26.3,153.8,34c-42.6,1-84.7,0.8-120.9,1.2c-28.2,0.3-52.9,1.1-71.6,3.3
		c-9.4,1.1-17.3,2.5-23.6,4.5c-6.3,2-11.5,4.5-14.4,9.5c-2.9,4.9-4,10.5-3.1,15.8c0.9,5.3,3.6,10.3,7.5,14.9
		c7.8,9.3,20.5,17.7,37,25.8c33.1,16.1,81.7,30.5,137.2,40.6c39.1,7.1,67.1,10.7,103.7,10.6c-11.9,3-22.2,5.9-31,8.8
		c-23,7.5-36.2,14.1-42.3,23l0,0l0,0c-2.3,3.4-3.5,7.3-3.2,11.2c0.4,3.9,2.2,7.4,4.7,10.4c5.1,6,13.2,10.7,23.9,15
		c21.3,8.6,53,15,90.3,18.1c74.6,6.1,171.3-1.3,247.8-36.1c18.3-8.3,35.8-18.4,52.3-30c-19,6.1-37.8,12.7-56.5,19.8
		c-45.1,17.1-74.1,31.1-90,42c-7.9,5.4-13,9.4-14.8,15.5c-0.9,3,0,7.2,2.4,9.5c2.4,2.3,5.2,3.2,8.3,3.8h0l0,0
		c9.8,1.9,20.7-1.9,38.3-7.1c5.7-1.7,12.1-3.5,19.2-5.5c-14.5,7.7-24.6,14.7-31.1,21.1c-6.3,6.3-9.8,12.8-8.6,19.5
		c1.3,6.7,6.8,11,13.5,13.9c13.4,5.7,34.2,7.5,58.5,6.6c14.9-0.5,31.1-2.2,47.3-4.8c-0.9,0.7-1.7,1.4-2.5,2.1
		c-6.5,5.8-10.5,11.4-11.3,17.5c-0.8,6.2,2.5,11.9,7.2,15.7c4.7,3.8,10.8,6.5,18,8.7c16.5,5.2,39,8,60.3,9.4
		c-42.7,9.9-72,17.7-89.2,29.9c-7.4,5.3-12.4,10.5-14.9,16.4c-2.5,5.9-1.9,12.5,1.3,17.6c6.5,10.3,20.8,16.2,40.1,20.3
		c28,6,67.5,7.2,111.5,1.3c-13.5,6.1-24.8,11.7-34,16.8c-18.5,10.5-29.4,18.8-31.5,29.8c-1.1,5.5,1.1,11.1,4.9,15.3
		s9.3,7.6,16.2,10.9c13.9,6.6,34.1,12.8,60,19.6c43.6,11.5,84.7,8.6,123.6,3.4c-0.7,1.2-1.3,2.5-1.4,4.1c-0.2,3.1,1.5,5.8,3.3,7.4
		c1.8,1.6,3.8,2.5,6,3.4c4.5,1.7,10.2,2.8,16.9,3.7c9.5,1.2,20.9,1.8,32.4,1.8c-11.7,2.1-23.4,3.3-34.2,4.2
		c-13.5,1.1-25.6,1.8-35.1,3.2c-4.8,0.7-8.9,1.6-12.5,3s-7,3.6-8.6,7.5c-1.6,4-1.6,8.5-0.2,12.5c1.5,4,4.1,7.4,7.6,10.6
		c7,6.4,17.3,11.9,30.5,16.7c21.9,8,51.5,13.9,85.7,15.9c-0.1,0.1-0.1,0.1-0.2,0.2c-2.2,1.8-3.9,3.8-4.9,6.3c-1,2.6-0.7,5.8,0.5,8.1
		c2.5,4.7,6.8,6.7,11.9,8.6c5.1,2,11.3,3.5,18.3,4.8c18.2,3.4,41.1,5.3,59.2,5.6c-4.3,2.9-7.6,5.8-10.1,8.7
		c-2.7,3.2-4.5,6.8-4.3,10.8s2.7,7.4,5.7,9.6c6,4.4,14.5,6.4,25.7,7.7c11.2,1.4,24.9,1.8,40.2,1.4c39.3-1.1,77.2-6.9,112.3-15.2l0,0
		c35.6-8.4,64.6-17.6,90-27.8l0,0c39-15.6,56.8-33.1,56.8-33.1s-19.2,15.6-58.4,28.9l0,0c-25.9,8.7-54.5,16.2-90.3,23.3c0,0,0,0,0,0
		c-34.9,7-72.1,11.8-110.7,12.9c-15,0.4-28.2,0-38.6-1.3c-10.4-1.3-17.9-3.7-20.5-5.7c-1.3-1-1.2-1.2-1.2-1.3c0-0.1,0.1-1.1,1.7-3.1
		c3.3-3.9,12-10,26.8-17.1l30.6-14.7l-33.7,4.2c-12.4,1.5-52.9,0.3-79.2-4.7c-6.6-1.2-12.3-2.7-16.4-4.3c-4.1-1.6-6.2-3.6-6.1-3.5
		c0,0.1,0.1,0.9,0.1,0.9c0,0.1,0.3-0.6,1.5-1.7c2.4-2,8-5,16.9-8.3l28.6-10.4l-30.5-0.3c-42.2-0.4-79.1-7-103.8-16
		c-12.4-4.5-21.6-9.7-26.8-14.4c-2.6-2.4-4.1-4.6-4.7-6.3c-0.6-1.7-0.6-2.9,0-4.5c0,0.1,0.4-0.6,2.5-1.5c2.2-0.9,5.6-1.7,10-2.3
		c8.7-1.3,20.8-2,34.4-3.2c27.3-2.3,61-6.4,88.8-22.2l60.5-34.4l-65.2,24.5c-7.2,2.7-21.8,4.8-37.3,5.6s-32.2,0.3-44.5-1.3
		c-6.2-0.8-11.3-1.9-14.4-3.1c-1.5-0.6-2.5-1.2-2.7-1.3c-0.2-0.2,0.6,0.7,0.5,1.8c-0.1,1.1-0.5,1.1,0.2,0.5c0.7-0.6,2.3-1.7,4.7-2.8
		c4.8-2.3,12.8-5.2,24.5-8.3l89.5-24l-91.7,13.2c-50.4,7.2-102.1,16.9-157.5,2.3c-25.7-6.8-45.5-12.9-58-18.9
		c-6.2-3-10.6-6-12.9-8.4s-2.6-3.8-2.2-5.7c0.7-3.8,8.4-12.3,26.1-22.3s44.5-21.9,81.2-36.5l75.4-30l-78.8,19.5
		c-62.7,15.5-122.3,16.2-158.4,8.5c-18.1-3.9-29.8-10.4-33.1-15.4c-1.6-2.5-1.8-4.3-0.5-7.3c1.3-3,4.8-7.2,11.2-11.8
		c18-12.8,61.1-22.5,126.9-37.7c22.3-5.1,44.5-10.3,66.8-15.5c-22.5,3-45.3,4.5-68,4.5c-27.2,0-74.2-2.2-100-10.3
		c-6.5-2-11.5-4.5-14.4-6.8c-2.9-2.3-3.4-3.7-3.2-5.7c0.2-2,2.2-5.8,7.6-10.6c5.5-4.8,14.2-10.6,26.7-17.1l41.6-21.7l-45.5,11.5
		c-24.8,6.3-51.8,9.9-75.3,10.8c-23.5,0.8-43.7-1.4-53.7-5.7c-5-2.2-6.7-4.3-7-5.8c-0.3-1.4,0.5-4.6,5.5-9.6
		c10.1-10,35.4-24.7,80.4-42.5c18.1-7.1,36.4-13.6,54.9-19.4c-19.4,2.2-38.8,5.2-58,8.9c-34.2,6.6-58.8,13.8-76.4,18.9
		s-28.4,7.7-33.1,6.8c-2-0.4-2.8-1-2.6-0.8c0.2,0.2,0.5,1.7,0.5,1.6c0.1-0.3,3.3-4.7,10.4-9.6c14.3-9.8,43-23.9,87.7-40.8l-4.2-10.2
		c-73.8,33.6-169.2,41.1-242.3,35.1c-36.5-3-67.6-9.5-87.1-17.3c-9.8-3.9-16.5-8.3-19.5-11.9c-1.5-1.8-2-3.2-2.1-4.3
		c-0.1-1.1,0.1-2.2,1.3-3.9c2.8-4,14.5-11.5,36.6-18.8c22.2-7.2,54.6-15,99.3-22.8l115.4-20.3l-116.8,9.4c-79.7,6.4-111.9,3.9-172-7
		c-54.7-9.9-102.8-24.2-134.3-39.6c-15.8-7.7-27.3-15.8-33.4-23c-3-3.6-4.6-6.9-5.1-9.7c-0.5-2.8-0.1-5.3,1.7-8.3
		c0.5-0.8,3.1-2.9,8.3-4.6c5.2-1.7,12.5-3,21.5-4.1c17.9-2.1,42.4-2.8,70.5-3.2c56.2-0.7,127.3,0.3,192.6-4.5
		c32.4-2.4,64.6-6.2,96.6-11.6c-32.2,2.4-64.4,2.6-96.6,0.6c-72.4-4.6-144.7-20.4-222.6-41.4c-65.1-17.6-129.6-45.5-179.6-81.7
		c-25.2-18.2-68.5-50.5-83.3-70.9c-3.7-5.1-5.3-9.4-5.3-11.2c0-0.9,0.1-1.2,0.6-1.7c0.5-0.5,1.5-1.3,3.6-2
		c8.5-2.7,32.1-1.8,73.3,7.9c43.7,10.2,105.1,21.7,182.8,23.8c38.8,1.1,77.6-0.3,116.2-4.2c-38.5,0.8-77.1-1.5-115.3-6.8
		c-145.3-20.3-254.4-80.4-346-200.3c-28.7-37.5-43.8-64.7-47.7-81.9c-2-8.6-1.2-14.3,1-18.1c2.2-3.8,6.2-6.5,13.2-8.2
		c-0.6,0.1,2.9,0.3,7.8,2.6c4.9,2.2,11.6,5.8,19.6,10.4c16.1,9.2,38,22.5,64.9,37.3c53.8,29.6,128,65.2,218,87.1l139.7,34
		l-136.7-44.6c-85.9-28-169.1-80-237.7-136.9c-50.9-42.3-92.7-87.3-122.2-127.2s-46.4-75.1-48.3-95.1c-0.4-4.1,0.1-6.8,0.6-8
		c0.5-1.2,0.6-1.2,1.8-1.5c2.3-0.6,9.8,1,19.7,5.9c19.8,9.9,49.8,31.2,85.6,56.6c71.5,50.7,166.5,118,257.2,145.9
		c12.8,3.9,25.7,7.2,38.8,9.7c-11.5-6.5-23-13.1-34.4-19.7C293.4,687.5,130.8,580.5,69.3,430.8c-9.7-23.5-17.1-46.3-21.1-65.2
		s-4-34.1-0.8-41.1c1.6-3.5,3.3-5,6.2-5.6c3-0.7,7.9-0.2,14.7,2.8c13.8,5.9,34.7,21.4,63,49.2c75.2,74,194.2,167.6,275.7,216.5
		C519.3,655,640,750.2,807.5,799.8c26.1,7.7,52.6,14.1,79.3,19.2c-25.7-8.4-50.8-18.3-75.4-29.5c-221.7-101.4-389-313.8-484.2-554.3
		c-18.5-46.9-30.2-81.1-36.1-104.5c-3-11.7-4.5-20.7-4.8-27c-0.3-6.3,1-9.6,1.4-10.2c0.2-0.3,0.1-0.2,0.5-0.3s1.4,0,3,0.5
		c3.1,1,8,3.9,13.7,8.5c11.5,9.2,26.8,24.8,44.2,44.5c69.7,78.9,174.3,223,238.8,295C706.4,574.3,811.7,664,911.3,723.5
		c53.9,32.2,104.2,57,148.9,78.9C1120.9,832.2,1171.5,865.5,1207.5,902.5L1207.5,902.5z"/>
	<path id="path4814" class="st2" d="M763.7,839.1c3,0,6,0.2,9.1,0.4c19.1,1.4,37.8,3,51.7,3.9c13.9,0.9,23,1.1,23,1.1
		s-8.7-2.5-22.3-5.9c-13.2-3.3-32.2-7.7-51.5-9.9c-3.3-0.4-6.7-0.6-10.2-0.6c-6.7,0-12,0.1-15.8,4.9c-1.9,2.4-2.4,5.9-1.6,8.6
		c0.7,2.6,2.1,4.8,4,7.2c2.5,3.1,6,6.5,10.5,10.4c-21.2-8.1-38.5-13.4-52.2-16.3c-11.1-2.3-19.8-3.1-26.8-2.2
		c-6.9,0.9-12.9,3.8-15.3,9.4c-2.3,5.5-1.6,11.9,1.4,18.8s8.3,14.2,16.5,22.4c11.2,11.2,27.6,23.9,50.9,37.6
		c-15.7-3.7-30.1-7.7-42.5-13.3c-38.2-17.1-63.4-24.2-80.3-23.7c-8.4,0.3-15.3,2.7-19.6,7.7c-4.3,5-5.2,11.8-4.2,18.6
		c2,13.7,11.1,29.9,23.9,47.2c12.8,17.3,29.4,35.6,47,51.9c47.3,43.7,105,72,158.9,92.4c-37.7-7.7-76-16.6-120.7-18.3
		c-10.5-0.4-19,0.6-25.8,2.9c-6.8,2.4-12,6.4-14.9,11.8c-5.7,10.8-1.4,24,7.7,37.3c18.1,26.4,57.8,56.3,106.9,74.8
		c87.2,32.7,142.2,39.2,201,40.5c-28.9,3.4-53.4,5-73.4,6.3c-17.2,1.2-31,2.1-41.8,4c-10.7,1.9-19,4.5-23.6,11.3
		c-3.6,5.3-4.3,12-2.3,17.7c2.1,5.7,6.3,10.7,12,15.4c11.3,9.4,28.8,17.8,50,24.7c35.2,11.6,80.7,19,123.9,16.9
		c-5.7,3.9-10.3,7.6-13.8,11.4c-7.3,7.7-10.3,16.3-7.4,23.8c2.9,7.5,10.2,12.1,19.3,15.4c9.1,3.3,20.5,5.4,33.5,6.3
		c52,3.6,129.3-10.7,166.6-52.7c7-7.9,12.7-16.9,16.9-26.6c-8.5,5.9-16.7,12.1-24.6,18.7c-17.2,14.4-27.2,25.5-31.8,35
		c-2.3,4.7-3.4,9.3-2.4,13.6s4.2,7.8,8,9.7c7.3,3.5,16.6,3.1,27.5,0.9c-8.3,6.3-15.6,12.3-21.7,17.9c-13.5,12.3-22.1,22.3-22.8,33
		c-0.4,5.4,2.3,10.8,6.8,14.1c4.5,3.3,10.5,5.1,18.2,6.3c8.3,1.2,18.8,1.5,31.8,1c-20,9-32.9,17.3-40.4,25.5
		c-5.6,6.2-8.4,13.2-6.6,19.7c1.7,6.5,7.1,11.1,13.9,14.5c13.6,6.9,34.7,10.3,59.8,11c14.9,0.4,31.1-0.2,47.7-2
		c-3.8,2.3-7.2,4.5-10.3,6.7c-5,3.5-9,6.9-11.9,10.3c-3,3.3-5.1,6.6-5.5,10.8c-0.3,4.2,2.6,8.5,6.3,10.4c3.7,1.9,8,2.5,13.6,2.6
		c2,0,4.1,0,6.3-0.1c-8.1,4.2-14.8,8.3-20.2,12.1c-6.3,4.5-10.8,8.7-13.6,13.4s-3.4,10.7-0.8,15.4c2.6,4.7,7.2,7.9,13.1,10.6
		s13.6,5.1,23,7.2c14,3.2,31.9,5.8,53.9,8.1c-2.9,1.4-5.5,2.8-7.8,4.2c-7.2,4.5-12.1,9.6-13.5,15.9c-1.4,6.2,1.2,12.4,5.6,17.2
		c4.4,4.8,10.6,9,18.2,12.9c40.1,20.8,64.7,29.9,129.9,29.6c-1.9,0.9-3.6,1.8-5.3,2.7c-9,4.9-14.8,10.2-16.2,17.1
		c-1.5,6.9,2.5,13.3,8.1,17.8c5.5,4.6,13.1,8.4,22.1,11.9c28,11,69.8,18.8,100.3,21.7c-3.8,2.2-7.1,4.4-9.8,6.7
		c-6.8,5.6-10.8,12.1-10.7,18.9s4.1,12.7,9.6,17.4c5.6,4.7,13,8.6,21.7,11.9c27.4,10.5,68,16,103.5,12.2c-0.8,1.1-1.5,2.2-1.9,3.5
		c-1,2.7-0.6,6.2,0.9,8.5c3.1,4.8,8,6,13.9,7.2c5.9,1.2,13.2,1.8,21.6,1.9c32.3,0.5,63.2-4.9,89.5-11.4c16.6-4.1,29.6-8.4,40.9-13.5
		c17.7-7.8,24.4-16.5,24.4-16.5s-7.8,7.4-25.6,13.2c-11.7,3.8-24.4,6.7-41.2,9.5c-26.5,4.5-56.7,8.1-87.8,7.6
		c-8-0.1-14.8-0.7-19.6-1.7c-4.8-1-7.2-2.9-6.9-2.4c0.2,0.2,0.2,1.4,0.2,1.3c0,0,0.5-1,1.9-2.2c2.8-2.5,8.9-6.3,18.4-10.7l68.8-31.7
		l-72.7,21.3c-36.2,10.6-92.5,5.7-124.4-6.6c-8-3.1-14.4-6.6-18.6-10.1c-4.1-3.5-5.7-6.5-5.7-9c0-2.5,1.4-5.9,6.7-10.3
		c5.3-4.4,14.3-9.3,27.4-14.3l28.3-10.7h-30.3c-25.9,0-85.4-9-118.9-22.2c-8.4-3.3-15.1-6.9-19.1-10.2c-4-3.3-4.7-5.3-4.3-7
		c0.4-1.7,3-5.5,10.7-9.7s19.9-8.8,37.2-13.5l48.5-13l-50.2,2.2c-92.8,4-114.2-3.4-160.4-27.4c-6.9-3.6-12.1-7.3-15.1-10.5
		c-2.9-3.2-3.5-5.3-3-7.3c0.5-2,2.7-5.3,8.6-9c5.9-3.7,15.2-7.7,28.1-11.6c12.4-3.7,25-6.4,37.8-8.1c-13-0.7-26-1.6-38.9-2.7
		c-33-2.8-58.7-6.1-76.5-10.1c-8.9-2-15.9-4.2-20.8-6.5c-4.9-2.2-7.3-4.6-8.1-5.9c-0.7-1.3-0.8-1.9,0.6-4.4s5-6,10.6-10
		c11.2-8,30.5-17.7,57.5-29.1l68.8-28.9l-72.3,18.4c-21.6,5.5-37.1,7.7-46.3,7.5c-4.6-0.1-7.6-0.9-8.7-1.4c-1.1-0.6-0.3,0.3-0.3,0.2
		c0-0.1,0.6-1.9,2.7-4.3c2.1-2.4,5.5-5.4,10-8.6c9.1-6.4,22.6-13.9,39.8-21.3l48-20.8l-51.3,10.3c-27.5,5.5-55.8,7.7-80,7.1
		s-44.5-4.4-55.1-9.8c-5.3-2.7-7.7-5.5-8.2-7.5c-0.5-2-0.1-4.7,4.1-9.4c8.4-9.2,31.1-22.3,71.9-36.8l47.9-17l-50.5,6.3
		c-31.6,3.9-53.9,4.6-67.3,2.6c-6.7-1-11.2-2.7-13.3-4.3c-2.2-1.6-2.4-2.4-2.3-4.4c0.3-4.1,6.5-14,19.3-25.6s31.4-25.6,54.7-41.2
		l85.7-57.7l-91.3,48.2c-12.6,6.7-25.2,11.3-35.6,13.5c-10.4,2.3-18.8,1.8-21.9,0.3c-1.6-0.8-1.8-1.2-2-2.1c-0.2-0.9-0.1-3,1.5-6.4
		c3.3-6.7,12.3-17.5,29-31.3l-7.7-7.9c-32.9,37-108.5,52.4-157.5,49c-12.3-0.8-22.9-2.8-30.5-5.6c-7.6-2.8-11.7-6.4-12.8-9.1
		c-1-2.7-0.6-6.1,5.1-12.2c5.7-6.1,16.5-13.6,33.2-21.9l31.1-15.5l-34.4,5c-48,7.1-104-0.6-144.7-14c-20.3-6.7-36.9-14.9-46.4-22.7
		c-4.7-3.9-7.6-7.7-8.7-10.7c-1.1-2.9-0.9-4.9,1-7.7c1.5-2.2,6.7-4.9,16.4-6.6c9.7-1.7,23.4-2.7,40.6-3.9
		c34.3-2.3,82.6-5.3,143.5-17.2c15.7-3,31.3-6.5,46.8-10.3c-15.9-0.4-31.9-0.6-47.8-0.6c-92.2-0.4-148.2,4.4-266.8-40.1
		c-47.3-17.7-85.7-47.3-101.7-70.6c-8-11.7-9.6-20.8-7-25.9c1.3-2.5,3.8-4.8,8.7-6.5c4.9-1.7,12.1-2.7,21.7-2.3
		c68.1,2.6,121.8,22.8,184.9,28.7c14.6,1.4,29.3,1.9,44,1.7c-14-4-27.9-8.2-41.8-12.5c-67.8-21.1-153.2-51.7-217.4-111.1
		c-17.1-15.8-33.3-33.7-45.6-50.3c-12.3-16.6-20.4-32.3-21.9-42.3c-0.7-5,0-7.9,1.7-9.8c1.6-1.9,4.9-3.6,11.5-3.8
		c13.2-0.4,37.9,5.9,75.4,22.7c24.5,11,54.2,15.8,84.7,23.3l49,12l-45.2-22.3c-42.8-21.1-69.6-40.2-84.5-55.2
		c-7.5-7.5-12-14-14.2-19.1c-2.2-5-2.1-8.3-1.3-10.1h0l0,0c0.4-0.8,1.5-2.1,6.4-2.7c4.9-0.6,12.7-0.1,23.2,2.1
		c20.8,4.4,52.1,15.1,94.4,34.3l61.4,27.7l-56.1-37.4c-26-17.3-41.9-29.9-47.1-36.4c-1.3-1.6-1.9-2.9-1.9-3.1
		c-0.1-0.3-0.1,0.9-0.5,1.4C755.6,840.8,758,839.1,763.7,839.1L763.7,839.1z"/>
</g>
</svg>
